<?xml version="1.0" encoding="UTF-8"?>
<!DOCTYPE svg PUBLIC "-//W3C//DTD SVG 1.1//EN" "http://www.w3.org/Graphics/SVG/1.1/DTD/svg11.dtd">
<svg version="1.1" id="Layer_1" xmlns="http://www.w3.org/2000/svg" xmlns:xlink="http://www.w3.org/1999/xlink" x="0px" y="0px" width="32px" height="32px" viewBox="0 0 32 32" enable-background="new 0 0 32 32" xml:space="preserve">
  <g id="icon">
    <path d="M16,0C7.2,0,0,7.2,0,16s7.2,16,16,16s16,-7.2,16,-16S24.8,0,16,0zM25,17.3c0,0.4,-0.3,0.7,-0.7,0.7h-6.3v6.5c0,0.3,-0.2,0.5,-0.5,0.5h-2.8c-0.4,0,-0.7,-0.3,-0.7,-0.7v-6.3H7.7c-0.4,0,-0.7,-0.3,-0.7,-0.6v-2.7c0,-0.4,0.3,-0.7,0.7,-0.7h6.3V7.5c0,-0.3,0.2,-0.5,0.5,-0.5h2.8c0.4,0,0.7,0.3,0.7,0.7v6.3h6.5c0.3,0,0.5,0.2,0.5,0.5V17.3z" fill="#E78155"/>
    <path d="M24.5,14h-6.5V7.7c0,-0.4,-0.3,-0.7,-0.7,-0.7h-2.8c-0.3,0,-0.5,0.2,-0.5,0.5v6.5H7.7c-0.4,0,-0.7,0.3,-0.7,0.7v2.7c0,0.3,0.3,0.6,0.7,0.6h6.3v6.3c0,0.4,0.3,0.7,0.7,0.7h2.8c0.3,0,0.5,-0.2,0.5,-0.5v-6.5h6.3c0.4,0,0.7,-0.3,0.7,-0.7v-2.8C25,14.2,24.8,14,24.5,14z" fill="#FFFFFF"/>
  </g>
</svg>
