<?xml version="1.0" encoding="UTF-8"?>
<!DOCTYPE svg PUBLIC "-//W3C//DTD SVG 1.1//EN" "http://www.w3.org/Graphics/SVG/1.1/DTD/svg11.dtd">
<svg version="1.1" id="Layer_1" xmlns="http://www.w3.org/2000/svg" xmlns:xlink="http://www.w3.org/1999/xlink" x="0px" y="0px" width="32px" height="32px" viewBox="0 0 32 32" enable-background="new 0 0 32 32" xml:space="preserve">
  <g id="icon">
    <path d="M17.4,14.1v0.5c0,1,0,1.8,-0.5,2.7c-0.4,0.7,-1,1.2,-1.8,1.2c-1,0,-1.5,-0.7,-1.5,-1.8C13.6,14.4,15.6,14.1,17.4,14.1zM32,16c0,8.8,-7.2,16,-16,16S0,24.8,0,16S7.2,0,16,0S32,7.2,32,16zM17.3,11.7v0.3c-1.5,0.2,-3.4,0.3,-4.8,0.9c-1.5,0.7,-2.6,2.1,-2.6,4.1c0,2.6,1.7,4,3.8,4c1.8,0,2.8,-0.4,4.2,-1.8c0.5,0.7,0.6,1,1.5,1.7c0.2,0.1,0.4,0.1,0.6,-0.1c0.5,-0.5,1.4,-1.3,1.9,-1.7c0.2,-0.2,0.2,-0.4,0,-0.7c-0.5,-0.6,-1,-1.2,-1,-2.4v-4c0,-1.7,0.1,-3.2,-1.1,-4.4c-0.9,-0.8,-2.5,-1.1,-3.8,-1.1c-2.4,0,-5.1,0.9,-5.7,3.9c-0.1,0.3,0.2,0.5,0.4,0.5l2.5,0.3c0.2,0,0.4,-0.2,0.4,-0.5c0.2,-1,1.1,-1.5,2,-1.5c0.5,0,1.1,0.2,1.4,0.7C17.4,10.4,17.3,11.1,17.3,11.7zM24,21.8c-2.5,1.3,-5.2,1.9,-7.7,1.9c-3.7,0,-7.2,-1.2,-10.1,-3.3c-0.1,0,-0.2,0,-0.2,0c-0.2,0,-0.3,0.2,-0.1,0.4c2.7,3,6.2,4.7,10.1,4.7c2.8,0,6,-1.1,8.3,-3.1C24.7,22.1,24.4,21.6,24,21.8zM26.2,20.3c-0.2,-0.3,-0.8,-0.4,-1.5,-0.4s-1.6,0.2,-2.2,0.8c-0.2,0.2,-0.2,0.4,0.1,0.4c0.7,-0.1,2.3,-0.3,2.6,0.1c0.3,0.5,-0.3,2.3,-0.6,3.1c-0.1,0.3,0.1,0.4,0.3,0.2C26.1,23.3,26.4,20.7,26.2,20.3z" fill="#EAB765"/>
    <path d="M16,6.5c-2.4,0,-5.1,0.9,-5.7,3.9c-0.1,0.3,0.2,0.5,0.4,0.5l2.5,0.3c0.2,0,0.4,-0.2,0.4,-0.5c0.2,-1,1.1,-1.5,2,-1.5c0.5,0,1.1,0.2,1.4,0.7c0.4,0.5,0.3,1.2,0.3,1.8v0.3c-1.5,0.2,-3.4,0.3,-4.8,0.9c-1.5,0.7,-2.6,2.1,-2.6,4.1c0,2.6,1.7,4,3.8,4c1.8,0,2.8,-0.4,4.2,-1.8c0.5,0.7,0.6,1,1.5,1.7c0.2,0.1,0.4,0.1,0.6,-0.1l0,0c0.5,-0.5,1.4,-1.3,1.9,-1.7c0.2,-0.2,0.2,-0.4,0,-0.7c-0.5,-0.6,-1,-1.2,-1,-2.4v-4c0,-1.7,0.1,-3.2,-1.1,-4.4C18.9,6.8,17.3,6.5,16,6.5L16,6.5zM17.4,14.1v0.5c0,1,0,1.8,-0.5,2.7c-0.4,0.7,-1,1.2,-1.8,1.2c-1,0,-1.5,-0.7,-1.5,-1.8C13.6,14.4,15.6,14.1,17.4,14.1L17.4,14.1zM24.7,19.9c-0.7,0,-1.6,0.2,-2.2,0.8c-0.2,0.2,-0.2,0.4,0.1,0.4c0.7,-0.1,2.3,-0.3,2.6,0.1c0.3,0.5,-0.3,2.3,-0.6,3.1c-0.1,0.3,0.1,0.4,0.3,0.2c1.2,-1.2,1.5,-3.8,1.3,-4.2C26,20,25.4,19.9,24.7,19.9L24.7,19.9zM6,20.4c-0.2,0,-0.3,0.2,-0.1,0.4c2.7,3,6.2,4.7,10.1,4.7c2.8,0,6,-1.1,8.3,-3.1c0.4,-0.3,0.1,-0.8,-0.3,-0.6c-2.5,1.3,-5.2,1.9,-7.7,1.9c-3.7,0,-7.2,-1.2,-10.1,-3.3C6.1,20.4,6,20.4,6,20.4L6,20.4z" fill="#FFFFFF"/>
  </g>
</svg>
