<?xml version="1.0" encoding="UTF-8"?>
<!DOCTYPE svg PUBLIC "-//W3C//DTD SVG 1.1//EN" "http://www.w3.org/Graphics/SVG/1.1/DTD/svg11.dtd">
<svg version="1.1" id="Layer_1" xmlns="http://www.w3.org/2000/svg" xmlns:xlink="http://www.w3.org/1999/xlink" x="0px" y="0px" width="32px" height="32px" viewBox="0 0 32 32" enable-background="new 0 0 32 32" xml:space="preserve">
  <g id="icon">
    <path d="M16,0C7.2,0,0,7.2,0,16s7.2,16,16,16s16,-7.2,16,-16S24.8,0,16,0zM13.6597,9.2302c0.1988,-0.2239,0.3414,-0.2847,0.6302,-0.2683c0.2114,0.0119,0.27,0.0341,0.6304,0.2385c0.6358,0.3606,0.8371,0.6168,0.7847,0.9992c-0.0252,0.1841,-0.0856,0.3044,-0.4976,0.9917c-0.1806,0.3014,-0.3392,0.5472,-0.3524,0.5462c-0.0132,-0.0009,-0.4503,-0.2632,-0.9714,-0.5827c-0.5891,-0.3612,-0.9477,-0.6018,-0.948,-0.6359C12.9346,10.4235,13.5109,9.3979,13.6597,9.2302zM5.6477,16.114c-0.0133,-0.4831,-0.019,-0.988,-0.0126,-1.122l0.0116,-0.2435l2.1656,-0.009c1.4528,-0.006,2.1656,0.0027,2.1656,0.0265c0,0.0195,-0.2286,0.4306,-0.508,0.9135c-0.2794,0.4829,-0.5644,0.9759,-0.6334,1.0955l-0.1255,0.2174H7.1915H5.672L5.6477,16.114zM9.1003,21.428c-0.1737,0.1531,-0.8316,0.7441,-1.462,1.3133c-0.6304,0.5692,-1.1594,1.035,-1.1754,1.035c-0.0648,0,-0.0638,-0.0733,0.0047,-0.3349c0.3206,-1.226,0.8959,-3.3779,0.941,-3.5199c0.0203,-0.0638,0.0564,-0.1103,0.0812,-0.1044c0.0837,0.0199,1.931,1.2629,1.9287,1.2978C9.4172,21.1341,9.274,21.275,9.1003,21.428zM9.7857,20.633c-0.0291,0.0089,-1.9617,-1.2281,-2.0479,-1.3107c-0.0179,-0.0172,0.0137,-0.1005,0.0747,-0.197c0.0581,-0.092,0.3632,-0.5743,0.6779,-1.0718c0.3147,-0.4975,0.8876,-1.4547,1.273,-2.1272c1.2158,-2.1214,2.9284,-5.0041,2.9796,-5.0155c0.0509,-0.0113,1.9663,1.1661,1.9663,1.2086c0,0.0132,-0.182,0.3283,-0.4045,0.7003c-1.0201,1.7057,-2.6627,4.5537,-3.9501,6.8489C10.0604,20.1933,9.8043,20.6273,9.7857,20.633zM19.9197,16.9643c-0.0131,0.0393,-7.5407,0.0572,-7.565,0.0179c-0.0094,-0.0152,0.2571,-0.524,0.5922,-1.1307l0.6092,-1.1031h2.5802h2.5802l0.6069,1.092C19.6572,16.4411,19.9255,16.9468,19.9197,16.9643L19.9197,16.9643zM20.499,16.8953c-0.0823,-0.0548,-1.4121,-2.3073,-3.9992,-6.7738c-1.6434,-2.8371,-1.5968,-2.7555,-1.6652,-2.9193c-0.1269,-0.3038,-0.0325,-0.6892,0.2167,-0.8841c0.1554,-0.1215,0.7429,-0.4636,0.9096,-0.5297c0.175,-0.0693,0.4457,-0.0559,0.6151,0.0305c0.215,0.1097,0.3335,0.2719,0.8347,1.1424c0.5085,0.8831,1.2736,2.2078,3.0107,5.2127c1.5804,2.7338,2.0459,3.5569,2.0459,3.6174c0,0.0622,0.0138,0.0536,-0.8697,0.5399c-0.3922,0.2159,-0.7916,0.4366,-0.8874,0.4905C20.6144,16.8758,20.5193,16.9088,20.499,16.8953zM21.8559,19.3332c-0.1097,-0.1189,-1.0972,-1.8598,-1.0865,-1.9154c0.0128,-0.0667,1.8933,-1.1638,1.9692,-1.1489c0.0287,0.0056,0.2184,0.2999,0.4216,0.6538c0.2032,0.354,0.4539,0.7894,0.5571,0.9676c0.1836,0.3172,0.1862,0.3253,0.1211,0.3863c-0.0365,0.0343,-0.4735,0.2938,-0.971,0.5767c-0.4975,0.2829,-0.9157,0.5206,-0.9293,0.5282C21.9244,19.3891,21.8875,19.3674,21.8559,19.3332zM25.0908,23.6618c-0.048,0.063,-0.0983,0.1143,-0.1117,0.114c-0.0711,-0.0016,-0.1204,-0.0788,-0.1682,-0.2636c-0.1491,-0.576,-0.4254,-0.9157,-1.1059,-1.36c-0.6597,-0.4307,-0.9561,-0.7396,-1.2289,-1.2808c-0.2697,-0.5351,-0.2861,-0.954,-0.0474,-1.2113c0.08,-0.0862,0.6183,-0.4187,1.1856,-0.7322c0.3639,-0.2011,0.6823,-0.1123,1.0581,0.2951c0.5067,0.5493,0.771,1.2214,0.8621,2.1927C25.6145,22.2694,25.4264,23.2217,25.0908,23.6618zM26.6143,17.0134L26.6143,17.0134c-0.0202,0.036,-0.2987,0.0477,-1.3296,0.0557c-0.7172,0.0057,-1.3668,0.0057,-1.4434,0l-0.1393,-0.0103l-0.6434,-1.1478c-0.3539,-0.6313,-0.6485,-1.1708,-0.6547,-1.1989c-0.0099,-0.0446,0.2584,-0.05,2.1047,-0.0422l2.1161,0.009l0.0076,1.1444C26.6364,16.4528,26.6283,16.9883,26.6143,17.0134z" fill="#529FBF"/>
    <path d="M7.6383,22.7413c0.6304,-0.5692,1.2883,-1.1602,1.462,-1.3133c0.1737,-0.1531,0.3169,-0.294,0.3181,-0.3131c0.0023,-0.0349,-1.845,-1.2779,-1.9287,-1.2978c-0.0248,-0.0059,-0.061,0.0406,-0.0812,0.1044c-0.0451,0.142,-0.6204,2.2939,-0.941,3.5199c-0.0684,0.2616,-0.0694,0.3349,-0.0047,0.3349C6.4789,23.7763,7.0079,23.3106,7.6383,22.7413L7.6383,22.7413zM25.0908,23.6618c0.3357,-0.4401,0.5238,-1.3924,0.4437,-2.2461c-0.0911,-0.9712,-0.3554,-1.6434,-0.8621,-2.1927c-0.3758,-0.4074,-0.6942,-0.4962,-1.0581,-0.2951c-0.5674,0.3135,-1.1056,0.6459,-1.1856,0.7322c-0.2387,0.2573,-0.2223,0.6761,0.0474,1.2113c0.2728,0.5412,0.5692,0.8501,1.2289,1.2808c0.6806,0.4443,0.9568,0.784,1.1059,1.36c0.0479,0.1848,0.0971,0.262,0.1682,0.2636C24.9925,23.7761,25.0427,23.7248,25.0908,23.6618zM10.3547,19.6686c1.2874,-2.2952,2.9299,-5.1432,3.9501,-6.8489c0.2225,-0.372,0.4045,-0.6872,0.4045,-0.7003c0,-0.0425,-1.9155,-1.2199,-1.9663,-1.2086c-0.0511,0.0113,-1.7637,2.8941,-2.9796,5.0155c-0.3854,0.6725,-0.9583,1.6297,-1.273,2.1272c-0.3147,0.4975,-0.6198,0.9798,-0.6779,1.0718c-0.061,0.0965,-0.0926,0.1799,-0.0747,0.197c0.0862,0.0826,2.0188,1.3196,2.0479,1.3107C9.8043,20.6273,10.0604,20.1933,10.3547,19.6686L10.3547,19.6686zM22.8674,18.8533c0.4975,-0.2829,0.9344,-0.5424,0.971,-0.5767c0.0651,-0.061,0.0625,-0.0691,-0.1211,-0.3863c-0.1032,-0.1782,-0.3538,-0.6136,-0.5571,-0.9676c-0.2032,-0.354,-0.3929,-0.6482,-0.4216,-0.6538c-0.0759,-0.0149,-1.9563,1.0822,-1.9692,1.1489c-0.0107,0.0555,0.9768,1.7965,1.0865,1.9154c0.0315,0.0342,0.0685,0.0559,0.0821,0.0483C21.9517,19.3739,22.3699,19.1362,22.8674,18.8533L22.8674,18.8533zM26.6143,17.0134c0.014,-0.0251,0.0221,-0.5606,0.0179,-1.19l-0.0076,-1.1444l-2.1161,-0.009c-1.8464,-0.0078,-2.1146,-0.0025,-2.1048,0.0421c0.0062,0.0281,0.3008,0.5676,0.6547,1.1989l0.6434,1.1478l0.1393,0.0103c0.0766,0.0057,0.7261,0.0057,1.4434,0C26.3156,17.061,26.5941,17.0493,26.6143,17.0134L26.6143,17.0134zM19.9197,16.9643c0.0058,-0.0175,-0.2625,-0.5232,-0.5963,-1.1238l-0.6069,-1.092h-2.5802h-2.5802l-0.6092,1.1031c-0.3351,0.6067,-0.6016,1.1155,-0.5922,1.1307C12.379,17.0214,19.9066,17.0036,19.9197,16.9643L19.9197,16.9643zM8.8366,16.775c0.069,-0.1196,0.354,-0.6126,0.6334,-1.0955c0.2794,-0.4829,0.508,-0.894,0.508,-0.9135c0,-0.0238,-0.7129,-0.0325,-2.1656,-0.0265l-2.1656,0.009l-0.0116,0.2435c-0.0064,0.1339,-0.0007,0.6388,0.0126,1.122l0.0242,0.8784h1.5196h1.5196L8.8366,16.775zM21.5976,16.3314c0.8835,-0.4863,0.8697,-0.4777,0.8697,-0.5399c0,-0.0606,-0.4655,-0.8837,-2.0459,-3.6174c-1.7372,-3.005,-2.5022,-4.3296,-3.0107,-5.2127c-0.5012,-0.8705,-0.6198,-1.0328,-0.8347,-1.1424c-0.1693,-0.0864,-0.44,-0.0998,-0.6151,-0.0305c-0.1667,0.066,-0.7542,0.4081,-0.9096,0.5297c-0.2492,0.1949,-0.3436,0.5803,-0.2167,0.8841c0.0685,0.1639,0.0219,0.0822,1.6652,2.9193c2.5871,4.4665,3.917,6.7189,3.9992,6.7738c0.0203,0.0136,0.1154,-0.0194,0.2112,-0.0733C20.806,16.7681,21.2054,16.5473,21.5976,16.3314zM15.2075,11.1913c0.412,-0.6874,0.4723,-0.8077,0.4976,-0.9917c0.0524,-0.3824,-0.1488,-0.6386,-0.7847,-0.9992c-0.3605,-0.2044,-0.4191,-0.2266,-0.6304,-0.2385c-0.2888,-0.0163,-0.4314,0.0444,-0.6302,0.2683c-0.1489,0.1677,-0.7251,1.1933,-0.7241,1.2887c0.0003,0.0341,0.359,0.2746,0.948,0.6359c0.5211,0.3196,0.9582,0.5818,0.9714,0.5827C14.8683,11.7384,15.0269,11.4926,15.2075,11.1913L15.2075,11.1913z" fill="#FFFFFF"/>
  </g>
</svg>
