<?xml version="1.0" encoding="UTF-8"?>
<!DOCTYPE svg PUBLIC "-//W3C//DTD SVG 1.1//EN" "http://www.w3.org/Graphics/SVG/1.1/DTD/svg11.dtd">
<svg version="1.1" id="Layer_1" xmlns="http://www.w3.org/2000/svg" xmlns:xlink="http://www.w3.org/1999/xlink" x="0px" y="0px" width="32px" height="32px" viewBox="0 0 32 32" enable-background="new 0 0 32 32" xml:space="preserve">
  <g id="icon">
    <path d="M16,0C7.2,0,0,7.2,0,16s7.2,16,16,16s16,-7.2,16,-16S24.8,0,16,0zM13.2,21.7c-0.1,0,-1.2,0.2,-1.4,0.2s-0.2,-0.1,-0.2,-0.2c0,-0.3,0,-2,0,-2l-2.6,0.4c0,0,-1,2.2,-1,2.3s-0.1,0.1,-0.2,0.1c-0.4,0.1,-1.8,0.3,-1.9,0.3c-0.2,0.1,-0.3,0,-0.2,-0.2c0,-0.2,6,-12.4,6.4,-13.3c0.1,-0.3,0.4,-0.4,0.4,0c0.1,0.8,0.9,11.7,1,12.1C13.5,21.6,13.5,21.7,13.2,21.7zM18.8,13.7c0,0.1,-0.4,1.2,-0.4,1.2s-0.6,-0.4,-0.9,-0.4c-0.4,0,-0.5,0.1,-0.7,0.3c-0.1,0.2,-0.3,0.6,-0.1,0.9c0.1,0.1,0.2,0.3,1.1,1.1c1.1,1,0.9,2.3,0.5,3c-0.3,0.6,-1,1.2,-1.8,1.4c-1.1,0.2,-1.8,0.1,-2.2,-0.1c-0.3,-0.1,-0.3,-0.2,-0.2,-0.5s0.4,-1.4,0.4,-1.4s0.2,0.5,0.9,0.6s1.1,-0.2,1.3,-0.5c0.1,-0.3,0.2,-0.9,-0.8,-1.8c-0.5,-0.4,-0.8,-0.8,-0.9,-1.2s-0.2,-1.2,0.2,-1.9s1.1,-1.2,2.1,-1.3c0.7,-0.1,1.2,0.1,1.5,0.2C18.9,13.3,18.9,13.4,18.8,13.7zM25.6,12.4c-0.1,0.1,-2.2,3.6,-2.2,3.6s1.2,3.3,1.2,3.4c0.1,0.1,0.1,0.2,-0.1,0.2c-0.1,0,-1,0.1,-1.4,0.2c-0.1,0.1,-0.2,0,-0.2,-0.1c-0.1,-0.1,-1.2,-3.3,-1.2,-3.3s-0.7,3.5,-0.7,3.7s-0.1,0.2,-0.2,0.2c-0.4,0,-1.2,0.2,-1.4,0.2c-0.4,0,-0.4,0,-0.3,-0.3c0.1,-0.2,2.3,-12.1,2.3,-12.3s0.1,-0.3,0.3,-0.3s1.2,-0.1,1.4,-0.1s0.2,0,0.2,0.3c0,0.2,-1.5,8.2,-1.5,8.2s1.9,-3.3,2,-3.4s0.1,-0.2,0.3,-0.2c0.4,0,1.3,-0.1,1.4,-0.1s0.2,0,0.2,0S25.7,12.4,25.6,12.4zM9.6,18.3l1.9,-4.5v4.2L9.6,18.3z" fill="#CD4C32"/>
    <path d="M25.7,12.3c0,0,-0.1,0,-0.2,0s-1,0.1,-1.4,0.1c-0.2,0,-0.2,0.1,-0.3,0.2s-2,3.4,-2,3.4s1.5,-8,1.5,-8.2c0,-0.3,0,-0.3,-0.2,-0.3s-1.2,0.1,-1.4,0.1s-0.3,0.1,-0.3,0.3s-2.2,12.1,-2.3,12.3c-0.1,0.3,-0.1,0.3,0.3,0.3c0.2,0,1,-0.2,1.4,-0.2c0.1,0,0.2,0,0.2,-0.2s0.7,-3.7,0.7,-3.7s1.1,3.2,1.2,3.3c0,0.1,0.1,0.2,0.2,0.1c0.4,-0.1,1.3,-0.2,1.4,-0.2c0.2,0,0.2,-0.1,0.1,-0.2c0,-0.1,-1.2,-3.4,-1.2,-3.4S25.5,12.5,25.7,12.3C25.7,12.4,25.7,12.3,25.7,12.3M18.8,13.3c-0.3,-0.1,-0.8,-0.3,-1.5,-0.2c-1,0.1,-1.7,0.6,-2.1,1.3s-0.3,1.5,-0.2,1.9s0.4,0.8,0.9,1.2c1,0.9,0.9,1.5,0.8,1.8c-0.2,0.3,-0.6,0.6,-1.3,0.5s-0.9,-0.6,-0.9,-0.6s-0.3,1.1,-0.4,1.4s-0.1,0.4,0.2,0.5c0.4,0.2,1.1,0.3,2.2,0.1c0.8,-0.2,1.5,-0.8,1.8,-1.4c0.4,-0.7,0.6,-2,-0.5,-3c-0.9,-0.8,-1,-1,-1.1,-1.1c-0.2,-0.3,0,-0.7,0.1,-0.9c0.2,-0.2,0.3,-0.3,0.7,-0.3c0.3,0,0.9,0.4,0.9,0.4s0.4,-1.1,0.4,-1.2C18.9,13.4,18.9,13.3,18.8,13.3M9.6,18.3l1.9,-4.5v4.2L9.6,18.3L9.6,18.3zM12.5,9.3c0,-0.4,-0.3,-0.3,-0.4,0c-0.4,0.9,-6.4,13.1,-6.4,13.3c-0.1,0.2,0,0.3,0.2,0.2c0.1,0,1.5,-0.2,1.9,-0.3c0.1,0,0.2,0,0.2,-0.1s1,-2.3,1,-2.3l2.6,-0.4c0,0,0,1.7,0,2c0,0.1,0,0.2,0.2,0.2s1.3,-0.2,1.4,-0.2c0.3,0,0.3,-0.1,0.3,-0.3C13.4,21,12.6,10.1,12.5,9.3" fill="#FFFFFF"/>
  </g>
</svg>
