<?xml version="1.0" encoding="UTF-8"?>
<!DOCTYPE svg PUBLIC "-//W3C//DTD SVG 1.1//EN" "http://www.w3.org/Graphics/SVG/1.1/DTD/svg11.dtd">
<svg version="1.1" id="Layer_1" xmlns="http://www.w3.org/2000/svg" xmlns:xlink="http://www.w3.org/1999/xlink" x="0px" y="0px" width="32px" height="32px" viewBox="0 0 32 32" enable-background="new 0 0 32 32" xml:space="preserve">
  <g id="icon">
    <path d="M16.8,12c-1.6,0,-3.1,0.7,-4.1,1.7c-1.1,1.1,-1.7,2.5,-1.7,4.1s0.7,3.1,1.7,4.1c1.1,1.1,2.5,1.7,4.1,1.7s3.1,-0.7,4.1,-1.7s1.7,-2.5,1.7,-4.1s-0.7,-3.1,-1.7,-4.1C19.8,12.6,18.4,12,16.8,12zM13.9,19.8c-0.9,0,-1.7,-0.8,-1.7,-1.7s0.8,-1.7,1.7,-1.7s1.7,0.8,1.7,1.7S14.8,19.8,13.9,19.8zM16,0C7.2,0,0,7.2,0,16s7.2,16,16,16s16,-7.2,16,-16S24.8,0,16,0zM22.1,23.3c-1.4,1.4,-3.3,2.3,-5.4,2.3s-4,-0.9,-5.4,-2.3c-1.3,-1.4,-2.2,-3.3,-2.2,-5.4c0,-0.1,0,-0.3,0,-0.4v-0.1V7.3c0,-0.6,0.5,-1,1,-1c0.6,0,1,0.5,1,1v5.6c0.1,-0.2,0.2,-0.3,0.3,-0.4c1.4,-1.4,3.3,-2.3,5.4,-2.3s4,0.8,5.3,2.3c1.3,1.4,2.2,3.3,2.2,5.4S23.5,21.9,22.1,23.3z" fill="#E78155"/>
    <path d="M16.8,10.2c-2.1,0,-4,0.9,-5.4,2.3c-0.1,0.1,-0.2,0.2,-0.3,0.4V7.3c0,-0.5,-0.4,-1,-1,-1c-0.5,0,-1,0.4,-1,1v10.1v0.1c0,0.1,0,0.3,0,0.4c0,2.1,0.9,4,2.2,5.4c1.4,1.4,3.3,2.3,5.4,2.3s4,-0.9,5.4,-2.3s2.2,-3.3,2.2,-5.4s-0.9,-4,-2.2,-5.4C20.8,11,18.9,10.2,16.8,10.2zM20.9,21.9c-1,1,-2.5,1.7,-4.1,1.7s-3,-0.6,-4.1,-1.7c-1,-1,-1.7,-2.5,-1.7,-4.1s0.6,-3,1.7,-4.1c1,-1,2.5,-1.7,4.1,-1.7s3,0.6,4.1,1.7c1,1,1.7,2.5,1.7,4.1S21.9,20.9,20.9,21.9zM13.9,16.4c0.9,0,1.7,0.8,1.7,1.7s-0.8,1.7,-1.7,1.7s-1.7,-0.8,-1.7,-1.7S13,16.4,13.9,16.4z" fill="#FFFFFF"/>
  </g>
</svg>
