<?xml version="1.0" encoding="UTF-8"?>
<!DOCTYPE svg PUBLIC "-//W3C//DTD SVG 1.1//EN" "http://www.w3.org/Graphics/SVG/1.1/DTD/svg11.dtd">
<svg version="1.1" id="Layer_1" xmlns="http://www.w3.org/2000/svg" xmlns:xlink="http://www.w3.org/1999/xlink" x="0px" y="0px" width="32px" height="32px" viewBox="0 0 32 32" enable-background="new 0 0 32 32" xml:space="preserve">
  <g id="icon">
    <path d="M23.6,16.7h-3.8c0,-0.1,0.2,-1.8,2,-1.8S23.6,16.7,23.6,16.7zM13.2,16.6H9.8v3.1h3.3c0.5,0,1.3,-0.2,1.3,-1.5C14.4,16.6,13.2,16.6,13.2,16.6zM14,13.5c0,-1.2,-0.8,-1.2,-0.8,-1.2H9.8v2.6h3.2C13.5,14.9,14,14.7,14,13.5zM32,16c0,8.8,-7.2,16,-16,16S0,24.8,0,16S7.2,0,16,0S32,7.2,32,16zM19.3,12.3h4.8v-1.4h-4.8V12.3zM14.7,15.5c0,0,1.8,-0.1,1.8,-2.2s-1.4,-3.1,-3.3,-3.1H7.2v11.6h6c0,0,3.7,0.1,3.7,-3.4C16.9,18.4,17.1,15.5,14.7,15.5zM19.9,18.1h6c-0.1,0.1,0.5,-4.9,-4.1,-4.9c-4.4,0,-4.4,4.4,-4.4,4.4s-0.4,4.4,4.4,4.4c0,0,4,0.2,4,-3.1h-2c0,0,0.1,1.2,-1.9,1.2C21.9,20.1,19.9,20.2,19.9,18.1z" fill="#3E79B4"/>
    <path d="M7.2,10.2v11.6h6c0,0,3.7,0.1,3.7,-3.4c0,0,0.2,-2.9,-2.2,-2.9c0,0,1.8,-0.1,1.8,-2.2s-1.4,-3.1,-3.3,-3.1H7.2L7.2,10.2zM19.3,10.9v1.4h4.8v-1.4H19.3zM9.8,12.3h3.4c0,0,0.8,0,0.8,1.2s-0.5,1.4,-1,1.4H9.8V12.3zM21.8,13.2c-4.4,0,-4.4,4.4,-4.4,4.4s-0.4,4.4,4.4,4.4c0,0,4,0.2,4,-3.1h-2c0,0,0.1,1.2,-1.9,1.2c0,0,-2,0.1,-2,-2h6C25.8,18.2,26.4,13.2,21.8,13.2L21.8,13.2zM21.8,14.9c1.8,0,1.8,1.8,1.8,1.8h-3.8C19.8,16.6,20,14.9,21.8,14.9zM9.8,16.6h3.4c0,0,1.2,0,1.2,1.6c0,1.3,-0.8,1.5,-1.3,1.5H9.8V16.6z" fill="#FFFFFF"/>
  </g>
</svg>
