<?xml version="1.0" encoding="UTF-8"?>
<!DOCTYPE svg PUBLIC "-//W3C//DTD SVG 1.1//EN" "http://www.w3.org/Graphics/SVG/1.1/DTD/svg11.dtd">
<svg version="1.1" id="Layer_1" xmlns="http://www.w3.org/2000/svg" xmlns:xlink="http://www.w3.org/1999/xlink" x="0px" y="0px" width="32px" height="32px" viewBox="0 0 32 32" enable-background="new 0 0 32 32" xml:space="preserve">
  <g id="icon">
    <path d="M16,0C7.2,0,0,7.2,0,16s7.2,16,16,16s16,-7.2,16,-16S24.8,0,16,0zM23.8,19l-10,6l-3.9,-2.8v-0.2V7.3l3.9,1.2v10l-3.9,3.5l9.6,-5l-2.7,-1.2l-1.8,-3.9l8.8,2.8V19z" fill="#EAB765"/>
    <path d="M15,11.9l1.8,3.9l2.7,1.2l-9.6,5l3.9,-3.5V8.5L9.9,7.3v14.9l3.9,2.8l10,-6v-4.3L15,11.9" fill="#FFFFFF"/>
  </g>
</svg>
