<?xml version="1.0" encoding="UTF-8"?>
<!DOCTYPE svg PUBLIC "-//W3C//DTD SVG 1.1//EN" "http://www.w3.org/Graphics/SVG/1.1/DTD/svg11.dtd">
<svg version="1.1" id="Layer_1" xmlns="http://www.w3.org/2000/svg" xmlns:xlink="http://www.w3.org/1999/xlink" x="0px" y="0px" width="32px" height="32px" viewBox="0 0 32 32" enable-background="new 0 0 32 32" xml:space="preserve">
  <g id="icon">
    <path d="M12.8,11.5c0.2,-0.2,0.4,-0.3,0.6,-0.4c0.2,0,1.3,0,3,0c0.8,0,1,0.1,1.1,0.1c1.1,0.4,1.3,1.8,0.4,2.5c-0.1,0.1,-0.2,0.2,-0.3,0.2c-0.3,0.1,-0.5,0.1,-3,0c-1,0,-1.2,0,-1.3,-0.1C12.4,13.5,12.1,12.2,12.8,11.5zM32,16c0,8.8,-7.2,16,-16,16S0,24.8,0,16S7.2,0,16,0S32,7.2,32,16zM24.7,16.8c-0.1,-1,-0.4,-1.7,-1.1,-2.2c-0.4,-0.3,-0.9,-0.4,-1.6,-0.5c-0.2,0,-0.4,0,-0.4,0s0,-0.1,0,-0.3c0.1,-0.5,0.1,-1.9,0,-2.5c-0.2,-0.8,-0.5,-1.5,-1.1,-2.1c-0.7,-0.7,-1.5,-1.1,-2.5,-1.3c-0.5,-0.1,-5,0,-5.5,0.1c-1.3,0.2,-2.3,0.8,-2.9,1.8c-0.5,0.8,-0.7,1.6,-0.7,2.7s-0.1,6.3,-0.1,6.8c0,0.9,0.1,1.5,0.4,2.2c0.6,1.5,2,2.4,4,2.5c0.2,0,1.9,0,3.7,-0.1c2.9,-0.1,3.3,-0.1,3.6,-0.1c1.2,-0.2,2.1,-0.6,2.8,-1.3c0.8,-0.8,1.2,-1.7,1.4,-3C24.7,19.1,24.7,17.4,24.7,16.8zM20.6,17.7c-0.3,-0.2,-0.2,-0.2,-4,-0.2c-3,0,-3.4,0,-3.6,0c-0.6,0.2,-1.1,0.7,-1.1,1.3c0,0.4,0.1,0.7,0.4,1c0.2,0.2,0.3,0.3,0.6,0.3c0.2,0,0.4,0.1,3.6,0.1c3.2,0.1,3.6,0.1,3.8,0.1c0.3,-0.1,0.4,-0.2,0.6,-0.4c0.4,-0.4,0.5,-1.1,0.2,-1.7C21,18,20.8,17.8,20.6,17.7z" fill="#E78155"/>
    <path d="M13.2,24c-2,-0.1,-3.4,-1,-4,-2.5c-0.3,-0.7,-0.4,-1.3,-0.4,-2.2c0,-0.5,0.1,-5.7,0.1,-6.8s0.2,-1.9,0.7,-2.7c0.6,-1,1.6,-1.6,2.9,-1.8c0.5,-0.1,5,-0.2,5.5,-0.1c1,0.2,1.8,0.6,2.5,1.3c0.6,0.6,0.9,1.3,1.1,2.1c0.1,0.6,0.1,2,0,2.5c0,0.2,0,0.3,0,0.3s0.2,0,0.4,0c0.7,0.1,1.2,0.2,1.6,0.5c0.7,0.5,1,1.2,1.1,2.2c0,0.6,0,2.3,0,2.7c-0.2,1.3,-0.6,2.2,-1.4,3c-0.7,0.7,-1.6,1.1,-2.8,1.3c-0.3,0,-0.7,0,-3.6,0.1C15.1,24,13.4,24,13.2,24L13.2,24L13.2,24zM20.3,20.3c0.3,-0.1,0.4,-0.2,0.6,-0.4c0.4,-0.4,0.5,-1.1,0.2,-1.7c-0.1,-0.2,-0.3,-0.4,-0.5,-0.5c-0.3,-0.2,-0.2,-0.2,-4,-0.2c-3,0,-3.4,0,-3.6,0c-0.6,0.2,-1.1,0.7,-1.1,1.3c0,0.4,0.1,0.7,0.4,1c0.2,0.2,0.3,0.3,0.6,0.3c0.2,0,0.4,0.1,3.6,0.1C19.7,20.3,20.1,20.3,20.3,20.3L20.3,20.3zM17.6,13.9c0.1,0,0.2,-0.1,0.3,-0.2c0.9,-0.7,0.7,-2.1,-0.4,-2.5c-0.1,0,-0.3,-0.1,-1.1,-0.1c-1.7,0,-2.8,0,-3,0c-0.2,0.1,-0.4,0.2,-0.6,0.4c-0.7,0.7,-0.4,2,0.5,2.3c0.1,0.1,0.3,0.1,1.3,0.1C17.1,14,17.3,14,17.6,13.9L17.6,13.9L17.6,13.9z" fill="#FFFFFF"/>
  </g>
</svg>
