<?xml version="1.0" encoding="UTF-8"?>
<!DOCTYPE svg PUBLIC "-//W3C//DTD SVG 1.1//EN" "http://www.w3.org/Graphics/SVG/1.1/DTD/svg11.dtd">
<svg version="1.1" id="Layer_1" xmlns="http://www.w3.org/2000/svg" xmlns:xlink="http://www.w3.org/1999/xlink" x="0px" y="0px" width="32px" height="32px" viewBox="0 0 32 32" enable-background="new 0 0 32 32" xml:space="preserve">
  <g id="icon">
    <path d="M16,0C7.2,0,0,7.2,0,16s7.2,16,16,16s16,-7.2,16,-16S24.8,0,16,0zM22.1,24.5h-3.6v-1.7c-1.4,1.2,-2.4,1.6,-4,1.6c-1.7,0,-3.1,-0.5,-4.3,-1.6c-1.6,-1.4,-2.4,-3.2,-2.4,-5.3c0,-1.9,0.8,-3.6,2.2,-5c1.3,-1.3,2.8,-1.9,4.5,-1.9s2.9,0.5,3.8,1.7l-0.1,-5.9l3.9,-0.8V24.5zM18.5,17.6c0.1,1.8,-1.4,3.2,-3.1,3.2c-2,0,-3.5,-1.4,-3.5,-3.3c0,-1.8,1.5,-3.3,3.3,-3.3C17.1,14.2,18.5,15.7,18.5,17.6z" fill="#3E79B4"/>
    <path d="M18.3,12.3c-0.9,-1.2,-2.1,-1.7,-3.8,-1.7s-3.2,0.6,-4.5,1.9c-1.4,1.4,-2.2,3.1,-2.2,5c0,2.1,0.8,3.9,2.4,5.3c1.2,1.1,2.6,1.6,4.3,1.6c1.6,0,2.6,-0.4,4,-1.6v1.7h3.6V5.6l-3.9,0.8L18.3,12.3L18.3,12.3zM15.4,20.8c-2,0,-3.5,-1.4,-3.5,-3.3c0,-1.8,1.5,-3.3,3.3,-3.3c1.9,0,3.3,1.5,3.3,3.4C18.6,19.4,17.1,20.8,15.4,20.8z" fill="#FFFFFF"/>
  </g>
</svg>
