<?xml version="1.0" encoding="UTF-8"?>
<!DOCTYPE svg PUBLIC "-//W3C//DTD SVG 1.1//EN" "http://www.w3.org/Graphics/SVG/1.1/DTD/svg11.dtd">
<svg version="1.1" id="Layer_1" xmlns="http://www.w3.org/2000/svg" xmlns:xlink="http://www.w3.org/1999/xlink" x="0px" y="0px" width="32px" height="32px" viewBox="0 0 32 32" enable-background="new 0 0 32 32" xml:space="preserve">
  <g id="icon">
    <path d="M8.3,14.3h1v3.3H8.3V14.3zM17.9,14.3h-1v3.3h1V14.3zM23.7,14.3h-1v3.3h1V14.3zM32,16c0,8.8,-7.2,16,-16,16S0,24.8,0,16S7.2,0,16,0S32,7.2,32,16zM11.4,9.9H9.3v2.8H6.3v6.5h5.1V9.9zM14.1,12.7h-2v6.5h2V12.7zM14.1,9.9h-2v1.9h2V9.9zM19.9,12.6h-5.1v0.1v6.5h3.1v0.7h-3.1v1.6h5.1V12.6zM25.6,12.6h-4.9v0.1v6.5h3.1v0.7h-3.1v1.6h4.9V12.6z" fill="#3E79B4"/>
    <path d="M9.3,9.9v2.8H6.3v6.5h5.1V9.9H9.3zM12.1,9.9v1.9h2V9.9H12.1zM12.1,12.7v6.5h2v-6.5H12.1zM14.8,12.6v6.6h3.1v0.7h-3.1v1.6h5.1v-8.9H14.8L14.8,12.6zM20.7,12.6v6.6h3.1v0.7h-3.1v1.6h4.9v-8.9H20.7L20.7,12.6zM8.3,14.3h1v3.3H8.3V14.3zM16.9,14.3h1v3.3h-1V14.3zM22.7,14.3h1v3.3h-1V14.3z" fill="#FFFFFF"/>
  </g>
</svg>
