<?xml version="1.0" encoding="UTF-8"?>
<!DOCTYPE svg PUBLIC "-//W3C//DTD SVG 1.1//EN" "http://www.w3.org/Graphics/SVG/1.1/DTD/svg11.dtd">
<svg version="1.1" id="Layer_1" xmlns="http://www.w3.org/2000/svg" xmlns:xlink="http://www.w3.org/1999/xlink" x="0px" y="0px" width="32px" height="32px" viewBox="0 0 32 32" enable-background="new 0 0 32 32" xml:space="preserve">
  <g id="icon">
    <path d="M20.3,16.9c0,0.9,-0.6,1.7,-1.5,1.7c-0.8,0,-1.5,-0.8,-1.5,-1.7s0.7,-1.7,1.5,-1.7S20.3,16,20.3,16.9zM13.2,15.2c-0.8,0,-1.5,0.8,-1.5,1.7s0.7,1.7,1.5,1.7c0.9,0,1.5,-0.8,1.5,-1.7S14,15.2,13.2,15.2zM32,16c0,8.8,-7.2,16,-16,16S0,24.8,0,16S7.2,0,16,0S32,7.2,32,16zM25.5,20.3c-0.3,-6.3,-2.6,-9.5,-2.6,-9.5s-2,-1.5,-4.3,-1.7l-0.2,0.4c2.1,0.5,3.1,1.3,4.1,2.2c-1.7,-0.9,-3.5,-1.7,-6.5,-1.7s-4.7,0.8,-6.5,1.7c1,-0.9,2.2,-1.7,4.1,-2.2l-0.2,-0.4c-2.5,0.2,-4.3,1.7,-4.3,1.7s-2.2,3.2,-2.6,9.5c2.2,2.6,5.6,2.6,5.6,2.6l0.7,-0.9c-1.2,-0.4,-2.6,-1.2,-3.7,-2.5c1.4,1.1,3.5,2.2,6.9,2.2s5.5,-1.1,6.9,-2.2c-1.2,1.3,-2.5,2.1,-3.7,2.5l0.7,0.9C19.9,22.9,23.3,22.9,25.5,20.3z" fill="#6799D1"/>
    <path d="M22.9,10.8c0,0,-2,-1.5,-4.3,-1.7l-0.2,0.4c2.1,0.5,3.1,1.3,4.1,2.2c-1.7,-0.9,-3.5,-1.7,-6.5,-1.7s-4.7,0.8,-6.5,1.7c1,-0.9,2.2,-1.7,4.1,-2.2l-0.2,-0.4c-2.5,0.2,-4.3,1.7,-4.3,1.7s-2.2,3.2,-2.6,9.5c2.2,2.6,5.6,2.6,5.6,2.6l0.7,-0.9c-1.2,-0.4,-2.6,-1.2,-3.7,-2.5c1.4,1.1,3.5,2.2,6.9,2.2s5.5,-1.1,6.9,-2.2c-1.2,1.3,-2.5,2.1,-3.7,2.5l0.7,0.9c0,0,3.4,0,5.6,-2.6C25.2,14,22.9,10.8,22.9,10.8zM13.2,18.6c-0.8,0,-1.5,-0.8,-1.5,-1.7s0.7,-1.7,1.5,-1.7s1.5,0.8,1.5,1.7S14.1,18.6,13.2,18.6zM18.8,18.6c-0.8,0,-1.5,-0.8,-1.5,-1.7s0.7,-1.7,1.5,-1.7s1.5,0.8,1.5,1.7S19.7,18.6,18.8,18.6z" fill="#FFFFFF"/>
  </g>
</svg>
