<?xml version="1.0" encoding="UTF-8"?>
<!DOCTYPE svg PUBLIC "-//W3C//DTD SVG 1.1//EN" "http://www.w3.org/Graphics/SVG/1.1/DTD/svg11.dtd">
<svg version="1.1" id="Layer_1" xmlns="http://www.w3.org/2000/svg" xmlns:xlink="http://www.w3.org/1999/xlink" x="0px" y="0px" width="32px" height="32px" viewBox="0 0 32 32" enable-background="new 0 0 32 32" xml:space="preserve">
  <g id="icon">
    <path d="M16,0C7.2,0,0,7.2,0,16s7.2,16,16,16s16,-7.2,16,-16S24.8,0,16,0zM16.1,25.1c-2.3,0,-4.3,-0.8,-5.9,-2.2l-3.9,0.5l1.5,-3.8c-0.5,-1.2,-0.8,-2.5,-0.8,-3.8c0,-5.1,4.1,-9.3,9.2,-9.3s9.2,4.1,9.2,9.3C25.2,21,21.1,25.1,16.1,25.1zM16,11.2h-3.5v9.3h3.5c3.2,0,5.1,-2,5.1,-4.7S19.2,11.2,16,11.2zM16,18.2h-1v-4.7h1c1.5,0,2.5,0.9,2.5,2.3C18.5,17.4,17.5,18.2,16,18.2z" fill="#529FBF"/>
    <path d="M16.1,25.1c-2.3,0,-4.3,-0.8,-5.9,-2.2l-3.9,0.5l1.5,-3.8c-0.5,-1.2,-0.8,-2.5,-0.8,-3.8c0,-5.1,4.1,-9.3,9.2,-9.3s9.2,4.1,9.2,9.3C25.2,21,21.1,25.1,16.1,25.1zM21.1,15.8L21.1,15.8c0,-2.7,-1.9,-4.6,-5.1,-4.6h-3.5v9.3h3.5C19.2,20.5,21.1,18.5,21.1,15.8L21.1,15.8zM16,18.2h-1v-4.7h1c1.5,0,2.5,0.9,2.5,2.3l0,0C18.5,17.4,17.5,18.2,16,18.2z" fill="#FFFFFF"/>
  </g>
</svg>
