<?xml version="1.0" encoding="UTF-8"?>
<!DOCTYPE svg PUBLIC "-//W3C//DTD SVG 1.1//EN" "http://www.w3.org/Graphics/SVG/1.1/DTD/svg11.dtd">
<svg version="1.1" id="Layer_1" xmlns="http://www.w3.org/2000/svg" xmlns:xlink="http://www.w3.org/1999/xlink" x="0px" y="0px" width="32px" height="32px" viewBox="0 0 32 32" enable-background="new 0 0 32 32" xml:space="preserve">
  <g id="icon">
    <path d="M17.1,12.8c-1.3,-2.4,-2.8,-4.4,-3,-4.7c0.6,-0.2,1.3,-0.2,1.9,-0.2c2.1,0,4,0.7,5.4,2C21.2,10.1,20,11.7,17.1,12.8zM16.6,16c0.1,0,0.2,-0.1,0.3,-0.1c-0.2,-0.5,-0.4,-0.9,-0.7,-1.4c-4.1,1.2,-8,1.2,-8.3,1.2c0,0.1,0,0.2,0,0.2c0,2.2,0.8,4.1,2.1,5.5C10.2,21.1,12.4,17.4,16.6,16zM17.4,17.2c-4.6,1.6,-6.2,4.8,-6.4,5.1c1.4,1.1,3.1,1.7,5,1.7c1.2,0.1,2.2,-0.1,3.2,-0.6C19.1,22.7,18.6,20.2,17.4,17.2C17.5,17.2,17.5,17.2,17.4,17.2zM12.6,8.6c-2.3,1.1,-4,3.2,-4.5,5.7c0.4,0,3.7,0,7.5,-1C14.3,10.9,12.8,8.9,12.6,8.6zM18.9,17c1.1,2.9,1.5,5.3,1.6,5.8c1.9,-1.3,3.2,-3.3,3.5,-5.5C23.7,17.2,21.5,16.5,18.9,17zM32,16c0,8.8,-7.2,16,-16,16S0,24.8,0,16S7.2,0,16,0S32,7.2,32,16zM25.5,16c0,-5.2,-4.3,-9.5,-9.5,-9.5s-9.5,4.3,-9.5,9.5s4.3,9.5,9.5,9.5C21.3,25.5,25.5,21.2,25.5,16zM17.8,14c0.2,0.4,0.4,0.8,0.5,1.2c0.1,0.1,0.1,0.3,0.2,0.4c2.7,-0.3,5.4,0.2,5.6,0.3c0,-1.9,-0.7,-3.7,-1.8,-5.1C22.1,11,20.8,12.8,17.8,14z" fill="#D770AC"/>
    <path d="M16,25.5c-5.2,0,-9.5,-4.3,-9.5,-9.5s4.3,-9.5,9.5,-9.5s9.5,4.3,9.5,9.5S21.3,25.5,16,25.5zM24,17.3c-0.3,-0.1,-2.5,-0.8,-5.1,-0.3c1.1,2.9,1.5,5.3,1.6,5.8C22.4,21.5,23.7,19.5,24,17.3zM19.2,23.4c-0.1,-0.7,-0.6,-3.2,-1.7,-6.2c0,0,0,0,-0.1,0c-4.6,1.6,-6.2,4.8,-6.4,5.1c1.4,1.1,3.1,1.7,5,1.7C17.2,24.1,18.2,23.9,19.2,23.4zM10,21.4c0.2,-0.3,2.4,-4,6.6,-5.4c0.1,0,0.2,-0.1,0.3,-0.1c-0.2,-0.5,-0.4,-0.9,-0.7,-1.4c-4.1,1.2,-8,1.2,-8.3,1.2c0,0.1,0,0.2,0,0.2C7.9,18.1,8.7,20,10,21.4L10,21.4zM8.1,14.3c0.4,0,3.7,0,7.5,-1c-1.3,-2.4,-2.8,-4.4,-3,-4.7C10.3,9.7,8.6,11.8,8.1,14.3L8.1,14.3zM14.1,8.1c0.2,0.3,1.7,2.3,3,4.7c2.9,-1.1,4.1,-2.7,4.3,-2.9c-1.4,-1.3,-3.3,-2,-5.4,-2C15.4,7.9,14.7,7.9,14.1,8.1L14.1,8.1zM22.3,10.8c-0.2,0.2,-1.5,2,-4.5,3.2c0.2,0.4,0.4,0.8,0.5,1.2c0.1,0.1,0.1,0.3,0.2,0.4c2.7,-0.3,5.4,0.2,5.6,0.3C24.1,14,23.4,12.2,22.3,10.8L22.3,10.8z" fill="#FFFFFF"/>
  </g>
</svg>
