<?xml version="1.0" encoding="UTF-8"?>
<!DOCTYPE svg PUBLIC "-//W3C//DTD SVG 1.1//EN" "http://www.w3.org/Graphics/SVG/1.1/DTD/svg11.dtd">
<svg version="1.1" id="Layer_1" xmlns="http://www.w3.org/2000/svg" xmlns:xlink="http://www.w3.org/1999/xlink" x="0px" y="0px" width="32px" height="32px" viewBox="0 0 32 32" enable-background="new 0 0 32 32" xml:space="preserve">
  <g id="icon">
    <path d="M16.1,0.1C7.3,0.1,0.1,7.2,0.1,16s7.1,15.9,16,15.9c8.8,0,16,-7.1,16,-15.9S24.9,0.1,16.1,0.1zM21.8,21.5l-5.7,3.4l-5.7,-3.4v-1.2l1.7,1.1l4,-3.3l4,3.3l1.7,-1.1V21.5zM16.1,17.4l5.6,-3.5l3.9,3.1l-5.6,3.7L16.1,17.4l-3.9,3.3l-5.7,-3.7l3.9,-3.1l-3.9,-3.1l5.6,-3.7l4,3.3l3.9,-3.3l5.7,3.7l-3.9,3.1l-5.7,-3.5l-5.7,3.5L16.1,17.4z" fill="#3E79B4"/>
    <path d="M10.4,13.9l5.7,3.5l-3.9,3.3l-5.7,-3.7L10.4,13.9zM12.1,7.1l-5.6,3.7l3.9,3.1l5.7,-3.5L12.1,7.1zM25.7,10.8l-5.7,-3.7l-3.9,3.3l5.7,3.5L25.7,10.8zM16.1,17.4l3.9,3.3l5.6,-3.7l-3.9,-3.1L16.1,17.4zM16.1,18.1l-4,3.3l-1.7,-1.1v1.2l5.7,3.4l5.7,-3.4v-1.2l-1.7,1.1L16.1,18.1z" fill="#FFFFFF"/>
  </g>
</svg>
