<?xml version="1.0" encoding="UTF-8"?>
<!DOCTYPE svg PUBLIC "-//W3C//DTD SVG 1.1//EN" "http://www.w3.org/Graphics/SVG/1.1/DTD/svg11.dtd">
<svg version="1.1" id="Layer_1" xmlns="http://www.w3.org/2000/svg" xmlns:xlink="http://www.w3.org/1999/xlink" x="0px" y="0px" width="32px" height="32px" viewBox="0 0 32 32" enable-background="new 0 0 32 32" xml:space="preserve">
  <g id="icon">
    <path d="M17.1,22.4c-0.2,-0.2,-0.2,-0.4,0,-0.6s0.5,-0.5,0.9,-0.6c0.3,-0.1,0.5,-0.1,0.8,-0.1s0.6,0,0.9,0.2c0.2,0.2,0.4,0.5,0.4,0.7c0.1,0.2,0,0.3,-0.1,0.4s-0.2,0,-0.3,-0.2s-0.2,-0.5,-0.9,-0.5s-0.9,0.2,-1.2,0.5S17.2,22.6,17.1,22.4zM20.3,23c-0.3,0.2,-1.2,0.6,-2.4,0.6c-1.3,0,-1.8,-0.2,-2.2,-0.5c-0.1,0,-0.1,0,-0.2,0s-0.2,0,-0.3,0.1s-0.1,0.3,0,0.4c0.8,0.8,2.2,0.7,3.2,0.6s1.9,-0.7,2,-0.8s0.1,-0.2,0.2,-0.3C20.5,23,20.5,22.9,20.3,23zM14.2,16.3c-1.7,0,-3.1,1.4,-3.1,2.9c-0.1,0.9,0.2,1.5,0.8,1.9c0.4,0.2,0.8,0.4,1.9,0.4c1.8,0,4.2,-2.3,5.3,-2.3c0.8,0,2.2,2.1,2.9,2.2c0.6,0,0.9,-0.2,1.3,-0.9c0.4,-0.6,0.6,-1.7,0.6,-2.3s-0.3,-1.6,-1.2,-1.6c-0.8,0,-2.7,1.9,-3.6,1.9C18,18.5,16.4,16.3,14.2,16.3zM32,16c0,8.8,-7.2,16,-16,16S0,24.8,0,16S7.2,0,16,0S32,7.2,32,16zM24.5,16.9c0.1,-5,-3.6,-7.3,-4.3,-7.7c-1,-0.6,-2,-0.9,-2.9,-1.5c-0.6,-0.4,-1.4,-1.4,-2.1,-2.2c-0.1,1.3,-0.5,1.9,-1,2.2c-1,0.8,-1.6,1,-2.4,1.5c-0.7,0.4,-4.5,2.7,-4.5,7.6s4.1,8.5,8.7,8.5S24.5,21.9,24.5,16.9z" fill="#529FBF"/>
    <path d="M20.2,9.2c-1,-0.6,-2,-0.9,-2.9,-1.5c-0.6,-0.4,-1.4,-1.4,-2.1,-2.2c-0.1,1.3,-0.5,1.9,-1,2.2c-1,0.8,-1.6,1,-2.4,1.5c-0.7,0.4,-4.5,2.7,-4.5,7.6s4.1,8.5,8.7,8.5s8.5,-3.4,8.5,-8.4C24.6,11.9,20.9,9.6,20.2,9.2L20.2,9.2zM20.4,23.4c-0.1,0.1,-1,0.7,-2,0.8s-2.4,0.2,-3.2,-0.6c-0.1,-0.1,-0.1,-0.3,0,-0.4s0.2,-0.1,0.3,-0.1s0.1,0,0.2,0c0.4,0.3,0.9,0.5,2.2,0.5c1.2,0,2.1,-0.4,2.4,-0.6c0.2,-0.1,0.2,0,0.3,0.1C20.5,23.2,20.5,23.3,20.4,23.4L20.4,23.4zM17.1,21.8c0.2,-0.2,0.5,-0.5,0.9,-0.6c0.3,-0.1,0.5,-0.1,0.8,-0.1s0.6,0,0.9,0.2c0.2,0.2,0.4,0.5,0.4,0.7c0.1,0.2,0,0.3,-0.1,0.4s-0.2,0,-0.3,-0.2s-0.2,-0.5,-0.9,-0.5s-0.9,0.2,-1.2,0.5s-0.4,0.4,-0.5,0.2C16.9,22.2,16.9,22,17.1,21.8L17.1,21.8zM23.9,18.2c0,0.6,-0.2,1.7,-0.6,2.3c-0.4,0.7,-0.7,0.9,-1.3,0.9c-0.7,-0.1,-2.1,-2.2,-2.9,-2.2c-1.1,0,-3.5,2.3,-5.3,2.3c-1.1,0,-1.5,-0.2,-1.9,-0.4c-0.6,-0.4,-0.9,-1,-0.8,-1.9c0,-1.5,1.4,-2.9,3.1,-2.9c2.2,0,3.8,2.2,4.9,2.2c0.9,0,2.8,-1.9,3.6,-1.9C23.6,16.6,23.9,17.6,23.9,18.2L23.9,18.2z" fill="#FFFFFF"/>
  </g>
</svg>
