<?xml version="1.0" encoding="UTF-8"?>
<!DOCTYPE svg PUBLIC "-//W3C//DTD SVG 1.1//EN" "http://www.w3.org/Graphics/SVG/1.1/DTD/svg11.dtd">
<svg version="1.1" id="Layer_1" xmlns="http://www.w3.org/2000/svg" xmlns:xlink="http://www.w3.org/1999/xlink" x="0px" y="0px" width="32px" height="32px" viewBox="0 0 32 32" enable-background="new 0 0 32 32" xml:space="preserve">
  <g id="icon">
    <path d="M9.1,15.6H5.6c0,-1,0.9,-1.6,1.8,-1.6C8.4,14,9.1,14.5,9.1,15.6zM13.6,14c-1.3,0,-1.9,1,-1.9,2s0.7,2,1.9,2c1,0,1.9,-0.8,1.9,-2C15.5,14.9,14.8,14,13.6,14zM32,16c0,8.8,-7.2,16,-16,16S0,24.8,0,16S7.2,0,16,0S32,7.2,32,16zM28.4,13.2l-1.2,0.2l-2.1,4.1l-2.1,-4.1h-1.4l0.4,0.7c-0.5,-0.7,-1.4,-1,-2.3,-1c-2.6,0,-2.7,1.4,-2.7,1.6h1.3c0,0,0,-0.8,1.3,-0.8c0.8,0,1.5,0.4,1.5,1.2v0.2h-1.4c-1.7,0,-2.7,0.4,-3,1.3c0,-0.2,0,-0.4,0,-0.6c0,-1.6,-1.1,-2.8,-2.9,-2.8c-1.7,0,-2.2,0.9,-2.2,0.9v-3h-1.2v4.6c-0.1,-1,-0.7,-2.5,-3,-2.5c-1.7,0,-3.1,0.7,-3.1,2.9c0,1.7,1,2.8,3.2,2.8c2.6,0,2.8,-1.7,2.8,-1.7H9c0,0,-0.3,0.9,-1.6,0.9c-1.1,0,-1.8,-0.8,-1.8,-1.8h4.9v1.5c0,0.4,-0.1,1,-0.1,1h1.2c0,0,0,-0.4,0,-0.8c0,0,0.6,0.9,2.2,0.9c1.4,0,2.4,-0.8,2.7,-2c0,0.1,0,0.1,0,0.2c0,1.2,1,1.8,2.3,1.8c1.8,0,2.4,-1,2.4,-1c0,0.4,0,0.8,0,0.8h1.1c0,0,0,-0.6,0,-0.9v-2.7c0,-0.4,-0.1,-0.7,-0.2,-0.9l2.3,4.3l-1.1,2h1.4L28.4,13.2zM17.9,17.1c0,0.5,0.4,1,1.3,1c1.6,0,1.9,-1.1,1.9,-1.6v-0.4C19.3,16.1,17.9,16.1,17.9,17.1z" fill="#CD4C32"/>
    <path d="M27.2,13.4l-2.1,4.1l-2.1,-4.1h-1.4l0.4,0.7c-0.5,-0.7,-1.4,-1,-2.3,-1c-2.6,0,-2.7,1.4,-2.7,1.6h1.3c0,0,0,-0.8,1.3,-0.8c0.8,0,1.5,0.4,1.5,1.2v0.2h-1.4c-1.7,0,-2.7,0.4,-3,1.3c0,-0.2,0,-0.4,0,-0.6c0,-1.6,-1.1,-2.8,-2.9,-2.8c-1.7,0,-2.2,0.9,-2.2,0.9v-3h-1.2v4.6c-0.1,-1,-0.7,-2.5,-3,-2.5c-1.7,0,-3.1,0.7,-3.1,2.9c0,1.7,1,2.8,3.2,2.8c2.6,0,2.8,-1.7,2.8,-1.7H9c0,0,-0.3,0.9,-1.6,0.9c-1.1,0,-1.8,-0.8,-1.8,-1.8h4.9v1.5c0,0.4,-0.1,1,-0.1,1h1.2c0,0,0,-0.4,0,-0.8c0,0,0.6,0.9,2.2,0.9c1.4,0,2.4,-0.8,2.7,-2c0,0.1,0,0.1,0,0.2c0,1.2,1,1.8,2.3,1.8c1.8,0,2.4,-1,2.4,-1c0,0.4,0,0.8,0,0.8h1.1c0,0,0,-0.6,0,-0.9v-2.7c0,-0.4,-0.1,-0.7,-0.2,-0.9l2.3,4.3l-1.1,2h1.4l3.7,-7.3L27.2,13.4L27.2,13.4zM5.6,15.6c0,-1,0.9,-1.6,1.8,-1.6c1,0,1.7,0.5,1.7,1.6H5.6zM13.6,18c-1.2,0,-1.9,-1,-1.9,-2s0.6,-2,1.9,-2l0,0c1.2,0,1.9,0.9,1.9,2C15.5,17.2,14.6,18,13.6,18zM21.1,16.5c0,0.5,-0.3,1.6,-1.9,1.6c-0.9,0,-1.3,-0.5,-1.3,-1c0,-1,1.4,-1,3.2,-1V16.5L21.1,16.5z" fill="#FFFFFF"/>
  </g>
</svg>
