<?xml version="1.0" encoding="UTF-8"?>
<!DOCTYPE svg PUBLIC "-//W3C//DTD SVG 1.1//EN" "http://www.w3.org/Graphics/SVG/1.1/DTD/svg11.dtd">
<svg version="1.1" id="Layer_1" xmlns="http://www.w3.org/2000/svg" xmlns:xlink="http://www.w3.org/1999/xlink" x="0px" y="0px" width="32px" height="32px" viewBox="0 0 32 32" enable-background="new 0 0 32 32" xml:space="preserve">
  <g id="icon">
    <path d="M16,0C7.2,0,0,7.2,0,16s7.2,16,16,16s16,-7.2,16,-16S24.8,0,16,0zM20.2,20.6c-0.7,0,-1.3,-0.2,-1.6,-0.6c-0.2,-0.2,-0.4,-0.5,-0.5,-0.9l-0.1,-0.3l-0.2,0.2c-1,1.2,-2.3,1.8,-3.9,1.8c-1.7,0,-3.4,-1.3,-3.4,-3.7c0,-1.7,0.7,-3.4,2,-4.7c1.4,-1.3,3.2,-2,5.2,-2c0.9,0,1.9,0.1,2.7,0.4c0.4,0.1,0.6,0.5,0.6,0.9l-0.9,4.5c-0.2,0.9,-0.4,2,-0.1,2.4c0.1,0.1,0.2,0.2,0.5,0.2h0.1c1.3,0,2.7,-1.8,2.7,-4.5c0,-3.9,-2.5,-6.3,-6.5,-6.3c-4.7,0,-8.1,3.5,-8.1,8.4c0,4.1,2.8,6.8,6.9,6.8c1.2,0,2.6,-0.3,3.7,-0.7c0,0,0,0,0.1,0c0.2,0,0.3,0.3,0.5,0.6v0.1c0,0,0,0.1,0.1,0.1c0.1,0.2,0.2,0.5,0.2,0.6s-0.1,0.2,-0.3,0.2c-1.3,0.7,-2.7,0.9,-4.5,0.9c-2.3,0,-4.5,-0.8,-6.1,-2.2c-1.7,-1.5,-2.6,-3.7,-2.6,-6.1c0,-2.7,1,-5.3,2.8,-7.2c1.9,-2,4.6,-3.1,7.6,-3.1c2.4,0,4.5,0.8,6,2.2s2.3,3.4,2.3,5.6C25.4,18.4,22.8,20.6,20.2,20.6zM18.5,12.7c0.1,0.1,0.1,0.2,0.1,0.3l-0.5,2.4c-0.3,1.5,-1.8,3.3,-3.2,3.3c-1.5,0,-1.6,-1.3,-1.6,-1.7c0,-2.4,1.9,-4.4,4.2,-4.4c0.2,0,0.5,0,0.8,-0.1C18.4,12.6,18.4,12.6,18.5,12.7z" fill="#8C53A1"/>
    <path d="M15.4,25c-2.3,0,-4.5,-0.8,-6.1,-2.2c-1.7,-1.5,-2.6,-3.7,-2.6,-6.1c0,-2.7,1,-5.3,2.8,-7.2c1.9,-2,4.6,-3.1,7.6,-3.1c2.4,0,4.5,0.8,6,2.2s2.3,3.4,2.3,5.6c0,4.2,-2.6,6.4,-5.2,6.4c-0.7,0,-1.3,-0.2,-1.6,-0.6c-0.2,-0.2,-0.4,-0.5,-0.5,-0.9l-0.1,-0.3l-0.2,0.2c-1,1.2,-2.3,1.8,-3.9,1.8c-1.7,0,-3.4,-1.3,-3.4,-3.7c0,-1.7,0.7,-3.4,2,-4.7c1.4,-1.3,3.2,-2,5.2,-2c0.9,0,1.9,0.1,2.7,0.4c0.4,0.1,0.6,0.5,0.6,0.9l-0.9,4.5c-0.2,0.9,-0.4,2,-0.1,2.4c0.1,0.1,0.2,0.2,0.5,0.2h0.1c1.3,0,2.7,-1.8,2.7,-4.5c0,-3.9,-2.5,-6.3,-6.5,-6.3c-4.7,0,-8.1,3.5,-8.1,8.4c0,4.1,2.8,6.8,6.9,6.8c1.2,0,2.6,-0.3,3.7,-0.7c0,0,0,0,0.1,0c0.2,0,0.3,0.3,0.5,0.6v0.1c0,0,0,0.1,0.1,0.1c0.1,0.2,0.2,0.5,0.2,0.6s-0.1,0.2,-0.3,0.2C18.6,24.8,17.2,25,15.4,25zM17.5,12.6c-2.3,0,-4.2,2,-4.2,4.4c0,0.4,0.1,1.7,1.6,1.7c1.4,0,2.9,-1.8,3.2,-3.3l0.5,-2.4c0,-0.1,0,-0.2,-0.1,-0.3s-0.1,-0.1,-0.2,-0.2C18,12.6,17.7,12.6,17.5,12.6z" fill="#FFFFFF"/>
  </g>
</svg>
