<?xml version="1.0" encoding="UTF-8"?>
<!DOCTYPE svg PUBLIC "-//W3C//DTD SVG 1.1//EN" "http://www.w3.org/Graphics/SVG/1.1/DTD/svg11.dtd">
<svg version="1.1" id="Layer_1" xmlns="http://www.w3.org/2000/svg" xmlns:xlink="http://www.w3.org/1999/xlink" x="0px" y="0px" width="32px" height="32px" viewBox="0 0 32 32" enable-background="new 0 0 32 32" xml:space="preserve">
  <g id="icon">
    <path d="M16,0C7.2,0,0,7.2,0,16s7.2,16,16,16s16,-7.2,16,-16S24.8,0,16,0zM22.6,21.5c-2.2,4.1,-7.3,5.6,-11.4,3.3c-4.1,-2.2,-5.6,-7.4,-3.3,-11.4c0.4,-0.8,1.1,-1.6,1.3,-1.7s0.5,0.2,0.4,0.4c-0.8,2.7,0.3,6,0.5,6.3c0.2,0.4,0.4,0.2,0.4,0.1c0.2,-5.5,3.1,-9,6.5,-11.3c0.4,-0.3,3.5,-0.8,4.1,-0.5C22.7,7.6,25.1,16.9,22.6,21.5z" fill="#4EA17E"/>
    <path d="M21.1,6.7c-0.6,-0.3,-3.7,0.2,-4.1,0.5c-3.4,2.3,-6.3,5.8,-6.5,11.3c0,0.1,-0.2,0.3,-0.4,-0.1c-0.2,-0.3,-1.3,-3.6,-0.5,-6.3c0.1,-0.2,-0.2,-0.5,-0.4,-0.4s-0.9,0.9,-1.3,1.7c-2.3,4,-0.8,9.2,3.3,11.4c4.1,2.3,9.2,0.8,11.4,-3.3C25.1,16.9,22.7,7.6,21.1,6.7L21.1,6.7z" fill="#FFFFFF"/>
  </g>
</svg>
