<?xml version="1.0" encoding="UTF-8"?>
<!DOCTYPE svg PUBLIC "-//W3C//DTD SVG 1.1//EN" "http://www.w3.org/Graphics/SVG/1.1/DTD/svg11.dtd">
<svg version="1.1" id="Layer_1" xmlns="http://www.w3.org/2000/svg" xmlns:xlink="http://www.w3.org/1999/xlink" x="0px" y="0px" width="32px" height="32px" viewBox="0 0 32 32" enable-background="new 0 0 32 32" xml:space="preserve">
  <g id="icon">
    <path d="M16,0C7.2,0,0,7.2,0,16s7.2,16,16,16s16,-7.2,16,-16S24.8,0,16,0zM22.7,24.3c0,0,-3.1,-0.1,-4.4,-0.1h-5.9l-3.5,0.1v-0.9l1.2,-0.2c0.8,-0.2,1.1,-0.4,1.1,-1.1c0,0,0.1,-2.3,0.1,-6s-0.1,-6,-0.1,-6c-0.1,-0.8,-0.3,-0.9,-1.1,-1.1l-1.2,-0.3v-0.9l3.5,0.2h6.6c1.3,0,3.7,-0.3,3.7,-0.3s-0.1,1.4,-0.3,4.7h-0.9l-0.3,-1.2c-0.4,-1.4,-0.9,-2.2,-1.8,-2.2h-5.2c-0.4,0,-0.4,0.2,-0.4,0.4v6.1c0,0,2.3,0,3.2,-0.1s1,-0.2,1.2,-1.1l0.3,-1.3h1l-0.1,3l0.1,3h-1l-0.3,-1.2c-0.2,-0.9,-0.6,-1.1,-1.2,-1.1c-0.8,-0.1,-3.3,-0.1,-3.3,-0.1v5.1c0,0.9,0.6,1.4,1.7,1.4h3.4c1.1,0,2.1,-0.1,2.8,-1.7l0.9,-2h0.8C23.2,19.8,22.8,23.5,22.7,24.3z" fill="#E78155"/>
    <path d="M13.8,15.5V9.4c0,-0.2,0,-0.4,0.4,-0.4h5.2c0.9,0,1.4,0.8,1.8,2.2l0.3,1.2h0.9c0.2,-3.3,0.3,-4.7,0.3,-4.7s-2.4,0.3,-3.7,0.3h-6.6l-3.5,-0.2v0.9l1.2,0.3c0.8,0.2,1,0.3,1.1,1.1c0,0,0.1,2.3,0.1,6s-0.1,6,-0.1,6c0,0.7,-0.3,0.9,-1.1,1.1l-1.2,0.2v0.9l3.5,-0.1h5.9c1.3,0,4.4,0.1,4.4,0.1c0.1,-0.8,0.5,-4.5,0.6,-4.9h-0.8l-0.9,2c-0.7,1.6,-1.7,1.7,-2.8,1.7h-3.4c-1.1,0,-1.7,-0.5,-1.7,-1.4v-5.1c0,0,2.5,0,3.3,0.1c0.6,0,1,0.2,1.2,1.1l0.3,1.2h1l-0.1,-3l0.1,-3h-1l-0.3,1.3c-0.2,0.9,-0.3,1,-1.2,1.1S13.8,15.5,13.8,15.5L13.8,15.5L13.8,15.5L13.8,15.5L13.8,15.5z" fill="#FFFFFF"/>
  </g>
</svg>
