<?xml version="1.0" encoding="UTF-8"?>
<!DOCTYPE svg PUBLIC "-//W3C//DTD SVG 1.1//EN" "http://www.w3.org/Graphics/SVG/1.1/DTD/svg11.dtd">
<svg version="1.1" id="Layer_1" xmlns="http://www.w3.org/2000/svg" xmlns:xlink="http://www.w3.org/1999/xlink" x="0px" y="0px" width="32px" height="32px" viewBox="0 0 32 32" enable-background="new 0 0 32 32" xml:space="preserve">
  <g id="icon">
    <path d="M16,0C7.2,0,0,7.2,0,16s7.2,16,16,16s16,-7.2,16,-16S24.8,0,16,0zM19.9,16h-2.6l0.1,9.3l0,0h-3.9v-9.3h-1.7v-3.2h1.7v-1.9c0,-2.6,1.1,-4.2,4.2,-4.2h2.5v3.2h-1.5c-1.2,0,-1.3,0.5,-1.3,1.3v1.6h2.9L19.9,16z" fill="#3E79B4"/>
    <path d="M17.4,25.3h-3.9v-9.3h-1.7v-3.2h1.7v-1.9c0,-2.6,1.1,-4.2,4.2,-4.2h2.5v3.2h-1.5c-1.2,0,-1.3,0.5,-1.3,1.3v1.6h2.9l-0.4,3.2h-2.6L17.4,25.3C17.3,25.3,17.4,25.3,17.4,25.3z" fill="#FFFFFF"/>
  </g>
</svg>
