<?xml version="1.0" encoding="UTF-8"?>
<!DOCTYPE svg PUBLIC "-//W3C//DTD SVG 1.1//EN" "http://www.w3.org/Graphics/SVG/1.1/DTD/svg11.dtd">
<svg version="1.1" id="Layer_1" xmlns="http://www.w3.org/2000/svg" xmlns:xlink="http://www.w3.org/1999/xlink" x="0px" y="0px" width="32px" height="32px" viewBox="0 0 32 32" enable-background="new 0 0 32 32" xml:space="preserve">
  <g id="icon">
    <path d="M16,0C7.2,0,0,7.2,0,16s7.2,16,16,16s16,-7.2,16,-16S24.8,0,16,0zM10.8,20.1c-2.3,0,-4.1,-1.8,-4.1,-4.1s1.9,-4.1,4.1,-4.1c2.3,0,4.1,1.8,4.1,4.1S13.1,20.1,10.8,20.1zM21.2,20.1c-2.3,0,-4.1,-1.8,-4.1,-4.1s1.8,-4.1,4.1,-4.1s4.1,1.8,4.1,4.1S23.5,20.1,21.2,20.1z" fill="#D770AC"/>
    <path d="M10.8,11.9c2.3,0,4.1,1.8,4.1,4.1s-1.8,4.1,-4.1,4.1s-4.1,-1.8,-4.1,-4.1S8.6,11.9,10.8,11.9L10.8,11.9zM21.2,11.9c2.3,0,4.1,1.8,4.1,4.1s-1.8,4.1,-4.1,4.1s-4.1,-1.8,-4.1,-4.1S18.9,11.9,21.2,11.9z" fill="#FFFFFF"/>
  </g>
</svg>
