<?xml version="1.0" encoding="UTF-8"?>
<!DOCTYPE svg PUBLIC "-//W3C//DTD SVG 1.1//EN" "http://www.w3.org/Graphics/SVG/1.1/DTD/svg11.dtd">
<svg version="1.1" id="Layer_1" xmlns="http://www.w3.org/2000/svg" xmlns:xlink="http://www.w3.org/1999/xlink" x="0px" y="0px" width="32px" height="32px" viewBox="0 0 32 32" enable-background="new 0 0 32 32" xml:space="preserve">
  <g id="icon">
    <path d="M16,0C7.2,0,0,7.2,0,16s7.2,16,16,16s16,-7.2,16,-16S24.8,0,16,0zM22.9,21.8c-2.2,2.8,-6.2,3.7,-9.5,2.5c-3.5,-1.1,-6,-4.7,-6,-8.4c-0.2,-4.6,3.8,-8.8,8.4,-8.8c2.3,-0.2,4.6,0.7,6.4,2.2c-0.7,0.8,-1.5,1.6,-2.2,2.3c-1.6,-0.9,-3.4,-1.7,-5.2,-1c-2.9,0.8,-4.7,4.3,-3.6,7.1c0.9,3,4.5,4.6,7.4,3.4c1.5,-0.5,2.4,-1.9,2.9,-3.4c-1.7,0,-3.4,0,-5.1,-0.1c0,-1,0,-2,0,-3c2.7,0.1,5.5,0.1,8.3,0.1C24.9,17.2,24.5,19.8,22.9,21.8z" fill="#4EA17E"/>
    <path d="M24.7,14.7c0.2,2.5,-0.2,5.1,-1.8,7.1c-2.2,2.8,-6.2,3.7,-9.5,2.5c-3.5,-1.1,-6,-4.7,-6,-8.4c-0.2,-4.6,3.8,-8.8,8.4,-8.8c2.3,-0.2,4.6,0.7,6.4,2.2c-0.7,0.8,-1.5,1.6,-2.2,2.3c-1.6,-0.9,-3.4,-1.7,-5.2,-1c-2.9,0.8,-4.7,4.3,-3.6,7.1c0.9,3,4.5,4.6,7.4,3.4c1.5,-0.5,2.4,-1.9,2.9,-3.4c-1.7,0,-3.4,0,-5.1,-0.1c0,-1,0,-2,0,-3C19.1,14.7,21.9,14.7,24.7,14.7z" fill="#FFFFFF"/>
  </g>
</svg>
