<?xml version="1.0" encoding="UTF-8"?>
<!DOCTYPE svg PUBLIC "-//W3C//DTD SVG 1.1//EN" "http://www.w3.org/Graphics/SVG/1.1/DTD/svg11.dtd">
<svg version="1.1" id="Layer_1" xmlns="http://www.w3.org/2000/svg" xmlns:xlink="http://www.w3.org/1999/xlink" x="0px" y="0px" width="32px" height="32px" viewBox="0 0 32 32" enable-background="new 0 0 32 32" xml:space="preserve">
  <g id="icon">
    <path d="M16,0C7.2,0,0,7.2,0,16s7.2,16,16,16s16,-7.2,16,-16S24.8,0,16,0zM17.2,20.3c-1.6,2.1,-4.7,2.7,-7.1,1.9c-2.6,-0.9,-4.5,-3.5,-4.4,-6.2c-0.1,-3.4,2.8,-6.5,6.3,-6.6c1.7,-0.1,3.4,0.5,4.7,1.6c-0.5,0.6,-1.1,1.2,-1.7,1.7c-1.2,-0.7,-2.6,-1.2,-4,-0.7c-2.2,0.6,-3.5,3.2,-2.7,5.3c0.7,2.2,3.4,3.4,5.5,2.5c1.1,-0.4,1.8,-1.4,2.1,-2.5c-1.3,0,-2.5,0,-3.8,0c0,-0.7,0,-1.5,0,-2.2c2.2,-0.1,4.3,-0.1,6.4,-0.1C18.6,16.8,18.4,18.8,17.2,20.3zM26.4,16.9c-0.6,0,-1.3,0,-1.9,0c0,0.6,0,1.3,0,1.9c-0.6,0,-1.3,0,-1.9,0c0,-0.6,0,-1.3,0,-1.9c-0.6,0,-1.2,0,-1.9,0c0,-0.6,0,-1.3,0,-1.9c0.7,0,1.3,0,1.9,0c0,-0.6,0,-1.2,0,-1.9c0.6,0,1.3,0,1.9,0c0,0.7,0,1.3,0,1.9c0.6,0,1.2,0,1.9,0C26.4,15.6,26.4,16.3,26.4,16.9z" fill="#CD4C32"/>
    <path d="M18.5,15c0.1,1.8,-0.1,3.8,-1.3,5.3c-1.6,2.1,-4.7,2.7,-7.1,1.9c-2.6,-0.9,-4.5,-3.5,-4.4,-6.2c-0.1,-3.4,2.8,-6.5,6.3,-6.6c1.7,-0.1,3.4,0.5,4.7,1.6c-0.5,0.6,-1.1,1.2,-1.7,1.7c-1.2,-0.7,-2.6,-1.2,-4,-0.7c-2.2,0.6,-3.5,3.2,-2.7,5.3c0.7,2.2,3.4,3.4,5.5,2.5c1.1,-0.4,1.8,-1.4,2.1,-2.5c-1.3,0,-2.5,0,-3.8,0c0,-0.7,0,-1.5,0,-2.2C14.3,15,16.4,15,18.5,15zM24.5,15c0,-0.6,0,-1.2,0,-1.9c-0.6,0,-1.3,0,-1.9,0c0,0.7,0,1.3,0,1.9c-0.6,0,-1.2,0,-1.9,0c0,0.6,0,1.3,0,1.9c0.7,0,1.3,0,1.9,0c0,0.6,0,1.3,0,1.9c0.6,0,1.3,0,1.9,0c0,-0.6,0,-1.3,0,-1.9c0.6,0,1.3,0,1.9,0c0,-0.6,0,-1.3,0,-1.9C25.7,15,25.1,15,24.5,15z" fill="#FFFFFF"/>
  </g>
</svg>
