<?xml version="1.0" encoding="UTF-8"?>
<!DOCTYPE svg PUBLIC "-//W3C//DTD SVG 1.1//EN" "http://www.w3.org/Graphics/SVG/1.1/DTD/svg11.dtd">
<svg version="1.1" id="Layer_1" xmlns="http://www.w3.org/2000/svg" xmlns:xlink="http://www.w3.org/1999/xlink" x="0px" y="0px" width="32px" height="32px" viewBox="0 0 32 32" enable-background="new 0 0 32 32" xml:space="preserve">
  <g id="icon">
    <path d="M18.8,16c0,1.6,-1.2,2.8,-2.8,2.8c-1.5,0,-2.8,-1.2,-2.8,-2.8s1.2,-2.8,2.8,-2.8S18.8,14.4,18.8,16zM22.5,11.1c0.1,0.3,0.2,0.7,0.3,1.5c0,0.9,0,1.1,0,3.4s0,2.5,0,3.4c0,0.8,-0.2,1.3,-0.3,1.5c-0.2,0.4,-0.3,0.7,-0.6,1s-0.6,0.5,-1,0.6c-0.3,0.1,-0.7,0.2,-1.5,0.3c-0.9,0,-1.1,0,-3.4,0s-2.5,0,-3.4,0c-0.8,0,-1.3,-0.2,-1.5,-0.3c-0.4,-0.2,-0.7,-0.3,-1,-0.6s-0.5,-0.6,-0.6,-1c-0.1,-0.3,-0.2,-0.7,-0.3,-1.5c0,-0.9,0,-1.1,0,-3.4s0,-2.5,0,-3.4c0,-0.8,0.2,-1.3,0.3,-1.5c0.2,-0.4,0.3,-0.7,0.6,-1s0.6,-0.5,1,-0.6c0.3,-0.1,0.7,-0.2,1.5,-0.3c0.9,0,1.2,0,3.4,0s2.5,0,3.4,0c0.8,0,1.3,0.2,1.5,0.3c0.4,0.2,0.7,0.3,1,0.6S22.4,10.7,22.5,11.1zM20.3,16.1c0,-2.4,-1.9,-4.3,-4.3,-4.3s-4.3,1.9,-4.3,4.3s1.9,4.3,4.3,4.3S20.3,18.5,20.3,16.1zM21.5,11.6c0,-0.6,-0.4,-1,-1,-1s-1,0.4,-1,1s0.4,1,1,1C21,12.6,21.5,12.1,21.5,11.6zM32,16c0,8.8,-7.2,16,-16,16S0,24.8,0,16S7.2,0,16,0S32,7.2,32,16zM24.4,16.1c0,-2.3,0,-2.5,-0.1,-3.4c0,-0.9,-0.2,-1.5,-0.4,-2s-0.5,-1,-1,-1.5s-0.9,-0.7,-1.5,-1c-0.5,-0.2,-1.1,-0.3,-2,-0.4c-0.8,-0.1,-1.1,-0.1,-3.4,-0.1s-2.5,0,-3.4,0.1c-0.9,0,-1.5,0.2,-2,0.4s-1,0.5,-1.5,1s-0.7,0.9,-1,1.5c-0.2,0.5,-0.3,1.1,-0.4,2c0,0.9,-0.1,1.2,-0.1,3.4c0,2.3,0,2.5,0.1,3.4c0,0.9,0.2,1.5,0.4,2s0.5,1,1,1.5s0.9,0.7,1.5,1c0.5,0.2,1.1,0.3,2,0.4c0.9,0,1.2,0.1,3.4,0.1c2.3,0,2.5,0,3.4,-0.1c0.9,0,1.5,-0.2,2,-0.4s1,-0.5,1.5,-1s0.7,-0.9,1,-1.5c0.2,-0.5,0.3,-1.1,0.4,-2C24.3,18.6,24.4,18.3,24.4,16.1z" fill="#3E79B4"/>
    <path d="M16,9.2c2.2,0,2.5,0,3.4,0c0.8,0,1.3,0.2,1.5,0.3c0.4,0.2,0.7,0.3,1,0.6s0.5,0.6,0.6,1c0.1,0.3,0.2,0.7,0.3,1.5c0,0.9,0,1.1,0,3.4s0,2.5,0,3.4c0,0.8,-0.2,1.3,-0.3,1.5c-0.2,0.4,-0.3,0.7,-0.6,1s-0.6,0.5,-1,0.6c-0.3,0.1,-0.7,0.2,-1.5,0.3c-0.9,0,-1.1,0,-3.4,0s-2.5,0,-3.4,0c-0.8,0,-1.3,-0.2,-1.5,-0.3c-0.4,-0.2,-0.7,-0.3,-1,-0.6s-0.5,-0.6,-0.6,-1c-0.1,-0.3,-0.2,-0.7,-0.3,-1.5c0,-0.9,0,-1.1,0,-3.4s0,-2.5,0,-3.4c0,-0.8,0.2,-1.3,0.3,-1.5c0.2,-0.4,0.3,-0.7,0.6,-1s0.6,-0.5,1,-0.6c0.3,-0.1,0.7,-0.2,1.5,-0.3C13.5,9.2,13.8,9.2,16,9.2M16,7.7c-2.3,0,-2.5,0,-3.4,0.1c-0.9,0,-1.5,0.2,-2,0.4s-1,0.5,-1.5,1s-0.7,0.9,-1,1.5c-0.2,0.5,-0.3,1.1,-0.4,2c0,0.9,-0.1,1.2,-0.1,3.4c0,2.3,0,2.5,0.1,3.4c0,0.9,0.2,1.5,0.4,2s0.5,1,1,1.5s0.9,0.7,1.5,1c0.5,0.2,1.1,0.3,2,0.4c0.9,0,1.2,0.1,3.4,0.1c2.3,0,2.5,0,3.4,-0.1c0.9,0,1.5,-0.2,2,-0.4s1,-0.5,1.5,-1s0.7,-0.9,1,-1.5c0.2,-0.5,0.3,-1.1,0.4,-2c0,-0.9,0.1,-1.2,0.1,-3.4c0,-2.3,0,-2.5,-0.1,-3.4c0,-0.9,-0.2,-1.5,-0.4,-2s-0.5,-1,-1,-1.5s-0.9,-0.7,-1.5,-1c-0.5,-0.2,-1.1,-0.3,-2,-0.4C18.6,7.7,18.3,7.7,16,7.7M16,11.8c-2.4,0,-4.3,1.9,-4.3,4.3s1.9,4.3,4.3,4.3s4.3,-1.9,4.3,-4.3S18.4,11.8,16,11.8M16,18.8c-1.5,0,-2.8,-1.2,-2.8,-2.8s1.2,-2.8,2.8,-2.8s2.8,1.2,2.8,2.8S17.6,18.8,16,18.8M21.5,11.6c0,-0.6,-0.4,-1,-1,-1s-1,0.4,-1,1s0.4,1,1,1C21,12.6,21.5,12.1,21.5,11.6" fill="#FFFFFF"/>
  </g>
</svg>
