<?xml version="1.0" encoding="UTF-8"?>
<!DOCTYPE svg PUBLIC "-//W3C//DTD SVG 1.1//EN" "http://www.w3.org/Graphics/SVG/1.1/DTD/svg11.dtd">
<svg version="1.1" id="Layer_1" xmlns="http://www.w3.org/2000/svg" xmlns:xlink="http://www.w3.org/1999/xlink" x="0px" y="0px" width="32px" height="32px" viewBox="0 0 32 32" enable-background="new 0 0 32 32" xml:space="preserve">
  <g id="icon">
    <path d="M16.1,0.1C7.3,0.1,0.1,7.2,0.1,16s7.1,15.9,16,15.9c8.8,0,16,-7.1,16,-15.9S24.9,0.1,16.1,0.1zM21.1,22.2c-3.9,0,-5.3,-1.8,-6,-4l-0.7,-2.3c-0.6,-1.7,-1.2,-3,-3.2,-3c-1.4,0,-2.8,1,-2.8,3.8c0,2.1,1.1,3.5,2.7,3.5c1.8,0,3,-1.3,3,-1.3l0.7,2c0,0,-1.3,1.2,-3.8,1.1c-3.2,0,-5,-1.8,-5,-5.3c0,-3.6,1.8,-5.7,4.9,-5.4c3,0,4.5,1,5.5,4l0.8,2.3c0.5,1.7,1.5,2.9,3.8,2.9c1.6,0,2.4,-0.4,2.4,-1.2c0,-0.6,-0.3,-1.1,-1.5,-1.4l-1.5,-0.4c-1.8,-0.5,-2.6,-1.5,-2.6,-3c0,-2.5,2,-3.3,4,-3.3c2.3,0,3.7,0.9,3.9,2.9l-2.3,0.3c-0.1,-1,-0.7,-1.4,-1.8,-1.4c-1,0,-1.6,0.4,-1.6,1.2c0,0.7,0.3,1.1,1.3,1.3l1.5,0.3c2,0.5,3,1.5,3,3.3C25.8,21.3,23.9,22.2,21.1,22.2z" fill="#CD4C32"/>
    <path d="M14.8,20.9l-0.7,-2c0,0,-1.2,1.3,-3,1.3c-1.6,0,-2.7,-1.4,-2.7,-3.5c0,-2.8,1.4,-3.8,2.8,-3.8c2,0,2.6,1.3,3.2,3l0.7,2.3c0.7,2.2,2.1,4,6,4c2.8,0,4.7,-0.9,4.7,-3.1c0,-1.8,-1,-2.8,-3,-3.3l-1.5,-0.3c-1,-0.2,-1.3,-0.6,-1.3,-1.3c0,-0.8,0.6,-1.2,1.6,-1.2c1.1,0,1.7,0.4,1.8,1.4l2.3,-0.3c-0.2,-2,-1.6,-2.9,-3.9,-2.9c-2,0,-4,0.8,-4,3.3c0,1.5,0.8,2.5,2.6,3l1.5,0.4c1.2,0.3,1.5,0.8,1.5,1.4c0,0.8,-0.8,1.2,-2.4,1.2c-2.3,0,-3.3,-1.2,-3.8,-2.9l-0.8,-2.3c-1,-3,-2.5,-4,-5.5,-4c-3.1,-0.3,-4.9,1.8,-4.9,5.4c0,3.5,1.8,5.3,5,5.3C13.5,22.1,14.8,20.9,14.8,20.9" fill="#FFFFFF"/>
  </g>
</svg>
