<?xml version="1.0" encoding="UTF-8"?>
<!DOCTYPE svg PUBLIC "-//W3C//DTD SVG 1.1//EN" "http://www.w3.org/Graphics/SVG/1.1/DTD/svg11.dtd">
<svg version="1.1" id="Layer_1" xmlns="http://www.w3.org/2000/svg" xmlns:xlink="http://www.w3.org/1999/xlink" x="0px" y="0px" width="32px" height="32px" viewBox="0 0 32 32" enable-background="new 0 0 32 32" xml:space="preserve">
  <g id="icon">
    <path d="M16,0C7.2,0,0,7.2,0,16s7.2,16,16,16s16,-7.2,16,-16S24.8,0,16,0zM12,22.8H8.5V12.2h3.5V22.8zM10.3,10.7c-1.2,0,-2,-0.8,-2,-1.8s0.8,-1.8,2,-1.8s2,0.8,2,1.8S11.5,10.7,10.3,10.7zM24.7,22.9h-3.5v-5.7c0,-1.4,-0.5,-2.4,-1.8,-2.4c-1,0,-1.5,0.7,-1.8,1.3c-0.1,0.3,-0.1,0.6,-0.1,0.9v5.9h-3.5c0,0,0,-9.6,0,-10.6h3.5v1.5c0.5,-0.8,1.3,-1.8,3.2,-1.8c2.4,0,4.1,1.5,4,4.8V22.9z" fill="#3E79B4"/>
    <path d="M10.3,7.1c-1.2,0,-2,0.8,-2,1.8s0.8,1.8,2,1.8l0,0c1.2,0,2,-0.8,2,-1.8S11.5,7.1,10.3,7.1L10.3,7.1zM20.7,12c-1.9,0,-2.7,1,-3.2,1.8l0,0l0,0l0,0v-1.5h-3.5c0,1,0,10.6,0,10.6h3.5v-5.9c0,-0.3,0,-0.6,0.1,-0.9c0.3,-0.6,0.8,-1.3,1.8,-1.3c1.3,0,1.8,1,1.8,2.4v5.7h3.5v-6.1C24.8,13.5,23.1,12,20.7,12zM8.5,12.2v10.6h3.5V12.2H8.5z" fill="#FFFFFF"/>
  </g>
</svg>
