<?xml version="1.0" encoding="UTF-8"?>
<!DOCTYPE svg PUBLIC "-//W3C//DTD SVG 1.1//EN" "http://www.w3.org/Graphics/SVG/1.1/DTD/svg11.dtd">
<svg version="1.1" id="Layer_1" xmlns="http://www.w3.org/2000/svg" xmlns:xlink="http://www.w3.org/1999/xlink" x="0px" y="0px" width="32px" height="32px" viewBox="0 0 32 32" enable-background="new 0 0 32 32" xml:space="preserve">
  <g id="icon">
    <path d="M16,0C7.2,0,0,7.2,0,16s7.2,16,16,16s16,-7.2,16,-16S24.8,0,16,0zM16,24.8c-1,0,-1.9,-0.2,-2.8,-0.4l-3.3,1.8v-3.4c-2.2,-1.6,-3.6,-4.2,-3.6,-7c0,-5,4.3,-9,9.7,-9s9.7,4,9.7,9S21.4,24.8,16,24.8zM17.5,15.8l4.8,-2.6l-5.3,5.7l-2.5,-2.6l-4.8,2.6l5.3,-5.7L17.5,15.8z" fill="#3E79B4"/>
    <path d="M16,6.8c-5.4,0,-9.7,4,-9.7,9c0,2.8,1.4,5.4,3.6,7v3.4l3.3,-1.8c0.9,0.2,1.8,0.4,2.8,0.4c5.4,0,9.7,-4,9.7,-9S21.4,6.8,16,6.8zM17,18.9l-2.5,-2.6l-4.8,2.6l5.3,-5.7l2.5,2.6l4.8,-2.6L17,18.9z" fill="#FFFFFF"/>
  </g>
</svg>
