<?xml version="1.0" encoding="UTF-8"?>
<!DOCTYPE svg PUBLIC "-//W3C//DTD SVG 1.1//EN" "http://www.w3.org/Graphics/SVG/1.1/DTD/svg11.dtd">
<svg version="1.1" id="Layer_1" xmlns="http://www.w3.org/2000/svg" xmlns:xlink="http://www.w3.org/1999/xlink" x="0px" y="0px" width="32px" height="32px" viewBox="0 0 32 32" enable-background="new 0 0 32 32" xml:space="preserve">
  <g id="icon">
    <path d="M16,0C7.2,0,0,7.2,0,16s7.2,16,16,16s16,-7.2,16,-16S24.8,0,16,0zM11.1,25c-1.1,0,-2.1,-0.7,-2.1,-2.3c0,-2.5,2.1,-4.3,3.1,-4.8c0,0,1.3,0.8,2.7,1.3c-2.8,-1.7,-4.5,-4.9,-4.5,-8.5c0,-3.3,1.7,-4.8,3.3,-4.8c1.3,0,4.3,1.4,4.3,6.7C17.9,18.4,14.9,25,11.1,25zM19.4,19.1c0.1,2.7,-1.7,5.3,-2.8,5.3c-0.4,0,-0.7,-0.4,-0.7,-1.2c0,-0.7,0.3,-1.5,0.4,-2.1c1,-2.7,1.8,-4.7,2.7,-6.4s2.3,-3.4,3.3,-3.4c0.6,0,0.8,0.5,0.8,1C23.1,14.5,21.1,17.3,19.4,19.1z" fill="#3E79B4"/>
    <path d="M11.1,25c-1.1,0,-2.1,-0.7,-2.1,-2.3c0,-2.5,2.1,-4.3,3.1,-4.8c0,0,1.3,0.8,2.7,1.3c-2.8,-1.7,-4.5,-4.9,-4.5,-8.5c0,-3.3,1.7,-4.8,3.3,-4.8c1.3,0,4.3,1.4,4.3,6.7C17.9,18.4,14.9,25,11.1,25L11.1,25zM15.9,23.2c0,0.8,0.3,1.2,0.7,1.2c1.1,0,2.9,-2.6,2.8,-5.3c1.7,-1.8,3.7,-4.6,3.7,-6.8c0,-0.5,-0.2,-1,-0.8,-1c-1,0,-2.4,1.7,-3.3,3.4s-1.7,3.7,-2.7,6.4C16.2,21.7,15.9,22.5,15.9,23.2L15.9,23.2z" fill="#FFFFFF"/>
  </g>
</svg>
