<?xml version="1.0" encoding="UTF-8"?>
<!DOCTYPE svg PUBLIC "-//W3C//DTD SVG 1.1//EN" "http://www.w3.org/Graphics/SVG/1.1/DTD/svg11.dtd">
<svg version="1.1" id="Layer_1" xmlns="http://www.w3.org/2000/svg" xmlns:xlink="http://www.w3.org/1999/xlink" x="0px" y="0px" width="32px" height="32px" viewBox="0 0 32 32" enable-background="new 0 0 32 32" xml:space="preserve">
  <g id="icon">
    <path d="M16,0C7.2,0,0,7.2,0,16s7.2,16,16,16s16,-7.2,16,-16S24.8,0,16,0zM22.6,9.8c1.7,0,3.1,1.4,3.1,3.2c0,1.7,-1.4,3.2,-3.1,3.2s-3.1,-1.4,-3.1,-3.2C19.5,11.3,20.9,9.8,22.6,9.8zM15.4,11c1.6,0,2.9,1.3,2.9,2.9s-1.3,2.9,-2.9,2.9s-2.9,-1.3,-2.9,-2.9S13.8,11,15.4,11zM9,12c1.4,0.1,2.6,1.2,2.6,2.6s-1.1,2.6,-2.6,2.6c-1.4,0,-2.6,-1.1,-2.6,-2.6S7.5,12,9,12zM11.8,21.4c0,0.2,-0.1,0.3,-0.3,0.3H6.5c-0.2,0,-0.3,-0.1,-0.3,-0.3v-0.9c0,-1.4,1.1,-2.9,2.8,-2.9c1.5,0,2.8,1.3,2.8,2.9V21.4zM18.5,21.4c0,0.2,-0.1,0.3,-0.3,0.3h-5.5c-0.2,0,-0.3,-0.1,-0.3,-0.3l-0.1,-1.1c0,-1.9,1.5,-3.2,3.1,-3.2c1.9,0,3.1,1.6,3.1,3.2V21.4zM25.9,21.4c0,0.2,-0.1,0.3,-0.3,0.3h-6.2c-0.2,0,-0.3,-0.1,-0.3,-0.3c0,0,0,-1.2,0,-1.3c0,-2.2,1.8,-3.5,3.4,-3.5c1.9,0,3.4,1.6,3.4,3.5V21.4z" fill="#3E79B4"/>
    <path d="M11.6,14.6c0,1.4,-1.1,2.6,-2.6,2.6c-1.4,0,-2.6,-1.1,-2.6,-2.6s1.1,-2.6,2.6,-2.6l0,0C10.4,12.1,11.6,13.2,11.6,14.6L11.6,14.6zM18.3,13.9c0,1.6,-1.3,2.9,-2.9,2.9s-2.9,-1.3,-2.9,-2.9s1.3,-2.9,2.9,-2.9S18.3,12.3,18.3,13.9zM25.7,13c0,1.7,-1.4,3.2,-3.1,3.2s-3.1,-1.4,-3.1,-3.2c0,-1.7,1.4,-3.2,3.1,-3.2S25.7,11.2,25.7,13zM6.2,21.4c0,0.2,0.1,0.3,0.3,0.3h5c0.2,0,0.3,-0.1,0.3,-0.3v-0.9c0,-1.6,-1.3,-2.9,-2.8,-2.9c-1.7,0,-2.8,1.5,-2.8,2.9V21.4L6.2,21.4L6.2,21.4zM12.4,21.4c0,0.2,0.1,0.3,0.3,0.3h5.5c0.2,0,0.3,-0.1,0.3,-0.3v-1.1c0,-1.6,-1.2,-3.2,-3.1,-3.2c-1.6,0,-3.1,1.3,-3.1,3.2L12.4,21.4L12.4,21.4zM19.1,21.4c0,0.2,0.1,0.3,0.3,0.3h6.2c0.2,0,0.3,-0.1,0.3,-0.3v-1.3c0,-1.9,-1.5,-3.5,-3.4,-3.5c-1.6,0,-3.4,1.3,-3.4,3.5C19.1,20.2,19.1,21.4,19.1,21.4z" fill="#FFFFFF"/>
  </g>
</svg>
