<?xml version="1.0" encoding="UTF-8"?>
<!DOCTYPE svg PUBLIC "-//W3C//DTD SVG 1.1//EN" "http://www.w3.org/Graphics/SVG/1.1/DTD/svg11.dtd">
<svg version="1.1" id="Layer_1" xmlns="http://www.w3.org/2000/svg" xmlns:xlink="http://www.w3.org/1999/xlink" x="0px" y="0px" width="32px" height="32px" viewBox="0 0 32 32" enable-background="new 0 0 32 32" xml:space="preserve">
  <g id="icon">
    <path d="M13.9,11.3c0,-1.2,1,-2.1,2.1,-2.1s2.1,0.9,2.1,2.1c0,1.1,-0.9,2.1,-2.1,2.1C14.9,13.4,13.9,12.5,13.9,11.3zM32,16c0,8.8,-7.2,16,-16,16S0,24.8,0,16S7.2,0,16,0S32,7.2,32,16zM11,11.3c0,2.7,2.3,5,5,5c2.8,0,5,-2.3,5,-5c0,-2.8,-2.3,-5,-5,-5C13.2,6.3,11,8.6,11,11.3zM18.1,20.4c1,-0.2,2,-0.6,2.9,-1.2c0.7,-0.4,0.9,-1.3,0.5,-2s-1.3,-0.9,-2,-0.5c-2.1,1.3,-4.7,1.3,-6.8,0c-0.7,-0.4,-1.6,-0.2,-2,0.5s-0.2,1.6,0.5,2c0.9,0.6,1.9,1,2.9,1.2l-2.8,2.8c-0.6,0.6,-0.6,1.5,0,2.1c0.3,0.3,0.7,0.4,1,0.4c0.4,0,0.8,-0.1,1,-0.4l2.8,-2.8l2.8,2.8c0.6,0.6,1.5,0.6,2.1,0s0.6,-1.5,0,-2.1L18.1,20.4z" fill="#E78155"/>
    <path d="M18.1,20.4c1,-0.2,2,-0.6,2.9,-1.2c0.7,-0.4,0.9,-1.3,0.5,-2s-1.3,-0.9,-2,-0.5c-2.1,1.3,-4.7,1.3,-6.8,0c-0.7,-0.4,-1.6,-0.2,-2,0.5s-0.2,1.6,0.5,2c0.9,0.6,1.9,1,2.9,1.2l-2.8,2.8c-0.6,0.6,-0.6,1.5,0,2.1c0.3,0.3,0.7,0.4,1,0.4c0.4,0,0.8,-0.1,1,-0.4l2.8,-2.8l2.8,2.8c0.6,0.6,1.5,0.6,2.1,0s0.6,-1.5,0,-2.1L18.1,20.4M16,9.2c1.1,0,2.1,0.9,2.1,2.1c0,1.1,-0.9,2.1,-2.1,2.1c-1.1,0,-2.1,-0.9,-2.1,-2.1S14.9,9.2,16,9.2L16,9.2zM16,16.3c2.8,0,5,-2.3,5,-5c0,-2.8,-2.3,-5,-5,-5c-2.8,0,-5,2.3,-5,5S13.3,16.3,16,16.3z" fill="#FFFFFF"/>
  </g>
</svg>
