<?xml version="1.0" encoding="UTF-8"?>
<!DOCTYPE svg PUBLIC "-//W3C//DTD SVG 1.1//EN" "http://www.w3.org/Graphics/SVG/1.1/DTD/svg11.dtd">
<svg version="1.1" id="Layer_1" xmlns="http://www.w3.org/2000/svg" xmlns:xlink="http://www.w3.org/1999/xlink" x="0px" y="0px" width="32px" height="32px" viewBox="0 0 32 32" enable-background="new 0 0 32 32" xml:space="preserve">
  <g id="icon">
    <path d="M14.2,14c0.2,-0.9,0.4,-1.8,0.6,-2.7c0,-0.2,0,-0.3,0.1,-0.4c0.2,-0.4,0.5,-0.7,0.9,-0.7c0.7,0,1.5,0,2.3,0.2c1,0.2,1.3,0.8,1.5,1.8c-0.1,1.3,-1,2.3,-2.5,2.6c-0.6,0.1,-1.1,0.1,-1.6,0.2c-0.2,0,-0.3,0,-0.5,0C14.3,15,14,14.7,14.2,14zM32,16c0,8.8,-7.2,16,-16,16S0,24.8,0,16S7.2,0,16,0S32,7.2,32,16zM8.8,23c0.7,0,1.4,0,2.1,0s1.1,-0.3,1.3,-1c0.3,-1.1,0.5,-2.1,0.8,-3.2c0.2,-0.6,0.6,-0.9,1.2,-0.9c0.1,0,0.3,0,0.4,0c1.9,0,3.7,-0.1,5.4,-0.9c2.2,-0.9,3.7,-2.4,3.9,-4.8c0.1,-1.3,-0.1,-2.6,-1.3,-3.7c-0.8,-0.7,-1.7,-1.1,-2.7,-1.2c-1.5,-0.1,-6.6,-0.2,-7.5,-0.2c-0.6,0,-1.1,0.4,-1.2,1c-1,4.6,-2.1,9.3,-3.2,13.9C7.9,22.7,8.1,23,8.8,23zM25.7,12.4c-0.2,-0.8,-1,-1.7,-1.6,-1.9v0.1c0.7,1.8,0.5,3.5,-0.7,5.1c-0.9,1.2,-2.2,1.8,-3.6,2.3c-1.5,0.5,-3.2,0.6,-4.8,0.6c-0.8,0,-1.2,0.3,-1.4,1.1c-0.2,1,-0.5,2,-0.7,3c-0.1,0.7,-0.5,1,-1.2,1c-0.5,0,-0.9,0,-1.4,0c-0.1,0.1,-0.1,0.2,-0.1,0.5c-0.1,0.7,0.2,1,0.9,1c0.6,0,1.3,0,2,0c0.6,0,1,-0.4,1.2,-1c0.2,-1.1,0.5,-2.1,0.7,-3.1c0.1,-0.8,0.6,-1.1,1.3,-1.1s1.4,0,2.1,0c1.8,-0.2,3.5,-0.6,5,-1.6C25.6,16.9,26.3,14.6,25.7,12.4z" fill="#3E79B4"/>
    <path d="M10.3,23.7c0.5,0,0.9,0,1.4,0c0.7,0,1.1,-0.3,1.2,-1c0.2,-1,0.5,-2,0.7,-3c0.2,-0.8,0.6,-1.1,1.4,-1.1c1.6,0,3.3,-0.1,4.8,-0.6c1.4,-0.5,2.7,-1.1,3.6,-2.3c1.2,-1.6,1.4,-3.3,0.7,-5.1v-0.1c0.6,0.2,1.4,1.1,1.6,1.9c0.6,2.2,-0.1,4.5,-2.3,6c-1.5,1,-3.2,1.4,-5,1.6c-0.7,0,-1.4,0,-2.1,0s-1.2,0.3,-1.3,1.1c-0.2,1,-0.5,2,-0.7,3.1c-0.2,0.6,-0.6,1,-1.2,1c-0.7,0,-1.4,0,-2,0c-0.7,0,-1,-0.3,-0.9,-1C10.2,23.9,10.2,23.8,10.3,23.7zM23.9,12.2c-0.2,2.4,-1.7,3.9,-3.9,4.8c-1.7,0.8,-3.5,0.9,-5.4,0.9c-0.1,0,-0.3,0,-0.4,0c-0.6,0,-1,0.3,-1.2,0.9c-0.3,1.1,-0.5,2.1,-0.8,3.2c-0.2,0.7,-0.6,1,-1.3,1s-1.4,0,-2.1,0s-0.9,-0.3,-0.8,-1c1.1,-4.6,2.2,-9.3,3.2,-13.9c0.1,-0.6,0.6,-1,1.2,-1c0.9,0,6,0.1,7.5,0.2c1,0.1,1.9,0.5,2.7,1.2C23.8,9.6,24,10.9,23.9,12.2zM18.1,10.4c-0.8,-0.2,-1.6,-0.2,-2.3,-0.2c-0.4,0,-0.7,0.3,-0.9,0.7c-0.1,0.1,-0.1,0.2,-0.1,0.4c-0.2,0.9,-0.4,1.8,-0.6,2.7c-0.2,0.7,0.1,1,0.8,1c0.2,0,0.3,0,0.5,0l0,0c0.5,-0.1,1,-0.1,1.6,-0.2c1.5,-0.3,2.4,-1.3,2.5,-2.6C19.4,11.2,19.1,10.6,18.1,10.4z" fill="#FFFFFF"/>
  </g>
</svg>
