<?xml version="1.0" encoding="UTF-8"?>
<!DOCTYPE svg PUBLIC "-//W3C//DTD SVG 1.1//EN" "http://www.w3.org/Graphics/SVG/1.1/DTD/svg11.dtd">
<svg version="1.1" id="Layer_1" xmlns="http://www.w3.org/2000/svg" xmlns:xlink="http://www.w3.org/1999/xlink" x="0px" y="0px" width="32px" height="32px" viewBox="0 0 32 32" enable-background="new 0 0 32 32" xml:space="preserve">
  <g id="icon">
    <path d="M11.1,21H7.6V11h3.5c-1.3,1.2,-2.1,3.1,-2.1,5S9.7,19.8,11.1,21zM22,16c0,2.1,-1.1,4,-2.9,5.1c-0.4,0.3,-0.9,0.5,-1.4,0.6h-0.1c-0.2,0,-0.4,0.1,-0.6,0.1c-0.1,0,-0.1,0,-0.2,0c-0.2,0.1,-0.5,0.1,-0.7,0.1s-0.4,-0.1,-0.7,-0.1c-0.1,0,-0.1,0,-0.2,0c-0.2,0,-0.4,0,-0.6,-0.1c-0.1,0,-0.1,0,-0.1,0c-0.5,-0.1,-1,-0.3,-1.4,-0.6c-1.8,-1.1,-2.9,-3,-2.9,-5.1s1.1,-4,2.9,-5.1c0.4,-0.3,0.9,-0.5,1.4,-0.6c0.2,0,0.4,-0.1,0.6,-0.1c0.1,0,0.1,0,0.2,0c0.2,-0.1,0.5,-0.1,0.7,-0.1s0.5,0.1,0.8,0.1c0.1,0,0.1,0,0.2,0c0.2,0,0.4,0,0.6,0.1h0.1c0.5,0.1,1,0.3,1.4,0.6C20.9,12,22,13.9,22,16zM20.9,15.8c-0.1,-2.5,-2,-4.5,-4.5,-4.6c-0.2,0,-0.3,0.1,-0.3,0.3v0.5c0,0.1,0.1,0.2,0.2,0.2c1.9,0.1,3.5,1.6,3.6,3.6c0,0.1,0.1,0.3,0.3,0.3h0.4C20.8,16.1,20.9,16,20.9,15.8zM32,16c0,8.8,-7.2,16,-16,16S0,24.8,0,16S7.2,0,16,0S32,7.2,32,16zM25.8,11c0,-0.5,-0.4,-1.2,-1,-1.2h-5.3c-1.1,-0.6,-2.2,-0.9,-3.4,-0.9s-2.4,0.3,-3.4,0.9h-1.2c-0.1,-0.4,-0.5,-0.8,-1,-0.8h-0.8c-0.5,0,-1,0.4,-1,0.8H7.2c-0.3,0,-0.8,0.7,-0.8,1.2v10.3c0,0.6,0.4,0.9,1,0.9h5.2c1.1,0.6,2.2,0.9,3.4,0.9s2.3,-0.3,3.5,-0.9h5.3c0.5,0,1,-0.4,1,-0.9V11zM23,15.9c0,1.9,-0.8,3.8,-2.1,5l3.6,0.1V10.9h-3.6C22.3,12.1,23,14,23,15.9z" fill="#3E79B4"/>
    <path d="M16,23.1c-1.2,0,-2.3,-0.3,-3.4,-0.9H7.4c-0.6,0,-1,-0.3,-1,-0.9V11c0,-0.5,0.5,-1.2,0.8,-1.2h1.5c0,-0.4,0.5,-0.8,1,-0.8h0.8c0.5,0,0.9,0.4,1,0.8h1.2c1,-0.6,2.2,-0.9,3.4,-0.9s2.3,0.3,3.4,0.9h5.3c0.6,0,1,0.7,1,1.2v10.3c0,0.5,-0.5,0.9,-1,0.9h-5.3C18.3,22.8,17.2,23.1,16,23.1zM16,10.1c-0.2,0,-0.5,0,-0.7,0.1c-0.1,0,-0.1,0,-0.2,0c-0.2,0,-0.4,0.1,-0.6,0.1l0,0l0,0c-0.5,0.1,-1,0.3,-1.4,0.6c-1.8,1.1,-2.9,3,-2.9,5.1s1.1,4,2.9,5.1c0.4,0.3,0.9,0.5,1.4,0.6l0,0c0,0,0,0,0.1,0c0.2,0.1,0.4,0.1,0.6,0.1c0.1,0,0.1,0,0.2,0c0.3,0,0.5,0.1,0.7,0.1s0.5,0,0.7,-0.1c0.1,0,0.1,0,0.2,0c0.2,0,0.4,-0.1,0.6,-0.1h0.1c0.5,-0.1,1,-0.3,1.4,-0.6c1.8,-1.1,2.9,-3,2.9,-5.1s-1.1,-4,-2.9,-5.1c-0.4,-0.3,-0.9,-0.5,-1.4,-0.6h-0.1c-0.2,-0.1,-0.4,-0.1,-0.6,-0.1c-0.1,0,-0.1,0,-0.2,0C16.5,10.2,16.2,10.1,16,10.1zM24.5,21V10.9h-3.6c1.4,1.2,2.1,3.1,2.1,5s-0.8,3.8,-2.1,5L24.5,21L24.5,21zM11.1,21c-1.4,-1.2,-2.1,-3.1,-2.1,-5s0.8,-3.8,2.1,-5H7.6v10H11.1L11.1,21zM19.9,15.8c-0.1,-2,-1.7,-3.5,-3.6,-3.6c-0.1,0,-0.2,-0.1,-0.2,-0.2v-0.5c0,-0.2,0.1,-0.3,0.3,-0.3c2.5,0.1,4.4,2.1,4.5,4.6c0,0.2,-0.1,0.3,-0.3,0.3h-0.4C20,16.1,19.9,15.9,19.9,15.8z" fill="#FFFFFF"/>
  </g>
</svg>
