<?xml version="1.0" encoding="UTF-8"?>
<!DOCTYPE svg PUBLIC "-//W3C//DTD SVG 1.1//EN" "http://www.w3.org/Graphics/SVG/1.1/DTD/svg11.dtd">
<svg version="1.1" id="Layer_1" xmlns="http://www.w3.org/2000/svg" xmlns:xlink="http://www.w3.org/1999/xlink" x="0px" y="0px" width="32px" height="32px" viewBox="0 0 32 32" enable-background="new 0 0 32 32" xml:space="preserve">
  <g id="icon">
    <path d="M16,0C7.2,0,0,7.2,0,16s7.2,16,16,16s16,-7.2,16,-16S24.8,0,16,0zM16,6.3c1.4,0,2.7,0.3,4,0.9c0,0.2,0,6.1,0,6.5c-0.3,-0.3,-7.1,-6.5,-7.4,-6.7C13.7,6.6,14.9,6.3,16,6.3zM6.7,18.6c-0.3,-0.8,-0.4,-1.7,-0.4,-2.5c0,-3.7,2,-7,5.3,-8.7c0.1,0.1,3.5,3.2,3.7,3.3C15.1,10.9,6.9,18.3,6.7,18.6zM11,24.4c-1.8,-1.1,-3.2,-2.8,-4,-4.7c0.1,-0.1,3.7,-3.4,4,-3.7C11,16.5,11,24,11,24.4zM17,25.7h-1.8c-1.1,-0.1,-2.1,-0.4,-3.1,-0.8c0,-0.1,0,-4.4,0,-4.7c0.2,0,12.3,0,12.7,0C23.3,23.3,20.4,25.4,17,25.7zM25.1,19.3c-0.1,0,-3.9,0,-4.1,0c0,-0.2,0,-11.1,0,-11.5c2.9,1.8,4.7,4.9,4.7,8.3C25.7,17.1,25.6,18.2,25.1,19.3z" fill="#8C53A1"/>
    <path d="M12.6,7c0.3,0.2,7.1,6.4,7.4,6.7c0,-0.4,0,-6.3,0,-6.5c-1.3,-0.6,-2.6,-0.9,-4,-0.9C14.9,6.3,13.7,6.6,12.6,7zM11,24.4c0,-0.4,0,-7.9,0,-8.4c-0.3,0.3,-3.9,3.6,-4,3.7C7.8,21.6,9.2,23.3,11,24.4zM15.3,10.7c-0.2,-0.1,-3.6,-3.2,-3.7,-3.3c-3.3,1.7,-5.3,5,-5.3,8.7c0,0.8,0.1,1.7,0.4,2.5C6.9,18.3,15.1,10.9,15.3,10.7zM12.1,24.9c1,0.4,2,0.7,3.1,0.8h1.8c3.4,-0.3,6.3,-2.4,7.8,-5.5c-0.4,0,-12.5,0,-12.7,0C12.1,20.5,12.1,24.8,12.1,24.9zM25.7,16.1c0,-3.4,-1.8,-6.5,-4.7,-8.3c0,0.4,0,11.3,0,11.5c0.2,0,4,0,4.1,0C25.6,18.2,25.7,17.1,25.7,16.1z" fill="#FFFFFF"/>
  </g>
</svg>
