<?xml version="1.0" encoding="UTF-8"?>
<!DOCTYPE svg PUBLIC "-//W3C//DTD SVG 1.1//EN" "http://www.w3.org/Graphics/SVG/1.1/DTD/svg11.dtd">
<svg version="1.1" id="Layer_1" xmlns="http://www.w3.org/2000/svg" xmlns:xlink="http://www.w3.org/1999/xlink" x="0px" y="0px" width="32px" height="32px" viewBox="0 0 32 32" enable-background="new 0 0 32 32" xml:space="preserve">
  <g id="icon">
    <path d="M16,0C7.2,0,0,7.2,0,16s7.2,16,16,16s16,-7.2,16,-16S24.8,0,16,0zM17.7,21.3c-1.2,0,-2.3,-0.7,-2.7,-1.4c0,0,-0.7,2.6,-0.8,3.1c-0.5,1.8,-1.9,3.6,-2,3.7s-0.3,0,-0.3,-0.1c-0.1,-0.2,-0.4,-2.5,0,-4.3c0.2,-0.9,1.4,-6.1,1.4,-6.1s-0.4,-0.7,-0.4,-1.8c0,-1.7,1,-2.9,2.2,-2.9c1,0,1.5,0.8,1.5,1.7c0,1,-0.7,2.6,-1,4c-0.3,1.2,0.6,2.2,1.8,2.2c2.2,0,3.6,-2.8,3.6,-6c0,-2.5,-1.7,-4.3,-4.7,-4.3c-3.4,0,-5.5,2.6,-5.5,5.4c0,1,0.2,1.7,0.7,2.2c0.2,0.2,0.3,0.3,0.2,0.6c0,0.2,-0.1,0.7,-0.2,0.9c-0.1,0.3,-0.3,0.4,-0.6,0.3c-1.6,-0.6,-2.3,-2.4,-2.3,-4.3c0,-3.2,2.7,-7,8,-7c4.3,0,7.1,3.1,7.2,6.4C23.8,18,21.3,21.3,17.7,21.3z" fill="#CD4C32"/>
    <path d="M16.6,7.2c-5.3,0,-8,3.8,-8,7c0,1.9,0.7,3.7,2.3,4.3c0.3,0.1,0.5,0,0.6,-0.3c0.1,-0.2,0.2,-0.7,0.2,-0.9c0.1,-0.3,0,-0.4,-0.2,-0.6c-0.5,-0.5,-0.7,-1.2,-0.7,-2.2c0,-2.8,2.1,-5.4,5.5,-5.4c3,0,4.7,1.8,4.7,4.3c0,3.2,-1.4,6,-3.6,6c-1.2,0,-2.1,-1,-1.8,-2.2c0.3,-1.4,1,-3,1,-4c0,-0.9,-0.5,-1.7,-1.5,-1.7c-1.2,0,-2.2,1.2,-2.2,2.9c0,1.1,0.4,1.8,0.4,1.8s-1.2,5.2,-1.4,6.1c-0.4,1.8,-0.1,4.1,0,4.3c0,0.1,0.2,0.2,0.3,0.1s1.5,-1.9,2,-3.7c0.1,-0.5,0.8,-3.1,0.8,-3.1c0.4,0.7,1.5,1.4,2.7,1.4c3.6,0,6.1,-3.3,6.1,-7.7C23.7,10.3,20.9,7.2,16.6,7.2z" fill="#FFFFFF"/>
  </g>
</svg>
