<?xml version="1.0" encoding="UTF-8"?>
<!DOCTYPE svg PUBLIC "-//W3C//DTD SVG 1.1//EN" "http://www.w3.org/Graphics/SVG/1.1/DTD/svg11.dtd">
<svg version="1.1" id="Layer_1" xmlns="http://www.w3.org/2000/svg" xmlns:xlink="http://www.w3.org/1999/xlink" x="0px" y="0px" width="32px" height="32px" viewBox="0 0 32 32" enable-background="new 0 0 32 32" xml:space="preserve">
  <g id="icon">
    <g>
      <path d="M16.1,9c-1.9,0,-4.3,1.4,-4.3,6.5s2.3,5.9,4.2,5.9c0.4,0,0.7,0,1.1,-0.1c-0.4,-0.7,-0.9,-1.3,-2,-1.3c-0.1,-0.8,-0.2,-1.3,-0.2,-1.3c0.5,-0.2,2.5,-0.7,4.1,1.3c0.7,-0.9,1.2,-2.4,1.2,-4.7C20.2,10.2,18,9,16.1,9z" fill="#CD4C32"/>
      <path d="M16,0C7.2,0,0,7.2,0,16s7.2,16,16,16s16,-7.2,16,-16S24.8,0,16,0zM22.3,23.8c0.1,0.9,0.2,1.4,0.2,1.4c-0.6,0.3,-3,1,-4.6,-1.9c-0.6,0.1,-1.3,0.2,-1.9,0.2c-4.1,0,-8,-2.2,-8,-8.2c0,-5.3,4.2,-8.3,8,-8.3c4.1,0,8,2.1,8,8.1c0,3.2,-1.5,5.8,-3.8,7.2C20.6,23.1,21.1,23.7,22.3,23.8z" fill="#CD4C32"/>
    </g>
    <path d="M20.2,22.3L20.2,22.3L20.2,22.3c2.3,-1.4,3.8,-4,3.8,-7.2c0,-6,-3.9,-8.1,-8,-8.1c-3.8,0,-8,3,-8,8.3c0,6,3.9,8.2,8,8.2c0.6,0,1.3,-0.1,1.9,-0.2l0,0c1.6,2.9,4,2.2,4.6,1.9c0,0,-0.1,-0.5,-0.2,-1.4C21.1,23.7,20.6,23.1,20.2,22.3zM19,20c-1.6,-2,-3.6,-1.5,-4.1,-1.3c0,0,0.1,0.5,0.2,1.3c1.1,0,1.6,0.6,2,1.3l0,0l0,0c-0.4,0.1,-0.7,0.1,-1.1,0.1c-1.9,0,-4.2,-0.8,-4.2,-5.9s2.4,-6.5,4.3,-6.5s4.1,1.2,4.1,6.3C20.2,17.6,19.7,19.1,19,20L19,20z" fill="#FFFFFF"/>
  </g>
</svg>
