<?xml version="1.0" encoding="UTF-8"?>
<!DOCTYPE svg PUBLIC "-//W3C//DTD SVG 1.1//EN" "http://www.w3.org/Graphics/SVG/1.1/DTD/svg11.dtd">
<svg version="1.1" id="Layer_1" xmlns="http://www.w3.org/2000/svg" xmlns:xlink="http://www.w3.org/1999/xlink" x="0px" y="0px" width="32px" height="32px" viewBox="0 0 32 32" enable-background="new 0 0 32 32" xml:space="preserve">
  <g id="icon">
    <path d="M21,17.6c0.1,0.8,-0.6,1.5,-1.5,1.5c-0.8,0,-1.5,-0.7,-1.5,-1.5s0.7,-1.5,1.5,-1.5S21,16.8,21,17.6zM19.2,21.2c-0.9,0.6,-2.1,1,-3.2,0.9c-1.2,0,-2.3,-0.3,-3.2,-1c-0.1,-0.1,-0.3,-0.1,-0.5,0c-0.2,0.2,-0.2,0.4,-0.1,0.6c1.1,0.8,2.4,1.3,3.8,1.2c1.4,0,2.7,-0.4,3.8,-1.2c0.1,-0.1,0.2,-0.3,0,-0.5S19.4,21,19.2,21.2zM13.9,17.5c0,-0.8,-0.7,-1.5,-1.5,-1.5s-1.5,0.7,-1.5,1.5c0,0.9,0.7,1.5,1.5,1.5S13.9,18.3,13.9,17.5zM32,16c0,8.8,-7.2,16,-16,16S0,24.8,0,16S7.2,0,16,0S32,7.2,32,16zM26.1,16c0,-1.2,-1.1,-2.2,-2.3,-2.1c-0.5,0,-1.1,0.2,-1.5,0.6c-1.7,-1.2,-3.8,-1.8,-5.9,-1.9l1,-4.7l3.3,0.7c0.1,0.8,0.8,1.4,1.7,1.3c0.8,-0.1,1.4,-0.8,1.3,-1.7s-0.7,-1.4,-1.6,-1.3c-0.5,0,-0.9,0.3,-1.1,0.7l-3.7,-0.7c-0.3,-0.1,-0.6,0.1,-0.6,0.3l-1.1,5.3c-2.1,0,-4.2,0.7,-5.9,1.9c-0.9,-0.8,-2.3,-0.8,-3.1,0.1s-0.8,2.3,0.1,3.1c0.1,0.2,0.3,0.3,0.5,0.4c0,0.2,0,0.4,0,0.7c0,3.4,4,6.2,8.9,6.2s8.9,-2.8,8.9,-6.2c0,-0.2,0,-0.4,0,-0.7C25.7,17.6,26.2,16.8,26.1,16z" fill="#CD4C32"/>
    <path d="M26.1,16c0,-1.2,-1.1,-2.2,-2.3,-2.1c-0.5,0,-1.1,0.2,-1.5,0.6c-1.7,-1.2,-3.8,-1.8,-5.9,-1.9l1,-4.7l3.3,0.7c0.1,0.8,0.8,1.4,1.7,1.3c0.8,-0.1,1.4,-0.8,1.3,-1.7s-0.7,-1.4,-1.6,-1.3c-0.5,0,-0.9,0.3,-1.1,0.7l-3.7,-0.7c-0.3,-0.1,-0.6,0.1,-0.6,0.3l0,0l-1.1,5.3c-2.1,0,-4.2,0.7,-5.9,1.9c-0.9,-0.8,-2.3,-0.8,-3.1,0.1s-0.8,2.3,0.1,3.1c0.1,0.2,0.3,0.3,0.5,0.4c0,0.2,0,0.4,0,0.7c0,3.4,4,6.2,8.9,6.2s8.9,-2.8,8.9,-6.2c0,-0.2,0,-0.4,0,-0.7C25.7,17.6,26.2,16.8,26.1,16zM10.9,17.5c0,-0.8,0.7,-1.5,1.5,-1.5s1.5,0.7,1.5,1.5s-0.7,1.5,-1.5,1.5S10.9,18.4,10.9,17.5zM19.8,21.7c-1.1,0.8,-2.4,1.2,-3.8,1.2c-1.4,0.1,-2.7,-0.4,-3.8,-1.2c-0.1,-0.2,-0.1,-0.4,0.1,-0.6c0.2,-0.1,0.4,-0.1,0.5,0c0.9,0.7,2,1,3.2,1c1.1,0.1,2.3,-0.3,3.2,-0.9c0.2,-0.2,0.4,-0.2,0.6,0S19.9,21.6,19.8,21.7L19.8,21.7L19.8,21.7L19.8,21.7zM19.5,19.1c-0.8,0,-1.5,-0.7,-1.5,-1.5s0.7,-1.5,1.5,-1.5s1.5,0.7,1.5,1.5C21.1,18.4,20.4,19.1,19.5,19.1L19.5,19.1L19.5,19.1z" fill="#FFFFFF"/>
  </g>
</svg>
