<?xml version="1.0" encoding="UTF-8"?>
<!DOCTYPE svg PUBLIC "-//W3C//DTD SVG 1.1//EN" "http://www.w3.org/Graphics/SVG/1.1/DTD/svg11.dtd">
<svg version="1.1" id="Layer_1" xmlns="http://www.w3.org/2000/svg" xmlns:xlink="http://www.w3.org/1999/xlink" x="0px" y="0px" width="32px" height="32px" viewBox="0 0 32 32" enable-background="new 0 0 32 32" xml:space="preserve">
  <g id="icon">
    <path d="M16,0C7.1,0,0,7.2,0,16s7.2,16,16,16s16,-7.2,16,-16S24.8,0,16,0zM12.2,22.9c-0.4,0.4,-0.9,0.6,-1.6,0.6c-0.6,0,-1.2,-0.2,-1.6,-0.6s-0.6,-0.9,-0.6,-1.5s0.2,-1.2,0.6,-1.6s0.9,-0.6,1.6,-0.6c0.6,0,1.2,0.2,1.6,0.6s0.6,0.9,0.6,1.6C12.8,22,12.6,22.5,12.2,22.9zM18.8,23.6h-2.2c-0.3,0,-0.5,-0.2,-0.5,-0.5c-0.1,-1.9,-0.8,-3.7,-2.2,-5c-1.3,-1.4,-3.1,-2.2,-5,-2.3c-0.3,0,-0.5,-0.2,-0.5,-0.5v-2.2c0,-0.3,0.3,-0.5,0.5,-0.4c2.8,0.1,5.3,1.3,7.2,3.2s3.1,4.4,3.2,7.2C19.3,23.4,19.1,23.6,18.8,23.6zM24.5,23.6h-2.2c-0.3,0,-0.5,-0.2,-0.5,-0.5c-0.2,-7,-5.9,-12.6,-12.9,-12.9c-0.3,0,-0.5,-0.2,-0.5,-0.5V7.5c0,-0.3,0.3,-0.5,0.6,-0.5c4.3,0.1,8.3,2,11.1,4.9c2.9,2.9,4.8,6.8,4.9,11.2C25,23.4,24.8,23.6,24.5,23.6z" fill="#E78155"/>
    <path d="M12.2,19.8c0.4,0.4,0.6,0.9,0.6,1.6c0,0.6,-0.2,1.1,-0.6,1.5l0,0c-0.4,0.4,-0.9,0.6,-1.6,0.6c-0.6,0,-1.2,-0.2,-1.6,-0.6s-0.6,-0.9,-0.6,-1.5s0.2,-1.2,0.6,-1.6l0,0c0.4,-0.4,0.9,-0.6,1.6,-0.6C11.2,19.2,11.8,19.4,12.2,19.8zM12.2,19.8L12.2,19.8L12.2,19.8L12.2,19.8zM9.1,22.9L9.1,22.9L9.1,22.9L9.1,22.9zM8.4,13.1v2.2c0,0.3,0.2,0.5,0.5,0.5c1.9,0.1,3.7,0.9,5,2.3c1.4,1.3,2.1,3.1,2.2,5c0,0.3,0.2,0.5,0.5,0.5h2.2c0.3,0,0.5,-0.2,0.5,-0.5c-0.1,-2.8,-1.3,-5.3,-3.2,-7.2s-4.4,-3.1,-7.2,-3.2C8.7,12.6,8.4,12.8,8.4,13.1zM8.4,7.5v2.2c0,0.3,0.2,0.5,0.5,0.5c7,0.3,12.7,5.9,12.9,12.9c0,0.3,0.2,0.5,0.5,0.5h2.2c0.3,0,0.5,-0.2,0.5,-0.5c-0.1,-4.4,-2,-8.3,-4.9,-11.2c-2.8,-2.9,-6.8,-4.8,-11.1,-4.9C8.7,7,8.4,7.2,8.4,7.5z" fill="#FFFFFF"/>
  </g>
</svg>
