<?xml version="1.0" encoding="UTF-8"?>
<!DOCTYPE svg PUBLIC "-//W3C//DTD SVG 1.1//EN" "http://www.w3.org/Graphics/SVG/1.1/DTD/svg11.dtd">
<svg version="1.1" id="Layer_1" xmlns="http://www.w3.org/2000/svg" xmlns:xlink="http://www.w3.org/1999/xlink" x="0px" y="0px" width="32px" height="32px" viewBox="0 0 32 32" enable-background="new 0 0 32 32" xml:space="preserve">
  <g id="icon">
    <path d="M16,0C7.2,0,0,7.2,0,16s7.2,16,16,16s16,-7.2,16,-16S24.8,0,16,0zM12.7,15.9c0,0.1,0,0.1,0,0.2l6.1,3c0.5,-0.4,1.2,-0.7,1.9,-0.7c1.7,0,3,1.3,3,3s-1.3,3,-3,3s-3,-1.3,-3,-3c0,-0.1,0,-0.1,0,-0.2l-6.1,-3c-0.5,0.4,-1.2,0.7,-1.9,0.7c-1.7,0,-3,-1.3,-3,-3s1.3,-3,3,-3c0.7,0,1.4,0.3,1.9,0.7l6.1,-3c0,-0.1,0,-0.1,0,-0.2c0,-1.7,1.3,-3,3,-3s3,1.3,3,3s-1.3,3,-3,3c-0.7,0,-1.4,-0.3,-1.9,-0.7l-6.1,3C12.7,15.8,12.7,15.8,12.7,15.9z" fill="#4EA17E"/>
    <path d="M9.7,18.9c0.7,0,1.4,-0.3,1.9,-0.7l6.1,3c0,0.1,0,0.1,0,0.2c0,1.7,1.3,3,3,3s3,-1.3,3,-3s-1.3,-3,-3,-3c-0.7,0,-1.4,0.3,-1.9,0.7l-6.1,-3c0,-0.1,0,-0.1,0,-0.2s0,-0.1,0,-0.2l6.1,-3c0.5,0.4,1.2,0.7,1.9,0.7c1.7,0,3,-1.3,3,-3s-1.3,-3,-3,-3s-3,1.3,-3,3c0,0.1,0,0.1,0,0.2l-6.1,3c-0.5,-0.4,-1.2,-0.7,-1.9,-0.7c-1.7,0,-3,1.3,-3,3S8.1,18.9,9.7,18.9z" fill="#FFFFFF"/>
  </g>
</svg>
