<?xml version="1.0" encoding="UTF-8"?>
<!DOCTYPE svg PUBLIC "-//W3C//DTD SVG 1.1//EN" "http://www.w3.org/Graphics/SVG/1.1/DTD/svg11.dtd">
<svg version="1.1" id="Layer_1" xmlns="http://www.w3.org/2000/svg" xmlns:xlink="http://www.w3.org/1999/xlink" x="0px" y="0px" width="32px" height="32px" viewBox="0 0 32 32" enable-background="new 0 0 32 32" xml:space="preserve">
  <g id="icon">
    <path d="M20.6,16.9c0.2,0.4,0.3,0.9,0.3,1.4s-0.2,1.2,-0.6,1.7s-0.9,1,-1.7,1.3c-0.7,0.3,-1.6,0.4,-2.6,0.4c-1.2,0,-2.2,-0.2,-2.9,-0.6c-0.5,-0.3,-1,-0.7,-1.3,-1.2s-0.5,-1,-0.5,-1.5c0,-0.3,0.1,-0.6,0.3,-0.8s0.5,-0.3,0.9,-0.3c0.3,0,0.5,0.1,0.7,0.2c0.2,0.2,0.3,0.4,0.5,0.7c0.1,0.3,0.3,0.6,0.5,0.8s0.4,0.4,0.7,0.5s0.7,0.2,1.2,0.2c0.7,0,1.2,-0.1,1.6,-0.4s0.6,-0.6,0.6,-1c0,-0.3,-0.1,-0.6,-0.3,-0.8s-0.5,-0.4,-0.9,-0.5s-0.9,-0.2,-1.5,-0.4c-0.8,-0.2,-1.6,-0.4,-2.1,-0.6c-0.6,-0.2,-1.1,-0.6,-1.4,-1c-0.4,-0.4,-0.5,-1,-0.5,-1.6s0.2,-1.2,0.6,-1.7s0.9,-0.8,1.6,-1.1s1.5,-0.4,2.4,-0.4c0.7,0,1.4,0.1,1.9,0.3s1,0.4,1.3,0.7c0.4,0.3,0.6,0.6,0.8,0.9s0.3,0.6,0.3,0.9s-0.1,0.6,-0.3,0.8s-0.5,0.4,-0.8,0.4s-0.5,-0.1,-0.7,-0.2s-0.3,-0.3,-0.5,-0.7s-0.5,-0.7,-0.7,-0.9c-0.3,-0.2,-0.7,-0.3,-1.4,-0.3c-0.6,0,-1.1,0.1,-1.4,0.3c-0.6,0.3,-0.7,0.6,-0.7,0.9c0,0.2,0.1,0.3,0.2,0.5c0.1,0.1,0.3,0.3,0.5,0.4s0.4,0.2,0.7,0.3c0.2,0.1,0.6,0.2,1.1,0.3c0.7,0.1,1.3,0.3,1.8,0.5s1,0.4,1.4,0.6C20.1,16.2,20.4,16.5,20.6,16.9zM32,16c0,8.8,-7.2,16,-16,16S0,24.8,0,16S7.2,0,16,0C24.9,0,32,7.2,32,16zM24.1,17.8c0.1,-0.6,0.2,-1.2,0.2,-1.8c0,-4.5,-3.7,-8.2,-8.2,-8.2c-0.5,0,-0.9,0,-1.4,0.1c-0.7,-0.5,-1.6,-0.7,-2.5,-0.7c-2.6,0,-4.7,2.1,-4.7,4.7c0,0.9,0.2,1.7,0.7,2.4c-0.2,0.7,-0.3,1.2,-0.3,1.8c0,4.5,3.7,8.2,8.2,8.2c0.5,0,1,0,1.5,-0.1c0.7,0.4,1.4,0.6,2.2,0.6c2.6,0,4.7,-2.1,4.7,-4.7C24.6,19.2,24.4,18.5,24.1,17.8z" fill="#529FBF"/>
    <path d="M24.1,17.8c0.1,-0.6,0.2,-1.2,0.2,-1.8c0,-4.5,-3.7,-8.2,-8.2,-8.2c-0.5,0,-0.9,0,-1.4,0.1c-0.7,-0.5,-1.6,-0.7,-2.5,-0.7c-2.6,0,-4.7,2.1,-4.7,4.7c0,0.9,0.2,1.7,0.7,2.4c-0.2,0.7,-0.3,1.2,-0.3,1.8c0,4.5,3.7,8.2,8.2,8.2c0.5,0,1,0,1.5,-0.1c0.7,0.4,1.4,0.6,2.2,0.6c2.6,0,4.7,-2.1,4.7,-4.7C24.6,19.2,24.4,18.5,24.1,17.8zM20.3,20c-0.4,0.5,-0.9,1,-1.7,1.3c-0.7,0.3,-1.6,0.4,-2.6,0.4c-1.2,0,-2.2,-0.2,-2.9,-0.6c-0.5,-0.3,-1,-0.7,-1.3,-1.2s-0.5,-1,-0.5,-1.5c0,-0.3,0.1,-0.6,0.3,-0.8s0.5,-0.3,0.9,-0.3c0.3,0,0.5,0.1,0.7,0.2c0.2,0.2,0.3,0.4,0.5,0.7c0.1,0.3,0.3,0.6,0.5,0.8s0.4,0.4,0.7,0.5s0.7,0.2,1.2,0.2c0.7,0,1.2,-0.1,1.6,-0.4s0.6,-0.6,0.6,-1c0,-0.3,-0.1,-0.6,-0.3,-0.8s-0.5,-0.4,-0.9,-0.5s-0.9,-0.2,-1.5,-0.4c-0.8,-0.2,-1.6,-0.4,-2.1,-0.6c-0.6,-0.2,-1.1,-0.6,-1.4,-1c-0.4,-0.4,-0.5,-1,-0.5,-1.6s0.2,-1.2,0.6,-1.7s0.9,-0.8,1.6,-1.1s1.5,-0.4,2.4,-0.4c0.7,0,1.4,0.1,1.9,0.3s1,0.4,1.3,0.7c0.4,0.3,0.6,0.6,0.8,0.9s0.3,0.6,0.3,0.9s-0.1,0.6,-0.3,0.8s-0.5,0.4,-0.8,0.4s-0.5,-0.1,-0.7,-0.2s-0.3,-0.3,-0.5,-0.7s-0.5,-0.7,-0.7,-0.9c-0.3,-0.2,-0.7,-0.3,-1.4,-0.3c-0.6,0,-1.1,0.1,-1.4,0.3c-0.6,0.3,-0.7,0.6,-0.7,0.9c0,0.2,0.1,0.3,0.2,0.5c0.1,0.1,0.3,0.3,0.5,0.4s0.4,0.2,0.7,0.3c0.2,0.1,0.6,0.2,1.1,0.3c0.7,0.1,1.3,0.3,1.8,0.5s1,0.4,1.4,0.6c0.4,0.3,0.7,0.6,0.9,1s0.3,0.9,0.3,1.4S20.7,19.5,20.3,20z" fill="#FFFFFF"/>
  </g>
</svg>
