<?xml version="1.0" encoding="UTF-8"?>
<!DOCTYPE svg PUBLIC "-//W3C//DTD SVG 1.1//EN" "http://www.w3.org/Graphics/SVG/1.1/DTD/svg11.dtd">
<svg version="1.1" id="Layer_1" xmlns="http://www.w3.org/2000/svg" xmlns:xlink="http://www.w3.org/1999/xlink" x="0px" y="0px" width="32px" height="32px" viewBox="0 0 32 32" enable-background="new 0 0 32 32" xml:space="preserve">
  <g id="icon">
    <path d="M17.3,13.6l1.2,3.6l0,0v0.1l-3.7,1.2l-1.2,-3.7L17.3,13.6zM32,16c0,8.8,-7.2,16,-16,16S0,24.8,0,16S7.2,0,16,0S32,7.2,32,16zM25,16.8c-0.1,-0.4,-0.4,-0.7,-0.7,-0.9c-0.2,-0.1,-0.4,-0.2,-0.7,-0.2c-0.2,0,-0.3,0,-0.5,0.1l-1.8,0.6l-1.2,-3.7l1.8,-0.6c0.4,-0.1,0.7,-0.4,0.9,-0.7c0.2,-0.4,0.2,-0.8,0.1,-1.2s-0.4,-0.7,-0.7,-0.9c-0.2,-0.1,-0.4,-0.2,-0.7,-0.2c-0.2,0,-0.3,0,-0.5,0.1l-1.8,0.6l-0.6,-1.8c-0.1,-0.3,-0.3,-0.6,-0.6,-0.8c-0.2,-0.1,-0.5,-0.2,-0.8,-0.2c-0.2,0,-0.3,0,-0.5,0.1c-0.4,0.1,-0.7,0.4,-0.9,0.7c-0.2,0.4,-0.2,0.8,-0.1,1.2l0.6,1.8l-3.6,1.2l-0.6,-1.8c-0.1,-0.3,-0.3,-0.6,-0.6,-0.8s-0.6,-0.3,-0.9,-0.3c-0.2,0,-0.3,0,-0.5,0.1c-0.3,0.2,-0.6,0.4,-0.8,0.8s-0.2,0.8,-0.1,1.2l0.6,1.8l-1.8,0.5c-0.4,0.1,-0.7,0.4,-0.8,0.7c-0.2,0.4,-0.3,0.8,-0.2,1.1c0.1,0.4,0.4,0.7,0.8,0.9c0.2,0.1,0.4,0.2,0.7,0.2c0.1,0,0.3,0,0.4,-0.1l1.8,-0.6l1.2,3.7l-1.8,0.6c-0.4,0.1,-0.7,0.4,-0.8,0.7c-0.2,0.3,-0.2,0.7,-0.1,1.1s0.4,0.7,0.8,0.9c0.2,0.1,0.4,0.2,0.7,0.2c0.1,0,0.3,0,0.4,-0.1l1.8,-0.6l0.6,1.8c0.2,0.6,0.8,1,1.4,1c0.1,0,0.3,0,0.4,-0.1c0.4,-0.1,0.7,-0.4,0.9,-0.8c0.2,-0.3,0.2,-0.7,0.1,-1.1l-0.6,-1.8l3.7,-1.2l0.6,2c0.2,0.6,0.8,1,1.4,1c0.1,0,0.3,0,0.4,-0.1c0.4,-0.1,0.7,-0.4,0.9,-0.8c0.2,-0.3,0.2,-0.7,0.1,-1.1l-0.6,-1.8l1.8,-0.6c0.4,-0.1,0.7,-0.4,0.9,-0.7S25.2,17.2,25,16.8z" fill="#4EA17E"/>
    <path d="M24.9,17.9c0.2,-0.3,0.3,-0.7,0.1,-1.1c-0.1,-0.4,-0.4,-0.7,-0.7,-0.9c-0.2,-0.1,-0.4,-0.2,-0.7,-0.2c-0.2,0,-0.3,0,-0.5,0.1l-1.8,0.6l-1.2,-3.7l1.8,-0.6c0.4,-0.1,0.7,-0.4,0.9,-0.7c0.2,-0.4,0.2,-0.8,0.1,-1.2s-0.4,-0.7,-0.7,-0.9c-0.2,-0.1,-0.4,-0.2,-0.7,-0.2c-0.2,0,-0.3,0,-0.5,0.1l-1.8,0.6l-0.6,-1.8c-0.1,-0.3,-0.3,-0.6,-0.6,-0.8c-0.2,-0.1,-0.5,-0.2,-0.8,-0.2c-0.2,0,-0.3,0,-0.5,0.1c-0.4,0.1,-0.7,0.4,-0.9,0.7c-0.2,0.4,-0.2,0.8,-0.1,1.2l0.6,1.8l-3.6,1.2l-0.6,-1.8c-0.1,-0.3,-0.3,-0.6,-0.6,-0.8s-0.6,-0.3,-0.9,-0.3c-0.2,0,-0.3,0,-0.5,0.1c-0.3,0.2,-0.6,0.4,-0.8,0.8s-0.2,0.8,-0.1,1.2l0.6,1.8l-1.8,0.5c-0.4,0.1,-0.7,0.4,-0.8,0.7c-0.2,0.4,-0.3,0.8,-0.2,1.1c0.1,0.4,0.4,0.7,0.8,0.9c0.2,0.1,0.4,0.2,0.7,0.2c0.1,0,0.3,0,0.4,-0.1l1.8,-0.6l1.2,3.7l-1.8,0.6c-0.4,0.1,-0.7,0.4,-0.8,0.7c-0.2,0.3,-0.2,0.7,-0.1,1.1s0.4,0.7,0.8,0.9c0.2,0.1,0.4,0.2,0.7,0.2c0.1,0,0.3,0,0.4,-0.1l1.8,-0.6l0.6,1.8c0.2,0.6,0.8,1,1.4,1c0.1,0,0.3,0,0.4,-0.1c0.4,-0.1,0.7,-0.4,0.9,-0.8c0.2,-0.3,0.2,-0.7,0.1,-1.1l-0.6,-1.8l3.7,-1.2l0.6,2c0.2,0.6,0.8,1,1.4,1c0.1,0,0.3,0,0.4,-0.1c0.4,-0.1,0.7,-0.4,0.9,-0.8c0.2,-0.3,0.2,-0.7,0.1,-1.1l-0.6,-1.8l1.8,-0.6C24.4,18.5,24.7,18.2,24.9,17.9zM18.5,17.3l-3.7,1.2l-1.2,-3.7l3.7,-1.2l1.2,3.6V17.3z" fill="#FFFFFF"/>
  </g>
</svg>
