<?xml version="1.0" encoding="UTF-8"?>
<!DOCTYPE svg PUBLIC "-//W3C//DTD SVG 1.1//EN" "http://www.w3.org/Graphics/SVG/1.1/DTD/svg11.dtd">
<svg version="1.1" id="Layer_1" xmlns="http://www.w3.org/2000/svg" xmlns:xlink="http://www.w3.org/1999/xlink" x="0px" y="0px" width="32px" height="32px" viewBox="0 0 32 32" enable-background="new 0 0 32 32" xml:space="preserve">
  <g id="icon">
    <path d="M16,0C7.2,0,0,7.2,0,16s7.2,16,16,16s16,-7.2,16,-16S24.8,0,16,0zM23.85,21.88c-0.7,0.1,-0.8,0.3,-1,1c0,0.1,-0.1,0.3,-0.3,0.3c-1,-0.2,-2.1,-0.2,-3.1,0.3c-1.1,0.6,-1.9,1.3,-3.2,1.3c-0.8,0,-1.4,-0.2,-2.2,-0.6c-1.3,-0.8,-2.1,-1.3,-3.7,-1.1c-0.2,0,-0.8,0.2,-0.9,-0.1c-0.1,-0.4,0,-1,-0.5,-1.1c-0.3,-0.1,-2.7,-0.4,-2.2,-1.2c0.2,-0.3,0.8,-0.4,1.1,-0.5c0.5,-0.2,1,-0.6,1.5,-1c0.6,-0.6,2.2,-2.4,1.2,-3.1c-0.5,-0.4,-2,-0.5,-2,-1.3c0.1,-1.1,1.6,-0.4,2.2,-0.4s0.3,-1,0.3,-1.4c0,-0.5,0,-1.1,0,-1.6c0.1,-2.7,2.6,-4.4,5.1,-4.4c2.1,0,4.1,1,4.8,3c0.4,1,0.3,2,0.3,3c0,0.3,-0.1,1.1,0,1.3c0,0.4,0.4,0.2,0.7,0.2c0.6,0,1.3,-0.5,1.7,0.3c0.3,0.7,-0.8,1,-1.3,1.2c-0.9,0,-1.1,0.9,-0.8,1.5c0.5,0.9,1.2,1.8,2.1,2.4c0.4,0.3,1.6,0.4,1.9,0.9C25.85,21.48,24.25,21.78,23.85,21.88z" fill="#EAB765"/>
    <path d="M16.15,6.98c-2.5,0,-5,1.7,-5.1,4.4c0,0.5,0,1.1,0,1.6c0,0.4,0.3,1.4,-0.3,1.4s-2.1,-0.7,-2.2,0.4c0,0.8,1.5,0.9,2,1.3c1,0.7,-0.6,2.5,-1.2,3.1c-0.5,0.4,-1,0.8,-1.5,1c-0.3,0.1,-0.9,0.2,-1.1,0.5c-0.5,0.8,1.9,1.1,2.2,1.2c0.5,0.1,0.4,0.7,0.5,1.1c0.1,0.3,0.7,0.1,0.9,0.1c1.6,-0.2,2.4,0.3,3.7,1.1c0.8,0.4,1.4,0.6,2.2,0.6c1.3,0,2.1,-0.7,3.2,-1.3c1,-0.5,2.1,-0.5,3.1,-0.3c0.2,0,0.3,-0.2,0.3,-0.3c0.2,-0.7,0.3,-0.9,1,-1c0.4,-0.1,2,-0.4,1.7,-1.1c-0.3,-0.5,-1.5,-0.6,-1.9,-0.9c-0.9,-0.6,-1.6,-1.5,-2.1,-2.4c-0.3,-0.6,-0.1,-1.5,0.8,-1.5c0.5,-0.2,1.6,-0.5,1.3,-1.2c-0.4,-0.8,-1.1,-0.3,-1.7,-0.3c-0.3,0,-0.7,0.2,-0.7,-0.2c-0.1,-0.2,0,-1,0,-1.3c0,-1,0.1,-2,-0.3,-3C20.25,7.98,18.25,6.98,16.15,6.98z" fill="#FFFFFF"/>
  </g>
</svg>
