<?xml version="1.0" encoding="UTF-8"?>
<!DOCTYPE svg PUBLIC "-//W3C//DTD SVG 1.1//EN" "http://www.w3.org/Graphics/SVG/1.1/DTD/svg11.dtd">
<svg version="1.1" id="Layer_1" xmlns="http://www.w3.org/2000/svg" xmlns:xlink="http://www.w3.org/1999/xlink" x="0px" y="0px" width="32px" height="32px" viewBox="0 0 32 32" enable-background="new 0 0 32 32" xml:space="preserve">
  <g id="icon">
    <path d="M16,0C7.2,0,0,7.2,0,16s7.2,16,16,16s16,-7.2,16,-16S24.8,0,16,0zM5.7576,18.212c-0.0497,0.331,-0.1158,0.6118,-0.1406,0.6287c-0.0661,0.0413,-0.091,0.0333,-0.1158,-0.0333l0.0084,-0.008c-0.039,-0.2058,-0.0722,-0.4126,-0.0994,-0.6203c0,0,-0.0345,-0.3158,-0.0345,-0.5626c0,-0.2468,0.0429,-0.5954,0.0429,-0.5954c0.0413,-0.331,0.0994,-0.6207,0.1158,-0.6451c0.0825,-0.0994,0.1406,0.0581,0.2232,0.6451c0,0,0.041,0.152,0.041,0.5954S5.7576,18.212,5.7576,18.212zM6.593,18.4936c-0.0581,0.4964,-0.1242,0.9348,-0.1406,0.9841c-0.0417,0.0994,-0.1326,0.1082,-0.1575,0.0168h-0.016c-0.0084,-0.0333,-0.0661,-0.488,-0.1158,-1.0009c0,0,-0.0494,-0.4071,-0.0494,-0.9348s0.0574,-0.9512,0.0574,-0.9512c0.0994,-0.9099,0.1158,-0.9512,0.1903,-0.9676c0.091,-0.0168,0.0825,-0.0581,0.2316,1.0919c0,0,0.0474,0.2874,0.0474,0.8599S6.593,18.4936,6.593,18.4936zM7.4284,18.6423c-0.0581,0.5954,-0.1242,1.1167,-0.1406,1.166c-0.0413,0.0914,-0.1242,0.1078,-0.1739,0.0417v-0.008h0.0004c-0.0164,-0.0248,-0.0745,-0.5293,-0.1242,-1.1251c0,0,-0.0594,-0.469,-0.0594,-1.0838c0,-0.6148,0.051,-1.0257,0.051,-1.0257c0.0497,-0.5622,0.0994,-1.1003,0.1074,-1.1828c0.0248,-0.1655,0.0994,-0.2316,0.1739,-0.1575c0.0248,0.0248,0.091,0.5129,0.1575,1.1664c0,0,0.0658,0.4673,0.0658,1.1251C7.4862,18.2162,7.4284,18.6423,7.4284,18.6423zM8.2731,18.7417c-0.0581,0.6287,-0.1158,1.1584,-0.1242,1.1828c-0.0164,0.0497,-0.1903,0.0665,-0.2152,0.0164v-0.008h-0.0004c-0.0084,-0.0168,-0.0661,-0.5461,-0.1158,-1.1748c0,0,-0.0594,-0.4137,-0.0594,-1.1419s0.0594,-1.1828,0.0594,-1.1828c0.0497,-0.6535,0.1158,-1.2081,0.1326,-1.2325c0.0497,-0.0581,0.1242,-0.0581,0.1739,0c0.0248,0.0248,0.091,0.571,0.1491,1.2245c0,0,0.0674,0.5261,0.0674,1.1748S8.2731,18.7417,8.2731,18.7417zM9.1249,18.7004c-0.0497,0.6283,-0.1078,1.1748,-0.1242,1.2241c-0.0164,0.0581,-0.0581,0.0829,-0.1242,0.0829s-0.0994,-0.0248,-0.1242,-0.0829l0.008,-0.0084c-0.0164,-0.0413,-0.0661,-0.5874,-0.1158,-1.2081c-0.0572,-1.0918,-0.0564,-1.1415,-0.0248,-1.8359c0.0333,-0.3891,0.0665,-0.8687,0.0829,-1.059c0.0248,-0.3474,0.0829,-0.5133,0.1739,-0.5133c0.1158,0,0.1491,0.1326,0.2484,1.1832c0,0,0.0394,0.4307,0.0394,1.0754C9.1643,18.2032,9.1249,18.7004,9.1249,18.7004zM10.0012,18.7821c-0.0581,0.6451,-0.1158,1.1912,-0.1406,1.2157c-0.0581,0.0665,-0.1575,0.0581,-0.2316,-0.008v-0.0076c-0.0333,-0.0329,-0.0581,-0.1074,-0.0581,-0.1575c0,-0.0581,-0.0333,-0.5622,-0.0745,-1.1247c0,0,-0.0345,-0.6386,-0.0345,-1.2161c0,-0.5776,0.0429,-1.6215,0.0429,-1.6215c0.0825,-1.8447,0.091,-1.9109,0.2316,-1.9109c0.0248,0,0.0745,0.0164,0.1078,0.0497c0.0497,0.0413,0.0745,0.2729,0.1571,1.8279c0,0,0.0594,1.2513,0.0594,1.7866S10.0012,18.7821,10.0012,18.7821zM10.8703,18.7252c-0.0322,0.3832,-0.0625,0.7665,-0.091,1.15c0,0.0657,-0.1078,0.1571,-0.1819,0.1571c-0.0417,0,-0.091,-0.0333,-0.1242,-0.0825v0.008h-0.0008c-0.0413,-0.0581,-0.0745,-0.4055,-0.1322,-1.2409c-0.0661,-0.9929,-0.0745,-1.2742,-0.0413,-2.0182c0.0164,-0.472,0.0497,-1.4064,0.0745,-2.0767c0.0248,-0.6699,0.0497,-1.2573,0.0581,-1.3234c0.0333,-0.2152,0.2813,-0.248,0.331,-0.0413c0.0084,0.0413,0.0581,1.0422,0.1078,2.2166c0,0,0.051,1.5757,0.051,2.1428S10.8703,18.7252,10.8703,18.7252zM11.7999,17.5605c-0.008,0.5376,-0.0529,1.1567,-0.0529,1.1567c-0.0417,0.6118,-0.0829,1.1331,-0.0829,1.1584c0,0.0657,-0.1078,0.1571,-0.1903,0.1571c-0.0413,0,-0.0994,-0.0333,-0.1406,-0.0661v0.0076c-0.0581,-0.0581,-0.0745,-0.1491,-0.091,-0.579c-0.0168,-0.2813,-0.0417,-0.7032,-0.0581,-0.9348c-0.0497,-0.587,-0.0417,-1.3483,0.0164,-3.1602c0.0333,-0.8599,0.0581,-1.7285,0.0581,-1.9437c0.0084,-0.4383,0.0417,-0.5706,0.1575,-0.6038c0.1406,-0.0333,0.248,0.0661,0.248,0.24c0,0.0829,0.0413,1.158,0.0829,2.3825C11.747,15.3751,11.8079,17.0229,11.7999,17.5605zM12.6481,18.7c-0.0745,1.1167,-0.0825,1.2157,-0.1571,1.2818c-0.0745,0.0745,-0.1868,0.0665,-0.2697,-0.0164l-0.008,0.0088c-0.0413,-0.0497,-0.0661,-0.1491,-0.0829,-0.3061c-0.1242,-1.886,-0.1242,-2.0186,-0.0661,-3.9872c0.0745,-2.713,0.091,-2.9699,0.1571,-3.036s0.2284,-0.0661,0.2861,0c0.0333,0.0333,0.0581,0.5129,0.0994,1.5883C12.7062,17.2359,12.7146,17.7155,12.6481,18.7zM13.5172,18.6259c-0.028,0.397,-0.0529,0.7942,-0.0745,1.1916c0,0.099,-0.1022,0.2316,-0.218,0.2316c-0.0614,-0.0053,-0.1181,-0.0352,-0.1571,-0.0829h0.016v-0.0004c-0.0413,-0.0417,-0.0745,-0.1322,-0.0745,-0.1903c0,-0.0581,-0.0248,-0.5541,-0.0581,-1.1003c-0.0581,-0.918,-0.0581,-1.1748,0,-3.3998c0.0661,-2.5808,0.0661,-2.5395,0.2564,-2.5808c0.1655,-0.0333,0.2433,0.1074,0.2433,0.3638c0,0.1158,0.0164,0.7196,0.0333,1.3319c0.0164,0.6122,0.0413,1.5466,0.0581,2.0767c0.0084,0.5213,0.0033,0.7411,0.0033,1.0009S13.5585,18.0136,13.5172,18.6259zM14.4103,18.7913c-0.0661,1.0754,-0.0745,1.1167,-0.1571,1.1828c-0.1078,0.0825,-0.21,0.0825,-0.301,0h0.0164v0c-0.0745,-0.0745,-0.0829,-0.1655,-0.1571,-1.4889c-0.0413,-0.7693,-0.0333,-1.5799,0.0413,-4.2023c0.0417,-1.406,0.0417,-1.4308,0.2648,-1.4308c0.0745,0,0.1191,0.0248,0.1603,0.0745c0.0745,0.0745,0.0745,0.1322,0.1074,1.3399c0.0084,0.3802,0.0417,1.307,0.0581,2.0515C14.4768,17.5336,14.4768,17.7904,14.4103,18.7913zM15.2125,19.9245c-0.0745,0.141,-0.2597,0.1655,-0.3755,0.0497h0.0084c-0.0497,-0.0497,-0.0745,-0.1406,-0.091,-0.3061c-0.0581,-0.6371,-0.0994,-2.217,-0.0829,-3.1518c0.0084,-0.579,0.0333,-1.4641,0.0417,-1.9854c0.0413,-2.0928,0.0581,-2.4233,0.1322,-2.4978c0.091,-0.091,0.2429,-0.091,0.3258,0c0.091,0.091,0.0994,0.3558,0.1819,4.3927C15.378,17.6418,15.295,19.7758,15.2125,19.9245zM16.1806,18.8815c-0.0227,0.3031,-0.042,0.6064,-0.0581,0.9099c0,0.091,-0.1355,0.248,-0.2429,0.248c-0.0501,0.0008,-0.043,-0.032,-0.0923,-0.0737c-0.061,-0.0468,-0.1023,-0.1147,-0.1158,-0.1903c-0.0084,-0.0665,-0.0417,-0.6042,-0.0745,-1.1996c-0.0413,-0.8518,-0.0497,-1.3647,-0.0248,-2.4073c0.0168,-0.7276,0.0417,-1.9353,0.0581,-2.6798c0.0248,-1.7041,0.0417,-1.8696,0.1406,-1.9689c0.1078,-0.0994,0.1448,-0.091,0.2607,0.0164c0.0829,0.0829,0.091,0.1158,0.0994,0.5377c0,0.248,0.0084,0.496,0.0164,0.5457c0.008,0.0497,0.0168,0.7529,0.0333,1.5631c0.0168,0.8106,0.0333,1.4809,0.0417,1.4893C16.2635,15.7381,16.2307,18.137,16.1806,18.8815zM26.2557,18.6006c-0.323,0.6451,-0.7861,1.0502,-1.4893,1.307c0,0,-0.0329,0.0994,-1.0245,0.0994s-3.1775,0.0084,-3.1775,0.0084l-3.9375,0.0084l-0.1074,-0.0745l-0.0914,-0.0914v-8.553l0.0994,-0.0745c0.1158,-0.0909,0.5541,-0.2316,0.9929,-0.3225c0.4716,-0.091,1.2409,-0.0829,1.7289,0.0164c1.9517,0.4055,3.3417,1.9028,3.6562,3.9375l0.0248,0.1322l0.3229,-0.091c0.2729,-0.0745,0.3722,-0.091,0.7276,-0.0745c0.5049,0.0248,0.5293,0.0248,0.8599,0.1487C26.2973,15.5314,26.9585,17.2107,26.2557,18.6006z" fill="#E78155"/>
    <path d="M9.629,19.9822c-0.0333,-0.0329,-0.0581,-0.1074,-0.0581,-0.1575c0,-0.0581,-0.0333,-0.5622,-0.0745,-1.1247c0,0,-0.0345,-0.6386,-0.0345,-1.2161s0.0429,-1.6215,0.0429,-1.6215c0.0825,-1.8447,0.091,-1.9109,0.2316,-1.9109c0.0248,0,0.0745,0.0164,0.1078,0.0497c0.0497,0.0413,0.0745,0.2729,0.1571,1.8279c0,0,0.0594,1.2512,0.0594,1.7866s-0.0594,1.1664,-0.0594,1.1664c-0.0581,0.6451,-0.1158,1.1912,-0.1406,1.2157c-0.0581,0.0665,-0.1575,0.0581,-0.2316,-0.008L9.629,19.9822L9.629,19.9822zM10.4724,19.9577c-0.0413,-0.0581,-0.0745,-0.4055,-0.1322,-1.2409c-0.0661,-0.9929,-0.0745,-1.2742,-0.0413,-2.0182c0.0164,-0.472,0.0497,-1.4064,0.0745,-2.0767c0.0248,-0.6699,0.0497,-1.2573,0.0581,-1.3235c0.0333,-0.2152,0.2813,-0.248,0.331,-0.0413c0.0084,0.0413,0.0581,1.0422,0.1078,2.2166c0,0,0.051,1.5757,0.051,2.1428c0,0.5671,-0.051,1.1087,-0.051,1.1087c-0.0322,0.3832,-0.0625,0.7665,-0.091,1.15c0,0.0657,-0.1078,0.1571,-0.1819,0.1571c-0.0417,0,-0.091,-0.0333,-0.1242,-0.0825v0.008L10.4724,19.9577zM11.3331,19.9742c-0.0581,-0.0581,-0.0745,-0.1491,-0.091,-0.579c-0.0168,-0.2813,-0.0417,-0.7032,-0.0581,-0.9348c-0.0497,-0.587,-0.0417,-1.3483,0.0164,-3.1602c0.0333,-0.8599,0.0581,-1.7285,0.0581,-1.9437c0.0084,-0.4383,0.0417,-0.5706,0.1575,-0.6038c0.1406,-0.0333,0.248,0.0661,0.248,0.24c0,0.0829,0.0413,1.158,0.0829,2.3825c0,0,0.061,1.6478,0.0529,2.1854c-0.008,0.5376,-0.0529,1.1567,-0.0529,1.1567c-0.0417,0.6118,-0.0829,1.1331,-0.0829,1.1584c0,0.0657,-0.1078,0.1571,-0.1903,0.1571c-0.0413,0,-0.0994,-0.0333,-0.1406,-0.0661V19.9742L11.3331,19.9742zM12.2133,19.9742c-0.0413,-0.0497,-0.0661,-0.1491,-0.0829,-0.3061c-0.1242,-1.886,-0.1242,-2.0186,-0.0661,-3.9872c0.0745,-2.713,0.091,-2.9699,0.1571,-3.036c0.0661,-0.0661,0.2284,-0.0661,0.2861,0c0.0333,0.0333,0.0581,0.5129,0.0994,1.5883c0.0994,3.0027,0.1078,3.4823,0.0413,4.4668c-0.0745,1.1167,-0.0825,1.2157,-0.1571,1.2818c-0.0745,0.0745,-0.1868,0.0665,-0.2697,-0.0164L12.2133,19.9742L12.2133,19.9742zM13.0836,19.9657c-0.0413,-0.0417,-0.0745,-0.1322,-0.0745,-0.1903c0,-0.0581,-0.0248,-0.5541,-0.0581,-1.1003c-0.0581,-0.918,-0.0581,-1.1748,0,-3.3998c0.0661,-2.5808,0.0661,-2.5395,0.2564,-2.5808c0.1655,-0.0333,0.2433,0.1074,0.2433,0.3638c0,0.1158,0.0164,0.7196,0.0333,1.3319c0.0164,0.6122,0.0413,1.5466,0.0581,2.0767c0.0084,0.5213,0.0033,0.7411,0.0033,1.0009c0,0.2598,0.0132,0.5457,-0.0281,1.158c-0.028,0.397,-0.0529,0.7942,-0.0745,1.1916c0,0.099,-0.1022,0.2316,-0.218,0.2316c-0.0614,-0.0053,-0.1181,-0.0352,-0.1571,-0.0829h0.016L13.0836,19.9657zM13.9687,19.9742c-0.0745,-0.0745,-0.0829,-0.1655,-0.1571,-1.4889c-0.0413,-0.7693,-0.0333,-1.5799,0.0413,-4.2023c0.0417,-1.406,0.0417,-1.4308,0.2648,-1.4308c0.0745,0,0.1191,0.0248,0.1603,0.0745c0.0745,0.0745,0.0745,0.1322,0.1074,1.3399c0.0084,0.3802,0.0417,1.307,0.0581,2.0515c0.0333,1.2157,0.0333,1.4725,-0.0333,2.4734c-0.0661,1.0754,-0.0745,1.1167,-0.1571,1.1828c-0.1078,0.0825,-0.21,0.0825,-0.301,0L13.9687,19.9742L13.9687,19.9742zM14.8454,19.9742c-0.0497,-0.0497,-0.0745,-0.1406,-0.091,-0.3061c-0.0581,-0.6371,-0.0994,-2.217,-0.0829,-3.1518c0.0084,-0.579,0.0333,-1.4641,0.0417,-1.9854c0.0413,-2.0928,0.0581,-2.4233,0.1322,-2.4979c0.091,-0.091,0.2429,-0.091,0.3258,0c0.091,0.091,0.0994,0.3558,0.1819,4.3927c0.0248,1.2161,-0.0581,3.3501,-0.1406,3.4988c-0.0745,0.141,-0.2597,0.1655,-0.3755,0.0497L14.8454,19.9742L14.8454,19.9742zM15.7873,19.9657c-0.061,-0.0468,-0.1022,-0.1147,-0.1158,-0.1903c-0.0084,-0.0665,-0.0417,-0.6042,-0.0745,-1.1996c-0.0413,-0.8518,-0.0497,-1.3647,-0.0248,-2.4073c0.0168,-0.7276,0.0417,-1.9353,0.0581,-2.6798c0.0248,-1.7041,0.0417,-1.8696,0.1406,-1.9689c0.1078,-0.0994,0.1449,-0.091,0.2606,0.0164c0.0829,0.0829,0.091,0.1158,0.0994,0.5377c0,0.248,0.0084,0.496,0.0164,0.5457c0.008,0.0497,0.0168,0.7529,0.0333,1.5631c0.0168,0.8106,0.0333,1.4809,0.0417,1.4893c0.0413,0.0661,0.0084,2.465,-0.0417,3.2095c-0.0227,0.3031,-0.042,0.6064,-0.0581,0.9099c0,0.091,-0.1355,0.248,-0.2429,0.248C15.8296,20.0403,15.8366,20.0074,15.7873,19.9657L15.7873,19.9657zM16.5195,19.9493l-0.0914,-0.0914v-8.553l0.0994,-0.0745c0.1158,-0.091,0.5541,-0.2316,0.9929,-0.3225c0.4716,-0.091,1.2409,-0.0829,1.7289,0.0164c1.9517,0.4055,3.3417,1.9028,3.6562,3.9375l0.0248,0.1322l0.3229,-0.091c0.2729,-0.0745,0.3722,-0.091,0.7276,-0.0745c0.5049,0.0248,0.5293,0.0248,0.8599,0.1487c1.4565,0.5541,2.1176,2.2334,1.4148,3.6234c-0.3229,0.6451,-0.7861,1.0502,-1.4893,1.307c0,0,-0.0329,0.0994,-1.0244,0.0994s-3.1775,0.0084,-3.1775,0.0084l-3.9375,0.0084L16.5195,19.9493L16.5195,19.9493zM8.7603,19.9161c-0.0164,-0.0413,-0.0661,-0.5874,-0.1158,-1.2081c-0.0572,-1.0918,-0.0564,-1.1415,-0.0248,-1.8359c0.0333,-0.3891,0.0665,-0.8687,0.0829,-1.059c0.0248,-0.3474,0.0829,-0.5133,0.1739,-0.5133c0.1158,0,0.1491,0.1326,0.2484,1.1832c0,0,0.0394,0.4306,0.0394,1.0754c0,0.6448,-0.0394,1.1419,-0.0394,1.1419c-0.0497,0.6283,-0.1078,1.1748,-0.1242,1.2241c-0.0164,0.0581,-0.0581,0.0829,-0.1242,0.0829s-0.0994,-0.0248,-0.1242,-0.0829L8.7603,19.9161L8.7603,19.9161zM7.9333,19.9329c-0.0084,-0.0168,-0.0661,-0.5461,-0.1158,-1.1748c0,0,-0.0594,-0.4137,-0.0594,-1.1419s0.0594,-1.1828,0.0594,-1.1828c0.0497,-0.6535,0.1158,-1.2081,0.1326,-1.2325c0.0497,-0.0581,0.1242,-0.0581,0.1739,0c0.0248,0.0248,0.091,0.571,0.1491,1.2245c0,0,0.0674,0.5261,0.0674,1.1748s-0.0674,1.1415,-0.0674,1.1415c-0.0581,0.6287,-0.1158,1.1584,-0.1242,1.1828c-0.0164,0.0497,-0.1903,0.0665,-0.2152,0.0164v-0.008H7.9333zM7.1143,19.8419c-0.0164,-0.0248,-0.0745,-0.5293,-0.1242,-1.1251c0,0,-0.0594,-0.469,-0.0594,-1.0838c0,-0.6149,0.051,-1.0257,0.051,-1.0257c0.0497,-0.5622,0.0994,-1.1003,0.1074,-1.1828c0.0248,-0.1655,0.0994,-0.2316,0.1739,-0.1575c0.0248,0.0248,0.091,0.5129,0.1575,1.1664c0,0,0.0658,0.4673,0.0658,1.1251c0,0.6578,-0.0578,1.0838,-0.0578,1.0838c-0.0581,0.5954,-0.1242,1.1167,-0.1406,1.166c-0.0413,0.0914,-0.1242,0.1078,-0.1739,0.0417v-0.008H7.1143zM6.2789,19.4945c-0.0084,-0.0333,-0.0661,-0.488,-0.1158,-1.0009c0,0,-0.0494,-0.4071,-0.0494,-0.9348s0.0574,-0.9512,0.0574,-0.9512c0.0994,-0.9099,0.1158,-0.9512,0.1903,-0.9676c0.091,-0.0168,0.0825,-0.0581,0.2316,1.0919c0,0,0.0474,0.2874,0.0474,0.8599c0,0.5725,-0.0474,0.9019,-0.0474,0.9019c-0.0581,0.4964,-0.1242,0.9348,-0.1406,0.9841c-0.0417,0.0994,-0.1326,0.1082,-0.1575,0.0168L6.2789,19.4945L6.2789,19.4945zM5.5096,18.7994c-0.039,-0.2058,-0.0722,-0.4126,-0.0994,-0.6203c0,0,-0.0345,-0.3158,-0.0345,-0.5626s0.0429,-0.5954,0.0429,-0.5954c0.0413,-0.331,0.0994,-0.6207,0.1158,-0.6451c0.0825,-0.0994,0.1406,0.0581,0.2232,0.6451c0,0,0.041,0.152,0.041,0.5954c0,0.4434,-0.041,0.5954,-0.041,0.5954c-0.0497,0.331,-0.1158,0.6118,-0.1406,0.6287c-0.0661,0.0413,-0.091,0.0333,-0.1158,-0.0333L5.5096,18.7994L5.5096,18.7994z" fill="#FFFFFF"/>
  </g>
</svg>
