<?xml version="1.0" encoding="UTF-8"?>
<!DOCTYPE svg PUBLIC "-//W3C//DTD SVG 1.1//EN" "http://www.w3.org/Graphics/SVG/1.1/DTD/svg11.dtd">
<svg version="1.1" id="Layer_1" xmlns="http://www.w3.org/2000/svg" xmlns:xlink="http://www.w3.org/1999/xlink" x="0px" y="0px" width="32px" height="32px" viewBox="0 0 32 32" enable-background="new 0 0 32 32" xml:space="preserve">
  <g id="icon">
    <path d="M16,0C7.2,0,0,7.2,0,16s7.2,16,16,16s16,-7.2,16,-16S24.8,0,16,0zM15.9,11.7c-0.5,0,-1,0.4,-1,1v6.3c0,2.4,-1.9,4.3,-4.3,4.3s-4.3,-1.9,-4.3,-4.3v-2.8h3.4v2.7c0,0.5,0.4,1,1,1c0.5,0,1,-0.4,1,-1v-6.2c0,-2.4,1.9,-4.3,4.3,-4.3s4.3,1.9,4.2,4.3v1.3l-1.9,0.6l-1.4,-0.6v-1.3C16.9,12.2,16.5,11.7,15.9,11.7zM25.6,19c0,2.4,-1.9,4.3,-4.3,4.3s-4.3,-1.9,-4.3,-4.3v-2.8l1.4,0.6l1.9,-0.6v2.8c0,0.5,0.4,1,1,1c0.5,0,1,-0.4,1,-1v-2.7h3.3V19z" fill="#CD4C32"/>
    <path d="M16,8.4c-2.4,0,-4.3,1.9,-4.3,4.3v6.2c0,0.6,-0.5,1,-1,1c-0.6,0,-1,-0.5,-1,-1v-2.7H6.3v2.8c0,2.4,1.9,4.3,4.3,4.3s4.3,-1.9,4.3,-4.3v-6.3c0,-0.6,0.5,-1,1,-1c0.6,0,1,0.5,1,1v1.3l1.4,0.6l1.9,-0.6v-1.3C20.3,10.3,18.4,8.4,16,8.4L16,8.4zM17,16.2v2.8c0,2.4,1.9,4.3,4.3,4.3s4.3,-1.9,4.3,-4.3v-2.7h-3.3v2.7c0,0.6,-0.5,1,-1,1c-0.6,0,-1,-0.5,-1,-1v-2.8l-1.9,0.6L17,16.2z" fill="#FFFFFF"/>
  </g>
</svg>
