<?xml version="1.0" encoding="UTF-8"?>
<!DOCTYPE svg PUBLIC "-//W3C//DTD SVG 1.1//EN" "http://www.w3.org/Graphics/SVG/1.1/DTD/svg11.dtd">
<svg version="1.1" id="Layer_1" xmlns="http://www.w3.org/2000/svg" xmlns:xlink="http://www.w3.org/1999/xlink" x="0px" y="0px" width="32px" height="32px" viewBox="0 0 32 32" enable-background="new 0 0 32 32" xml:space="preserve">
  <g id="icon">
    <path d="M16,0C7.2,0,0,7.2,0,16s7.2,16,16,16s16,-7.2,16,-16S24.8,0,16,0zM11.3,23.5c-0.2,0.2,-0.5,0.1,-0.7,0c-0.9,-0.5,-1.9,-1.1,-2.8,-1.6c-0.5,-0.3,-0.8,-0.8,-0.9,-1.4v-8.9c0.1,-0.6,0.4,-1.1,0.9,-1.4c2.4,-1.4,4.7,-2.7,7.1,-4.1c0.2,-0.1,0.6505,-0.2646,0.8,-0.3s0.3797,-0.0348,0.6,0c0.3139,0.0529,0.7116,0.2895,1.2,0.6c2.2,1.3,4.4,2.5,6.6,3.8c0.2,0.2,0.5,0.3,0.6,0.6s-0.2,0.5,-0.4,0.5c-4.3,0,-8.6,0,-12.9,0c-0.8,0,-1.5,0.7,-1.6,1.4c-0.1,0.9,0.6,1.9,1.6,1.9c0.9,0,1.7,0,2.6,0c0.6,0,1.1,0.5,1.1,1.1c0,0.4,-0.2,0.7,-0.3,1c-1.1,2.1,-2.1,4.1,-3.2,6.2C11.5,23.1,11.4,23.3,11.3,23.5zM25.2,20.3c0,0.4,-0.1,0.7,-0.3,1c-0.3,0.4,-0.7,0.6,-1.1,0.8c-2.2,1.2,-4.3,2.5,-6.5,3.7c-0.3,0.2,-0.7,0.3,-1.1,0.5h-0.5c-0.7,-0.1,-1.2,-0.6,-1.8,-0.9c1.6,-2.9,3.1,-5.8,4.7,-8.8c0.6,-1.2,1.9,-2,3.3,-2c1.1,0,2.2,0,3.3,0C25.2,16.5,25.2,18.4,25.2,20.3z" fill="#797979"/>
    <path d="M15.7,5.8c0.1495,-0.0354,0.3797,-0.0348,0.6,0c0.3139,0.0529,0.7116,0.2895,1.2,0.6c2.2,1.3,4.4,2.5,6.6,3.8c0.2,0.2,0.5,0.3,0.6,0.6s-0.2,0.5,-0.4,0.5c-4.3,0,-8.6,0,-12.9,0c-0.8,0,-1.5,0.7,-1.6,1.4c-0.1,0.9,0.6,1.9,1.6,1.9c0.9,0,1.7,0,2.6,0c0.6,0,1.1,0.5,1.1,1.1c0,0.4,-0.2,0.7,-0.3,1c-1.1,2.1,-2.1,4.1,-3.2,6.2c-0.1,0.2,-0.2,0.4,-0.3,0.6c-0.2,0.2,-0.5,0.1,-0.7,0c-0.9,-0.5,-1.9,-1.1,-2.8,-1.6c-0.5,-0.3,-0.8,-0.8,-0.9,-1.4v-8.9c0.1,-0.6,0.4,-1.1,0.9,-1.4c2.4,-1.4,4.7,-2.7,7.1,-4.1C15.1,6,15.5505,5.8354,15.7,5.8zM18.6,16.6c0.6,-1.2,1.9,-2,3.3,-2c1.1,0,2.2,0,3.3,0c0,1.9,0,3.8,0,5.7c0,0.4,-0.1,0.7,-0.3,1c-0.3,0.4,-0.7,0.6,-1.1,0.8c-2.2,1.2,-4.3,2.5,-6.5,3.7c-0.3,0.2,-0.7,0.3,-1.1,0.5h-0.5c-0.7,-0.1,-1.2,-0.6,-1.8,-0.9C15.5,22.5,17,19.6,18.6,16.6z" fill="#FFFFFF"/>
  </g>
</svg>
