<?xml version="1.0" encoding="UTF-8"?>
<!DOCTYPE svg PUBLIC "-//W3C//DTD SVG 1.1//EN" "http://www.w3.org/Graphics/SVG/1.1/DTD/svg11.dtd">
<svg version="1.1" id="Layer_1" xmlns="http://www.w3.org/2000/svg" xmlns:xlink="http://www.w3.org/1999/xlink" x="0px" y="0px" width="32px" height="32px" viewBox="0 0 32 32" enable-background="new 0 0 32 32" xml:space="preserve">
  <g id="icon">
    <path d="M16,0C7.2,0,0,7.2,0,16s7.2,16,16,16s16,-7.2,16,-16S24.8,0,16,0zM25.6,14.1h-6.4v3.8h6.4v3.2h-6.4h-3.2v-7h-3.2v7H9.6v-7H6.4v-3.2h9.6v3.2h3.2v-3.2h6.4V14.1z" fill="#4EA17E"/>
    <path d="M6.4,10.9v3.2h3.2v7h3.2v-7h3.2v-3.2H6.4zM19.2,10.9h6.4v3.2h-6.4V10.9zM16,21.1h3.2h6.4v-3.2h-6.4v-3.8h-3.2V21.1z" fill="#FFFFFF"/>
  </g>
</svg>
