<?xml version="1.0" encoding="UTF-8"?>
<!DOCTYPE svg PUBLIC "-//W3C//DTD SVG 1.1//EN" "http://www.w3.org/Graphics/SVG/1.1/DTD/svg11.dtd">
<svg version="1.1" id="Layer_1" xmlns="http://www.w3.org/2000/svg" xmlns:xlink="http://www.w3.org/1999/xlink" x="0px" y="0px" width="32px" height="32px" viewBox="0 0 32 32" enable-background="new 0 0 32 32" xml:space="preserve">
  <g id="icon">
    <path d="M16,0C7.2,0,0,7.2,0,16s7.2,16,16,16s16,-7.2,16,-16S24.8,0,16,0zM21.7,22.5v1.8c-0.4,0.2,-0.8,0.3,-1.1,0.5c-0.4,0.1,-0.7,0.2,-1,0.3c-0.2,0,-0.3,0.1,-0.5,0.1c-0.3,0.1,-0.7,0.1,-1,0.1c-0.2,0,-0.4,0,-0.5,0c-0.8,0,-1.6,-0.1,-2.2,-0.3c-0.1,0,-0.3,-0.1,-0.4,-0.2c-0.1,0,-0.1,-0.1,-0.2,-0.1s-0.1,-0.1,-0.2,-0.1s-0.2,-0.1,-0.3,-0.2s-0.2,-0.1,-0.3,-0.2s-0.2,-0.1,-0.3,-0.2c-0.5,-0.4,-0.8,-0.8,-1,-1.3c-0.2,-0.4,-0.3,-1.1,-0.3,-1.9v-6.5h-2.1v-2.6c0.7,-0.2,1.4,-0.6,1.9,-1s0.9,-1,1.2,-1.6s0.5,-1.4,0.7,-2.4h2.6v4.7h4.4v2.9h-4.4v4.8c0,1.1,0.1,1.8,0.2,2.1s0.3,0.6,0.6,0.7c0.4,0.2,0.9,0.4,1.4,0.4c0.9,0,1.9,-0.3,2.8,-0.9V22.5z" fill="#3E79B4"/>
    <path d="M14.1,6.7c-0.1,1,-0.3,1.7,-0.7,2.4c-0.3,0.6,-0.7,1.2,-1.2,1.6s-1.1,0.8,-1.9,1v2.6h2.1v6.5c0,0.8,0.1,1.5,0.3,1.9s0.5,0.9,1,1.3c0.1,0.1,0.2,0.1,0.3,0.2s0.2,0.1,0.3,0.2s0.2,0.1,0.3,0.2c0.1,0,0.1,0.1,0.2,0.1s0.1,0.1,0.2,0.1c0.1,0.1,0.3,0.1,0.4,0.2c0.7,0.2,1.4,0.3,2.2,0.3c0.2,0,0.4,0,0.5,0c0.4,0,0.7,-0.1,1,-0.1c0.2,0,0.3,-0.1,0.5,-0.1c0.3,-0.1,0.7,-0.2,1,-0.3c0.4,-0.1,0.7,-0.3,1.1,-0.5v-1.8v-1.1c-0.9,0.6,-1.9,0.9,-2.8,0.9c-0.5,0,-1,-0.1,-1.4,-0.4c-0.3,-0.2,-0.5,-0.4,-0.6,-0.7s-0.2,-1,-0.2,-2.1v-4.8h4.4v-2.9h-4.4V6.7H14.1L14.1,6.7z" fill="#FFFFFF"/>
  </g>
</svg>
