<?xml version="1.0" encoding="UTF-8"?>
<!DOCTYPE svg PUBLIC "-//W3C//DTD SVG 1.1//EN" "http://www.w3.org/Graphics/SVG/1.1/DTD/svg11.dtd">
<svg version="1.1" id="Layer_1" xmlns="http://www.w3.org/2000/svg" xmlns:xlink="http://www.w3.org/1999/xlink" x="0px" y="0px" width="32px" height="32px" viewBox="0 0 32 32" enable-background="new 0 0 32 32" xml:space="preserve">
  <g id="icon">
    <path d="M16,0C7.2,0,0,7.2,0,16s7.2,16,16,16s16,-7.2,16,-16S24.8,0,16,0zM24.3,15.6c-0.4,1.5,-1.1,3,-2.6,4.3c-2,1.8,-4.1,2.6,-6.3,2.8c-2.1,0.2,-4.1,0.1,-6.3,-0.9c-1.5,-0.7,-2.8,-1.8,-3.9,-3.2c1.4,1.3,5.1,2.6,8,-0.4c-0.5,0.1,-1,0,-1.3,-0.4c-0.3,-0.3,-0.3,-0.6,-0.2,-0.9c0.1,-0.2,0.4,-0.4,0.7,-0.6c-0.5,0.1,-1,0,-1.4,-0.2c-0.5,-0.3,-1.1,-0.6,-1.2,-1.2c0.3,-0.3,0.7,-0.7,1.5,-0.5c-0.7,-0.2,-1.4,-0.6,-1.9,-1.1c-0.4,-0.3,-0.4,-0.6,-0.5,-1c0.4,-0.2,0.8,-0.2,1.3,-0.2c-1,-0.5,-1.5,-1.3,-1.7,-2.1c-0.1,-0.2,-0.1,-0.4,-0.1,-0.7c4.2,1.6,6.2,2.7,7.3,3.8c0.5,-1.3,1.6,-4.3,3.3,-5.3c0,0.2,-0.1,0.3,-0.2,0.5c0.5,-0.3,0.9,-0.7,1.6,-0.7c-0.1,0.3,-0.3,0.6,-0.8,0.8c0.5,-0.2,0.9,-0.3,1.4,-0.4c0.4,-0.1,0.4,0.3,0.2,0.4c-0.5,0.4,-1,0.4,-1.6,0.6c1.6,0,3,0.8,4,2.5c0.3,0.6,0.6,1.1,0.6,1.7c0.7,0.2,1.4,0.2,2.1,0.1c0.2,0,0.4,-0.1,0.5,-0.1c-0.3,0.4,-0.6,0.7,-1,0.9c-0.4,0.1,-0.8,0.3,-1.3,0.3c0.8,0.3,1.6,0.3,2.4,0.2C25.9,15.6,25.1,15.6,24.3,15.6z" fill="#529FBF"/>
    <path d="M5.2,18.6c1.4,1.3,5.1,2.6,8,-0.4c-0.5,0.1,-1,0,-1.3,-0.4c-0.3,-0.3,-0.3,-0.6,-0.2,-0.9c0.1,-0.2,0.4,-0.4,0.7,-0.6c-0.5,0.1,-1,0,-1.4,-0.2c-0.5,-0.3,-1.1,-0.6,-1.2,-1.2c0.3,-0.3,0.7,-0.7,1.5,-0.5c-0.7,-0.2,-1.4,-0.6,-1.9,-1.1c-0.4,-0.3,-0.4,-0.6,-0.5,-1c0.4,-0.2,0.8,-0.2,1.3,-0.2c-1,-0.5,-1.5,-1.3,-1.7,-2.1c-0.1,-0.2,-0.1,-0.4,-0.1,-0.7c4.2,1.6,6.2,2.7,7.3,3.8c0.5,-1.3,1.6,-4.3,3.3,-5.3c0,0.2,-0.1,0.3,-0.2,0.5c0.5,-0.3,0.9,-0.7,1.6,-0.7c-0.1,0.3,-0.3,0.6,-0.8,0.8c0.5,-0.2,0.9,-0.3,1.4,-0.4c0.4,-0.1,0.4,0.3,0.2,0.4c-0.5,0.4,-1,0.4,-1.6,0.6c1.6,0,3,0.8,4,2.5c0.3,0.6,0.6,1.1,0.6,1.7c0.7,0.2,1.4,0.2,2.1,0.1c0.2,0,0.4,-0.1,0.5,-0.1c-0.3,0.4,-0.6,0.7,-1,0.9c-0.4,0.1,-0.8,0.3,-1.3,0.3c0.8,0.3,1.6,0.3,2.4,0.2c-1,1,-1.8,1,-2.6,1c-0.4,1.5,-1.1,3,-2.6,4.3c-2,1.8,-4.1,2.6,-6.3,2.8c-2.1,0.2,-4.1,0.1,-6.3,-0.9C7.6,21.1,6.3,20,5.2,18.6L5.2,18.6z" fill="#FFFFFF"/>
  </g>
</svg>
