<?xml version="1.0" encoding="UTF-8"?>
<!DOCTYPE svg PUBLIC "-//W3C//DTD SVG 1.1//EN" "http://www.w3.org/Graphics/SVG/1.1/DTD/svg11.dtd">
<svg version="1.1" id="Layer_1" xmlns="http://www.w3.org/2000/svg" xmlns:xlink="http://www.w3.org/1999/xlink" x="0px" y="0px" width="32px" height="32px" viewBox="0 0 32 32" enable-background="new 0 0 32 32" xml:space="preserve">
  <g id="icon">
    <path d="M16,0C7.2,0,0,7.2,0,16s7.2,16,16,16s16,-7.2,16,-16S24.8,0,16,0zM18,11.6c-0.2,-0.6,-1.1,-3.1,-2.8,-6C15.2,5.6,17.6,7.2,18,11.6zM19.6,23.8c-1.3,1.5,-3.1,2.2,-5.2,2.2s-3.9,-0.7,-5.2,-2.2s-2,-3.2,-2,-5.1s0.6,-3.6,1.9,-5.1c1.4,-1.6,3.2,-2.4,5.3,-2.4c0.9,0,1.7,0.1,2.5,0.4c-0.3,0.5,-0.5,1.1,-0.5,1.7c-0.6,-0.3,-1.3,-0.4,-2,-0.4c-1.5,0,-2.8,0.6,-3.8,1.7c-1.1,1.1,-1.6,2.5,-1.6,4c0,1,0.2,2,0.7,2.8c0.5,0.9,1.1,1.6,2,2c0.5,0.3,1.1,0.5,1.8,0.6c5.0268,-1.9917,4.7462,-11.0887,4.6186,-12.448c-0.0064,-0.0174,-0.0121,-0.0345,-0.0186,-0.052c0,0,0,0,0,-0.1c0.0052,0.0258,0.0117,0.0781,0.0186,0.152c3.0323,8.2125,-3.6305,12.4919,-3.7166,12.5467c0.9592,-0.0133,1.8254,-0.2158,2.598,-0.6987c0.8,-0.5,1.5,-1.2,2,-2c0.5,-0.9,0.7,-1.8,0.7,-2.8c0,-0.8,-0.1,-1.6,-0.4,-2.3c0.5,-0.1,1.1,-0.3,1.7,-0.7c0.4,1.1,0.6,2.1,0.6,3.1C21.6,20.7,20.9,22.4,19.6,23.8zM24.4,11.9c0,0,-0.6,1.5,-1.7,2.2c-0.8,0.5,-2.1,0.6,-3.5,-0.7c0,0,4.1,-2.3,4.3,-4.2c0,0,-1.3,2.8,-4.8,3.7c0,0,-1.3,-2,0.3,-3.6c0,0,0.6,-0.6,2.2,-1c0,0,1.6,-0.4,2.5,-2.2C23.7,6.1,25.5,8.6,24.4,11.9z" fill="#E78155"/>
    <path d="M21.6,18.7c0,2,-0.7,3.7,-2,5.1c-1.3,1.5,-3.1,2.2,-5.2,2.2s-3.9,-0.7,-5.2,-2.2s-2,-3.2,-2,-5.1s0.6,-3.6,1.9,-5.1c1.4,-1.6,3.2,-2.4,5.3,-2.4c0.9,0,1.7,0.1,2.5,0.4c-0.3,0.5,-0.5,1.1,-0.5,1.7c-0.6,-0.3,-1.3,-0.4,-2,-0.4c-1.5,0,-2.8,0.6,-3.8,1.7c-1.1,1.1,-1.6,2.5,-1.6,4c0,1,0.2,2,0.7,2.8c0.5,0.9,1.1,1.6,2,2c0.5,0.3,1.1,0.5,1.8,0.6c5.3,-2.1,4.7,-12.1,4.6,-12.6c0,0.1,0,0.1,0,0.1c3.1,8.3,-3.7,12.6,-3.7,12.6s0,0,-0.1,0l0,0c1,0,1.9,-0.2,2.7,-0.7s1.5,-1.2,2,-2c0.5,-0.9,0.7,-1.8,0.7,-2.8c0,-0.8,-0.1,-1.6,-0.4,-2.3c0.5,-0.1,1.1,-0.3,1.7,-0.7C21.4,16.7,21.6,17.7,21.6,18.7zM15.2,5.6c1.7,2.9,2.6,5.4,2.8,6l0,0C17.6,7.2,15.2,5.6,15.2,5.6zM23.5,9.2c-0.2,1.9,-4.3,4.2,-4.3,4.2c1.4,1.3,2.7,1.2,3.5,0.7c1.1,-0.7,1.7,-2.2,1.7,-2.2c1.1,-3.3,-0.7,-5.8,-0.7,-5.8c-0.9,1.8,-2.5,2.2,-2.5,2.2c-1.6,0.4,-2.2,1,-2.2,1c-1.6,1.6,-0.3,3.6,-0.3,3.6C22.2,12,23.5,9.2,23.5,9.2z" fill="#FFFFFF"/>
  </g>
</svg>
