<?xml version="1.0" encoding="UTF-8"?>
<!DOCTYPE svg PUBLIC "-//W3C//DTD SVG 1.1//EN" "http://www.w3.org/Graphics/SVG/1.1/DTD/svg11.dtd">
<svg version="1.1" id="Layer_1" xmlns="http://www.w3.org/2000/svg" xmlns:xlink="http://www.w3.org/1999/xlink" x="0px" y="0px" width="32px" height="32px" viewBox="0 0 32 32" enable-background="new 0 0 32 32" xml:space="preserve">
  <g id="icon">
    <path d="M16,0C7.2,0,0,7.2,0,16s7.2,16,16,16s16,-7.2,16,-16S24.8,0,16,0zM24.7,12.5c-0.1,1.8,-1.1,3.9,-3.4,6.9c-3.4,4.5,-6.1,6.1,-7.8,4.7c0,0,-1.7,-1.6,-2.6,-5.3c-1,-3.7,-1.5,-5.1,-2.1,-5.3c-0.7,0,-1.2,0.3,-1.8,0.6c-0.3,-0.4,-0.6,-0.7,-0.8,-1l1.6,-1.5c2.7,-2.5,4.1,-3.1,5.2,-2.4c0.8,0.5,1.1,1.4,1.6,4.1c0.6,3.3,1,4.9,1.5,5.3c0.4,0.4,0.4,0.3,1,-0.2c1,-0.9,2.2,-3.3,2.2,-4.3c0,-1.1,-0.5,-1.4,-1.7,-1.2l-0.8,0.1l0.4,-0.9c0.5,-1.2,1.7,-2.5,2.7,-3c1.2,-0.5,2.8,-0.5,3.7,0S24.8,10.7,24.7,12.5z" fill="#529FBF"/>
    <path d="M10.9,18.8c-1,-3.7,-1.5,-5.1,-2.1,-5.3c-0.7,0,-1.2,0.3,-1.8,0.6c-0.3,-0.4,-0.6,-0.7,-0.8,-1l1.6,-1.5c2.7,-2.5,4.1,-3.1,5.2,-2.4c0.8,0.5,1.1,1.4,1.6,4.1c0.6,3.3,1,4.9,1.5,5.3c0.4,0.4,0.4,0.3,1,-0.2c1,-0.9,2.2,-3.3,2.2,-4.3c0,-1.1,-0.5,-1.4,-1.7,-1.2l-0.8,0.1l0.4,-0.9c0.5,-1.2,1.7,-2.5,2.7,-3c1.2,-0.5,2.8,-0.5,3.7,0s1.2,1.6,1.1,3.4s-1.1,3.9,-3.4,6.9c-3.4,4.5,-6.1,6.1,-7.8,4.7C13.5,24.1,11.8,22.5,10.9,18.8z" fill="#FFFFFF"/>
  </g>
</svg>
