<?xml version="1.0" encoding="UTF-8"?>
<!DOCTYPE svg PUBLIC "-//W3C//DTD SVG 1.1//EN" "http://www.w3.org/Graphics/SVG/1.1/DTD/svg11.dtd">
<svg version="1.1" id="Layer_1" xmlns="http://www.w3.org/2000/svg" xmlns:xlink="http://www.w3.org/1999/xlink" x="0px" y="0px" width="32px" height="32px" viewBox="0 0 32 32" enable-background="new 0 0 32 32" xml:space="preserve">
  <g id="icon">
    <path d="M16,0C7.2,0,0,7.2,0,16s7.2,16,16,16s16,-7.2,16,-16S24.8,0,16,0zM23.5,19c1.6,1.5,1.9,2.2,2,2.3c0.7,1.1,-0.7,1.2,-0.7,1.2h-2.7c0,0,-0.6,0.1,-1.4,-0.4c-1,-0.7,-2,-2.5,-2.7,-2.3c-0.7,0.3,-0.7,1.9,-0.7,1.9s0,0.3,-0.2,0.5s-0.6,0.2,-0.6,0.2h-1.2c0,0,-2.6,0.2,-4.9,-2.3c-2.6,-2.7,-4.9,-8,-4.9,-8s-0.1,-0.3,0,-0.5c0.2,-0.2,0.6,-0.2,0.6,-0.2s2.6884,0,2.786,0s0.2946,0.0022,0.4267,0.306C9.4448,12.0099,10.1,13.4,10.7,14.5c1.2,2.1,1.8,2.5,2.2,2.3c0.6,-0.4,0.4,-3,0.4,-3s0,-1,-0.3,-1.4c-0.2,-0.4,-0.7,-0.5,-0.9,-0.5c-0.1,0,0.2,-0.4,0.5,-0.6c0.5,-0.3,1.4,-0.3,2.5,-0.3c0.8,0,1.1,0,1.4,0.1c1,0.2,0.7,1.2,0.7,3.4c0,0.8,-0.1,1.8,0.4,2.1c0.2,0.1,0.7,0,2.1,-2.3c0.6,-1.1,1.1,-2.4,1.1,-2.4s0.1,-0.2,0.3,-0.3s0.4,-0.1,0.4,-0.1h3.1c0,0,1,-0.1,1.1,0.3c0.2,0.4,-0.3,1.4,-1.6,3.1C22,17.7,21.8,17.4,23.5,19z" fill="#4C75A3"/>
    <path d="M15.3,22.4h1.2c0,0,0.4,0,0.6,-0.2s0.2,-0.5,0.2,-0.5s0,-1.6,0.7,-1.9c0.7,-0.2,1.7,1.6,2.7,2.3c0.8,0.5,1.4,0.4,1.4,0.4h2.7c0,0,1.4,-0.1,0.7,-1.2c-0.1,-0.1,-0.4,-0.8,-2,-2.3c-1.7,-1.6,-1.5,-1.3,0.6,-4.1c1.3,-1.7,1.8,-2.7,1.6,-3.1c-0.1,-0.4,-1.1,-0.3,-1.1,-0.3h-3.1c0,0,-0.2,0,-0.4,0.1s-0.3,0.3,-0.3,0.3s-0.5,1.3,-1.1,2.4c-1.4,2.3,-1.9,2.4,-2.1,2.3c-0.5,-0.3,-0.4,-1.3,-0.4,-2.1c0,-2.2,0.3,-3.2,-0.7,-3.4c-0.3,-0.1,-0.6,-0.1,-1.4,-0.1c-1.1,0,-2,0,-2.5,0.3c-0.3,0.2,-0.6,0.6,-0.5,0.6c0.2,0,0.7,0.1,0.9,0.5c0.3,0.4,0.3,1.4,0.3,1.4s0.2,2.6,-0.4,3c-0.4,0.2,-1,-0.2,-2.2,-2.3c-0.6,-1.1,-1.2552,-2.4901,-1.3873,-2.7939c-0.1321,-0.3039,-0.329,-0.3061,-0.4267,-0.3061S6.1,11.4,6.1,11.4s-0.4,0,-0.6,0.2c-0.1,0.2,0,0.5,0,0.5s2.3,5.3,4.9,8C12.7,22.6,15.3,22.4,15.3,22.4" fill="#FFFFFF"/>
  </g>
</svg>
