<?xml version="1.0" encoding="UTF-8"?>
<!DOCTYPE svg PUBLIC "-//W3C//DTD SVG 1.1//EN" "http://www.w3.org/Graphics/SVG/1.1/DTD/svg11.dtd">
<svg version="1.1" id="Layer_1" xmlns="http://www.w3.org/2000/svg" xmlns:xlink="http://www.w3.org/1999/xlink" x="0px" y="0px" width="32px" height="32px" viewBox="0 0 32 32" enable-background="new 0 0 32 32" xml:space="preserve">
  <g id="icon">
    <path d="M16,0C7.2,0,0,7.2,0,16s7.2,16,16,16s16,-7.2,16,-16S24.8,0,16,0zM24.9,16.6c-0.8,2,-2.2,3.6,-3.8,5c-1.4,1.2,-3,2.3,-4.7,3.3c-0.2,0.1,-0.4,0.2,-0.4,0.2s-0.3,-0.1,-0.4,-0.2c-2.1,-1.1,-4,-2.4,-5.7,-4.1c-1.6,-1.6,-2.8,-3.4,-3.2,-5.7c-0.1,-0.3,-0.1,-0.7,-0.1,-1c-0.2,-2.4,1.8,-4.9,4.2,-5.3c0.9,-0.1,1.7,0.1,2.5,0.5c0.9,0.4,1.6,0.9,2.3,1.5c0.1,0.1,0.4,0.3,0.4,0.3s0.2,-0.1,0.4,-0.3c0.7,-0.7,1.6,-1.1,2.5,-1.5c1.8,-0.7,3.3,-0.2,4.7,1C25.5,12,25.9,14.3,24.9,16.6z" fill="#D770AC"/>
    <path d="M23.6,10.3c-1.4,-1.2,-2.9,-1.7,-4.7,-1c-0.9,0.4,-1.8,0.8,-2.5,1.5c-0.2,0.2,-0.4,0.3,-0.4,0.3s-0.3,-0.2,-0.4,-0.3c-0.7,-0.6,-1.4,-1.1,-2.3,-1.5c-0.8,-0.4,-1.6,-0.6,-2.5,-0.5c-2.4,0.4,-4.4,2.9,-4.2,5.3c0,0.3,0,0.7,0.1,1c0.4,2.3,1.6,4.1,3.2,5.7c1.7,1.7,3.6,3,5.7,4.1c0.1,0.1,0.4,0.2,0.4,0.2s0.2,-0.1,0.4,-0.2c1.7,-1,3.3,-2.1,4.7,-3.3c1.6,-1.4,3,-3,3.8,-5C25.9,14.3,25.5,12,23.6,10.3z" fill="#FFFFFF"/>
  </g>
</svg>
