<?xml version="1.0" encoding="UTF-8"?>
<!DOCTYPE svg PUBLIC "-//W3C//DTD SVG 1.1//EN" "http://www.w3.org/Graphics/SVG/1.1/DTD/svg11.dtd">
<svg version="1.1" id="Layer_1" xmlns="http://www.w3.org/2000/svg" xmlns:xlink="http://www.w3.org/1999/xlink" x="0px" y="0px" width="32px" height="32px" viewBox="0 0 32 32" enable-background="new 0 0 32 32" xml:space="preserve">
  <g id="icon">
    <path d="M14.4,18.9c0.1,0.3,-0.5,0.7,-0.8,0.2C13.6,18.4,14.4,18.4,14.4,18.9zM12.2,19.1c-1.5,0.4,-1.2,2.4,0.4,2C13.7,20.8,13.9,18.7,12.2,19.1zM32,16c0,8.8,-7.2,16,-16,16S0,24.8,0,16S7.2,0,16,0S32,7.2,32,16zM21,15.3c0.3,-0.9,0.5,-2,0.1,-2.6c-1.3,-1.4,-4,0,-5.3,0.1c0.6,-1.8,-0.1,-3.7,-2.3,-3.1c-2,0.5,-3.6,1.7,-5,3.1c-1.5,1.5,-3.1,3.3,-3.3,5.6c-0.3,2.7,1.4,4,3,4.9c4.8,2.7,12.4,1.2,15,-2.4c0.4,-0.5,0.7,-1.3,0.8,-1.9C24.3,16.5,22.5,16.1,21,15.3zM22.5,12.7c0,0.8,-0.3,1.5,0.6,1.4c0.6,-0.1,0.8,-0.9,0.7,-1.8c-0.2,-1.2,-1.3,-2.3,-2.9,-2.2c-0.4,0.1,-1,0,-1,0.7c0,0.9,1.1,0.4,1.8,0.7C22.1,11.7,22.5,12.2,22.5,12.7zM26.8,12.3c-0.3,-3.1,-2.9,-5.6,-6.5,-5.1c-0.4,0.1,-0.9,0.1,-1,0.6c-0.2,1.2,1.2,0.8,1.8,0.8c2.1,0,4.2,1.7,4.2,4.2c0,0.9,-0.7,2.3,0.6,2.2C26.7,14.9,26.9,13.5,26.8,12.3zM20.4,18.7c0,1,-0.5,1.9,-1,2.4c-1.3,1.5,-4.1,2.4,-6.9,2.3c-2.4,-0.2,-5.7,-1.6,-5.1,-4.6c0.3,-1.4,1.4,-2.3,2.3,-2.8c1.2,-0.7,2.3,-1,3.9,-1.2C16.6,14.6,20.4,15.7,20.4,18.7zM16.7,18.4c-0.4,-1.2,-1.7,-2.1,-3.4,-1.8c-2,0.2,-4,2,-3.2,4.2C11.3,24.1,18,22.3,16.7,18.4z" fill="#CD4C32"/>
    <path d="M26.8,12.3c0.1,1.2,-0.1,2.6,-0.9,2.7c-1.3,0.1,-0.6,-1.3,-0.6,-2.2c0,-2.5,-2.1,-4.2,-4.2,-4.2c-0.6,0,-2,0.4,-1.8,-0.8c0.1,-0.5,0.6,-0.5,1,-0.6C23.9,6.7,26.5,9.2,26.8,12.3L26.8,12.3zM21,15.3c1.5,0.8,3.3,1.2,3,3.7c-0.1,0.6,-0.4,1.4,-0.8,1.9c-2.6,3.6,-10.2,5.1,-15,2.4c-1.6,-0.9,-3.3,-2.2,-3,-4.9c0.2,-2.3,1.8,-4.1,3.3,-5.6c1.4,-1.4,3,-2.6,5,-3.1c2.2,-0.6,2.9,1.3,2.3,3.1c1.3,-0.1,4,-1.5,5.3,-0.1C21.5,13.3,21.3,14.4,21,15.3L21,15.3zM19.4,21.1c0.5,-0.5,1,-1.4,1,-2.4c0,-3,-3.8,-4.1,-6.8,-3.9c-1.6,0.2,-2.7,0.5,-3.9,1.2c-0.9,0.5,-2,1.4,-2.3,2.8c-0.6,3,2.7,4.4,5.1,4.6C15.3,23.5,18.1,22.6,19.4,21.1zM23.8,12.3c0.1,0.9,-0.1,1.7,-0.7,1.8c-0.9,0.1,-0.6,-0.6,-0.6,-1.4c0,-0.5,-0.4,-1,-0.8,-1.2c-0.7,-0.3,-1.8,0.2,-1.8,-0.7c0,-0.7,0.6,-0.6,1,-0.7C22.5,10,23.6,11.1,23.8,12.3zM16.7,18.4c1.3,3.9,-5.4,5.7,-6.6,2.4c-0.8,-2.2,1.2,-4,3.2,-4.2C15,16.3,16.3,17.2,16.7,18.4zM13.6,19.1c0.3,0.5,0.9,0.1,0.8,-0.2C14.4,18.4,13.6,18.4,13.6,19.1zM12.6,21.1c1.1,-0.3,1.3,-2.4,-0.4,-2C10.7,19.5,11,21.5,12.6,21.1z" fill="#FFFFFF"/>
  </g>
</svg>
