<?xml version="1.0" encoding="UTF-8"?>
<!DOCTYPE svg PUBLIC "-//W3C//DTD SVG 1.1//EN" "http://www.w3.org/Graphics/SVG/1.1/DTD/svg11.dtd">
<svg version="1.1" id="Layer_1" xmlns="http://www.w3.org/2000/svg" xmlns:xlink="http://www.w3.org/1999/xlink" x="0px" y="0px" width="32px" height="32px" viewBox="0 0 32 32" enable-background="new 0 0 32 32" xml:space="preserve">
  <g id="icon">
    <path d="M16.6,7.6c-4.4,0,-7.9,3.5,-7.9,7.9c0,1.5,0.4,2.9,1.2,4.2l0.2,0.3l-0.8,2.9l3,-0.8l0.3,0.2c1.2,0.7,2.6,1.1,4,1.1c4.4,0,7.9,-3.5,7.9,-7.9c0,-2.1,-0.8,-4.1,-2.3,-5.6S18.7,7.6,16.6,7.6zM21.5,19c-0.1491,0.5006,-1.1,1,-1.6,1.1c-0.4,0.1,-0.9,0.1,-1.5,-0.1c-0.4,-0.1,-0.8,-0.3,-1.4,-0.5c-2.4,-1,-4,-3.4,-4.1,-3.6s-1,-1.3,-1,-2.5s0.57,-1.78,0.77,-1.98s0.4312,-0.288,0.63,-0.31c0.2137,-0.0237,0.3984,-0.0381,0.4984,-0.0381S14.1,11,14.3,11.5s0.6175,1.6445,0.7,1.8c0.0483,0.1292,0.0609,0.2677,0.0305,0.4094C15.0002,13.8814,14.9,14,14.8,14.1c-0.1165,0.1121,-0.3,0.3,-0.4,0.4s-0.2,0.3,-0.1,0.5s0.6,1,1.3,1.6c0.9,0.8,1.7,1.1,1.9,1.2s0.496,0.0304,0.57,-0.08c0.1529,-0.1787,0.5407,-0.7016,0.73,-0.92c0.101,-0.1203,0.3,-0.2,0.5,-0.1s1.4,0.7,1.6,0.8c0.2641,0.128,0.5562,0.3059,0.7,0.4C21.6978,17.9572,21.7,18.4,21.5,19zM16,0C7.2,0,0,7.2,0,16s7.2,16,16,16s16,-7.2,16,-16S24.8,0,16,0zM26,15.6c0,5.2,-4.3,9.5,-9.5,9.5c-1.6,0,-3.1,-0.4,-4.5,-1.2l-5,1.3l1.4,-5c-0.9,-1.4,-1.3,-3,-1.3,-4.7c0,-5.2,4.3,-9.5,9.5,-9.5c2.6,0,4.9,1,6.7,2.8S26.1,13,26,15.6z" fill="#4EA17E"/>
    <path d="M23.3,8.8c-1.8,-1.8,-4.1,-2.8,-6.7,-2.8c-5.2,0,-9.5,4.3,-9.5,9.5c0,1.7,0.4,3.3,1.3,4.7l-1.4,5l5,-1.3c1.4,0.8,2.9,1.2,4.5,1.2l0,0c5.2,0,9.5,-4.3,9.5,-9.5C26.1,13,25.1,10.6,23.3,8.8L23.3,8.8zM16.6,23.4L16.6,23.4c-1.4,0,-2.8,-0.4,-4,-1.1l-0.3,-0.2l-3,0.8l0.8,-2.9l-0.2,-0.3c-0.8,-1.3,-1.2,-2.7,-1.2,-4.2c0,-4.4,3.5,-7.9,7.9,-7.9c2.1,0,4.1,0.8,5.6,2.3s2.3,3.5,2.3,5.6C24.5,19.9,21,23.4,16.6,23.4L16.6,23.4zM20.9,17.5c-0.2,-0.1,-1.4,-0.7,-1.6,-0.8s-0.399,-0.0203,-0.5,0.1c-0.1893,0.2184,-0.5771,0.7413,-0.73,0.92c-0.074,0.1104,-0.37,0.18,-0.57,0.08s-1,-0.4,-1.9,-1.2c-0.7,-0.6,-1.2,-1.4,-1.3,-1.6s0,-0.4,0.1,-0.5s0.2835,-0.2879,0.4,-0.4c0.1,-0.1,0.2002,-0.2186,0.2305,-0.3906c0.0305,-0.1418,0.0178,-0.2802,-0.0305,-0.4094c-0.0825,-0.1555,-0.5,-1.3,-0.7,-1.8s-0.4016,-0.4282,-0.5016,-0.4282s-0.2847,0.0144,-0.4984,0.0382c-0.1988,0.022,-0.43,0.11,-0.63,0.31S11.9,12.2,11.9,13.4s0.9,2.3,1,2.5s1.7,2.6,4.1,3.6c0.6,0.2,1,0.4,1.4,0.5c0.6,0.2,1.1,0.2,1.5,0.1c0.5,-0.1,1.4509,-0.5994,1.6,-1.1c0.2,-0.6,0.1978,-1.0428,0.1,-1.1C21.4562,17.8059,21.1641,17.628,20.9,17.5L20.9,17.5z" fill="#FFFFFF"/>
  </g>
</svg>
