<?xml version="1.0" encoding="UTF-8"?>
<!DOCTYPE svg PUBLIC "-//W3C//DTD SVG 1.1//EN" "http://www.w3.org/Graphics/SVG/1.1/DTD/svg11.dtd">
<svg version="1.1" id="Layer_1" xmlns="http://www.w3.org/2000/svg" xmlns:xlink="http://www.w3.org/1999/xlink" x="0px" y="0px" width="32px" height="32px" viewBox="0 0 32 32" enable-background="new 0 0 32 32" xml:space="preserve">
  <g id="icon">
    <path d="M16.2,16.8l2.7,7.4c-2.2,0.7,-3.5,0.6,-5.3,0.1L16.2,16.8zM20.3,12c-0.6,-1.2,0,-2.5,1.3,-2.5c-1,-1,-3.1,-2.2,-5.8,-2.2s-5.6,1.3,-7.3,3.9l3,-0.1c0.4,0.2,0.2,0.7,0,0.7l-1,0.1l3.1,9.4l2.1,-5.7l-1.4,-3.7l-1,-0.1c-0.4,-0.3,-0.2,-0.7,0.1,-0.7c1.8,0.1,2.8,0.1,4.6,0c0.4,0,0.6,0.6,0,0.7l-1,0.1l3.1,9.3l1.5,-5.1C21.7,13.9,21.1,13.6,20.3,12zM7.3,16c0,3.3,1.9,6.3,4.9,7.8L8.1,12.5C7.5,13.7,7.4,14.7,7.3,16zM20.5,23.4c3.4,-2.1,4.1,-5.3,4.2,-7.4c0,-2.1,-0.9,-3.8,-1,-4.1c0.1,1.7,-0.2,2.5,-0.4,3.4L20.5,23.4zM32,16c0,8.8,-7.2,16,-16,16S0,24.8,0,16S7.2,0,16,0S32,7.2,32,16zM25.7,16c0,-5.3,-4.1,-9.7,-9.7,-9.7s-9.7,4.3,-9.7,9.7s4.3,9.7,9.7,9.7S25.7,21.3,25.7,16z" fill="#3E79B4"/>
    <path d="M16,25.7c-5.4,0,-9.7,-4.3,-9.7,-9.7s4.1,-9.7,9.7,-9.7s9.7,4.4,9.7,9.7S21.4,25.7,16,25.7zM18.9,24.2l-2.7,-7.4l-2.6,7.5C15.4,24.8,16.7,24.9,18.9,24.2L18.9,24.2zM12.2,23.8L8.1,12.5c-0.6,1.2,-0.7,2.2,-0.8,3.5C7.3,19.3,9.2,22.3,12.2,23.8zM24.7,16c0,-2.1,-0.9,-3.8,-1,-4.1c0.1,1.7,-0.2,2.5,-0.4,3.4l-2.8,8.1C23.9,21.3,24.6,18.1,24.7,16L24.7,16L24.7,16zM15.7,15.6l-1.4,-3.7l-1,-0.1c-0.4,-0.3,-0.2,-0.7,0.1,-0.7c1.8,0.1,2.8,0.1,4.6,0c0.4,0,0.6,0.6,0,0.7l-1,0.1l3.1,9.3l1.5,-5.1c0.1,-2.2,-0.5,-2.5,-1.3,-4.1c-0.6,-1.2,0,-2.5,1.3,-2.5c-1,-1,-3.1,-2.2,-5.8,-2.2s-5.6,1.3,-7.3,3.9l3,-0.1c0.4,0.2,0.2,0.7,0,0.7l-1,0.1l3.1,9.4L15.7,15.6L15.7,15.6z" fill="#FFFFFF"/>
  </g>
</svg>
