<?xml version="1.0" encoding="UTF-8"?>
<!DOCTYPE svg PUBLIC "-//W3C//DTD SVG 1.1//EN" "http://www.w3.org/Graphics/SVG/1.1/DTD/svg11.dtd">
<svg version="1.1" id="Layer_1" xmlns="http://www.w3.org/2000/svg" xmlns:xlink="http://www.w3.org/1999/xlink" x="0px" y="0px" width="32px" height="32px" viewBox="0 0 32 32" enable-background="new 0 0 32 32" xml:space="preserve">
  <g id="icon">
    <path d="M16,0C7.2,0,0,7.2,0,16s7.2,16,16,16s16,-7.2,16,-16S24.8,0,16,0zM11,20H8.2c-0.2,0,-0.3,-0.1,-0.4,-0.2s-0.1,-0.3,0,-0.4l3,-5.3l0,0l-1.9,-3.3c-0.1,-0.2,-0.1,-0.3,0,-0.4s0.2,-0.2,0.4,-0.2h2.8c0.4,0,0.6,0.3,0.8,0.5c0,0,1.9,3.3,1.9,3.4c-0.1,0.2,-3,5.4,-3,5.4C11.6,19.7,11.4,20,11,20zM24.2,6.9l-6.2,11l0,0l4,7.2c0.1,0.2,0.1,0.3,0,0.4s-0.2,0.2,-0.4,0.2h-2.8c-0.4,0,-0.6,-0.3,-0.8,-0.5l-4,-7.3c0.2,-0.4,6.2,-11.1,6.2,-11.1c0.2,-0.3,0.3,-0.5,0.8,-0.5l0,0l0,0h2.8c0.2,0,0.3,0.1,0.4,0.2S24.3,6.8,24.2,6.9z" fill="#EAB765"/>
    <path d="M9.3,10.2c-0.2,0,-0.3,0.1,-0.4,0.2s-0.1,0.3,0,0.4l1.9,3.3l0,0l-3,5.3c-0.1,0.2,-0.1,0.3,0,0.4s0.2,0.2,0.4,0.2h2.8c0.4,0,0.6,-0.3,0.8,-0.5c0,0,2.9,-5.2,3,-5.4l-1.9,-3.4c-0.1,-0.2,-0.4,-0.5,-0.8,-0.5H9.3L9.3,10.2zM21,6.3c-0.4,0,-0.6,0.3,-0.8,0.5c0,0,-6,10.7,-6.2,11.1l4,7.3c0.1,0.2,0.4,0.5,0.8,0.5h2.8c0.2,0,0.3,-0.1,0.4,-0.2s0.1,-0.3,0,-0.4l-4,-7.2l0,0l6.2,-11c0.1,-0.2,0.1,-0.3,0,-0.4s-0.2,-0.2,-0.4,-0.2H21L21,6.3L21,6.3L21,6.3z" fill="#FFFFFF"/>
  </g>
</svg>
