<?xml version="1.0" encoding="UTF-8"?>
<!DOCTYPE svg PUBLIC "-//W3C//DTD SVG 1.1//EN" "http://www.w3.org/Graphics/SVG/1.1/DTD/svg11.dtd">
<svg version="1.1" id="Layer_1" xmlns="http://www.w3.org/2000/svg" xmlns:xlink="http://www.w3.org/1999/xlink" x="0px" y="0px" width="32px" height="32px" viewBox="0 0 32 32" enable-background="new 0 0 32 32" xml:space="preserve">
  <g id="icon">
    <path d="M16,0C7.2,0,0,7.2,0,16s7.2,16,16,16s16,-7.2,16,-16S24.8,0,16,0zM22.4,13.1c-0.5,0.1,-5.2,3.7,-5.5,4.6c0,0.3,0,3.3,0.1,3.7c0.3,0.1,2.5,0,2.9,0.1l-0.1,0.9c-0.4,0,-3.1,0,-4.7,0c-0.8,0,-3.5,0,-4.3,0l0.2,-0.9c0.5,0,2.3,0.1,2.7,-0.3c0.2,-0.2,0.2,-3,0.1,-3.5c-0.2,-0.6,-4.3,-5.7,-5.3,-6.5H5.7V9.9h9.3v0.1v0.2v1h-2.8c1.2,1.8,3,4,3.8,5.1l3.7,-3.2h-2.2l-0.3,-1.3h8.1l-0.1,0.1l-0.6,0.8l-0.2,0.3h-1.5C22.7,13,22.5,13.1,22.4,13.1zM24.9,22.4l-0.7,0.1l-0.6,-0.1v-1.4l0.8,0.1h0.7L24.9,22.4zM25,20.1l-1.2,-0.1v-5.8c0.3,0.1,2.5,0.3,2.7,0.3L25,20.1z" fill="#8054A3"/>
    <path d="M24.9,22.4l0.2,-1.3h-0.7l-0.8,-0.1v1.4l0.6,0.1L24.9,22.4zM13.8,17.7c0.1,0.5,0.1,3.3,-0.1,3.5c-0.4,0.4,-2.2,0.3,-2.7,0.3l-0.2,0.9c0.8,0,3.5,0,4.3,0c1.6,0,4.3,0,4.7,0l0.1,-0.9c-0.4,-0.1,-2.6,0,-2.9,-0.1c-0.1,-0.4,-0.1,-3.4,-0.1,-3.7c0.3,-0.9,5,-4.5,5.5,-4.6c0.1,0,0.3,-0.1,0.5,-0.1h1.5l0.2,-0.3l0,0l0.6,-0.8l0,0l0.1,-0.1h-8.1l0.3,1.3h2.2l-3.7,3.2c-0.8,-1.1,-2.6,-3.3,-3.8,-5.1h2.8v-1v-0.2l0,0v-0.1H5.7v1.3h2.8C9.5,12,13.6,17.1,13.8,17.7zM23.8,14.2v5.8l1.2,0.1l1.5,-5.6C26.3,14.5,24.1,14.3,23.8,14.2z" fill="#FFFFFF"/>
  </g>
</svg>
