<?xml version="1.0" encoding="UTF-8"?>
<!DOCTYPE svg PUBLIC "-//W3C//DTD SVG 1.1//EN" "http://www.w3.org/Graphics/SVG/1.1/DTD/svg11.dtd">
<svg version="1.1" id="Layer_1" xmlns="http://www.w3.org/2000/svg" xmlns:xlink="http://www.w3.org/1999/xlink" x="0px" y="0px" width="32px" height="32px" viewBox="0 0 32 32" enable-background="new 0 0 32 32" xml:space="preserve">
  <g id="icon">
    <path d="M16,0C7.2,0,0,7.2,0,16s7.2,16,16,16s16,-7.2,16,-16S24.8,0,16,0zM14.4,5.4c0.5,0,1,0,1.5,0.1c0.2,0.1,0.3,0.2,0.3,0.4v8.7v0.1c-0.1,0.4,-0.4,0.7,-0.8,0.7c-0.2,0,-0.4,-0.1,-0.6,-0.3L9.6,7.9c-0.1,-0.1,-0.1,-0.4,-0.1,-0.5C10.6,6.5,12.1,5.4,14.4,5.4zM8.9,19.8c-0.2,0,-0.3,-0.1,-0.3,-0.2c-0.6,-1.7,-0.6,-3.5,0,-5.2c0,-0.1,0.1,-0.2,0.2,-0.2s0.2,0,0.3,0l5.3,2c0.1,0,0.1,0.1,0.2,0.1c0.5,0.6,0.5,1.1,0.1,1.6c-0.2,0,-0.2,0,-0.3,0l-5.4,1.9H8.9zM16,25.5c-0.2,0,-0.4,0,-0.6,0c-1.9,0,-3.3,-0.7,-4.3,-2.1c-0.1,-0.2,-0.1,-0.4,0,-0.5l3.6,-4.1c0,0,0.1,-0.1,0.2,-0.1s0.3,0,0.4,0c0.6,0,0.8,0.3,0.9,0.6l0.1,5.8C16.3,25.3,16.2,25.5,16,25.5zM17,15.3l3.4,-4.6c0.1,-0.2,0.3,-0.2,0.5,-0.1c1.6,1,2.8,2.8,3.1,4.8c0,0.1,0,0.2,-0.1,0.3c0,0,-0.1,0.1,-0.2,0.1l-5.8,0.9c-0.1,0,-0.1,0,-0.1,0h-0.1c-0.6,-0.2,-0.8,-0.6,-0.8,-1.2C16.9,15.4,17,15.4,17,15.3zM24,20.2c-0.5,2,-1.8,3.6,-3.4,4.3c-0.1,0,-0.1,0,-0.2,0s-0.2,-0.1,-0.3,-0.2l-3,-5v-0.1c-0.1,-0.6,0.2,-1.1,0.8,-1.2c0.1,0,0.1,0,0.2,0l5.7,1.7C24,19.7,24.1,19.9,24,20.2z" fill="#CD4C32"/>
    <path d="M14.4,17.9l-5.4,1.9h-0.1c-0.2,0,-0.3,-0.1,-0.3,-0.2c-0.6,-1.7,-0.6,-3.5,0,-5.2c0,-0.1,0.1,-0.2,0.2,-0.2s0.2,0,0.3,0l5.3,2c0.1,0,0.1,0.1,0.2,0.1c0.5,0.6,0.5,1.1,0.1,1.6C14.5,17.9,14.5,17.9,14.4,17.9zM14.8,15.1C14.8,15.1,14.9,15.2,14.8,15.1c0.2,0.2,0.4,0.3,0.6,0.3c0.4,0,0.7,-0.3,0.8,-0.7v-0.1V5.9c0,-0.2,-0.1,-0.3,-0.3,-0.4c-0.5,-0.1,-1,-0.1,-1.5,-0.1c-2.3,0,-3.8,1.1,-4.9,2c0,0.1,0,0.4,0.1,0.5L14.8,15.1zM16.2,19.3c-0.1,-0.3,-0.3,-0.6,-0.9,-0.6c-0.1,0,-0.3,0,-0.4,0s-0.2,0.1,-0.2,0.1l-3.6,4.1c-0.1,0.1,-0.1,0.3,0,0.5c1,1.4,2.4,2.1,4.3,2.1c0.2,0,0.4,0,0.6,0s0.3,-0.2,0.3,-0.4L16.2,19.3C16.2,19.4,16.2,19.3,16.2,19.3zM17.7,16.7h0.1c0,0,0,0,0.1,0l5.8,-0.9c0.1,0,0.2,-0.1,0.2,-0.1c0.1,-0.1,0.1,-0.2,0.1,-0.3c-0.3,-2,-1.5,-3.8,-3.1,-4.8c-0.2,-0.1,-0.4,-0.1,-0.5,0.1l-3.4,4.6c0,0.1,-0.1,0.1,-0.1,0.2C16.9,16.1,17.1,16.5,17.7,16.7zM23.8,19.7l-5.7,-1.7c-0.1,0,-0.1,0,-0.2,0c-0.6,0.1,-0.9,0.6,-0.8,1.2v0.1l3,5c0.1,0.1,0.2,0.2,0.3,0.2s0.1,0,0.2,0c1.6,-0.7,2.9,-2.3,3.4,-4.3C24.1,19.9,24,19.7,23.8,19.7z" fill="#FFFFFF"/>
  </g>
</svg>
