<?xml version="1.0" encoding="UTF-8"?>
<!DOCTYPE svg PUBLIC "-//W3C//DTD SVG 1.1//EN" "http://www.w3.org/Graphics/SVG/1.1/DTD/svg11.dtd">
<svg version="1.1" id="Layer_1" xmlns="http://www.w3.org/2000/svg" xmlns:xlink="http://www.w3.org/1999/xlink" x="0px" y="0px" width="32px" height="32px" viewBox="0 0 32 32" enable-background="new 0 0 32 32" xml:space="preserve">
  <g id="icon">
    <path d="M14.8587,18.263h1.0226v5.2589h-1.0226v-0.6181c-0.1461,0.2098,-0.3859,0.3708,-0.5896,0.479c-0.2024,0.1129,-0.4007,0.1663,-0.5924,0.1663c-0.2345,0,-0.4143,-0.0768,-0.5332,-0.2318c-0.1176,-0.155,-0.1838,-0.3841,-0.1838,-0.6947V18.263h1.0226v4.0022c0,0.1229,0.0213,0.2111,0.0621,0.2652c0.0441,0.0568,0.1132,0.0828,0.2081,0.0828c0.0728,0,0.1732,-0.0361,0.2881,-0.1089c0.1136,-0.0735,0.1721,-0.1663,0.3182,-0.2786V18.263zM9.0154,17.5326h1.1687v5.9893h1.1686v-5.9893h1.1687V16.51h-3.506V17.5326zM16.051,12.4773c0.1543,0,0.296,-0.0434,0.3875,-0.1309c0.0902,-0.0882,0.1731,-0.2084,0.1731,-0.3614v-3.113c0,-0.1242,-0.0797,-0.2238,-0.1739,-0.3026c-0.0929,-0.0768,-0.2474,-0.1142,-0.3984,-0.1142c-0.1396,0,-0.2454,0.0374,-0.3342,0.1142c-0.0848,0.0788,-0.116,0.1784,-0.116,0.3026v3.113c0,0.1563,0.0369,0.2766,0.1177,0.3627C15.7877,12.4359,15.8994,12.4773,16.051,12.4773zM19.5333,22.3533h0.0081c0,0.4382,-0.0795,0.6724,-0.2385,0.8688c-0.1577,0.1964,-0.3888,0.3048,-0.6887,0.3048c-0.1997,0,-0.3834,-0.0306,-0.5391,-0.1068c-0.1536,-0.0748,-0.2948,-0.185,-0.4409,-0.3446v0.4464h-1.0226V16.51h1.0226v2.1979c0.1461,-0.1577,0.2912,-0.2779,0.4422,-0.3594c0.155,-0.0842,0.3146,-0.1242,0.4723,-0.1242c0.3206,0,0.5641,0.1096,0.7324,0.3307c0.1697,0.2211,0.2521,0.5444,0.2521,0.9693V22.3533zM18.5107,19.5824c0,-0.1763,-0.0425,-0.308,-0.1126,-0.3988c-0.0748,-0.0902,-0.185,-0.1356,-0.3219,-0.1356c-0.0722,0,-0.1554,0.016,-0.2255,0.0501c-0.0701,0.0334,-0.0703,0.0875,-0.2164,0.159v3.2306c0.1461,0.0835,0.1704,0.1476,0.2485,0.185c0.0782,0.0354,0.1628,0.0555,0.2489,0.0555c0.1236,0,0.2232,-0.0367,0.282,-0.1109c0.0575,-0.0735,0.0971,-0.1917,0.0971,-0.3574V19.5824zM22.6074,18.5523c0.2492,0.2625,0.2858,0.6393,0.2858,1.1303v1.356h-1.753v0.9434c0,0.2726,0.0216,0.4623,0.0877,0.5685c0.0668,0.1062,0.1755,0.1577,0.3391,0.1577c0.1683,0,0.2833,-0.0448,0.3507,-0.1343c0.0655,-0.0908,0.0989,-0.2866,0.0989,-0.5919v-0.213h0.8765v0.243c0,0.5317,-0.0442,0.9319,-0.3008,1.2018c-0.2518,0.2672,-0.5906,0.4008,-1.0956,0.4008c-0.4556,0,-0.7714,-0.1423,-1.0306,-0.4275c-0.2599,-0.2826,-0.3486,-0.6754,-0.3486,-1.175v-2.3294c0,-0.4482,0.1211,-0.817,0.409,-1.0996c0.2859,-0.2826,0.6427,-0.4242,1.0976,-0.4242C22.0885,18.1588,22.3576,18.2904,22.6074,18.5523zM22.0167,19.6732c0,-0.2171,-0.0367,-0.3734,-0.1069,-0.4649c-0.0675,-0.0955,-0.1851,-0.143,-0.3407,-0.143c-0.1603,0,-0.2667,0.0474,-0.3362,0.1436c-0.0715,0.0915,-0.0927,0.2472,-0.0927,0.4649v0.4882h0.8765V19.6732zM32,16c0,8.8,-7.2,16,-16,16S0,24.8,0,16S7.2,0,16,0S32,7.2,32,16zM18.6568,12.3851c0,0.3407,0.0535,0.5952,0.1864,0.7635c0.1343,0.171,0.324,0.2572,0.5886,0.2572c0.2151,0,0.4099,-0.0621,0.6371,-0.183c0.2298,-0.1222,0.487,-0.2999,0.6331,-0.5331v0.6065h1.1686v0.0254l0.0142,-0.0254h-0.0142V7.5991h-1.1686v4.3471c0,0.1243,-0.2025,0.2258,-0.3301,0.3073c-0.1303,0.0802,-0.2255,0.1202,-0.309,0.1202c-0.1069,0,-0.1511,-0.0301,-0.1985,-0.0922c-0.0468,-0.0601,-0.0389,-0.1577,-0.0389,-0.2919V7.5991h-1.1686V12.3851zM14.4204,11.8767c0,0.4857,0.1349,0.8704,0.4322,1.1583c0.3013,0.2866,0.693,0.4315,1.1927,0.4315c0.5177,0,0.8873,-0.1396,1.1846,-0.4175c0.2933,-0.2792,0.4043,-0.6607,0.4043,-1.1497V8.9488c0,-0.4349,-0.1169,-0.7929,-0.4175,-1.0688c-0.3026,-0.2752,-0.664,-0.4142,-1.1376,-0.4142c-0.5184,0,-0.9072,0.1309,-1.2151,0.3928c-0.3053,0.2619,-0.4435,0.6132,-0.4435,1.0575V11.8767zM9.986,5.7l1.5128,4.5548v3.0415h1.3147v-3.1871L14.2967,5.7h-1.3073l-0.7949,2.9216h-0.0808L11.2786,5.7H9.986zM24.606,18.8786c-0.0655,-0.9409,-0.0768,-2.1438,-0.7226,-3.1111c-0.3003,-0.3767,-0.8117,-0.6688,-1.3571,-0.7662c-0.6826,-0.1233,-3.5943,-0.2208,-6.5952,-0.2208c-3.0077,0,-5.913,0.0975,-6.5949,0.2208c-0.4365,0.0778,-0.8253,0.266,-1.1595,0.5584c-0.7078,0.6248,-0.7594,1.6958,-0.866,2.5979c-0.1292,1.6337,-0.1043,2.0755,0,3.8638c0.0681,0.7924,0.1159,1.1168,0.2386,1.5067c0.143,0.468,0.3274,0.8053,0.5592,1.0264c0.3,0.2921,0.7091,0.4935,1.1798,0.5842c0.6958,0.1365,1.8279,0.1888,5.1422,0.2469v0c2.7642,0.0421,5.1997,-0.0025,8.0679,-0.2078c0.4583,-0.0749,0.8818,-0.2811,1.214,-0.591c0.2118,-0.2014,0.3342,-0.3831,0.4775,-0.7275c0.2318,-0.5455,0.3138,-1.0716,0.4159,-2.5586C24.6332,20.8523,24.6332,19.327,24.606,18.8786z" fill="#CD4C32"/>
    <path d="M24.1902,23.8592c0.2318,-0.5455,0.3138,-1.0716,0.4159,-2.5586c0.0271,-0.4483,0.0271,-1.9737,0,-2.422c-0.0655,-0.9409,-0.0768,-2.1438,-0.7226,-3.1111c-0.3003,-0.3767,-0.8117,-0.6688,-1.3571,-0.7662c-0.6826,-0.1233,-3.5943,-0.2208,-6.5952,-0.2208c-3.0077,0,-5.913,0.0975,-6.5949,0.2208c-0.4365,0.0778,-0.8253,0.266,-1.1595,0.5584c-0.7078,0.6248,-0.7594,1.6958,-0.866,2.5979c-0.1292,1.6337,-0.1043,2.0755,0,3.8638c0.0681,0.7924,0.1159,1.1168,0.2386,1.5067c0.143,0.468,0.3274,0.8053,0.5592,1.0264c0.3,0.2921,0.709,0.4935,1.1798,0.5842c0.6958,0.1365,1.8279,0.1888,5.1423,0.2469v0c2.7642,0.0421,5.1997,-0.0025,8.0679,-0.2079c0.4584,-0.0749,0.8819,-0.2811,1.214,-0.591C23.9244,24.3853,24.0468,24.2036,24.1902,23.8592zM12.5214,17.5326h-1.1686v5.9893h-1.1687v-5.9893H9.0154V16.51h3.5059V17.5326zM15.8812,23.5219h-1.0226v-0.6181c-0.1461,0.2098,-0.3859,0.3708,-0.5896,0.479c-0.2024,0.1129,-0.4007,0.1663,-0.5924,0.1663c-0.2345,0,-0.4143,-0.0768,-0.5332,-0.2318c-0.1176,-0.155,-0.1838,-0.3841,-0.1838,-0.6947V18.263h1.0226v4.0022c0,0.1229,0.0213,0.2111,0.0621,0.2652c0.0441,0.0568,0.1132,0.0828,0.2081,0.0828c0.0728,0,0.1732,-0.0361,0.2881,-0.1089c0.1136,-0.0735,0.1721,-0.1663,0.3182,-0.2786V18.263h1.0226V23.5219zM19.5333,22.3533h0.0081c0,0.4382,-0.0795,0.6724,-0.2385,0.8688c-0.1577,0.1964,-0.3888,0.3048,-0.6887,0.3048c-0.1997,0,-0.3834,-0.0306,-0.5391,-0.1068c-0.1536,-0.0748,-0.2948,-0.185,-0.4409,-0.3446v0.4465h-1.0226V16.51h1.0226v2.1979c0.1461,-0.1577,0.2912,-0.2779,0.4422,-0.3594c0.155,-0.0842,0.3146,-0.1242,0.4723,-0.1242c0.3206,0,0.5641,0.1096,0.7324,0.3307c0.1697,0.2211,0.2521,0.5444,0.2521,0.9693V22.3533zM21.2279,22.5504c0.0668,0.1062,0.1755,0.1577,0.3391,0.1577c0.1683,0,0.2833,-0.0448,0.3507,-0.1343c0.0655,-0.0908,0.0989,-0.2866,0.0989,-0.5919v-0.213h0.8765v0.243c0,0.5317,-0.0442,0.9319,-0.3007,1.2018c-0.2518,0.2672,-0.5906,0.4008,-1.0956,0.4008c-0.4556,0,-0.7714,-0.1423,-1.0306,-0.4275c-0.2599,-0.2826,-0.3486,-0.6754,-0.3486,-1.1751v-2.3294c0,-0.4482,0.1211,-0.817,0.409,-1.0996c0.2859,-0.2826,0.6427,-0.4242,1.0976,-0.4242c0.4643,0,0.7333,0.1316,0.9832,0.3935c0.2492,0.2625,0.2858,0.6393,0.2858,1.1303v1.356h-1.753v0.9434C21.1402,22.2545,21.1618,22.4442,21.2279,22.5504zM22.0167,20.162h-0.8765v-0.4882c0,-0.2178,0.0212,-0.3734,0.0927,-0.4649c0.0695,-0.0962,0.1758,-0.1436,0.3362,-0.1436c0.1557,0,0.2733,0.0474,0.3407,0.143c0.0701,0.0915,0.1069,0.2478,0.1069,0.4649V20.162zM18.3981,19.1836c0.0701,0.0908,0.1126,0.2225,0.1126,0.3988v2.6774c0,0.1657,-0.0396,0.2839,-0.0971,0.3574c-0.0588,0.0742,-0.1584,0.1109,-0.282,0.1109c-0.0862,0,-0.1708,-0.02,-0.2489,-0.0554c-0.0782,-0.0374,-0.1025,-0.1015,-0.2485,-0.185V19.257c0.1461,-0.0715,0.1463,-0.1256,0.2164,-0.159c0.0701,-0.0341,0.1534,-0.0501,0.2255,-0.0501C18.2131,19.0479,18.3233,19.0934,18.3981,19.1836zM9.986,5.7l1.5128,4.5548v3.0415h1.3147v-3.1871L14.2967,5.7h-1.3073l-0.7949,2.9216h-0.0808L11.2786,5.7H9.986zM14.8639,7.8586c-0.3053,0.2619,-0.4435,0.6132,-0.4435,1.0575v2.9607c0,0.4857,0.1349,0.8704,0.4322,1.1584c0.3013,0.2866,0.693,0.4315,1.1927,0.4315c0.5177,0,0.8873,-0.1396,1.1846,-0.4175c0.2933,-0.2792,0.4043,-0.6607,0.4043,-1.1497V8.9488c0,-0.4349,-0.1169,-0.7929,-0.4175,-1.0688c-0.3026,-0.2752,-0.664,-0.4142,-1.1376,-0.4142C15.5607,7.4658,15.1719,7.5967,14.8639,7.8586zM16.6117,8.8719v3.113c0,0.153,-0.0829,0.2732,-0.1731,0.3614c-0.0915,0.0875,-0.2332,0.1309,-0.3875,0.1309c-0.1516,0,-0.2634,-0.0414,-0.3442,-0.1296c-0.0808,-0.0862,-0.1177,-0.2064,-0.1177,-0.3627v-3.113c0,-0.1243,0.0312,-0.2238,0.116,-0.3026c0.0888,-0.0768,0.1946,-0.1142,0.3342,-0.1142c0.151,0,0.3055,0.0374,0.3984,0.1142C16.5319,8.6482,16.6117,8.7477,16.6117,8.8719zM21.8706,13.3217V7.5991h-1.1687v4.3471c0,0.1243,-0.2025,0.2258,-0.3301,0.3073c-0.1303,0.0802,-0.2255,0.1202,-0.309,0.1202c-0.1069,0,-0.1511,-0.0301,-0.1985,-0.0922c-0.0468,-0.0601,-0.0389,-0.1577,-0.0389,-0.2919V7.5991h-1.1687v4.786c0,0.3407,0.0535,0.5952,0.1864,0.7636c0.1343,0.171,0.324,0.2572,0.5886,0.2572c0.2151,0,0.4099,-0.0621,0.6371,-0.183c0.2298,-0.1222,0.487,-0.2999,0.6331,-0.5331v0.6065h1.1829L21.8706,13.3217z" fill="#FFFFFF"/>
  </g>
</svg>
