<?xml version="1.0" encoding="utf-8"?>
<!-- Generator: Adobe Illustrator 15.1.0, SVG Export Plug-In . SVG Version: 6.00 Build 0)  -->
<!DOCTYPE svg PUBLIC "-//W3C//DTD SVG 1.1//EN" "http://www.w3.org/Graphics/SVG/1.1/DTD/svg11.dtd">
<svg version="1.1" id="Layer_1" xmlns="http://www.w3.org/2000/svg" xmlns:xlink="http://www.w3.org/1999/xlink" x="0px" y="0px"
	 width="24px" height="24px" viewBox="0 0 24 24" enable-background="new 0 0 24 24" xml:space="preserve">
<path fill="none" d="M0,0h24v24H0V0z"/>
<path fill="#FFFFFF" d="M3,5H1v16c0,1.1,0.9,2,2,2h16v-2H3V5z M15,5h-2c-1.1,0-2,0.89-2,2v2c0,1.11,0.9,2,2,2h2v2h-4v2h4
	c1.1,0,2-0.891,2-2V7C17,5.89,16.1,5,15,5z M15,9h-2V7h2V9z"/>
</svg>
