<svg height="448pt" viewBox="0 0 448 448" width="448pt" xmlns="http://www.w3.org/2000/svg"><path d="m135.015625 441.640625 15.015625 5.648437 41.640625-111.289062h-17.085937zm0 0"/><path d="m8 304h-8v16h448v-16zm0 0"/><path d="m64 80h56v48h-56zm0 0"/><path d="m256.328125 336 41.640625 111.289062 15.015625-5.648437-39.570313-105.640625zm0 0"/><path d="m336 192h64v48h-64zm0 0"/><path d="m216 336h16v112h-16zm0 0"/><path d="m192 192h64v48h-64zm0 0"/><path d="m16 32v256h416v-256zm168 64h16v16h-16zm-88 120h-16v-16h16zm0-40h-16v-16h16zm32 40h-16v-16h16zm8-80c0 4.417969-3.582031 8-8 8h-72c-4.417969 0-8-3.582031-8-8v-64c0-4.417969 3.582031-8 8-8h72c4.417969 0 8 3.582031 8 8zm24 80h-16v-16h16zm8-104h-16v-16h16zm136 112h-16v-16h16zm112 24c0 4.417969-3.582031 8-8 8h-80c-4.417969 0-8-3.582031-8-8v-64c0-4.417969 3.582031-8 8-8h80c4.417969 0 8 3.582031 8 8zm0-112c0 4.417969-3.582031 8-8 8h-80c-4.417969 0-8-3.582031-8-8v-24h-88v64h32c4.417969 0 8 3.582031 8 8v64c0 4.417969-3.582031 8-8 8h-80c-4.417969 0-8-3.582031-8-8v-64c0-4.417969 3.582031-8 8-8h32v-72c0-4.417969 3.582031-8 8-8h96v-24c0-4.417969 3.582031-8 8-8h80c4.417969 0 8 3.582031 8 8zm0 0"/><path d="m0 0v16h448v-16zm0 0"/><path d="m336 80h64v48h-64zm0 0"/></svg>