<?xml version="1.0" encoding="utf-8"?>
<!-- Generator: Adobe Illustrator 15.1.0, SVG Export Plug-In . SVG Version: 6.00 Build 0)  -->
<!DOCTYPE svg PUBLIC "-//W3C//DTD SVG 1.1//EN" "http://www.w3.org/Graphics/SVG/1.1/DTD/svg11.dtd">
<svg fill="#FFFFFF" version="1.1" id="Layer_1" xmlns="http://www.w3.org/2000/svg" xmlns:xlink="http://www.w3.org/1999/xlink" x="0px" y="0px"
	 width="24px" height="24px" viewBox="0 0 24 24" enable-background="new 0 0 24 24" xml:space="preserve">
<path fill="none" d="M0,0h24v24H0V0z"/>
<rect x="18.76" y="7" width="2" height="2"/>
<polyline points="10.66,7 10.66,9 17.859,9 17.859,7 10.66,7 "/>
<polyline points="4.76,7 2.76,7 2.76,9 4.76,9 4.76,7 "/>
<polyline points="5.76,7 5.76,9 9.76,9 9.76,7 "/>
<polyline points="20.76,9.5 18.76,9.5 18.76,11.5 20.76,11.5 20.76,9.5 "/>
<rect x="10.66" y="9.5" width="7.199" height="2"/>
<polyline points="4.76,9.5 2.76,9.5 2.76,11.5 4.76,11.5 4.76,9.5 "/>
<polyline points="5.76,9.5 5.76,11.5 9.76,11.5 9.76,9.5 5.76,9.5 "/>
<polyline points="20.76,12 18.76,12 18.76,14 20.76,14 20.76,12 "/>
<rect x="10.66" y="12" width="7.199" height="2"/>
<polyline points="4.76,12 2.76,12 2.76,14 4.76,14 4.76,12 "/>
<polyline points="5.76,12 5.76,14 9.76,14 9.76,12 5.76,12 "/>
<polyline points="20.76,14.5 18.76,14.5 18.76,16.5 20.76,16.5 20.76,14.5 "/>
<rect x="10.66" y="14.5" width="7.199" height="2"/>
<polyline points="4.76,14.5 2.76,14.5 2.76,16.5 4.76,16.5 4.76,14.5 "/>
<polyline points="5.76,14.5 5.76,16.5 9.76,16.5 9.76,14.5 5.76,14.5 "/>
<polyline points="20.76,17 18.76,17 18.76,19 20.76,19 20.76,17 "/>
<rect x="10.66" y="17" width="7.199" height="2"/>
<polyline points="4.76,17 2.76,17 2.76,19 4.76,19 4.76,17 "/>
<polyline points="5.76,17 5.76,19 9.76,19 9.76,17 5.76,17 "/>
</svg>
