<?xml version="1.0" encoding="utf-8"?>
<!-- Generator: Adobe Illustrator 15.1.0, SVG Export Plug-In . SVG Version: 6.00 Build 0)  -->
<!DOCTYPE svg PUBLIC "-//W3C//DTD SVG 1.1//EN" "http://www.w3.org/Graphics/SVG/1.1/DTD/svg11.dtd">
<svg fill="#FFFFFF" version="1.1" id="Layer_1" xmlns="http://www.w3.org/2000/svg" xmlns:xlink="http://www.w3.org/1999/xlink" x="0px" y="0px"
	 width="24px" height="24px" viewBox="0 0 24 24" enable-background="new 0 0 24 24" xml:space="preserve">
<path d="M20.4,2.4H3.6c-1.332,0-2.4,1.08-2.4,2.4v14.4c0,1.319,1.068,2.399,2.4,2.399h16.8c1.319,0,2.399-1.08,2.399-2.399V4.8
	C22.8,3.48,21.731,2.4,20.4,2.4z M21.24,19.8H2.76V6.6h18.48V19.8z"/>
<path fill="none" d="M0,0h24v24H0V0z"/>
<rect x="19" y="7" width="2" height="2"/>
<rect x="10.9" y="7" width="7.199" height="2"/>
<rect x="3" y="7" width="2" height="2"/>
<rect x="6" y="7" width="4" height="2"/>
<polyline points="21,9.5 19,9.5 19,11.5 21,11.5 21,9.5 "/>
<rect x="10.9" y="9.5" width="7.199" height="2"/>
<polyline points="5,9.5 3,9.5 3,11.5 5,11.5 5,9.5 "/>
<polyline points="6,9.5 6,11.5 10,11.5 10,9.5 6,9.5 "/>
<polyline points="21,12 19,12 19,14 21,14 21,12 "/>
<rect x="10.9" y="12" width="7.199" height="2"/>
<polyline points="5,12 3,12 3,14 5,14 5,12 "/>
<polyline points="6,12 6,14 10,14 10,12 6,12 "/>
<polyline points="21,14.5 19,14.5 19,16.5 21,16.5 21,14.5 "/>
<rect x="10.9" y="14.5" width="7.199" height="2"/>
<polyline points="5,14.5 3,14.5 3,16.5 5,16.5 5,14.5 "/>
<polyline points="6,14.5 6,16.5 10,16.5 10,14.5 6,14.5 "/>
<polyline points="21,17 19,17 19,19 21,19 21,17 "/>
<rect x="10.9" y="17" width="7.199" height="2"/>
<polyline points="5,17 3,17 3,19 5,19 5,17 "/>
<polyline points="6,17 6,19 10,19 10,17 6,17 "/>
</svg>
