<?xml version="1.0" encoding="utf-8"?>
<!-- Generator: Adobe Illustrator 18.1.1, SVG Export Plug-In . SVG Version: 6.00 Build 0)  -->
<svg version="1.1" id="Layer_1" xmlns="http://www.w3.org/2000/svg" xmlns:xlink="http://www.w3.org/1999/xlink" x="0px" y="0px"
	 viewBox="0 0 612 792" enable-background="new 0 0 612 792" xml:space="preserve">
<g>
	<path fill="#FFFFFF" d="M157.1,525.2H76.2c-10.3,0-19.7-1.8-28.6-5.4c-8.7-3.6-16.3-8.5-22.7-15.1c-6.4-6.4-11.4-14.1-14.9-23
		c-3.6-8.8-5.4-18.5-5.4-29.1s1.8-20.2,5.4-29.1c3.6-8.8,8.5-16.6,14.9-23s14-11.4,22.7-15.1c8.7-3.6,18.3-5.4,28.6-5.4
		c10.2,0,19.5,1.8,28.3,5.4s16.3,8.5,22.7,15.1c6.4,6.4,11.4,14.1,14.9,23c3.6,8.8,5.4,18.5,5.4,29c0,12.6-2.7,24-8.2,34.3
		c-5.6,10.3-13.8,18.7-24.8,25v0.4h42.8v13.1L157.1,525.2L157.1,525.2z M19.8,452.7c0,8,1.3,15.6,3.9,22.7c2.5,7.1,6.3,13.5,11.1,19
		c4.9,5.6,10.7,9.9,17.7,13.1s14.8,4.9,23.7,4.9c8.7,0,16.4-1.5,23.6-4.9c7-3.3,13-7.5,17.8-13.1s8.5-11.9,11.3-19
		c2.7-7.1,4-14.7,4-22.7s-1.3-15.6-4-22.7c-2.7-7.1-6.4-13.5-11.3-19c-4.9-5.6-10.9-9.9-17.8-13.1c-7-3.3-14.8-4.9-23.6-4.9
		s-16.7,1.5-23.7,4.9c-7,3.3-12.8,7.7-17.7,13.1c-4.9,5.6-8.5,11.9-11.1,19S19.8,444.6,19.8,452.7z"/>
	<path fill="#FFFFFF" d="M247.9,525.2c-0.3-2.5-0.4-5.3-0.6-8.4c-0.1-2.9-0.1-5.6-0.1-7.5h-0.4c-2.7,5.4-7,9.9-13,13.3
		c-6,3.5-12.3,5.2-19,5.2c-11.9,0-20.7-3.6-26.6-10.6c-6-7-8.8-16.4-8.8-28v-57.3h13.5v51.8c0,5,0.4,9.5,1.1,13.4
		c0.8,4,2.1,7.4,4.2,10.3c2.1,2.9,4.6,5.2,7.8,6.7c3.3,1.5,7.4,2.4,12.3,2.4c3.6,0,7.1-0.7,10.6-2.1c3.5-1.4,6.4-3.7,9.1-6.7
		c2.7-2.9,4.9-6.8,6.4-11.4c1.5-4.6,2.4-10,2.4-16.3v-48h13.5v72.9c0,2.5,0,5.9,0.1,9.9s0.3,7.5,0.6,10.9h-13.1V525.2L247.9,525.2z"
		/>
	<path fill="#FFFFFF" d="M381.1,475.7c0,1,0,2,0,2.9c0,1,0,2.1-0.1,3.5h-77.7c0.1,4.7,1,8.9,2.8,13.1c1.7,4.2,4.2,7.7,7.1,10.9
		c2.9,2.9,6.7,5.6,10.9,7.3c4.2,1.8,8.5,2.7,13.4,2.7c7,0,13.1-1.5,18.3-4.9c5.2-3.3,8.9-7,11.7-11.3l10.2,8
		c-5.6,7-11.7,12.1-18.5,15.1c-6.7,2.9-14,4.6-21.7,4.6c-7,0-13.4-1.3-19.2-3.7c-6-2.4-11-5.9-15.2-10.3c-4.3-4.5-7.5-9.6-10.2-15.6
		c-2.4-6-3.7-12.6-3.7-19.5s1.1-13.5,3.6-19.5c2.4-6,5.7-11.1,10-15.6s9.3-7.8,14.9-10.3c5.7-2.4,12-3.7,18.5-3.7
		c7.3,0,13.8,1.3,19.4,3.7s10.3,5.9,14,10c3.7,4.2,6.6,9.1,8.5,14.7C380.1,463.3,381.1,469.3,381.1,475.7z M367.2,471.2
		c-0.4-8.8-3.3-16.2-8.5-21.9c-5.3-5.9-12.7-8.7-22.6-8.7c-4.6,0-8.7,0.8-12.6,2.5s-7.3,4-10.2,6.8c-2.9,2.8-5.3,6.1-7,9.9
		c-1.7,3.7-2.7,7.4-2.9,11.6h63.7L367.2,471.2L367.2,471.2z"/>
	<path fill="#FFFFFF" d="M410.1,442.5c-0.1-4-0.3-7.5-0.6-10.9h13c0.3,2.5,0.4,5.3,0.6,8.4c0.1,2.9,0.1,5.6,0.1,7.5h0.4
		c2.7-5.4,6.7-9.9,12-13.3s11.3-5.2,18-5.2c1.7,0,3.3,0,4.7,0.1c1.4,0.1,2.8,0.4,4.3,0.8l-1.8,13c-0.8-0.3-2.1-0.6-4-0.8
		c-1.8-0.3-3.7-0.4-5.6-0.4c-3.6,0-7,0.7-10.4,2c-3.3,1.3-6.3,3.5-8.7,6.3c-2.4,2.8-4.5,6.6-6,11c-1.5,4.5-2.2,9.9-2.2,16v47.8
		h-13.5v-72.9C410.1,449.8,410.1,446.5,410.1,442.5z"/>
	<rect x="482.4" y="431.6" fill="#FFFFFF" width="13.5" height="93.4"/>
	<path fill="#FFFFFF" d="M554,476.9l-34.6-45.1h17.4l25.5,35.6l25.5-35.6h16.4l-34,44.5l37.1,48.9h-17.6L562,486.4l-28.6,38.9h-16.3
		L554,476.9z"/>
</g>
<ellipse fill="#B23E97" cx="489.6" cy="394.8" rx="10" ry="9.3"/>
<ellipse fill="#1996D4" cx="517.3" cy="372.6" rx="10" ry="9.3"/>
<ellipse fill="#05B59D" cx="461.1" cy="372.6" rx="10" ry="9.3"/>
<ellipse fill="#F68627" cx="489.1" cy="350.9" rx="10" ry="9.3"/>
</svg>
