<?xml version="1.0" encoding="UTF-8"?><!DOCTYPE svg PUBLIC "-//W3C//DTD SVG 1.1//EN" "http://www.w3.org/Graphics/SVG/1.1/DTD/svg11.dtd"><svg xmlns="http://www.w3.org/2000/svg" xmlns:xlink="http://www.w3.org/1999/xlink"><defs/><symbol id="cancel" viewBox="0 0 24 24">
    <path d="M12 2C6.47 2 2 6.47 2 12s4.47 10 10 10 10-4.47 10-10S17.53 2 12 2zm5 13.59L15.59 17 12 13.41 8.41 17 7 15.59 10.59 12 7 8.41 8.41 7 12 10.59 15.59 7 17 8.41 13.41 12 17 15.59z"/>
    <path d="M0 0h24v24H0z" fill="none"/>
</symbol><symbol id="done" viewBox="0 0 24 24">
    <path d="M0 0h24v24H0z" fill="none"/>
    <path d="M9 16.2L4.8 12l-1.4 1.4L9 19 21 7l-1.4-1.4L9 16.2z"/>
</symbol><symbol id="lock-open" viewBox="0 0 24 24">
    <path d="M0 0h24v24H0z" fill="none"/>
    <path d="M12 17c1.1 0 2-.9 2-2s-.9-2-2-2-2 .9-2 2 .9 2 2 2zm6-9h-1V6c0-2.76-2.24-5-5-5S7 3.24 7 6h1.9c0-1.71 1.39-3.1 3.1-3.1 1.71 0 3.1 1.39 3.1 3.1v2H6c-1.1 0-2 .9-2 2v10c0 1.1.9 2 2 2h12c1.1 0 2-.9 2-2V10c0-1.1-.9-2-2-2zm0 12H6V10h12v10z"/>
</symbol><symbol id="logo" viewBox="0 0 603 186">
<rect id="backgroundrect" width="100%" height="100%" x="0" y="0" fill="none" stroke="none"/>





<g class="currentLayer" style=""><title>Layer 1</title><g id="svg_1" class="">
	<path fill="#FFFFFF" d="M152.50000200271606,183.59999389648442 H71.60000200271607 c-10.3,0 -19.7,-1.8 -28.6,-5.4 c-8.7,-3.6 -16.3,-8.5 -22.7,-15.1 c-6.4,-6.4 -11.4,-14.1 -14.9,-23 c-3.6,-8.8 -5.4,-18.5 -5.4,-29.1 s1.8,-20.2 5.4,-29.1 c3.6,-8.8 8.5,-16.6 14.9,-23 s14,-11.4 22.7,-15.1 c8.7,-3.6 18.3,-5.4 28.6,-5.4 c10.2,0 19.5,1.8 28.3,5.4 s16.3,8.5 22.7,15.1 c6.4,6.4 11.4,14.1 14.9,23 c3.6,8.8 5.4,18.5 5.4,29 c0,12.6 -2.7,24 -8.2,34.3 c-5.6,10.3 -13.8,18.7 -24.8,25 v0.4 h42.8 v13.1 L152.50000200271606,183.59999389648442 L152.50000200271606,183.59999389648442 zM15.200002002716065,111.09999389648436 c0,8 1.3,15.6 3.9,22.7 c2.5,7.1 6.3,13.5 11.1,19 c4.9,5.6 10.7,9.9 17.7,13.1 s14.8,4.9 23.7,4.9 c8.7,0 16.4,-1.5 23.6,-4.9 c7,-3.3 13,-7.5 17.8,-13.1 s8.5,-11.9 11.3,-19 c2.7,-7.1 4,-14.7 4,-22.7 s-1.3,-15.6 -4,-22.7 c-2.7,-7.1 -6.4,-13.5 -11.3,-19 c-4.9,-5.6 -10.9,-9.9 -17.8,-13.1 c-7,-3.3 -14.8,-4.9 -23.6,-4.9 s-16.7,1.5 -23.7,4.9 c-7,3.3 -12.8,7.7 -17.7,13.1 c-4.9,5.6 -8.5,11.9 -11.1,19 S15.200002002716065,102.9999938964844 15.200002002716065,111.09999389648436 z" id="svg_2"/>
	<path fill="#FFFFFF" d="M243.30000200271607,183.59999389648442 c-0.30000000000000004,-2.5 -0.4,-5.3 -0.6000000000000001,-8.4 c-0.1,-2.9 -0.1,-5.6 -0.1,-7.5 h-0.4 c-2.7,5.4 -7,9.9 -13,13.3 c-6,3.5 -12.3,5.2 -19,5.2 c-11.9,0 -20.7,-3.6 -26.6,-10.6 c-6,-7 -8.8,-16.4 -8.8,-28 v-57.3 h13.5 v51.8 c0,5 0.4,9.5 1.1,13.4 c0.8,4 2.1,7.4 4.2,10.3 c2.1,2.9 4.6,5.2 7.8,6.7 c3.3,1.5 7.4,2.4 12.3,2.4 c3.6,0 7.1,-0.7000000000000001 10.6,-2.1 c3.5,-1.4 6.4,-3.7 9.1,-6.7 c2.7,-2.9 4.9,-6.8 6.4,-11.4 c1.5,-4.6 2.4,-10 2.4,-16.3 v-48 h13.5 v72.9 c0,2.5 0,5.9 0.1,9.9 s0.30000000000000004,7.5 0.6000000000000001,10.9 h-13.1 V183.59999389648442 L243.30000200271607,183.59999389648442 z" id="svg_3"/>
	<path fill="#FFFFFF" d="M376.5000020027161,134.09999389648436 c0,1 0,2 0,2.9 c0,1 0,2.1 -0.1,3.5 h-77.7 c0.1,4.7 1,8.9 2.8,13.1 c1.7000000000000002,4.2 4.2,7.7 7.1,10.9 c2.9,2.9 6.7,5.6 10.9,7.3 c4.2,1.8 8.5,2.7 13.4,2.7 c7,0 13.1,-1.5 18.3,-4.9 c5.2,-3.3 8.9,-7 11.7,-11.3 l10.2,8 c-5.6,7 -11.7,12.1 -18.5,15.1 c-6.7,2.9 -14,4.6 -21.7,4.6 c-7,0 -13.4,-1.3 -19.2,-3.7 c-6,-2.4 -11,-5.9 -15.2,-10.3 c-4.3,-4.5 -7.5,-9.6 -10.2,-15.6 c-2.4,-6 -3.7,-12.6 -3.7,-19.5 s1.1,-13.5 3.6,-19.5 c2.4,-6 5.7,-11.1 10,-15.6 s9.3,-7.8 14.9,-10.3 c5.7,-2.4 12,-3.7 18.5,-3.7 c7.3,0 13.8,1.3 19.4,3.7 s10.3,5.9 14,10 c3.7,4.2 6.6,9.1 8.5,14.7 C375.5000020027161,121.69999389648439 376.5000020027161,127.69999389648439 376.5000020027161,134.09999389648436 zM362.60000200271605,129.59999389648436 c-0.4,-8.8 -3.3,-16.2 -8.5,-21.9 c-5.3,-5.9 -12.7,-8.7 -22.6,-8.7 c-4.6,0 -8.7,0.8 -12.6,2.5 s-7.3,4 -10.2,6.8 c-2.9,2.8 -5.3,6.1 -7,9.9 c-1.7000000000000002,3.7 -2.7,7.4 -2.9,11.6 h63.7 L362.60000200271605,129.59999389648436 L362.60000200271605,129.59999389648436 z" id="svg_4"/>
	<path fill="#FFFFFF" d="M405.5000020027161,100.89999389648438 c-0.1,-4 -0.30000000000000004,-7.5 -0.6000000000000001,-10.9 h13 c0.30000000000000004,2.5 0.4,5.3 0.6000000000000001,8.4 c0.1,2.9 0.1,5.6 0.1,7.5 h0.4 c2.7,-5.4 6.7,-9.9 12,-13.3 s11.3,-5.2 18,-5.2 c1.7000000000000002,0 3.3,0 4.7,0.1 c1.4,0.1 2.8,0.4 4.3,0.8 l-1.8,13 c-0.8,-0.30000000000000004 -2.1,-0.6000000000000001 -4,-0.8 c-1.8,-0.30000000000000004 -3.7,-0.4 -5.6,-0.4 c-3.6,0 -7,0.7000000000000001 -10.4,2 c-3.3,1.3 -6.3,3.5 -8.7,6.3 c-2.4,2.8 -4.5,6.6 -6,11 c-1.5,4.5 -2.2,9.9 -2.2,16 v47.8 h-13.5 v-72.9 C405.5000020027161,108.19999389648439 405.5000020027161,104.89999389648438 405.5000020027161,100.89999389648438 z" id="svg_5"/>
	<rect x="477.79999589920044" y="90" fill="#FFFFFF" width="13.5" height="93.4000015258789" id="svg_6"/>
	<path fill="#FFFFFF" d="M549.4000020027161,135.29999389648435 l-34.6,-45.1 h17.4 l25.5,35.6 l25.5,-35.6 h16.4 l-34,44.5 l37.1,48.9 h-17.6 L557.4000020027161,144.79999389648435 l-28.6,38.9 h-16.3 L549.4000020027161,135.29999389648435 z" id="svg_7"/>
</g><ellipse fill="#B23E97" cx="485.0000081062317" cy="53.199981689453125" rx="10" ry="9.300000190734863" id="svg_8" class=""/><ellipse fill="#1996D4" cx="512.6999897956848" cy="31" rx="10" ry="9.300000190734863" id="svg_9" class=""/><ellipse fill="#05B59D" cx="456.5000081062317" cy="31" rx="10" ry="9.300000190734863" id="svg_10" class=""/><ellipse fill="#F68627" cx="484.5000081062317" cy="9.29998779296875" rx="10" ry="9.300000190734863" id="svg_11" class=""/></g></symbol><symbol id="menu" viewBox="0 0 24 24">
    <path d="M0 0h24v24H0z" fill="none"/>
    <path d="M3 18h18v-2H3v2zm0-5h18v-2H3v2zm0-7v2h18V6H3z"/>
</symbol><symbol id="menu-close" viewBox="0 0 24 24">
    <path d="M15.41 7.41L14 6l-6 6 6 6 1.41-1.41L10.83 12z"/>
    <path d="M0 0h24v24H0z" fill="none"/>
</symbol></svg>