<?xml version="1.0" encoding="utf-8"?>
<!-- Generator: Adobe Illustrator 18.1.1, SVG Export Plug-In . SVG Version: 6.00 Build 0)  -->
<svg version="1.1" xmlns="http://www.w3.org/2000/svg" xmlns:xlink="http://www.w3.org/1999/xlink" x="0px" y="0px"
	 viewBox="0 0 328.7 80" enable-background="new 0 0 328.7 80" xml:space="preserve">
<g id="Layer_1">
	<g>
		<path fill="#FFFFFF" d="M287.7,30h8.9v2.1h-11.3v-17h10.9v2.1h-8.5v5.1h8v2h-8V30z"/>
		<path fill="#FFFFFF" d="M302.1,32.1h-2.4v-17h5.4c0.8,0,1.6,0.1,2.3,0.3c0.7,0.2,1.4,0.4,1.9,0.8c0.6,0.4,1,0.9,1.3,1.5
			c0.3,0.6,0.5,1.3,0.5,2.2c0,1.2-0.4,2.3-1.2,3c-0.8,0.8-1.8,1.3-3,1.5l4.8,7.8H309l-4.3-7.6h-2.5V32.1z M302.1,22.5h2.7
			c0.6,0,1.1,0,1.6-0.1c0.5-0.1,0.9-0.3,1.3-0.5s0.6-0.5,0.9-0.8c0.2-0.3,0.3-0.8,0.3-1.3c0-0.5-0.1-0.9-0.3-1.3s-0.5-0.6-0.8-0.8
			c-0.3-0.2-0.7-0.4-1.2-0.4c-0.5-0.1-1-0.1-1.5-0.1h-2.9V22.5z"/>
		<path fill="#FFFFFF" d="M314.5,15.1h5.2c0.9,0,1.7,0.1,2.5,0.3s1.4,0.5,1.9,0.9c0.5,0.4,0.9,0.9,1.2,1.5s0.4,1.3,0.4,2.1
			c0,0.8-0.2,1.6-0.5,2.2c-0.3,0.6-0.7,1.1-1.3,1.5c-0.6,0.4-1.2,0.7-2,0.9c-0.8,0.2-1.6,0.3-2.5,0.3h-2.7v7.5h-2.4V15.1z
			 M316.9,22.6h2.5c0.6,0,1.1-0.1,1.6-0.2c0.5-0.1,0.9-0.3,1.3-0.5c0.4-0.2,0.6-0.5,0.8-0.9c0.2-0.4,0.3-0.8,0.3-1.3
			c0-0.5-0.1-0.9-0.3-1.3s-0.5-0.6-0.8-0.8c-0.3-0.2-0.8-0.4-1.2-0.5c-0.5-0.1-1-0.1-1.6-0.1h-2.6V22.6z"/>
	</g>
	<g>
		<path fill="#FFFFFF" d="M13.3,38.5L13.3,38.5l27-25.4h8.2L20,38.7l30.2,31h-8.5L13.4,39.5h-0.1v30.2H7.5V13.1h5.8V38.5z"/>
		<path fill="#FFFFFF" d="M80.1,45.5c0-3.2-0.9-5.6-2.6-7.2c-1.7-1.6-4.2-2.4-7.4-2.4c-2.2,0-4.3,0.4-6.2,1.2
			c-1.9,0.8-3.5,1.9-4.9,3.2l-3-3.6c1.5-1.5,3.6-2.8,6.1-3.8c2.5-1,5.4-1.5,8.6-1.5c2,0,3.9,0.3,5.7,0.8c1.8,0.6,3.3,1.4,4.6,2.5
			c1.3,1.1,2.4,2.5,3.1,4.2c0.7,1.7,1.1,3.7,1.1,6v16.4c0,1.4,0.1,2.9,0.2,4.5c0.1,1.5,0.3,2.9,0.5,3.9H81c-0.2-0.9-0.3-1.9-0.4-3
			c-0.1-1.1-0.2-2.1-0.2-3.1h-0.2c-1.7,2.5-3.6,4.3-5.8,5.4c-2.2,1.1-4.8,1.6-7.8,1.6c-1.4,0-2.9-0.2-4.4-0.6s-2.9-1.1-4.2-2
			c-1.3-0.9-2.3-2.1-3.1-3.5c-0.8-1.4-1.2-3.2-1.2-5.3c0-2.9,0.7-5.2,2.2-6.9c1.5-1.7,3.4-2.9,5.9-3.8c2.5-0.8,5.3-1.4,8.4-1.6
			c3.2-0.2,6.5-0.4,9.9-0.4V45.5z M78.5,51c-2.2,0-4.5,0.1-6.8,0.3c-2.3,0.2-4.3,0.6-6.2,1.1c-1.8,0.6-3.3,1.4-4.5,2.4
			c-1.2,1.1-1.8,2.5-1.8,4.2c0,1.3,0.3,2.5,0.8,3.4c0.5,0.9,1.2,1.6,2,2.2c0.9,0.6,1.8,1,2.8,1.2c1,0.2,2.1,0.4,3.2,0.4
			c1.9,0,3.6-0.3,5.1-1c1.5-0.7,2.7-1.6,3.8-2.7c1-1.1,1.8-2.5,2.3-4c0.5-1.5,0.8-3.1,0.8-4.7V51H78.5z"/>
		<path fill="#FFFFFF" d="M104.1,32.3c0.1,1,0.2,2.1,0.2,3.4c0.1,1.2,0.1,2.2,0.1,3h0.2c1.1-2.2,2.8-4,5.2-5.3c2.4-1.4,4.9-2,7.6-2
			c4.7,0,8.3,1.4,10.7,4.2c2.4,2.8,3.6,6.6,3.6,11.2v23h-5.4V49c0-2-0.2-3.8-0.5-5.4c-0.3-1.6-0.9-3-1.6-4.1c-0.8-1.1-1.8-2-3.1-2.7
			c-1.3-0.6-2.9-1-4.9-1c-1.4,0-2.8,0.3-4.2,0.9c-1.4,0.6-2.6,1.5-3.6,2.7c-1.1,1.2-1.9,2.7-2.6,4.6c-0.6,1.8-1,4-1,6.5v19.2h-5.4
			V40.5c0-1,0-2.3-0.1-3.9c-0.1-1.6-0.1-3-0.2-4.3H104.1z"/>
		<path fill="#FFFFFF" d="M176.5,63.4c-1.6,2.4-3.7,4.2-6.2,5.4c-2.6,1.2-5.2,1.8-7.9,1.8c-2.9,0-5.6-0.5-8-1.5
			c-2.4-1-4.4-2.4-6.1-4.2c-1.7-1.8-3-3.8-3.9-6.2c-0.9-2.4-1.4-5-1.4-7.8c0-2.8,0.5-5.4,1.4-7.8c0.9-2.4,2.2-4.5,3.9-6.2
			c1.7-1.8,3.7-3.1,6.1-4.2c2.4-1,5-1.5,8-1.5c2.7,0,5.4,0.6,7.9,1.9c2.6,1.3,4.6,3.1,6.2,5.6h0.2V9.2h5.4v60.5h-5.4v-6.3H176.5z
			 M148.7,51c0,2.1,0.3,4,1,5.9c0.6,1.8,1.6,3.4,2.8,4.8s2.7,2.4,4.4,3.2c1.8,0.8,3.8,1.2,6,1.2c2.1,0,4-0.4,5.8-1.2
			c1.8-0.8,3.3-1.8,4.6-3.2c1.3-1.3,2.3-2.9,3-4.8c0.7-1.8,1.1-3.8,1.1-6c0-2.1-0.4-4.1-1.1-6c-0.7-1.8-1.7-3.4-3-4.8
			c-1.3-1.4-2.8-2.4-4.6-3.2c-1.8-0.8-3.7-1.2-5.8-1.2c-2.2,0-4.2,0.4-6,1.2c-1.8,0.8-3.2,1.9-4.4,3.2s-2.1,3-2.8,4.8
			C149,46.9,148.7,48.9,148.7,51z"/>
		<path fill="#FFFFFF" d="M233.8,51c0,2.8-0.5,5.4-1.5,7.8c-1,2.4-2.4,4.5-4.1,6.2c-1.8,1.8-3.9,3.1-6.3,4.1c-2.5,1-5.1,1.5-8.1,1.5
			c-2.9,0-5.5-0.5-8-1.5c-2.5-1-4.6-2.4-6.3-4.1c-1.8-1.8-3.1-3.8-4.1-6.2c-1-2.4-1.5-5-1.5-7.8c0-2.8,0.5-5.4,1.5-7.8
			c1-2.4,2.4-4.5,4.1-6.2c1.8-1.8,3.9-3.1,6.3-4.1c2.5-1,5.1-1.5,8-1.5c2.9,0,5.6,0.5,8.1,1.5c2.5,1,4.6,2.4,6.3,4.1
			c1.8,1.8,3.1,3.8,4.1,6.2C233.3,45.5,233.8,48.2,233.8,51z M228.1,51c0-2.1-0.3-4-1-5.9c-0.7-1.8-1.6-3.4-2.8-4.8
			c-1.2-1.4-2.7-2.4-4.5-3.2c-1.8-0.8-3.7-1.2-5.9-1.2c-2.2,0-4.1,0.4-5.9,1.2c-1.7,0.8-3.2,1.9-4.4,3.2c-1.2,1.4-2.2,3-2.8,4.8
			c-0.7,1.8-1,3.8-1,5.9c0,2.1,0.3,4,1,5.9c0.7,1.8,1.6,3.4,2.8,4.8c1.2,1.4,2.7,2.4,4.4,3.2c1.7,0.8,3.7,1.2,5.9,1.2
			c2.2,0,4.2-0.4,5.9-1.2c1.8-0.8,3.3-1.8,4.5-3.2c1.2-1.4,2.2-3,2.8-4.8C227.7,55,228.1,53.1,228.1,51z"/>
		<path fill="#FFFFFF" d="M282.7,51c0,2.8-0.5,5.4-1.5,7.8c-1,2.4-2.4,4.5-4.1,6.2c-1.8,1.8-3.9,3.1-6.3,4.1c-2.5,1-5.1,1.5-8.1,1.5
			c-2.9,0-5.5-0.5-8-1.5c-2.5-1-4.6-2.4-6.3-4.1c-1.8-1.8-3.1-3.8-4.1-6.2c-1-2.4-1.5-5-1.5-7.8c0-2.8,0.5-5.4,1.5-7.8
			c1-2.4,2.4-4.5,4.1-6.2c1.8-1.8,3.9-3.1,6.3-4.1c2.5-1,5.1-1.5,8-1.5c2.9,0,5.6,0.5,8.1,1.5c2.5,1,4.6,2.4,6.3,4.1
			c1.8,1.8,3.1,3.8,4.1,6.2C282.2,45.5,282.7,48.2,282.7,51z M277,51c0-2.1-0.3-4-1-5.9c-0.7-1.8-1.6-3.4-2.8-4.8
			c-1.2-1.4-2.7-2.4-4.5-3.2c-1.8-0.8-3.7-1.2-5.9-1.2c-2.2,0-4.1,0.4-5.9,1.2c-1.7,0.8-3.2,1.9-4.4,3.2c-1.2,1.4-2.2,3-2.8,4.8
			c-0.7,1.8-1,3.8-1,5.9c0,2.1,0.3,4,1,5.9c0.7,1.8,1.6,3.4,2.8,4.8c1.2,1.4,2.7,2.4,4.4,3.2c1.7,0.8,3.7,1.2,5.9,1.2
			c2.2,0,4.2-0.4,5.9-1.2c1.8-0.8,3.3-1.8,4.5-3.2c1.2-1.4,2.2-3,2.8-4.8C276.6,55,277,53.1,277,51z"/>
	</g>
</g>
<g id="Layer_2" display="none">
	<g display="inline">
		<path fill="#FFFFFF" d="M14.1,38.5L14.1,38.5l27-25.4h8.2L20.8,38.7l30.2,31h-8.5L14.2,39.5h-0.1v30.2H8.3V13.1h5.8V38.5z"/>
		<path fill="#FFFFFF" d="M80.9,45.5c0-3.2-0.9-5.6-2.6-7.2c-1.7-1.6-4.2-2.4-7.4-2.4c-2.2,0-4.3,0.4-6.2,1.2
			c-1.9,0.8-3.5,1.9-4.9,3.2l-3-3.6c1.5-1.5,3.6-2.8,6.1-3.8c2.5-1,5.4-1.5,8.6-1.5c2,0,3.9,0.3,5.7,0.8c1.8,0.6,3.3,1.4,4.6,2.5
			c1.3,1.1,2.4,2.5,3.1,4.2c0.7,1.7,1.1,3.7,1.1,6v16.4c0,1.4,0.1,2.9,0.2,4.5c0.1,1.5,0.3,2.9,0.5,3.9h-4.9c-0.2-0.9-0.3-1.9-0.4-3
			c-0.1-1.1-0.2-2.1-0.2-3.1H81c-1.7,2.5-3.6,4.3-5.8,5.4c-2.2,1.1-4.8,1.6-7.8,1.6c-1.4,0-2.9-0.2-4.4-0.6c-1.5-0.4-2.9-1.1-4.2-2
			c-1.3-0.9-2.3-2.1-3.1-3.5c-0.8-1.4-1.2-3.2-1.2-5.3c0-2.9,0.7-5.2,2.2-6.9c1.5-1.7,3.4-2.9,5.9-3.8c2.5-0.8,5.3-1.4,8.4-1.6
			c3.2-0.2,6.5-0.4,9.9-0.4V45.5z M79.3,51c-2.2,0-4.5,0.1-6.8,0.3c-2.3,0.2-4.3,0.6-6.2,1.1c-1.8,0.6-3.3,1.4-4.5,2.4
			c-1.2,1.1-1.8,2.5-1.8,4.2c0,1.3,0.3,2.5,0.8,3.4c0.5,0.9,1.2,1.6,2,2.2c0.9,0.6,1.8,1,2.8,1.2c1,0.2,2.1,0.4,3.2,0.4
			c1.9,0,3.6-0.3,5.1-1c1.5-0.7,2.7-1.6,3.8-2.7c1-1.1,1.8-2.5,2.3-4c0.5-1.5,0.8-3.1,0.8-4.7V51H79.3z"/>
		<path fill="#FFFFFF" d="M104.9,32.3c0.1,1,0.2,2.1,0.2,3.4c0.1,1.2,0.1,2.2,0.1,3h0.2c1.1-2.2,2.8-4,5.2-5.3c2.4-1.4,4.9-2,7.6-2
			c4.7,0,8.3,1.4,10.7,4.2c2.4,2.8,3.6,6.6,3.6,11.2v23H127V49c0-2-0.2-3.8-0.5-5.4c-0.3-1.6-0.9-3-1.6-4.1c-0.8-1.1-1.8-2-3.1-2.7
			c-1.3-0.6-2.9-1-4.9-1c-1.4,0-2.8,0.3-4.2,0.9c-1.4,0.6-2.6,1.5-3.6,2.7c-1.1,1.2-1.9,2.7-2.6,4.6c-0.6,1.8-1,4-1,6.5v19.2H100
			V40.5c0-1,0-2.3-0.1-3.9c-0.1-1.6-0.1-3-0.2-4.3H104.9z"/>
		<path fill="#FFFFFF" d="M177.3,63.4c-1.6,2.4-3.7,4.2-6.2,5.4c-2.6,1.2-5.2,1.8-7.9,1.8c-2.9,0-5.6-0.5-8-1.5
			c-2.4-1-4.4-2.4-6.1-4.2c-1.7-1.8-3-3.8-3.9-6.2c-0.9-2.4-1.4-5-1.4-7.8c0-2.8,0.5-5.4,1.4-7.8c0.9-2.4,2.2-4.5,3.9-6.2
			c1.7-1.8,3.7-3.1,6.1-4.2c2.4-1,5-1.5,8-1.5c2.7,0,5.4,0.6,7.9,1.9c2.6,1.3,4.6,3.1,6.2,5.6h0.2V9.2h5.4v60.5h-5.4v-6.3H177.3z
			 M149.5,51c0,2.1,0.3,4,1,5.9c0.6,1.8,1.6,3.4,2.8,4.8c1.2,1.4,2.7,2.4,4.4,3.2c1.8,0.8,3.8,1.2,6,1.2c2.1,0,4-0.4,5.8-1.2
			c1.8-0.8,3.3-1.8,4.6-3.2c1.3-1.3,2.3-2.9,3-4.8c0.7-1.8,1.1-3.8,1.1-6c0-2.1-0.4-4.1-1.1-6c-0.7-1.8-1.7-3.4-3-4.8
			c-1.3-1.4-2.8-2.4-4.6-3.2c-1.8-0.8-3.7-1.2-5.8-1.2c-2.2,0-4.2,0.4-6,1.2c-1.8,0.8-3.2,1.9-4.4,3.2s-2.1,3-2.8,4.8
			C149.8,46.9,149.5,48.9,149.5,51z"/>
	</g>
</g>
<g id="Layer_6" display="none">
	<path display="inline" fill="#97999C" d="M203.9,35.3c-0.5,0.5-1.1,1-1.6,1.4c-0.2,0-0.3,0.1-0.5,0.1c-2.4-2.9-3.7-6.3-3.3-10.1
		c0.3-3.2,1.7-5.7,4.7-6.9c3.1-1.2,5.8-0.1,8.1,2c1.1,0.9,2,2.1,3.2,3.3c0.9-1.1,1.7-2.3,2.7-3.3c2.3-2.4,5.2-3.2,8.4-2.2
		c3.1,1,4.9,3.6,5,6.7c0.1,3.2-0.8,6.3-1.3,9.5c-0.6-0.2-1.3-0.4-1.9-0.7c-0.3-0.3-0.7-0.6-1-1c1.4-2.8,2.2-5.7,0.9-8.8
		c-1.3-3.2-4.3-4.3-6.8-2.1c-1.7,1.5-2.8,3.8-3.8,6c-0.3,0.7,0.4,2,0.7,3c0,0.2-0.1,0.3-0.3,0.3c-1.5,0-3,0-4.5,0
		c1.1-3.3-0.6-5.7-2.6-8c-1.6-1.8-3.8-2.9-6-1.8c-2.3,1.1-2.9,3.5-2.4,5.8C202.1,31,203.1,33.1,203.9,35.3z"/>
</g>
<g id="Layer_7">
</g>
<g id="Layer_3" display="none">
	<path display="inline" fill="#FEC111" d="M283.8,50.6c0,6-2.1,10.9-6.4,14.7c-4.3,3.8-9,5.8-14.1,5.8s-9.8-1.9-14.1-5.8
		c-4.3-3.8-6.4-8.8-6.4-14.7c0-6,2.1-10.9,6.4-14.7c4.3-3.8,9-5.8,14.1-5.8s9.8,1.9,14.1,5.8C281.7,39.7,283.8,44.6,283.8,50.6z"/>
	<path display="inline" d="M276.8,50.6c0,3.9-1.4,7.2-4.2,9.7c-2.8,2.5-5.9,3.8-9.3,3.8s-6.5-1.3-9.3-3.8c-2.8-2.5-4.2-5.8-4.2-9.7
		c0-3.9,1.4-7.2,4.2-9.7c2.8-2.5,5.9-3.8,9.3-3.8s6.5,1.3,9.3,3.8C275.4,43.4,276.8,46.7,276.8,50.6z"/>
	<path display="inline" fill="#FEC111" d="M269.3,50.6c0,1.7-0.6,3.2-1.9,4.3c-1.3,1.1-2.6,1.7-4.1,1.7s-2.9-0.6-4.1-1.7
		c-1.2-1.1-1.9-2.6-1.9-4.3c0-1.8,0.6-3.2,1.9-4.3c1.3-1.1,2.6-1.7,4.1-1.7s2.9,0.6,4.1,1.7C268.7,47.4,269.3,48.9,269.3,50.6z"/>
	<path display="inline" fill="#FEC111" d="M236.3,50.4c0,6-2.1,10.9-6.4,14.7c-4.3,3.8-9,5.8-14.1,5.8s-9.8-1.9-14.1-5.8
		c-4.3-3.8-6.4-8.8-6.4-14.7c0-6,2.1-10.9,6.4-14.7c4.3-3.8,9-5.8,14.1-5.8s9.8,1.9,14.1,5.8C234.2,39.5,236.3,44.4,236.3,50.4z"/>
	<path display="inline" d="M229.3,50.4c0,3.9-1.4,7.2-4.2,9.7c-2.8,2.5-5.9,3.8-9.3,3.8s-6.5-1.3-9.3-3.8c-2.8-2.5-4.2-5.8-4.2-9.7
		c0-3.9,1.4-7.2,4.2-9.7c2.8-2.5,5.9-3.8,9.3-3.8s6.5,1.3,9.3,3.8C227.9,43.2,229.3,46.4,229.3,50.4z"/>
	<path display="inline" fill="#FEC111" d="M221.8,50.4c0,1.7-0.6,3.2-1.9,4.3c-1.3,1.1-2.6,1.7-4.1,1.7s-2.9-0.6-4.1-1.7
		c-1.2-1.1-1.9-2.6-1.9-4.3c0-1.8,0.6-3.2,1.9-4.3c1.3-1.1,2.6-1.7,4.1-1.7s2.9,0.6,4.1,1.7C221.2,47.2,221.8,48.6,221.8,50.4z"/>
</g>
<g id="Layer_5" display="none">
	<path display="inline" fill="#FFFFFF" d="M166,155.2c0-37.7,0-75.3,0-113c37.7,0,75.3,0,113,0c0,37.7,0,75.3,0,113
		C241.3,155.2,203.7,155.2,166,155.2z M202.4,84.5L202.4,84.5c-10.2,8.7-10.2,25.8,0.2,34.4c4.4,4.5,9.7,6.9,16,7.2
		c3.9-0.4,7.8-0.7,11.8-1.1c4.8-1.2,8.8-3.6,12-7.5c8.5-8.5,8.7-21.9,0.4-31.7c4.4-6,10.6-6.6,17.4-5.4c0.2-1.1,0.4-2,0.6-3
		c-7.3-2.1-13.6-0.2-19.6,4c2.6-6,4.1-12.5,10.6-15.7c0.7-0.3,0.8-1.9,1.2-2.9c-0.4-0.2-0.7-0.4-1.1-0.7c-9,2.8-10.9,11.5-14.6,18.8
		c-1.5-0.8-3-1.6-4.5-2.3c0-3.6,0.5-7.2,0-10.7c-0.6-3.4-3-5.9-6.6-6.6c-3.7-0.6-6.7,0.8-8.9,3.7c-0.9,1.3-1.7,2.7-2.5,4
		c-1.4-1.2-2.6-2.3-4-3.2c-2.9-1.8-6.1-2.7-9.3-0.9c-3.2,1.8-4.3,4.8-4.1,8.4c0.2,4.3,2.1,7.8,5.2,10.6
		C202.2,84.3,202.2,84.4,202.4,84.5z"/>
	<path display="inline" fill="#080707" d="M232.6,78.7c1.5,0.8,2.9,1.5,4.5,2.3c3.7-7.3,5.7-16,14.6-18.8c0.4,0.2,0.7,0.4,1.1,0.7
		c-0.4,1-0.5,2.5-1.2,2.9c-6.5,3.2-8,9.6-10.6,15.7c6-4.1,12.3-6.1,19.6-4c-0.2,1-0.4,1.9-0.6,3c-6.8-1.2-13-0.6-17.4,5.4
		c-0.2,0.5-0.6,0.9-0.7,1.4c-2.1,10.1-2,20.2,0.3,30.3c-3.1,3.8-7.1,6.3-12,7.5c-4.2-15.6-4.4-31.2,0.1-46.8
		C231.1,78.4,231.9,78.5,232.6,78.7z"/>
	<path display="inline" fill="#F7BD19" d="M230.4,78.2c-4.5,15.6-4.3,31.2-0.1,46.8c-3.9,0.4-7.8,0.7-11.8,1.1
		c-1.2-5.2-2.7-10.4-3.6-15.6c-1.9-11.4,0.1-22.5,3.6-33.3c0.1-0.1,0.2-0.2,0.3-0.4c3.4,0.2,6.9,0.4,10.3,0.6
		C229.5,77.6,230,77.9,230.4,78.2z"/>
	<path display="inline" fill="#060706" d="M218.5,77.2c-3.5,10.9-5.5,21.9-3.6,33.3c0.9,5.3,2.4,10.4,3.6,15.6
		c-6.3-0.3-11.6-2.8-16-7.2c-0.5-6.6-1.4-13.1-1.4-19.7c-0.1-4.9,0.8-9.8,1.3-14.7c0,0,0,0,0,0c0.1-0.2,0.3-0.4,0.4-0.6
		c0.5-0.6,1-1.2,1.6-1.9c3.1-1.4,6.1-2.8,9.2-4.3C215.2,77.6,216.9,77.4,218.5,77.2z"/>
	<path display="inline" fill="#97999C" d="M204.3,82.1c-0.5,0.6-1,1.2-1.6,1.9c-0.2,0.1-0.4,0.1-0.5,0.2c-3.1-2.9-5-6.3-5.2-10.6
		c-0.1-3.5,0.9-6.6,4.1-8.4c3.2-1.8,6.4-1,9.3,0.9c1.4,0.9,2.6,2,4,3.2c0.8-1.3,1.6-2.8,2.5-4c2.2-3,5.3-4.4,8.9-3.7
		c3.6,0.6,6,3.2,6.6,6.6c0.6,3.5,0.1,7.1,0,10.7c-0.7-0.1-1.5-0.3-2.2-0.4c-0.4-0.3-0.9-0.6-1.3-0.9c1.1-3.3,1.5-6.6-0.4-9.8
		c-1.9-3.3-5.4-4.1-7.8-1.2c-1.7,2-2.5,4.7-3.3,7.2c-0.3,0.9,0.8,2.1,1.2,3.2c0,0.2-0.1,0.3-0.3,0.4c-1.7,0.2-3.3,0.4-5,0.7
		c0.7-3.8-1.6-6.2-4.1-8.4c-2-1.8-4.6-2.6-7-1c-2.4,1.6-2.7,4.3-1.7,6.8C201.6,77.6,203.1,79.8,204.3,82.1z"/>
	<path display="inline" fill="#F9BD1A" d="M242.3,117.6c-2.3-10.1-2.4-20.2-0.3-30.3c0.1-0.5,0.5-0.9,0.7-1.4
		C250.9,95.7,250.8,109.1,242.3,117.6z"/>
	<path display="inline" fill="#F7BE1B" d="M202.4,84.5c-0.5,4.9-1.3,9.8-1.3,14.7c0.1,6.6,0.9,13.1,1.4,19.7
		C192.2,110.3,192.1,93.2,202.4,84.5z"/>
	<path display="inline" fill="#F7BE1B" d="M202.3,84.2c0.2-0.1,0.3-0.1,0.5-0.2c-0.1,0.2-0.3,0.4-0.4,0.6
		C202.2,84.4,202.2,84.3,202.3,84.2z"/>
	<path display="inline" fill="#FDFEFD" d="M218.8,76.8c-0.4-1.1-1.5-2.4-1.2-3.2c0.8-2.5,1.6-5.2,3.3-7.2c2.4-2.9,5.9-2.1,7.8,1.2
		c1.9,3.2,1.5,6.5,0.4,9.8C225.7,77.2,222.2,77,218.8,76.8z"/>
	<path display="inline" fill="#FBFCFC" d="M204.3,82.1c-1.2-2.3-2.7-4.5-3.6-6.9c-0.9-2.5-0.7-5.2,1.7-6.8c2.4-1.5,4.9-0.7,7,1
		c2.5,2.2,4.8,4.6,4.1,8.4C210.5,79.3,207.4,80.7,204.3,82.1z"/>
</g>
<g id="Layer_4" display="none">
	<path display="inline" d="M283.8,50.3c0,6-2.1,10.9-6.4,14.7c-4.3,3.8-9,5.8-14.1,5.8s-9.8-1.9-14.1-5.8c-4.3-3.8-6.4-8.8-6.4-14.7
		c0-6,2.1-10.9,6.4-14.7c4.3-3.8,9-5.8,14.1-5.8s9.8,1.9,14.1,5.8C281.7,39.4,283.8,44.4,283.8,50.3z"/>
	<path display="inline" fill="#FEC111" d="M276.8,50.3c0,3.9-1.4,7.2-4.2,9.7c-2.8,2.5-5.9,3.8-9.3,3.8s-6.5-1.3-9.3-3.8
		c-2.8-2.5-4.2-5.8-4.2-9.7c0-3.9,1.4-7.2,4.2-9.7c2.8-2.5,5.9-3.8,9.3-3.8s6.5,1.3,9.3,3.8C275.4,43.2,276.8,46.4,276.8,50.3z"/>
	<path display="inline" d="M269.3,50.3c0,1.7-0.6,3.2-1.9,4.3c-1.3,1.1-2.6,1.7-4.1,1.7s-2.9-0.6-4.1-1.7c-1.2-1.1-1.9-2.6-1.9-4.3
		c0-1.8,0.6-3.2,1.9-4.3c1.3-1.1,2.6-1.7,4.1-1.7s2.9,0.6,4.1,1.7C268.7,47.1,269.3,48.6,269.3,50.3z"/>
</g>
</svg>
