<?xml version="1.0" encoding="UTF-8" standalone="no"?>
<svg
   xmlns:dc="http://purl.org/dc/elements/1.1/"
   xmlns:cc="http://creativecommons.org/ns#"
   xmlns:rdf="http://www.w3.org/1999/02/22-rdf-syntax-ns#"
   xmlns:svg="http://www.w3.org/2000/svg"
   xmlns="http://www.w3.org/2000/svg"
   viewBox="0 0 715 263.75"
   height="263.75"
   width="715"
   xml:space="preserve"
   version="1.1"
   id="svg2"><metadata
     id="metadata8"><rdf:RDF><cc:Work
         rdf:about=""><dc:format>image/svg+xml</dc:format><dc:type
           rdf:resource="http://purl.org/dc/dcmitype/StillImage" /></cc:Work></rdf:RDF></metadata><defs
     id="defs6" /><g
     transform="matrix(1.25,0,0,-1.25,0,263.75)"
     id="g10"><g
       transform="scale(0.1,0.1)"
       id="g12"><path
         id="path14"
         style="fill:#000000;fill-opacity:1;fill-rule:nonzero;stroke:none"
         d="m 5667.77,969.953 c -74.52,-240.945 -380.81,-224.883 -500.56,-94.918 -141,153.015 -164.49,339.125 -83.05,517.355 52.96,115.91 442.91,222 504.99,-67.69 21.56,3.08 50.83,7.7 64.81,10.94 -18.72,85.75 -47.31,166.58 -70.96,248.4 -46.82,-14.87 -94.19,-5.08 -138.75,8.24 -154.84,46.29 -366.42,-13.1 -468.94,-118.82 -208.46,-214.96 -147.59,-637.183 88.21,-784.022 272.23,-169.532 650.57,33.554 650.57,266.714 -14.05,5.078 -30.99,11.243 -46.32,13.801" /><path
         id="path16"
         style="fill:#000000;fill-opacity:1;fill-rule:nonzero;stroke:none"
         d="m 4403.25,1571.12 0.25,-73.92 c 41.34,0 96.78,0 96.78,-30.81 0,-217.15 0,-703.835 0,-703.835 0,-41.582 -58.52,-41.582 -106.27,-41.582 l 0,-55.446 c 118.59,0 274.33,-0.984 414.3,0 l 0,55.446 c -40.04,0 -98.57,0 -98.57,52.363 -0.99,228.684 0.98,469.864 0,694.594 0,29.27 69.95,29.27 103.83,29.27 0,16.94 0.5,47.74 -0.02,72.98 -122.69,0.94 -275.26,-0.04 -410.3,0.94" /><path
         id="path18"
         style="fill:#000000;fill-opacity:1;fill-rule:nonzero;stroke:none"
         d="m 3310.07,1879.4 c 225.74,54.91 946.47,261.66 939.82,-297.5 0.24,-132.45 -0.65,-457.42 0.52,-571.87 -145.94,197.62 -295.33,393.22 -433.7,589.43 -52.61,-37.58 -141.94,-28.34 -213.03,-28.34 -1.54,-21.56 0.25,-52.36 0.12,-74.16 34.01,0.24 81.75,-4.38 81.81,-39.43 -5.91,-180.38 -1.59,-876.71 -106.45,-1018.217 l 53.23,-10.84 c 27.77,45.41 48.29,84.351 69.61,121.836 1.75,3.093 11.28,2.789 8.26,-4.539 -19.76,-79.239 49.68,-180.184 144.07,-106.27 37.22,29.145 70.13,71.438 111.53,75.094 -20.35,73.765 -87.42,117.922 -151.09,57.25 -19.55,-18.621 -37.18,-37.067 -61.14,-15.235 -30.56,240.508 -3.95,772.781 -3.95,772.781 l 574.38,-780.663 c 0,354.843 1.29,700.513 2.83,1054.733 -0.64,47.75 76.74,79.88 120.42,39.52 62.03,-57.3 156.58,3.72 191.45,48.38 10.51,13.47 20.91,26.62 29.58,39.2 0,0 -85.24,-14.9 -135.23,36.66 -77.17,79.61 -151.12,31.58 -206.86,-89.83 0,534.43 -812.6,428.15 -968.69,403.19 -314.43,-50.29 -606.35,-151.99 -907.01,-232.72 -272.11,-80.22 -752.83,-93.34 -823.05,117.3 -44.69,-14.33 -50.57,-44.29 -17.74,-81.82 390.71,-338.3 1304.3,-114.17 1700.31,-3.94 z M 3809.81,488.602 c 17.74,26.609 45.34,47.308 74.91,53.222 l 17.74,-2.953 c -60.12,0 -93.64,-117.301 -156.72,-57.172 19.71,-14.785 46.33,-2.957 64.07,6.903 z M 4538.8,1680.85 c -44.24,1.26 -75.69,49.04 -121.81,53.65 32.06,38.48 113.96,-5.21 121.81,-53.65" /><path
         id="path20"
         style="fill:#000000;fill-opacity:1;fill-rule:nonzero;stroke:none"
         d="m 4416.99,371.301 c -54.73,-233.156 -563.72,-29.613 -653.51,-2.957 -282.83,95.441 -872.2,129.039 -1095.93,64.543 -467.2,-134.692 -432.99,-328.547 -87.45,-400.2307 358.97,-74.4727 738.9,9.121 928.09,232.1917 404.84,-77.969 940.78,-160.813 955.13,92.656 -5.92,20.699 -30.8,26.18 -46.33,13.797 z M 2622.58,67.7227 C 2394.7,105.273 2268.8,248.543 2625.02,357.504 2989.4,433.203 3136.49,326.543 3452.01,275.691 3254.93,88.9805 2876.43,25.8867 2622.58,67.7227" /><path
         id="path22"
         style="fill:#000000;fill-opacity:1;fill-rule:nonzero;stroke:none"
         d="m 3204.14,720.973 -0.64,-55.446 c 0,0 331.12,0 406.59,0 l 0,50.825 c -53.06,0 -83.06,9.859 -104.58,65.55 -83.32,262.498 -163.4,519.698 -248.11,789.218 -71.95,-4.92 -135.29,40.29 -178.66,95.49 0,0 -204.65,-567.18 -312.98,-874.676 -21.88,-62.118 -45.87,-70.961 -101.31,-70.961 l 0,-55.446 280.3,0 0,55.446 c -63.3,0 -82.25,7 -80.53,63.117 0.99,32.488 17.53,65.574 31.15,97.367 0,0 21.49,-75.648 154.09,-71.867 71.68,2.043 113.38,32.777 148,7.629 9.75,-7.082 18.7,-16.321 28.12,-13.633 -11.6,17.598 -17.52,39.086 -24.6,59.797 -26.47,77.359 -97.46,86.844 -154.47,57.594 -30.36,-15.582 -106.05,-44.039 -122.55,9.765 -8.37,26.762 3.14,51.399 21.27,71.488 60.15,66.68 255.77,38.63 279.83,-42.535 19.05,-51.73 37.74,-117.273 52.21,-169.015 18.55,-66.348 -11.88,-69.707 -73.13,-69.707 z m -46.85,144.773 c -49.28,-7.703 -116.15,-25.414 -169.26,-8.93 44.35,18.727 146.07,59.309 169.26,8.93 z M 2948.6,1069.72 c 46.33,142.93 79.84,276.98 121.24,421.88 39.43,-93.64 131.09,-447.51 131.09,-447.51 -87.59,58.88 -175.25,75.51 -252.33,25.63" /><path
         id="path24"
         style="fill:#000000;fill-opacity:1;fill-rule:nonzero;stroke:none"
         d="m 2747.24,831.281 c -27.6,59.141 20.4,202.339 20.4,202.339 -215.38,-46.667 -337.73,-74.452 -446.21,35.21 -18.91,-30.59 -26.61,-59.85 -20.7,-95.611 52.52,-74.098 164.84,-72.332 249.49,-52.453 23.92,5.617 31.07,-4.196 24.04,-21.532 -13,-33.488 -5.42,-102.871 8.56,-125.898 -101.11,-91 -232.26,-71.18 -331.46,17.922 -169.76,152.469 -224.96,529.472 -22.56,670.892 87.83,61.37 246.82,104.76 341.02,23.71 45.52,-39.18 82.73,-90.2 94.63,-145.76 20.02,4.62 46.2,9.24 68.99,16.55 l -84.76,226.71 c -33.65,-10.38 -74.75,-9.54 -107.5,2.99 -110.82,42.37 -310.13,42.06 -473.06,-98.29 -224.69,-193.55 -191.71,-751.189 179.38,-851.947 194.18,-55.199 373.83,54.059 499.74,195.168" /><path
         id="path26"
         style="fill:#000000;fill-opacity:1;fill-rule:nonzero;stroke:none"
         d="m 2171.68,476.359 c -107.16,27.555 -235.15,274.727 -291.39,393.891 -59.22,125.48 -124.76,244.39 -268.4,304.42 339.15,130.93 250.98,432.72 -114.85,408.77 -102.3,-6.69 -219.63,-12.32 -309.82,-12.32 -1.54,-18.48 1.67,-56.18 -1.29,-73.92 0,0 73.93,6.16 73.93,-35.43 1.97,-221.78 0,-699.215 0,-699.215 0,-32.34 -46.21,-41.582 -93.95,-41.582 -0.99,-17.743 1.79,-40.692 0.26,-56.985 l 383.23,1.539 1.37,54.739 c -32.17,0.707 -81.46,0.707 -81.46,36.129 l 0.64,368.005 c 32.3,-17.63 69.33,-103.65 90.77,-149.771 109.48,-235.469 438.67,-587.352 611.39,-518.25 17.43,6.973 19.84,14.766 -0.43,19.98 z m -702.37,728.211 0,315.73 c 267.98,33.88 266.34,-223.53 0,-315.73" /><path
         id="path28"
         style="fill:#000000;fill-opacity:1;fill-rule:nonzero;stroke:none"
         d="m 1041.32,1696.99 c -167.472,257.19 -386.847,309.91 -597.468,218.91 7.886,14.79 11.503,35.57 10.515,46.41 C 286.59,1885.14 158.941,1736.8 85.625,1596.91 -39.0938,1358.96 -20.9727,994.715 142.371,800.313 401.145,492.336 761.777,523.957 978.137,771.516 c 59.633,68.23 110.643,146.3 150.763,225.726 82.15,228.968 42.65,499.768 -87.58,699.748 z M 101.18,1230.75 c 0,19.25 18.039,34.86 40.293,34.86 22.254,0 40.293,-15.61 40.293,-34.86 0,-19.24 -18.039,-34.84 -40.293,-34.84 -22.254,0 -40.293,15.6 -40.293,34.84 z m 26.711,-127.12 c 14.871,-22.32 15.621,-66.31 42.308,-79.97 l -12.074,88.97 c 61.551,-44.42 20.863,-125.431 37.527,-188.345 -62.586,28.528 -92.742,111.235 -67.761,179.345 z m 28.882,243.47 14.883,88.54 c -27.105,-12.8 -29.25,-56.76 -44.812,-78.59 -22.817,68.86 9.945,150.58 73.402,177.11 -18.644,-62.36 19.453,-144.61 -43.473,-187.06 z M 820.688,848.305 C 735.512,620.063 376.598,650.383 323.457,844.184 273.188,1046.25 272.633,1261.56 301.91,1465.45 c 30.789,-133.05 173.637,-186.08 287.582,-147.28 20.649,7.03 39.871,17.04 56.422,29.98 97.152,75.72 107.465,198.79 43.125,300.88 -36.914,58.57 -50.008,89.12 -52.937,140.79 -1.172,20.7 -12.321,43.13 -25.672,23.57 l -27.598,-46.32 c 11.688,-28.07 25.629,-57.18 45.34,-81.82 -15.77,4.93 -30.57,6 -47.512,4.46 -37.414,96.87 -171.344,30.37 -141.515,-101.25 15.089,-66.57 13.152,-110.92 -32.903,-127.76 -9.887,-3.61 -6.715,-15.59 -1.031,-16.79 79.758,-16.89 128.137,-20.58 174.602,29.54 68.796,74.21 16.82,183.22 16.82,183.22 77.957,-30.12 107.316,-183.08 9.996,-254.67 -46.731,-34.38 -243.129,-81.92 -283.172,169.12 6.496,49.52 17.965,102.1 36.516,148.97 72.308,182.69 379.312,193.54 447.218,8.18 98.286,-268.3 107.942,-626.89 13.497,-879.965 z M 539.465,1645.82 c -16.758,-39.42 0.984,-79.84 -24.645,-116.3 -8.086,41.6 -14.785,97.58 24.645,116.3 z M 959.141,927.293 c 14.082,63.543 -29.875,142.817 29.808,189.717 l -8.429,-89.38 c 26.11,14.73 25.06,58.72 39,81.62 27.75,-67.03 0.99,-150.898 -60.379,-181.957 z m 47.359,248.587 c -22.25,0 -40.289,15.6 -40.289,34.85 0,19.25 18.039,34.85 40.289,34.85 22.26,0 40.3,-15.6 40.3,-34.85 0,-19.25 -18.04,-34.85 -40.3,-34.85 z m 12.01,136.78 c -7.89,25.63 3.94,68.02 -17.74,88.72 l -13.805,-88.72 c -46.328,60.13 15.765,126.17 17.745,191.23 51.85,-45.2 57.17,-133.07 13.8,-191.23" /></g></g></svg>