<?xml version="1.0" encoding="utf-8"?>
<!-- Generator: Adobe Illustrator 15.1.0, SVG Export Plug-In . SVG Version: 6.00 Build 0)  -->
<!DOCTYPE svg PUBLIC "-//W3C//DTD SVG 1.1//EN" "http://www.w3.org/Graphics/SVG/1.1/DTD/svg11.dtd">
<svg version="1.1"
	 id="svg2" xmlns:svg="http://www.w3.org/2000/svg" xmlns:rdf="http://www.w3.org/1999/02/22-rdf-syntax-ns#" xmlns:dc="http://purl.org/dc/elements/1.1/" xmlns:cc="http://creativecommons.org/ns#" xmlns:sodipodi="http://sodipodi.sourceforge.net/DTD/sodipodi-0.dtd" xmlns:inkscape="http://www.inkscape.org/namespaces/inkscape"
	 xmlns="http://www.w3.org/2000/svg" xmlns:xlink="http://www.w3.org/1999/xlink" x="0px" y="0px" width="100px" height="100px"
	 viewBox="-258.437 446.301 100 100" enable-background="new -258.437 446.301 100 100" xml:space="preserve">
<g id="col1" onclick="parent.setColour(evt)" transform="matrix(2.1515037,0,0,2.0623295,-164.81169,0.84830001)">
	<rect id="rect35" x="-41.192" y="232.022" fill="#FFFFFF" stroke="#000000" stroke-width="0.43" width="3.429" height="8.96"/>
</g>
<g id="col2" onclick="parent.setColour(evt)" transform="matrix(2.1515037,0,0,2.0623295,-164.81169,0.84830001)">
	<rect id="rect38" x="-36.393" y="232.022" fill="#B5B2B5" stroke="#000000" stroke-width="0.43" width="3.429" height="8.96"/>
</g>
<g id="col3" onclick="parent.setColour(evt)" transform="matrix(2.1515037,0,0,2.0623295,-164.81169,0.84830001)">
	<rect id="rect41" x="-31.591" y="232.022" fill="#6B696B" stroke="#000000" stroke-width="0.43" width="3.429" height="8.96"/>
</g>
<g id="col4" onclick="parent.setColour(evt)" transform="matrix(2.1515037,0,0,2.0623295,-164.81169,0.84830001)">
	<rect id="rect44" x="-26.791" y="232.022" stroke="#000000" stroke-width="0.43" width="3.429" height="8.96"/>
</g>
<g id="col5" onclick="parent.setColour(evt)" transform="matrix(2.1515037,0,0,2.0623295,-164.81169,0.84830001)">
	<rect id="rect47" x="-21.992" y="232.022" fill="#EFDBB5" stroke="#000000" stroke-width="0.43" width="3.429" height="8.96"/>
</g>
<g id="col6" onclick="parent.setColour(evt)" transform="matrix(2.1515037,0,0,2.0623295,-164.81169,0.84830001)">
	<rect id="rect50" x="-17.191" y="232.022" fill="#EFDF00" stroke="#000000" stroke-width="0.43" width="3.429" height="8.96"/>
</g>
<g id="col7" onclick="parent.setColour(evt)" transform="matrix(2.1515037,0,0,2.0623295,-164.81169,0.84830001)">
	<rect id="rect53" x="-12.391" y="232.022" fill="#FFD718" stroke="#000000" stroke-width="0.43" width="3.429" height="8.96"/>
</g>
<g id="col8" onclick="parent.setColour(evt)" transform="matrix(2.1515037,0,0,2.0623295,-164.81169,0.84830001)">
	<rect id="rect56" x="-7.591" y="232.022" fill="#FFA218" stroke="#000000" stroke-width="0.43" width="3.429" height="8.96"/>
</g>
<g id="col9" onclick="parent.setColour(evt)" transform="matrix(2.1515037,0,0,2.0623295,-164.81169,0.84830001)">
	<rect id="rect59" x="-2.79" y="232.022" fill="#E74D10" stroke="#000000" stroke-width="0.43" width="3.429" height="8.96"/>
</g>
<g id="col10" onclick="parent.setColour(evt)" transform="matrix(2.1515037,0,0,2.0623295,-164.81169,0.84830001)">
	<rect id="rect62" x="-41.192" y="242.493" fill="#FF0000" stroke="#000000" stroke-width="0.43" width="3.429" height="8.96"/>
</g>
<g id="col11" onclick="parent.setColour(evt)" transform="matrix(2.1515037,0,0,2.0623295,-164.81169,0.84830001)">
	<rect id="rect65" x="-36.393" y="242.493" fill="#FF1C4A" stroke="#000000" stroke-width="0.43" width="3.429" height="8.96"/>
</g>
<g id="col12" onclick="parent.setColour(evt)" transform="matrix(2.1515037,0,0,2.0623295,-164.81169,0.84830001)">
	<rect id="rect68" x="-31.591" y="242.493" fill="#DE1842" stroke="#000000" stroke-width="0.43" width="3.429" height="8.96"/>
</g>
<g id="col13" onclick="parent.setColour(evt)" transform="matrix(2.1515037,0,0,2.0623295,-164.81169,0.84830001)">
	<rect id="rect71" x="-26.791" y="242.493" fill="#AD2063" stroke="#000000" stroke-width="0.43" width="3.429" height="8.96"/>
</g>
<g id="col14" onclick="parent.setColour(evt)" transform="matrix(2.1515037,0,0,2.0623295,-164.81169,0.84830001)">
	<rect id="rect74" x="-21.991" y="242.493" fill="#08A2EF" stroke="#000000" stroke-width="0.43" width="3.429" height="8.96"/>
</g>
<g id="col15" onclick="parent.setColour(evt)" transform="matrix(2.1515037,0,0,2.0623295,-164.81169,0.84830001)">
	<rect id="rect77" x="-17.191" y="242.493" fill="#395DC6" stroke="#000000" stroke-width="0.43" width="3.429" height="8.96"/>
</g>
<g id="col16" onclick="parent.setColour(evt)" transform="matrix(2.1515037,0,0,2.0623295,-164.81169,0.84830001)">
	<rect id="rect80" x="-12.391" y="242.493" fill="#29108C" stroke="#000000" stroke-width="0.43" width="3.429" height="8.96"/>
</g>
<g id="col17" onclick="parent.setColour(evt)" transform="matrix(2.1515037,0,0,2.0623295,-164.81169,0.84830001)">
	<rect id="rect83" x="-7.59" y="242.493" fill="#08A6CE" stroke="#000000" stroke-width="0.43" width="3.429" height="8.96"/>
</g>
<g id="col18" onclick="parent.setColour(evt)" transform="matrix(2.1515037,0,0,2.0623295,-164.81169,0.84830001)">
	<rect id="rect86" x="-2.79" y="242.493" fill="#00799C" stroke="#000000" stroke-width="0.43" width="3.429" height="8.96"/>
</g>
<g id="col19" onclick="parent.setColour(evt)" transform="matrix(2.1515037,0,0,2.0623295,-164.81169,0.84830001)">
	<rect id="rect89" x="-41.192" y="253.1" fill="#73759C" stroke="#000000" stroke-width="0.43" width="3.429" height="8.959"/>
</g>
<g id="col20" onclick="parent.setColour(evt)" transform="matrix(2.1515037,0,0,2.0623295,-164.81169,0.84830001)">
	<rect id="rect92" x="-36.391" y="253.1" fill="#EFCFEF" stroke="#000000" stroke-width="0.43" width="3.429" height="8.959"/>
</g>
<g id="col21" onclick="parent.setColour(evt)" transform="matrix(2.1515037,0,0,2.0623295,-164.81169,0.84830001)">
	<rect id="rect95" x="-31.591" y="253.1" fill="#E7007B" stroke="#000000" stroke-width="0.43" width="3.429" height="8.959"/>
</g>
<g id="col22" onclick="parent.setColour(evt)" transform="matrix(2.1515037,0,0,2.0623295,-164.81169,0.84830001)">
	<rect id="rect98" x="-26.791" y="253.1" fill="#C64D9C" stroke="#000000" stroke-width="0.43" width="3.429" height="8.959"/>
</g>
<g id="col23" onclick="parent.setColour(evt)" transform="matrix(2.1515037,0,0,2.0623295,-164.81169,0.84830001)">
	<rect id="rect101" x="-21.991" y="253.1" fill="#6B0C5A" stroke="#000000" stroke-width="0.43" width="3.429" height="8.959"/>
</g>
<g id="col24" onclick="parent.setColour(evt)" transform="matrix(2.1515037,0,0,2.0623295,-164.81169,0.84830001)">
	<rect id="rect104" x="-17.191" y="253.1" fill="#00964A" stroke="#000000" stroke-width="0.43" width="3.429" height="8.959"/>
</g>
<g id="col25" onclick="parent.setColour(evt)" transform="matrix(2.1515037,0,0,2.0623295,-164.81169,0.84830001)">
	<rect id="rect107" x="-12.391" y="253.1" fill="#006D39" stroke="#000000" stroke-width="0.43" width="3.429" height="8.959"/>
</g>
<g id="col26" onclick="parent.setColour(evt)" transform="matrix(2.1515037,0,0,2.0623295,-164.81169,0.84830001)">
	<rect id="rect110" x="-7.59" y="253.1" fill="#E5FF00" stroke="#000000" stroke-width="0.43" width="3.429" height="8.959"/>
</g>
<g id="col27" onclick="parent.setColour(evt)" transform="matrix(2.1515037,0,0,2.0623295,-164.81169,0.84830001)">
	<rect id="rect113" x="-2.79" y="253.1" fill="#7BFB00" stroke="#000000" stroke-width="0.43" width="3.429" height="8.959"/>
</g>
<g id="current" transform="matrix(1.2758407,0,0,1.0595202,-206.49408,-79.476615)">
	<text id="text120" transform="matrix(0.3613 0 0 0.9438 -33.9027 515.2962)" font-family="'ArialMT'" font-size="17.0844">Current Colour:</text>
	<rect id="currentColour" x="12.729" y="500.96" stroke="#000000" stroke-width="0.8601" width="20.572" height="21.502"/>
</g>
</svg>
