<?xml version="1.0" encoding="utf-8"?>
<!-- Generator: Adobe Illustrator 15.1.0, SVG Export Plug-In . SVG Version: 6.00 Build 0)  -->
<!DOCTYPE svg PUBLIC "-//W3C//DTD SVG 1.1//EN" "http://www.w3.org/Graphics/SVG/1.1/DTD/svg11.dtd">
<svg version="1.1" id="Layer_1" xmlns="http://www.w3.org/2000/svg" xmlns:xlink="http://www.w3.org/1999/xlink" x="0px" y="0px"
	 width="200px" height="200px" viewBox="-69.5 592.5 200 200" enable-background="new -69.5 592.5 200 200" xml:space="preserve">
<g id="Layer_3">
	<path fill="#FFB564" d="M66.68,689.161c-32.22-19.561-71.88,0.6-71.88,0.6s6.96,55.561,6.84,72.84c-0.48,1.2-0.6,2.461-0.24,3.78
		c-0.12,0.72-0.36,1.02-0.6,1.02H1.82c0.66,1.801,1.74,2.581,3.479,3.181c6.54,2.4,12.9,4.08,19.86,4.62
		c2.16,0.18,4.26,0.12,6.3-0.12c0.96,0.9,2.4,1.439,4.26,1.26c7.92-0.72,16.8-1.14,23.161-6.18c1.02-0.84,1.62-1.62,1.859-2.82h0.48
		L66.68,689.161z"/>
	<polygon fill="#52E2D7" points="-2.62,664.381 1.76,686.941 17.42,682.861 13.52,662.941 	"/>
	<path fill="#FFFBE8" d="M27.02,656.821c0,0-10.74-9.36-3.18,23.939c0.36,1.5,11.64,2.04,11.64,2.04L27.02,656.821z"/>
	<path fill="#F9A035" d="M6.62,685.381c0,0-12.36,0-12.36,7.44c0.06,10.319,8.04,63.36,7.86,71.939
		c-0.12,5.58,11.46,8.16,11.46,8.16"/>
	<path fill="#FFB564" d="M13.58,632.521c0,0,5.82,30.12,6.96,29.041c1.2-1.08,6.48-4.74,6.48-4.74l-8.1-24.301H13.58L13.58,632.521z
		"/>
	<path fill="#FFFBE8" d="M3.92,650.701c0,0-7.74,14.76-6.54,13.68c1.2-1.08,16.2-1.439,16.2-1.439L3.92,650.701z"/>
	<path fill="#F25F68" d="M48.2,632.221c-0.9,1.2-1.8,2.461-2.64,3.78c-0.72,1.14-1.74,1.38-2.76,1.14
		c-1.02,2.041-2.1,4.021-3.42,5.88c-3.72,13.44-0.42,25.021-5.22,38.28c-0.78,2.1,0.18,0.181,1.32,1.5
		c3.36-1.8,18.66,2.1,23.22,2.521c1.02-1.38-5.46-1.98-6.18-3.96c0.84,2.34,0.12-3.12,0.12-3.66c0.18-1.561,0-3.301,0.18-4.86
		c0.42-2.76-0.84-3.84-0.48-6.6c1.14-8.7,2.041-17.641,1.8-26.46c-1.32-2.34-2.46-4.74-3.36-7.261
		C50.06,632.281,49.1,632.161,48.2,632.221z"/>
</g>
<g id="Layer_2">
	
		<polyline fill="none" stroke="#AF3A46" stroke-width="4.9763" stroke-linecap="square" stroke-linejoin="round" stroke-miterlimit="10" points="
		36.26,679.201 40.58,641.941 49.7,628.682 54.08,643.021 52.52,681.421 	"/>
	
		<polyline fill="none" stroke="#AF3A46" stroke-width="4.9763" stroke-linecap="square" stroke-linejoin="round" stroke-miterlimit="10" points="
		1.58,685.981 -2.26,662.941 3.92,650.701 13.52,660.062 17.42,682.261 	"/>
	
		<path fill="none" stroke="#AF3A46" stroke-width="4.9763" stroke-linecap="square" stroke-linejoin="round" stroke-miterlimit="10" d="
		M24.38,681.421c0,0-2.7-9.9-5.4-21.84c-2.88-12.78-5.82-26.28-5.4-27.061c0.78-1.56,3.24-2.88,5.34,0
		c1.2,1.62,4.74,12.961,8.1,24.301c3.78,12.66,7.32,25.38,7.14,24.479"/>
	<path fill="#AF3A46" stroke="#AF3A46" stroke-width="2.4882" stroke-miterlimit="10" d="M13.58,632.521
		c-6.96-7.319-6.24-11.52-3.96-13.8c3.96-3.96-1.68-9.96-0.54-10.08c3.96-0.359,17.16,5.76,10.38,22.141"/>
	
		<path fill="none" stroke="#AF3A46" stroke-width="4.9763" stroke-linecap="round" stroke-linejoin="round" stroke-miterlimit="10" d="
		M40.58,641.941c0,0,6.78-2.88,13.5,1.14"/>
	
		<path fill="#FFFBE8" stroke="#AF3A46" stroke-width="4.9763" stroke-linecap="round" stroke-linejoin="round" stroke-miterlimit="10" d="
		M13.52,660.062c0,2.819-7.32,2.819-7.32,2.819c-1.92,3.181-8.46,0-8.46,0"/>
	<path fill="#AF3A46" d="M8,654.721c2.04,1.98-7.2,2.101-7.2,2.101l3.06-6.12L8,654.721z"/>
	
		<path fill="none" stroke="#AF3A46" stroke-width="4.9763" stroke-linecap="round" stroke-linejoin="round" stroke-miterlimit="10" d="
		M20.54,661.501c4.62,0,6.84-3.601,6.84-3.601"/>
	
		<path fill="none" stroke="#AF3A46" stroke-width="4.9763" stroke-linecap="round" stroke-linejoin="round" stroke-miterlimit="10" d="
		M-5.14,689.821L-5.14,689.821c26.34-12.9,56.58-9.96,71.88-0.66l-7.08,80.521c0,0-23.94,13.919-57.12-0.661L-5.14,689.821z"/>
	
		<path fill="none" stroke="#AF3A46" stroke-width="4.8228" stroke-linecap="round" stroke-linejoin="round" stroke-miterlimit="10" d="
		M46.88,738.781l-1.32-19.561l-14.64-11.34l-14.46,10.62c0.18,7.08,0.84,13.681,1.02,20.76
		C17.42,739.261,35.06,742.081,46.88,738.781z"/>
	
		<line fill="none" stroke="#AF3A46" stroke-width="5" stroke-linecap="round" stroke-linejoin="round" stroke-miterlimit="10" x1="31.16" y1="707.941" x2="31.16" y2="724.141"/>
	
		<path fill="none" stroke="#AF3A46" stroke-width="3.8582" stroke-linecap="round" stroke-linejoin="round" stroke-miterlimit="10" d="
		M33.38,721.021c-0.9,0-1.74,0.181-4.081,0.24c0,0-0.6-0.54-0.06,3.54c1.74,0.061,2.4,0.12,4.141,0.12
		C33.38,724.981,33.38,722.041,33.38,721.021z"/>
</g>
</svg>
