<?xml version="1.0" encoding="utf-8"?>
<!-- Generator: Adobe Illustrator 15.1.0, SVG Export Plug-In . SVG Version: 6.00 Build 0)  -->
<!DOCTYPE svg PUBLIC "-//W3C//DTD SVG 1.1//EN" "http://www.w3.org/Graphics/SVG/1.1/DTD/svg11.dtd">
<svg version="1.1" id="Layer_1" xmlns="http://www.w3.org/2000/svg" xmlns:xlink="http://www.w3.org/1999/xlink" x="0px" y="0px"
	 width="100px" height="100px" viewBox="-223.796 465.833 100 100" enable-background="new -223.796 465.833 100 100"
	 xml:space="preserve">
<g>
	<g>
		<line fill="none" stroke="#000000" stroke-miterlimit="10" x1="-213.407" y1="557.75" x2="-128.796" y2="557.75"/>
		<g>
			<g>
				<line fill="none" stroke="#000000" stroke-miterlimit="10" x1="-213.407" y1="557.75" x2="-213.407" y2="555.635"/>
				<line fill="none" stroke="#000000" stroke-miterlimit="10" x1="-128.796" y1="557.75" x2="-128.796" y2="555.635"/>
			</g>
		</g>
	</g>
	<g>
		<g>
			<text transform="matrix(0.804 0 0 1 -216.7617 559.5986)" font-family="'MyriadPro-Regular'" font-size="4.9326">0</text>
			<text transform="matrix(0.804 0 0 1 -218.7964 542.667)" font-family="'MyriadPro-Regular'" font-size="4.9326">10</text>
			<text transform="matrix(0.804 0 0 1 -218.7964 525.7412)" font-family="'MyriadPro-Regular'" font-size="4.9326">20</text>
			<text transform="matrix(0.804 0 0 1 -218.7964 508.8145)" font-family="'MyriadPro-Regular'" font-size="4.9326">30</text>
			<text transform="matrix(0.804 0 0 1 -218.7964 491.8857)" font-family="'MyriadPro-Regular'" font-size="4.9326">40</text>
			<text transform="matrix(0.804 0 0 1 -218.7964 474.9619)" font-family="'MyriadPro-Regular'" font-size="4.9326">50</text>
		</g>
		<line fill="none" stroke="#000000" stroke-miterlimit="10" x1="-213.407" y1="557.75" x2="-213.407" y2="473.113"/>
		<g>
			<g>
				<line fill="none" stroke="#000000" stroke-miterlimit="10" x1="-213.407" y1="557.75" x2="-211.292" y2="557.75"/>
				<line fill="none" stroke="#000000" stroke-miterlimit="10" x1="-213.407" y1="540.815" x2="-211.292" y2="540.815"/>
				<line fill="none" stroke="#000000" stroke-miterlimit="10" x1="-213.407" y1="523.897" x2="-211.292" y2="523.897"/>
				<line fill="none" stroke="#000000" stroke-miterlimit="10" x1="-213.407" y1="506.966" x2="-211.292" y2="506.966"/>
				<line fill="none" stroke="#000000" stroke-miterlimit="10" x1="-213.407" y1="490.047" x2="-211.292" y2="490.047"/>
				<line fill="none" stroke="#000000" stroke-miterlimit="10" x1="-213.407" y1="473.113" x2="-211.292" y2="473.113"/>
			</g>
		</g>
	</g>
	<g>
		<g>
			<g>
				
					<rect x="-153.333" y="483.262" fill="#404040" stroke="#000000" stroke-width="0.5" stroke-miterlimit="10" width="15.23" height="74.488"/>
			</g>
		</g>
		<g>
			<g>
				
					<rect x="-170.256" y="503.588" fill="#808080" stroke="#000000" stroke-width="0.5" stroke-miterlimit="10" width="15.231" height="54.162"/>
			</g>
		</g>
		<g>
			<g>
				
					<rect x="-187.177" y="528.979" fill="#DFDFDF" stroke="#000000" stroke-width="0.5" stroke-miterlimit="10" width="15.229" height="28.771"/>
			</g>
		</g>
		<g>
			<g>
				<rect x="-204.099" y="549.291" stroke="#000000" stroke-width="0.5" stroke-miterlimit="10" width="15.229" height="8.459"/>
			</g>
		</g>
	</g>
</g>
</svg>
