<?xml version="1.0" encoding="UTF-8"?>
<!DOCTYPE svg PUBLIC "-//W3C//DTD SVG 1.1//EN" "http://www.w3.org/Graphics/SVG/1.1/DTD/svg11.dtd">
<svg version="1.1" id="Layer_1" xmlns="http://www.w3.org/2000/svg" xmlns:xlink="http://www.w3.org/1999/xlink" x="0px" y="0px" width="16px" height="16px" viewBox="0 0 16 16" enable-background="new 0 0 16 16" xml:space="preserve">
  <g id="icon">
    <path d="M8,0C3.6,0,0,3.6,0,8s3.6,8,8,8s8,-3.6,8,-8S12.4,0,8,0zM13,8.65c0,0.2,-0.15,0.35,-0.35,0.35H9v3.75c0,0.15,-0.1,0.25,-0.25,0.25h-1.4c-0.2,0,-0.35,-0.15,-0.35,-0.35V9H3.35c-0.2,0,-0.35,-0.15,-0.35,-0.3V7.35c0,-0.2,0.15,-0.35,0.35,-0.35H7V3.25c0,-0.15,0.1,-0.25,0.25,-0.25h1.4c0.2,0,0.35,0.15,0.35,0.35V7h3.75c0.15,0,0.25,0.1,0.25,0.25V8.65z" fill="#E78155"/>
    <path d="M12.75,7H9V3.35c0,-0.2,-0.15,-0.35,-0.35,-0.35h-1.4C7.1,3,7,3.1,7,3.25V7H3.35c-0.2,0,-0.35,0.15,-0.35,0.35V8.7c0,0.15,0.15,0.3,0.35,0.3H7v3.65c0,0.2,0.15,0.35,0.35,0.35h1.4c0.15,0,0.25,-0.1,0.25,-0.25V9h3.65c0.2,0,0.35,-0.15,0.35,-0.35v-1.4C13,7.1,12.9,7,12.75,7z" fill="#FFFFFF"/>
  </g>
</svg>
