<?xml version="1.0" encoding="UTF-8"?>
<!DOCTYPE svg PUBLIC "-//W3C//DTD SVG 1.1//EN" "http://www.w3.org/Graphics/SVG/1.1/DTD/svg11.dtd">
<svg version="1.1" id="Layer_1" xmlns="http://www.w3.org/2000/svg" xmlns:xlink="http://www.w3.org/1999/xlink" x="0px" y="0px" width="16px" height="16px" viewBox="0 0 16 16" enable-background="new 0 0 16 16" xml:space="preserve">
  <g id="icon">
    <path d="M8.8943,6.6496v0.2785c0,0.5571,0,1.0027,-0.2785,1.5041c-0.2228,0.3899,-0.5571,0.6685,-1.0027,0.6685c-0.5571,0,-0.8356,-0.3899,-0.8356,-1.0027C6.7775,6.8167,7.8916,6.6496,8.8943,6.6496zM16,8c0,4.4,-3.6,8,-8,8S0,12.4,0,8S3.6,0,8,0S16,3.6,16,8zM8.8386,5.3126v0.1671c-0.8356,0.1114,-1.894,0.1671,-2.6739,0.5014C5.3292,6.371,4.7164,7.1509,4.7164,8.265c0,1.4483,0.947,2.2282,2.1168,2.2282c1.0027,0,1.5598,-0.2228,2.3396,-1.0027c0.2785,0.3899,0.3342,0.5571,0.8356,0.947c0.1114,0.0557,0.2228,0.0557,0.3342,-0.0557c0.2785,-0.2785,0.7799,-0.7242,1.0584,-0.947c0.1114,-0.1114,0.1114,-0.2228,0,-0.3899c-0.2785,-0.3342,-0.5571,-0.6685,-0.5571,-1.3369V5.4797c0,-0.947,0.0557,-1.7826,-0.6128,-2.451c-0.5014,-0.4456,-1.3926,-0.6128,-2.1168,-0.6128c-1.3369,0,-2.841,0.5014,-3.1752,2.1725c-0.0557,0.1671,0.1114,0.2785,0.2228,0.2785l1.3926,0.1671c0.1114,0,0.2228,-0.1114,0.2228,-0.2785c0.1114,-0.5571,0.6128,-0.8356,1.1141,-0.8356c0.2785,0,0.6128,0.1114,0.7799,0.3899C8.8943,4.5884,8.8386,4.9784,8.8386,5.3126zM12.5709,10.9389c-1.3926,0.7242,-2.8967,1.0584,-4.2893,1.0584c-2.0611,0,-4.0108,-0.6685,-5.6263,-1.8383c-0.0557,0,-0.1114,0,-0.1114,0c-0.1114,0,-0.1671,0.1114,-0.0557,0.2228C3.9922,12.053,5.9419,13,8.1145,13c1.5598,0,3.3423,-0.6128,4.6236,-1.7269C12.9608,11.106,12.7937,10.8275,12.5709,10.9389zM13.7964,10.1033c-0.1114,-0.1671,-0.4456,-0.2228,-0.8356,-0.2228c-0.3899,0,-0.8913,0.1114,-1.2255,0.4456c-0.1114,0.1114,-0.1114,0.2228,0.0557,0.2228c0.3899,-0.0557,1.2812,-0.1671,1.4483,0.0557c0.1671,0.2785,-0.1671,1.2812,-0.3342,1.7269c-0.0557,0.1671,0.0557,0.2228,0.1671,0.1114C13.7407,11.7745,13.9078,10.3261,13.7964,10.1033z" fill="#EAB765"/>
    <path d="M8.1145,2.4159c-1.3369,0,-2.841,0.5014,-3.1752,2.1725c-0.0557,0.1671,0.1114,0.2785,0.2228,0.2785l1.3926,0.1671c0.1114,0,0.2228,-0.1114,0.2228,-0.2785c0.1114,-0.5571,0.6128,-0.8356,1.1141,-0.8356c0.2785,0,0.6128,0.1114,0.7799,0.3899c0.2228,0.2785,0.1671,0.6685,0.1671,1.0027v0.1671c-0.8356,0.1114,-1.894,0.1671,-2.6739,0.5014C5.3292,6.371,4.7164,7.1509,4.7164,8.265c0,1.4483,0.947,2.2282,2.1168,2.2282c1.0027,0,1.5598,-0.2228,2.3396,-1.0027c0.2785,0.3899,0.3342,0.5571,0.8356,0.947c0.1114,0.0557,0.2228,0.0557,0.3342,-0.0557l0,0c0.2785,-0.2785,0.7799,-0.7242,1.0584,-0.947c0.1114,-0.1114,0.1114,-0.2228,0,-0.3899c-0.2785,-0.3342,-0.5571,-0.6685,-0.5571,-1.3369V5.4797c0,-0.947,0.0557,-1.7826,-0.6128,-2.451C9.7299,2.583,8.8386,2.4159,8.1145,2.4159L8.1145,2.4159zM8.8943,6.6496v0.2785c0,0.5571,0,1.0027,-0.2785,1.5041c-0.2228,0.3899,-0.5571,0.6685,-1.0027,0.6685c-0.5571,0,-0.8356,-0.3899,-0.8356,-1.0027C6.7775,6.8167,7.8916,6.6496,8.8943,6.6496L8.8943,6.6496zM12.9608,9.8805c-0.3899,0,-0.8913,0.1114,-1.2255,0.4456c-0.1114,0.1114,-0.1114,0.2228,0.0557,0.2228c0.3899,-0.0557,1.2812,-0.1671,1.4483,0.0557c0.1671,0.2785,-0.1671,1.2812,-0.3342,1.7269c-0.0557,0.1671,0.0557,0.2228,0.1671,0.1114c0.6685,-0.6685,0.8356,-2.1168,0.7242,-2.3396C13.685,9.9362,13.3508,9.8805,12.9608,9.8805L12.9608,9.8805zM2.5439,10.159c-0.1114,0,-0.1671,0.1114,-0.0557,0.2228C3.9922,12.053,5.9419,13,8.1145,13c1.5598,0,3.3423,-0.6128,4.6236,-1.7269c0.2228,-0.1671,0.0557,-0.4456,-0.1671,-0.3342c-1.3926,0.7242,-2.8967,1.0584,-4.2893,1.0584c-2.0611,0,-4.0108,-0.6685,-5.6263,-1.8383C2.5996,10.159,2.5439,10.159,2.5439,10.159L2.5439,10.159z" fill="#FFFFFF"/>
  </g>
</svg>
