<?xml version="1.0" encoding="UTF-8"?>
<!DOCTYPE svg PUBLIC "-//W3C//DTD SVG 1.1//EN" "http://www.w3.org/Graphics/SVG/1.1/DTD/svg11.dtd">
<svg version="1.1" id="Layer_1" xmlns="http://www.w3.org/2000/svg" xmlns:xlink="http://www.w3.org/1999/xlink" x="0px" y="0px" width="16px" height="16px" viewBox="0 0 16 16" enable-background="new 0 0 16 16" xml:space="preserve">
  <g id="icon">
    <path d="M8,0C3.6,0,0,3.6,0,8s3.6,8,8,8s8,-3.6,8,-8S12.4,0,8,0zM6.6689,4.0552c0.1123,-0.1265,0.1929,-0.1609,0.3561,-0.1516c0.1194,0.0067,0.1525,0.0193,0.3562,0.1348c0.3593,0.2037,0.473,0.3485,0.4434,0.5646c-0.0143,0.104,-0.0484,0.172,-0.2812,0.5604c-0.1021,0.1703,-0.1917,0.3092,-0.1991,0.3087c-0.0075,-0.0005,-0.2545,-0.1487,-0.5489,-0.3293c-0.3329,-0.2041,-0.5355,-0.34,-0.5357,-0.3593C6.2592,4.7295,6.5848,4.15,6.6689,4.0552zM2.1415,7.9451c-0.0075,-0.273,-0.0107,-0.5583,-0.0071,-0.634l0.0066,-0.1376l1.2238,-0.0051c0.8209,-0.0034,1.2237,0.0015,1.2237,0.015c0,0.011,-0.1292,0.2433,-0.287,0.5162c-0.1579,0.2729,-0.3189,0.5515,-0.3579,0.619l-0.0709,0.1229h-0.8587h-0.8587L2.1415,7.9451zM4.0925,10.9479c-0.0982,0.0865,-0.4699,0.4204,-0.8262,0.7421c-0.3562,0.3217,-0.6551,0.5848,-0.6642,0.5848c-0.0366,0,-0.036,-0.0414,0.0026,-0.1892c0.1812,-0.6928,0.5063,-1.9088,0.5317,-1.989c0.0114,-0.036,0.0319,-0.0623,0.0459,-0.059c0.0473,0.0112,1.0912,0.7136,1.0899,0.7334C4.2715,10.7818,4.1906,10.8614,4.0925,10.9479zM4.4798,10.4987c-0.0164,0.005,-1.1085,-0.694,-1.1572,-0.7407c-0.0101,-0.0097,0.0077,-0.0568,0.0422,-0.1113c0.0328,-0.052,0.2052,-0.3245,0.3831,-0.6057c0.1778,-0.2811,0.5016,-0.822,0.7193,-1.202c0.687,-1.1988,1.6548,-2.8277,1.6837,-2.8341c0.0287,-0.0064,1.1111,0.6589,1.1111,0.6829c0,0.0074,-0.1029,0.1855,-0.2286,0.3957c-0.5765,0.9639,-1.5046,2.5732,-2.2321,3.8701C4.635,10.2502,4.4903,10.4955,4.4798,10.4987zM10.2063,8.4256c-0.0074,0.0222,-4.2611,0.0323,-4.2748,0.0101c-0.0053,-0.0086,0.1453,-0.2961,0.3346,-0.6389l0.3443,-0.6233h1.458h1.458l0.3429,0.6171C10.0579,8.1299,10.2096,8.4157,10.2063,8.4256L10.2063,8.4256zM10.5336,8.3866c-0.0465,-0.031,-0.7979,-1.3038,-2.2599,-3.8277c-0.9286,-1.6032,-0.9023,-1.557,-0.941,-1.6497c-0.0717,-0.1717,-0.0183,-0.3895,0.1225,-0.4996c0.0878,-0.0687,0.4198,-0.262,0.514,-0.2993c0.0989,-0.0392,0.2519,-0.0316,0.3476,0.0172c0.1215,0.062,0.1885,0.1537,0.4717,0.6456c0.2873,0.499,0.7197,1.2476,1.7013,2.9456c0.893,1.5448,1.1561,2.0099,1.1561,2.0441c0,0.0351,0.0078,0.0303,-0.4915,0.3051c-0.2217,0.122,-0.4473,0.2467,-0.5014,0.2772C10.5988,8.3756,10.5451,8.3942,10.5336,8.3866zM11.3004,9.7642c-0.062,-0.0672,-0.62,-1.051,-0.614,-1.0823c0.0073,-0.0377,1.0698,-0.6576,1.1127,-0.6492c0.0162,0.0032,0.1234,0.1694,0.2382,0.3695c0.1148,0.2,0.2565,0.4461,0.3148,0.5467c0.1038,0.1792,0.1052,0.1838,0.0684,0.2183c-0.0207,0.0194,-0.2676,0.166,-0.5487,0.3259c-0.2811,0.1599,-0.5174,0.2942,-0.5252,0.2985C11.3391,9.7958,11.3182,9.7835,11.3004,9.7642zM13.1283,12.2102c-0.0271,0.0356,-0.0555,0.0646,-0.0631,0.0644c-0.0402,-0.0009,-0.068,-0.0445,-0.0951,-0.149c-0.0843,-0.3255,-0.2404,-0.5174,-0.6249,-0.7685c-0.3728,-0.2434,-0.5403,-0.4179,-0.6944,-0.7237c-0.1524,-0.3024,-0.1617,-0.5391,-0.0268,-0.6845c0.0452,-0.0487,0.3494,-0.2366,0.67,-0.4137c0.2056,-0.1136,0.3855,-0.0635,0.5979,0.1667c0.2863,0.3104,0.4357,0.6902,0.4872,1.239C13.4243,11.4234,13.318,11.9615,13.1283,12.2102zM13.9892,8.4533L13.9892,8.4533c-0.0114,0.0203,-0.1688,0.0269,-0.7513,0.0315c-0.4053,0.0032,-0.7723,0.0032,-0.8156,0l-0.0787,-0.0058l-0.3636,-0.6486c-0.2,-0.3567,-0.3665,-0.6616,-0.37,-0.6775c-0.0056,-0.0252,0.146,-0.0282,1.1893,-0.0238l1.1957,0.0051l0.0043,0.6467C14.0017,8.1365,13.9972,8.4391,13.9892,8.4533z" fill="#539FBF"/>
    <path d="M3.2663,11.69c0.3562,-0.3217,0.728,-0.6556,0.8262,-0.7421c0.0982,-0.0865,0.1791,-0.1661,0.1798,-0.1769c0.0013,-0.0197,-1.0425,-0.7221,-1.0899,-0.7334c-0.014,-0.0033,-0.0345,0.0229,-0.0459,0.059c-0.0255,0.0803,-0.3506,1.2962,-0.5317,1.989c-0.0387,0.1478,-0.0392,0.1892,-0.0026,0.1892C2.6112,12.2749,2.9101,12.0117,3.2663,11.69L3.2663,11.69zM13.1283,12.2102c0.1897,-0.2487,0.296,-0.7868,0.2507,-1.2692c-0.0515,-0.5488,-0.2008,-0.9286,-0.4872,-1.239c-0.2124,-0.2302,-0.3923,-0.2804,-0.5979,-0.1667c-0.3206,0.1772,-0.6248,0.365,-0.67,0.4137c-0.1349,0.1454,-0.1256,0.3821,0.0268,0.6845c0.1541,0.3058,0.3217,0.4804,0.6944,0.7237c0.3846,0.2511,0.5407,0.443,0.6249,0.7685c0.027,0.1044,0.0549,0.1481,0.0951,0.149C13.0728,12.2748,13.1012,12.2458,13.1283,12.2102zM4.8013,9.9537c0.7275,-1.297,1.6556,-2.9063,2.2321,-3.8701c0.1257,-0.2102,0.2286,-0.3883,0.2286,-0.3957c0,-0.024,-1.0824,-0.6893,-1.1111,-0.683c-0.0289,0.0064,-0.9966,1.6354,-1.6837,2.8341c-0.2178,0.38,-0.5415,0.9209,-0.7193,1.202c-0.1778,0.2811,-0.3502,0.5537,-0.3831,0.6057c-0.0345,0.0545,-0.0523,0.1016,-0.0422,0.1113c0.0487,0.0467,1.1408,0.7457,1.1572,0.7407C4.4903,10.4955,4.635,10.2502,4.8013,9.9537L4.8013,9.9537zM11.872,9.493c0.2811,-0.1599,0.528,-0.3065,0.5487,-0.3259c0.0368,-0.0345,0.0353,-0.039,-0.0684,-0.2183c-0.0583,-0.1007,-0.2,-0.3467,-0.3148,-0.5467c-0.1148,-0.2,-0.222,-0.3663,-0.2382,-0.3695c-0.0429,-0.0084,-1.1055,0.6115,-1.1127,0.6492c-0.006,0.0314,0.552,1.0151,0.614,1.0823c0.0178,0.0193,0.0387,0.0316,0.0464,0.0273C11.3545,9.7872,11.5908,9.6529,11.872,9.493L11.872,9.493zM13.9892,8.4533c0.0079,-0.0142,0.0125,-0.3168,0.0101,-0.6725l-0.0043,-0.6467l-1.1957,-0.0051c-1.0434,-0.0044,-1.1949,-0.0014,-1.1893,0.0238c0.0035,0.0159,0.17,0.3208,0.37,0.6775l0.3636,0.6486l0.0787,0.0058c0.0433,0.0032,0.4103,0.0032,0.8156,0C13.8205,8.4802,13.9778,8.4736,13.9892,8.4533L13.9892,8.4533zM10.2063,8.4256c0.0033,-0.0099,-0.1483,-0.2956,-0.337,-0.635l-0.3429,-0.6171h-1.458h-1.458l-0.3443,0.6233c-0.1893,0.3428,-0.3399,0.6303,-0.3346,0.6389C5.9452,8.4579,10.1989,8.4478,10.2063,8.4256L10.2063,8.4256zM3.9435,8.3186c0.039,-0.0676,0.2001,-0.3461,0.3579,-0.619c0.1579,-0.2729,0.287,-0.5052,0.287,-0.5162c0,-0.0134,-0.4028,-0.0184,-1.2237,-0.015l-1.2237,0.0051l-0.0066,0.1376c-0.0036,0.0757,-0.0004,0.361,0.0071,0.634l0.0137,0.4964h0.8587h0.8587L3.9435,8.3186zM11.1544,8.068c0.4992,-0.2748,0.4915,-0.27,0.4915,-0.3051c0,-0.0342,-0.2631,-0.4993,-1.1561,-2.0441c-0.9816,-1.698,-1.414,-2.4465,-1.7013,-2.9456c-0.2832,-0.4919,-0.3502,-0.5836,-0.4717,-0.6456c-0.0957,-0.0488,-0.2486,-0.0564,-0.3476,-0.0172c-0.0942,0.0373,-0.4262,0.2306,-0.514,0.2993c-0.1408,0.1101,-0.1942,0.3279,-0.1224,0.4996c0.0387,0.0926,0.0124,0.0465,0.941,1.6497c1.4619,2.5239,2.2134,3.7967,2.2599,3.8277c0.0115,0.0077,0.0652,-0.011,0.1193,-0.0414C10.7071,8.3147,10.9328,8.19,11.1544,8.068zM7.5435,5.1634c0.2328,-0.3884,0.2669,-0.4564,0.2812,-0.5604c0.0296,-0.2161,-0.0841,-0.3609,-0.4434,-0.5646c-0.2037,-0.1155,-0.2368,-0.128,-0.3562,-0.1348c-0.1632,-0.0092,-0.2438,0.0251,-0.3561,0.1516c-0.0841,0.0948,-0.4097,0.6743,-0.4092,0.7282c0.0002,0.0193,0.2028,0.1552,0.5357,0.3593c0.2945,0.1806,0.5415,0.3288,0.5489,0.3293C7.3518,5.4726,7.4415,5.3337,7.5435,5.1634L7.5435,5.1634z" fill="#FFFFFF"/>
  </g>
</svg>
