<?xml version="1.0" encoding="UTF-8"?>
<!DOCTYPE svg PUBLIC "-//W3C//DTD SVG 1.1//EN" "http://www.w3.org/Graphics/SVG/1.1/DTD/svg11.dtd">
<svg version="1.1" id="Layer_1" xmlns="http://www.w3.org/2000/svg" xmlns:xlink="http://www.w3.org/1999/xlink" x="0px" y="0px" width="16px" height="16px" viewBox="0 0 16 16" enable-background="new 0 0 16 16" xml:space="preserve">
  <g id="icon">
    <path d="M8,0C3.6,0,0,3.6,0,8s3.6,8,8,8s8,-3.6,8,-8S12.4,0,8,0zM6.7123,11.2442c-0.0576,0,-0.6908,0.1151,-0.8059,0.1151c-0.1151,0,-0.1151,-0.0576,-0.1151,-0.1151c0,-0.1727,0,-1.1513,0,-1.1513l-1.4968,0.2303c0,0,-0.5757,1.2665,-0.5757,1.324c0,0.0576,-0.0576,0.0576,-0.1151,0.0576c-0.2303,0.0576,-1.0362,0.1727,-1.0938,0.1727c-0.1151,0.0576,-0.1727,0,-0.1151,-0.1151c0,-0.1151,3.454,-7.1383,3.6843,-7.6565c0.0576,-0.1727,0.2303,-0.2303,0.2303,0c0.0576,0.4605,0.5181,6.7354,0.5757,6.9656C6.885,11.1866,6.885,11.2442,6.7123,11.2442zM9.9361,6.6388c0,0.0576,-0.2303,0.6908,-0.2303,0.6908s-0.3454,-0.2303,-0.5181,-0.2303c-0.2303,0,-0.2878,0.0576,-0.403,0.1727c-0.0576,0.1151,-0.1727,0.3454,-0.0576,0.5181c0.0576,0.0576,0.1151,0.1727,0.6332,0.6332c0.6332,0.5757,0.5181,1.324,0.2878,1.727c-0.1727,0.3454,-0.5757,0.6908,-1.0362,0.8059c-0.6332,0.1151,-1.0362,0.0576,-1.2665,-0.0576c-0.1727,-0.0576,-0.1727,-0.1151,-0.1151,-0.2878c0.0576,-0.1727,0.2303,-0.8059,0.2303,-0.8059s0.1151,0.2878,0.5181,0.3454c0.403,0.0576,0.6332,-0.1151,0.7484,-0.2878c0.0576,-0.1727,0.1151,-0.5181,-0.4605,-1.0362c-0.2878,-0.2303,-0.4605,-0.4605,-0.5181,-0.6908c-0.0576,-0.2303,-0.1151,-0.6908,0.1151,-1.0938c0.2303,-0.403,0.6332,-0.6908,1.2089,-0.7484c0.403,-0.0576,0.6908,0.0576,0.8635,0.1151C9.9936,6.4085,9.9936,6.4661,9.9361,6.6388zM13.8507,5.8904c-0.0576,0.0576,-1.2665,2.0724,-1.2665,2.0724s0.6908,1.8997,0.6908,1.9573c0.0576,0.0576,0.0576,0.1151,-0.0576,0.1151c-0.0576,0,-0.5757,0.0576,-0.8059,0.1151c-0.0576,0.0576,-0.1151,0,-0.1151,-0.0576c-0.0576,-0.0576,-0.6908,-1.8997,-0.6908,-1.8997s-0.403,2.0149,-0.403,2.13c0,0.1151,-0.0576,0.1151,-0.1151,0.1151c-0.2303,0,-0.6908,0.1151,-0.8059,0.1151c-0.2303,0,-0.2303,0,-0.1727,-0.1727c0.0576,-0.1151,1.324,-6.9656,1.324,-7.0808c0,-0.1151,0.0576,-0.1727,0.1727,-0.1727c0.1151,0,0.6908,-0.0576,0.8059,-0.0576c0.1151,0,0.1151,0,0.1151,0.1727c0,0.1151,-0.8635,4.7205,-0.8635,4.7205s1.0938,-1.8997,1.1513,-1.9573c0.0576,-0.0576,0.0576,-0.1151,0.1727,-0.1151c0.2303,0,0.7484,-0.0576,0.8059,-0.0576c0.0576,0,0.1151,0,0.1151,0S13.9082,5.8904,13.8507,5.8904zM4.6399,9.2869l1.0938,-2.5905v2.4178L4.6399,9.2869z" fill="#CE4D32"/>
    <path d="M13.9082,5.8328c0,0,-0.0576,0,-0.1151,0c-0.0576,0,-0.5757,0.0576,-0.8059,0.0576c-0.1151,0,-0.1151,0.0576,-0.1727,0.1151c-0.0576,0.0576,-1.1513,1.9573,-1.1513,1.9573s0.8635,-4.6054,0.8635,-4.7205c0,-0.1727,0,-0.1727,-0.1151,-0.1727c-0.1151,0,-0.6908,0.0576,-0.8059,0.0576c-0.1151,0,-0.1727,0.0576,-0.1727,0.1727c0,0.1151,-1.2665,6.9656,-1.324,7.0808c-0.0576,0.1727,-0.0576,0.1727,0.1727,0.1727c0.1151,0,0.5757,-0.1151,0.8059,-0.1151c0.0576,0,0.1151,0,0.1151,-0.1151c0,-0.1151,0.403,-2.13,0.403,-2.13s0.6332,1.8422,0.6908,1.8997c0,0.0576,0.0576,0.1151,0.1151,0.0576c0.2303,-0.0576,0.7484,-0.1151,0.8059,-0.1151c0.1151,0,0.1151,-0.0576,0.0576,-0.1151c0,-0.0576,-0.6908,-1.9573,-0.6908,-1.9573S13.7931,5.948,13.9082,5.8328C13.9082,5.8904,13.9082,5.8328,13.9082,5.8328M9.9361,6.4085c-0.1727,-0.0576,-0.4605,-0.1727,-0.8635,-0.1151c-0.5757,0.0576,-0.9786,0.3454,-1.2089,0.7484c-0.2303,0.403,-0.1727,0.8635,-0.1151,1.0938c0.0576,0.2303,0.2303,0.4605,0.5181,0.6908c0.5757,0.5181,0.5181,0.8635,0.4605,1.0362c-0.1151,0.1727,-0.3454,0.3454,-0.7484,0.2878c-0.403,-0.0576,-0.5181,-0.3454,-0.5181,-0.3454s-0.1727,0.6332,-0.2303,0.8059c-0.0576,0.1727,-0.0576,0.2303,0.1151,0.2878c0.2303,0.1151,0.6332,0.1727,1.2665,0.0576c0.4605,-0.1151,0.8635,-0.4605,1.0362,-0.8059c0.2303,-0.403,0.3454,-1.1513,-0.2878,-1.727c-0.5181,-0.4605,-0.5757,-0.5757,-0.6332,-0.6332c-0.1151,-0.1727,0,-0.403,0.0576,-0.5181c0.1151,-0.1151,0.1727,-0.1727,0.403,-0.1727c0.1727,0,0.5181,0.2303,0.5181,0.2303s0.2303,-0.6332,0.2303,-0.6908C9.9936,6.4661,9.9936,6.4085,9.9361,6.4085M4.6399,9.2869l1.0938,-2.5905v2.4178L4.6399,9.2869L4.6399,9.2869zM6.3093,4.1058c0,-0.2303,-0.1727,-0.1727,-0.2303,0c-0.2303,0.5181,-3.6843,7.5413,-3.6843,7.6565c-0.0576,0.1151,0,0.1727,0.1151,0.1151c0.0576,0,0.8635,-0.1151,1.0938,-0.1727c0.0576,0,0.1151,0,0.1151,-0.0576c0,-0.0576,0.5757,-1.324,0.5757,-1.324l1.4968,-0.2303c0,0,0,0.9786,0,1.1513c0,0.0576,0,0.1151,0.1151,0.1151c0.1151,0,0.7484,-0.1151,0.8059,-0.1151c0.1727,0,0.1727,-0.0576,0.1727,-0.1727C6.8274,10.8412,6.3669,4.5664,6.3093,4.1058" fill="#FFFFFF"/>
  </g>
</svg>
