<?xml version="1.0" encoding="UTF-8"?>
<!DOCTYPE svg PUBLIC "-//W3C//DTD SVG 1.1//EN" "http://www.w3.org/Graphics/SVG/1.1/DTD/svg11.dtd">
<svg version="1.1" id="Layer_1" xmlns="http://www.w3.org/2000/svg" xmlns:xlink="http://www.w3.org/1999/xlink" x="0px" y="0px" width="16px" height="16px" viewBox="0 0 16 16" enable-background="new 0 0 16 16" xml:space="preserve">
  <g id="icon">
    <path d="M8.5667,5.324c-0.96,0,-1.86,0.42,-2.46,1.02c-0.66,0.66,-1.02,1.5,-1.02,2.46s0.42,1.86,1.02,2.46c0.66,0.66,1.5,1.02,2.46,1.02s1.86,-0.42,2.46,-1.02s1.02,-1.5,1.02,-2.46s-0.42,-1.86,-1.02,-2.46C10.3667,5.684,9.5267,5.324,8.5667,5.324zM6.8267,10.004c-0.54,0,-1.02,-0.48,-1.02,-1.02c0,-0.54,0.48,-1.02,1.02,-1.02s1.02,0.48,1.02,1.02C7.8467,9.524,7.3667,10.004,6.8267,10.004zM8,0C3.6,0,0,3.6,0,8s3.6,8,8,8s8,-3.6,8,-8S12.4,0,8,0zM11.7467,12.104c-0.84,0.84,-1.98,1.38,-3.24,1.38s-2.4,-0.54,-3.24,-1.38c-0.78,-0.84,-1.32,-1.98,-1.32,-3.24c0,-0.06,0,-0.18,0,-0.24v-0.06v-6.06c0,-0.36,0.3,-0.6,0.6,-0.6c0.36,0,0.6,0.3,0.6,0.6v3.36c0.06,-0.12,0.12,-0.18,0.18,-0.24c0.84,-0.84,1.98,-1.38,3.24,-1.38s2.4,0.48,3.18,1.38c0.78,0.84,1.32,1.98,1.32,3.24S12.5867,11.264,11.7467,12.104z" fill="#E78155"/>
    <path d="M8.5667,4.244c-1.26,0,-2.4,0.54,-3.24,1.38c-0.06,0.06,-0.12,0.12,-0.18,0.24v-3.36c0,-0.3,-0.24,-0.6,-0.6,-0.6c-0.3,0,-0.6,0.24,-0.6,0.6v6.06v0.06c0,0.06,0,0.18,0,0.24c0,1.26,0.54,2.4,1.32,3.24c0.84,0.84,1.98,1.38,3.24,1.38s2.4,-0.54,3.24,-1.38s1.32,-1.98,1.32,-3.24s-0.54,-2.4,-1.32,-3.24C10.9667,4.724,9.8267,4.244,8.5667,4.244zM11.0267,11.264c-0.6,0.6,-1.5,1.02,-2.46,1.02s-1.8,-0.36,-2.46,-1.02c-0.6,-0.6,-1.02,-1.5,-1.02,-2.46s0.36,-1.8,1.02,-2.46c0.6,-0.6,1.5,-1.02,2.46,-1.02s1.8,0.36,2.46,1.02c0.6,0.6,1.02,1.5,1.02,2.46S11.6267,10.664,11.0267,11.264zM6.8267,7.964c0.54,0,1.02,0.48,1.02,1.02c0,0.54,-0.48,1.02,-1.02,1.02s-1.02,-0.48,-1.02,-1.02C5.8067,8.444,6.2867,7.964,6.8267,7.964z" fill="#FFFFFF"/>
  </g>
</svg>
