<?xml version="1.0" encoding="UTF-8"?>
<!DOCTYPE svg PUBLIC "-//W3C//DTD SVG 1.1//EN" "http://www.w3.org/Graphics/SVG/1.1/DTD/svg11.dtd">
<svg version="1.1" id="Layer_1" xmlns="http://www.w3.org/2000/svg" xmlns:xlink="http://www.w3.org/1999/xlink" x="0px" y="0px" width="16px" height="16px" viewBox="0 0 16 16" enable-background="new 0 0 16 16" xml:space="preserve">
  <g id="icon">
    <path d="M12.5467,8.544h-2.28c0,-0.06,0.12,-1.08,1.2,-1.08S12.5467,8.544,12.5467,8.544zM6.3067,8.484h-2.04v1.86h1.98c0.3,0,0.78,-0.12,0.78,-0.9C7.0267,8.484,6.3067,8.484,6.3067,8.484zM6.7867,6.624c0,-0.72,-0.48,-0.72,-0.48,-0.72h-2.04v1.56h1.92C6.4867,7.464,6.7867,7.344,6.7867,6.624zM16,8c0,4.4,-3.6,8,-8,8S0,12.4,0,8S3.6,0,8,0S16,3.6,16,8zM9.9667,5.904h2.88v-0.84h-2.88V5.904zM7.2067,7.824c0,0,1.08,-0.06,1.08,-1.32s-0.84,-1.86,-1.98,-1.86h-3.6v6.96h3.6c0,0,2.22,0.06,2.22,-2.04C8.5267,9.564,8.6467,7.824,7.2067,7.824zM10.3267,9.384h3.6c-0.06,0.06,0.3,-2.94,-2.46,-2.94c-2.64,0,-2.64,2.64,-2.64,2.64s-0.24,2.64,2.64,2.64c0,0,2.4,0.12,2.4,-1.86h-1.2c0,0,0.06,0.72,-1.14,0.72C11.5267,10.584,10.3267,10.644,10.3267,9.384z" fill="#3F7AB5"/>
    <path d="M2.7067,4.644v6.96h3.6c0,0,2.22,0.06,2.22,-2.04c0,0,0.12,-1.74,-1.32,-1.74c0,0,1.08,-0.06,1.08,-1.32s-0.84,-1.86,-1.98,-1.86H2.7067L2.7067,4.644zM9.9667,5.064v0.84h2.88v-0.84H9.9667zM4.2667,5.904h2.04c0,0,0.48,0,0.48,0.72c0,0.72,-0.3,0.84,-0.6,0.84h-1.92V5.904zM11.4667,6.444c-2.64,0,-2.64,2.64,-2.64,2.64s-0.24,2.64,2.64,2.64c0,0,2.4,0.12,2.4,-1.86h-1.2c0,0,0.06,0.72,-1.14,0.72c0,0,-1.2,0.06,-1.2,-1.2h3.6C13.8667,9.444,14.2267,6.444,11.4667,6.444L11.4667,6.444zM11.4667,7.464c1.08,0,1.08,1.08,1.08,1.08h-2.28C10.2667,8.484,10.3867,7.464,11.4667,7.464zM4.2667,8.484h2.04c0,0,0.72,0,0.72,0.96c0,0.78,-0.48,0.9,-0.78,0.9h-1.98V8.484z" fill="#FFFFFF"/>
  </g>
</svg>
