<?xml version="1.0" encoding="UTF-8"?>
<!DOCTYPE svg PUBLIC "-//W3C//DTD SVG 1.1//EN" "http://www.w3.org/Graphics/SVG/1.1/DTD/svg11.dtd">
<svg version="1.1" id="Layer_1" xmlns="http://www.w3.org/2000/svg" xmlns:xlink="http://www.w3.org/1999/xlink" x="0px" y="0px" width="16px" height="16px" viewBox="0 0 16 16" enable-background="new 0 0 16 16" xml:space="preserve">
  <g id="icon">
    <path d="M6.0667,5.424c0.12,-0.12,0.24,-0.18,0.36,-0.24c0.12,0,0.78,0,1.8,0c0.48,0,0.6,0.06,0.66,0.06c0.66,0.24,0.78,1.08,0.24,1.5c-0.06,0.06,-0.12,0.12,-0.18,0.12c-0.18,0.06,-0.3,0.06,-1.8,0c-0.6,0,-0.72,0,-0.78,-0.06C5.8267,6.624,5.6467,5.844,6.0667,5.424zM16,8c0,4.4,-3.6,8,-8,8S0,12.4,0,8S3.6,0,8,0S16,3.6,16,8zM13.2067,8.604c-0.06,-0.6,-0.24,-1.02,-0.66,-1.32c-0.24,-0.18,-0.54,-0.24,-0.96,-0.3c-0.12,0,-0.24,0,-0.24,0s0,-0.06,0,-0.18c0.06,-0.3,0.06,-1.14,0,-1.5c-0.12,-0.48,-0.3,-0.9,-0.66,-1.26c-0.42,-0.42,-0.9,-0.66,-1.5,-0.78c-0.3,-0.06,-3,0,-3.3,0.06c-0.78,0.12,-1.38,0.48,-1.74,1.08c-0.3,0.48,-0.42,0.96,-0.42,1.62s-0.06,3.78,-0.06,4.08c0,0.54,0.06,0.9,0.24,1.32c0.36,0.9,1.2,1.44,2.4,1.5c0.12,0,1.14,0,2.22,-0.06c1.74,-0.06,1.98,-0.06,2.16,-0.06c0.72,-0.12,1.26,-0.36,1.68,-0.78c0.48,-0.48,0.72,-1.02,0.84,-1.8C13.2067,9.984,13.2067,8.964,13.2067,8.604zM10.7467,9.144c-0.18,-0.12,-0.12,-0.12,-2.4,-0.12c-1.8,0,-2.04,0,-2.16,0c-0.36,0.12,-0.66,0.42,-0.66,0.78c0,0.24,0.06,0.42,0.24,0.6c0.12,0.12,0.18,0.18,0.36,0.18c0.12,0,0.24,0.06,2.16,0.06c1.92,0.06,2.16,0.06,2.28,0.06c0.18,-0.06,0.24,-0.12,0.36,-0.24c0.24,-0.24,0.3,-0.66,0.12,-1.02C10.9867,9.324,10.8667,9.204,10.7467,9.144z" fill="#E78155"/>
    <path d="M6.3067,12.924c-1.2,-0.06,-2.04,-0.6,-2.4,-1.5c-0.18,-0.42,-0.24,-0.78,-0.24,-1.32c0,-0.3,0.06,-3.42,0.06,-4.08s0.12,-1.14,0.42,-1.62c0.36,-0.6,0.96,-0.96,1.74,-1.08c0.3,-0.06,3,-0.12,3.3,-0.06c0.6,0.12,1.08,0.36,1.5,0.78c0.36,0.36,0.54,0.78,0.66,1.26c0.06,0.36,0.06,1.2,0,1.5c0,0.12,0,0.18,0,0.18s0.12,0,0.24,0c0.42,0.06,0.72,0.12,0.96,0.3c0.42,0.3,0.6,0.72,0.66,1.32c0,0.36,0,1.38,0,1.62c-0.12,0.78,-0.36,1.32,-0.84,1.8c-0.42,0.42,-0.96,0.66,-1.68,0.78c-0.18,0,-0.42,0,-2.16,0.06C7.4467,12.924,6.4267,12.924,6.3067,12.924L6.3067,12.924L6.3067,12.924zM10.5667,10.704c0.18,-0.06,0.24,-0.12,0.36,-0.24c0.24,-0.24,0.3,-0.66,0.12,-1.02c-0.06,-0.12,-0.18,-0.24,-0.3,-0.3c-0.18,-0.12,-0.12,-0.12,-2.4,-0.12c-1.8,0,-2.04,0,-2.16,0c-0.36,0.12,-0.66,0.42,-0.66,0.78c0,0.24,0.06,0.42,0.24,0.6c0.12,0.12,0.18,0.18,0.36,0.18c0.12,0,0.24,0.06,2.16,0.06C10.2067,10.704,10.4467,10.704,10.5667,10.704L10.5667,10.704zM8.9467,6.864c0.06,0,0.12,-0.06,0.18,-0.12c0.54,-0.42,0.42,-1.26,-0.24,-1.5c-0.06,0,-0.18,-0.06,-0.66,-0.06c-1.02,0,-1.68,0,-1.8,0c-0.12,0.06,-0.24,0.12,-0.36,0.24c-0.42,0.42,-0.24,1.2,0.3,1.38c0.06,0.06,0.18,0.06,0.78,0.06C8.6467,6.924,8.7667,6.924,8.9467,6.864L8.9467,6.864L8.9467,6.864z" fill="#FFFFFF"/>
  </g>
</svg>
