<?xml version="1.0" encoding="UTF-8"?>
<!DOCTYPE svg PUBLIC "-//W3C//DTD SVG 1.1//EN" "http://www.w3.org/Graphics/SVG/1.1/DTD/svg11.dtd">
<svg version="1.1" id="Layer_1" xmlns="http://www.w3.org/2000/svg" xmlns:xlink="http://www.w3.org/1999/xlink" x="0px" y="0px" width="16px" height="16px" viewBox="0 0 16 16" enable-background="new 0 0 16 16" xml:space="preserve">
  <g id="icon">
    <path d="M8,0C3.6,0,0,3.6,0,8s3.6,8,8,8s8,-3.6,8,-8S12.4,0,8,0zM11.4772,13H9.4026v-0.9797c-0.8068,0.6916,-1.3831,0.9221,-2.3052,0.9221c-0.9797,0,-1.7865,-0.2882,-2.4781,-0.9221c-0.9221,-0.8068,-1.3831,-1.8442,-1.3831,-3.0544c0,-1.095,0.461,-2.0747,1.2679,-2.8815c0.7492,-0.7492,1.6136,-1.095,2.5933,-1.095s1.6713,0.2881,2.1899,0.9797L9.2297,2.569l2.2476,-0.461V13zM9.4026,9.0235c0.0576,1.0373,-0.8068,1.8442,-1.7865,1.8442c-1.1526,0,-2.017,-0.8068,-2.017,-1.9018c0,-1.0373,0.8644,-1.9018,1.9018,-1.9018C8.5958,7.0641,9.4026,7.9286,9.4026,9.0235z" fill="#3F7AB5"/>
    <path d="M9.2873,5.9692c-0.5187,-0.6916,-1.2102,-0.9797,-2.1899,-0.9797s-1.8442,0.3458,-2.5933,1.095c-0.8068,0.8068,-1.2679,1.7865,-1.2679,2.8815c0,1.2102,0.461,2.2476,1.3831,3.0544c0.6916,0.6339,1.4984,0.9221,2.4781,0.9221c0.9221,0,1.4984,-0.2305,2.3052,-0.9221V13h2.0747V2.108l-2.2476,0.461L9.2873,5.9692L9.2873,5.9692zM7.616,10.8677c-1.1526,0,-2.017,-0.8068,-2.017,-1.9018c0,-1.0373,0.8644,-1.9018,1.9018,-1.9018c1.095,0,1.9018,0.8644,1.9018,1.9594C9.4602,10.0609,8.5958,10.8677,7.616,10.8677z" fill="#FFFFFF"/>
  </g>
</svg>
