<?xml version="1.0" encoding="UTF-8"?>
<!DOCTYPE svg PUBLIC "-//W3C//DTD SVG 1.1//EN" "http://www.w3.org/Graphics/SVG/1.1/DTD/svg11.dtd">
<svg version="1.1" id="Layer_1" xmlns="http://www.w3.org/2000/svg" xmlns:xlink="http://www.w3.org/1999/xlink" x="0px" y="0px" width="16px" height="16px" viewBox="0 0 16 16" enable-background="new 0 0 16 16" xml:space="preserve">
  <g id="icon">
    <path d="M7.9955,8h4.0125v4.1305H7.9955V8zM3.865,3.8809V8h4.1305V3.8809H3.865zM16,8c0,4.4,-3.6,8,-8,8S0,12.4,0,8S3.6,0,8,0S16,3.6,16,8zM12.48,3.6335c0,-0.059,-0.059,-0.118,-0.177,-0.118H3.747c-0.118,0,-0.177,0,-0.177,0.118v8.674c0,0.118,0.118,0.177,0.177,0.177h8.556c0.118,0,0.177,-0.059,0.177,-0.177V3.6335z" fill="#3F7AB5"/>
    <path d="M12.303,3.5155H3.747c-0.118,0,-0.177,0,-0.177,0.118v8.674c0,0.118,0.118,0.177,0.177,0.177h8.556c0.118,0,0.177,-0.059,0.177,-0.177v-8.674C12.48,3.5745,12.421,3.5155,12.303,3.5155zM12.0079,12.1305H7.9955V8H3.865V3.8809h4.1305V8h4.0125V12.1305L12.0079,12.1305z" fill="#FFFFFF"/>
  </g>
</svg>
