<?xml version="1.0" encoding="UTF-8"?>
<!DOCTYPE svg PUBLIC "-//W3C//DTD SVG 1.1//EN" "http://www.w3.org/Graphics/SVG/1.1/DTD/svg11.dtd">
<svg version="1.1" id="Layer_1" xmlns="http://www.w3.org/2000/svg" xmlns:xlink="http://www.w3.org/1999/xlink" x="0px" y="0px" width="16px" height="16px" viewBox="0 0 16 16" enable-background="new 0 0 16 16" xml:space="preserve">
  <g id="icon">
    <path d="M10.6267,8.264c0,0.54,-0.36,1.02,-0.9,1.02c-0.48,0,-0.9,-0.48,-0.9,-1.02s0.42,-1.02,0.9,-1.02S10.6267,7.724,10.6267,8.264zM6.3667,7.244c-0.48,0,-0.9,0.48,-0.9,1.02s0.42,1.02,0.9,1.02c0.54,0,0.9,-0.48,0.9,-1.02S6.8467,7.244,6.3667,7.244zM16,8c0,4.4,-3.6,8,-8,8S0,12.4,0,8S3.6,0,8,0S16,3.6,16,8zM13.7467,10.304c-0.18,-3.78,-1.56,-5.7,-1.56,-5.7s-1.2,-0.9,-2.58,-1.02l-0.12,0.24c1.26,0.3,1.86,0.78,2.46,1.32c-1.02,-0.54,-2.1,-1.02,-3.9,-1.02s-2.82,0.48,-3.9,1.02c0.6,-0.54,1.32,-1.02,2.46,-1.32l-0.12,-0.24c-1.5,0.12,-2.58,1.02,-2.58,1.02s-1.32,1.92,-1.56,5.7c1.32,1.56,3.36,1.56,3.36,1.56l0.42,-0.54c-0.72,-0.24,-1.56,-0.72,-2.22,-1.5c0.84,0.66,2.1,1.32,4.14,1.32s3.3,-0.66,4.14,-1.32c-0.72,0.78,-1.5,1.26,-2.22,1.5l0.42,0.54C10.3867,11.864,12.4267,11.864,13.7467,10.304z" fill="#6899D1"/>
    <path d="M12.1867,4.604c0,0,-1.2,-0.9,-2.58,-1.02l-0.12,0.24c1.26,0.3,1.86,0.78,2.46,1.32c-1.02,-0.54,-2.1,-1.02,-3.9,-1.02s-2.82,0.48,-3.9,1.02c0.6,-0.54,1.32,-1.02,2.46,-1.32l-0.12,-0.24c-1.5,0.12,-2.58,1.02,-2.58,1.02s-1.32,1.92,-1.56,5.7c1.32,1.56,3.36,1.56,3.36,1.56l0.42,-0.54c-0.72,-0.24,-1.56,-0.72,-2.22,-1.5c0.84,0.66,2.1,1.32,4.14,1.32s3.3,-0.66,4.14,-1.32c-0.72,0.78,-1.5,1.26,-2.22,1.5l0.42,0.54c0,0,2.04,0,3.36,-1.56C13.5667,6.524,12.1867,4.604,12.1867,4.604zM6.3667,9.284c-0.48,0,-0.9,-0.48,-0.9,-1.02s0.42,-1.02,0.9,-1.02c0.48,0,0.9,0.48,0.9,1.02S6.9067,9.284,6.3667,9.284zM9.7267,9.284c-0.48,0,-0.9,-0.48,-0.9,-1.02s0.42,-1.02,0.9,-1.02s0.9,0.48,0.9,1.02S10.2667,9.284,9.7267,9.284z" fill="#FFFFFF"/>
  </g>
</svg>
