<?xml version="1.0" encoding="UTF-8"?>
<!DOCTYPE svg PUBLIC "-//W3C//DTD SVG 1.1//EN" "http://www.w3.org/Graphics/SVG/1.1/DTD/svg11.dtd">
<svg version="1.1" id="Layer_1" xmlns="http://www.w3.org/2000/svg" xmlns:xlink="http://www.w3.org/1999/xlink" x="0px" y="0px" width="16px" height="16px" viewBox="0 0 16 16" enable-background="new 0 0 16 16" xml:space="preserve">
  <g id="icon">
    <path d="M8,0C3.6,0,0,3.6,0,8s3.6,8,8,8s8,-3.6,8,-8S12.4,0,8,0zM8.1067,13.484c-1.38,0,-2.58,-0.48,-3.54,-1.32l-2.34,0.3l0.9,-2.28c-0.3,-0.72,-0.48,-1.5,-0.48,-2.28c0,-3.06,2.46,-5.58,5.52,-5.58s5.52,2.46,5.52,5.58C13.5667,11.024,11.1067,13.484,8.1067,13.484zM8.0467,5.144h-2.1v5.58h2.1c1.92,0,3.06,-1.2,3.06,-2.82S9.9667,5.144,8.0467,5.144zM8.0467,9.344h-0.6v-2.82h0.6c0.9,0,1.5,0.54,1.5,1.38C9.5467,8.864,8.9467,9.344,8.0467,9.344z" fill="#539FBF"/>
    <path d="M8.1067,13.484c-1.38,0,-2.58,-0.48,-3.54,-1.32l-2.34,0.3l0.9,-2.28c-0.3,-0.72,-0.48,-1.5,-0.48,-2.28c0,-3.06,2.46,-5.58,5.52,-5.58s5.52,2.46,5.52,5.58C13.5667,11.024,11.1067,13.484,8.1067,13.484zM11.1067,7.904L11.1067,7.904c0,-1.62,-1.14,-2.76,-3.06,-2.76h-2.1v5.58h2.1C9.9667,10.724,11.1067,9.524,11.1067,7.904L11.1067,7.904zM8.0467,9.344h-0.6v-2.82h0.6c0.9,0,1.5,0.54,1.5,1.38l0,0C9.5467,8.864,8.9467,9.344,8.0467,9.344z" fill="#FFFFFF"/>
  </g>
</svg>
