<?xml version="1.0" encoding="UTF-8"?>
<!DOCTYPE svg PUBLIC "-//W3C//DTD SVG 1.1//EN" "http://www.w3.org/Graphics/SVG/1.1/DTD/svg11.dtd">
<svg version="1.1" id="Layer_1" xmlns="http://www.w3.org/2000/svg" xmlns:xlink="http://www.w3.org/1999/xlink" x="0px" y="0px" width="16px" height="16px" viewBox="0 0 16 16" enable-background="new 0 0 16 16" xml:space="preserve">
  <g id="icon">
    <path d="M8.6067,6.104c-0.78,-1.44,-1.68,-2.64,-1.8,-2.82c0.36,-0.12,0.78,-0.12,1.14,-0.12c1.26,0,2.4,0.42,3.24,1.2C11.0667,4.484,10.3467,5.444,8.6067,6.104zM8.3067,8.024c0.06,0,0.12,-0.06,0.18,-0.06c-0.12,-0.3,-0.24,-0.54,-0.42,-0.84c-2.46,0.72,-4.8,0.72,-4.98,0.72c0,0.06,0,0.12,0,0.12c0,1.32,0.48,2.46,1.26,3.3C4.4667,11.084,5.7867,8.864,8.3067,8.024zM8.7867,8.744c-2.76,0.96,-3.72,2.88,-3.84,3.06c0.84,0.66,1.86,1.02,3,1.02c0.72,0.06,1.32,-0.06,1.92,-0.36C9.8067,12.044,9.5067,10.544,8.7867,8.744C8.8467,8.744,8.8467,8.744,8.7867,8.744zM5.9067,3.584c-1.38,0.66,-2.4,1.92,-2.7,3.42c0.24,0,2.22,0,4.5,-0.6C6.9267,4.964,6.0267,3.764,5.9067,3.584zM9.6867,8.624c0.66,1.74,0.9,3.18,0.96,3.48c1.14,-0.78,1.92,-1.98,2.1,-3.3C12.5667,8.744,11.2467,8.324,9.6867,8.624zM16,8c0,4.4,-3.6,8,-8,8S0,12.4,0,8S3.6,0,8,0S16,3.6,16,8zM13.6467,8.024c0,-3.12,-2.58,-5.7,-5.7,-5.7s-5.7,2.58,-5.7,5.7s2.58,5.7,5.7,5.7C11.1267,13.724,13.6467,11.144,13.6467,8.024zM9.0267,6.824c0.12,0.24,0.24,0.48,0.3,0.72c0.06,0.06,0.06,0.18,0.12,0.24c1.62,-0.18,3.24,0.12,3.36,0.18c0,-1.14,-0.42,-2.22,-1.08,-3.06C11.6067,5.024,10.8267,6.104,9.0267,6.824z" fill="#D670AC"/>
    <path d="M7.9467,13.724c-3.12,0,-5.7,-2.58,-5.7,-5.7s2.58,-5.7,5.7,-5.7s5.7,2.58,5.7,5.7S11.1267,13.724,7.9467,13.724zM12.7467,8.804c-0.18,-0.06,-1.5,-0.48,-3.06,-0.18c0.66,1.74,0.9,3.18,0.96,3.48C11.7867,11.324,12.5667,10.124,12.7467,8.804zM9.8667,12.464c-0.06,-0.42,-0.36,-1.92,-1.02,-3.72c0,0,0,0,-0.06,0c-2.76,0.96,-3.72,2.88,-3.84,3.06c0.84,0.66,1.86,1.02,3,1.02C8.6667,12.884,9.2667,12.764,9.8667,12.464zM4.3467,11.264c0.12,-0.18,1.44,-2.4,3.96,-3.24c0.06,0,0.12,-0.06,0.18,-0.06c-0.12,-0.3,-0.24,-0.54,-0.42,-0.84c-2.46,0.72,-4.8,0.72,-4.98,0.72c0,0.06,0,0.12,0,0.12C3.0867,9.284,3.5667,10.424,4.3467,11.264L4.3467,11.264zM3.2067,7.004c0.24,0,2.22,0,4.5,-0.6c-0.78,-1.44,-1.68,-2.64,-1.8,-2.82C4.5267,4.244,3.5067,5.504,3.2067,7.004L3.2067,7.004zM6.8067,3.284c0.12,0.18,1.02,1.38,1.8,2.82c1.74,-0.66,2.46,-1.62,2.58,-1.74c-0.84,-0.78,-1.98,-1.2,-3.24,-1.2C7.5867,3.164,7.1667,3.164,6.8067,3.284L6.8067,3.284zM11.7267,4.904c-0.12,0.12,-0.9,1.2,-2.7,1.92c0.12,0.24,0.24,0.48,0.3,0.72c0.06,0.06,0.06,0.18,0.12,0.24c1.62,-0.18,3.24,0.12,3.36,0.18C12.8067,6.824,12.3867,5.744,11.7267,4.904L11.7267,4.904z" fill="#FFFFFF"/>
  </g>
</svg>
