<?xml version="1.0" encoding="UTF-8"?>
<!DOCTYPE svg PUBLIC "-//W3C//DTD SVG 1.1//EN" "http://www.w3.org/Graphics/SVG/1.1/DTD/svg11.dtd">
<svg version="1.1" id="Layer_1" xmlns="http://www.w3.org/2000/svg" xmlns:xlink="http://www.w3.org/1999/xlink" x="0px" y="0px" width="16px" height="16px" viewBox="0 0 16 16" enable-background="new 0 0 16 16" xml:space="preserve">
  <g id="icon">
    <path d="M8,0C3.6,0,0,3.6,0,8s3.6,8,8,8s8,-3.6,8,-8S12.4,0,8,0zM3.7467,12.584l-0.12,-0.18l-1.62,-2.76l-0.06,-0.06l0.06,-0.06l3.78,-6.42l0.12,-0.18l0.06,0.18l1.68,2.82l-3.78,6.48L3.7467,12.584zM12.2067,12.884L12.2067,12.884h-0.18h-7.5h-0.18l0.12,-0.12l1.62,-2.58h7.8L12.2067,12.884zM13.7067,9.224h-3.24h-0.06l-0.06,-0.06l-3.72,-6.42l-0.12,-0.18h0.18h3.24l0.12,0.06l3.72,6.42l0.12,0.18H13.7067z" fill="#3F7AB5"/>
    <path d="M6.0867,10.184l-1.62,2.58l-0.12,0.12h0.18h7.5h0.12h0.06l1.68,-2.7H6.0867L6.0867,10.184zM10.0467,2.624L10.0467,2.624l-0.12,-0.06h-3.24h-0.18l0.12,0.18l3.72,6.42l0.06,0.06h0.06h3.24h0.18l-0.12,-0.18L10.0467,2.624zM7.6467,5.924L7.6467,5.924l-1.68,-2.82l-0.06,-0.18l-0.12,0.18l-3.78,6.42l-0.06,0.06l0.06,0.06l1.62,2.76l0.12,0.18l0.12,-0.18L7.6467,5.924L7.6467,5.924z" fill="#FFFFFF"/>
  </g>
</svg>
