<?xml version="1.0" encoding="UTF-8"?>
<!DOCTYPE svg PUBLIC "-//W3C//DTD SVG 1.1//EN" "http://www.w3.org/Graphics/SVG/1.1/DTD/svg11.dtd">
<svg version="1.1" id="Layer_1" xmlns="http://www.w3.org/2000/svg" xmlns:xlink="http://www.w3.org/1999/xlink" x="0px" y="0px" width="16px" height="16px" viewBox="0 0 16 16" enable-background="new 0 0 16 16" xml:space="preserve">
  <g id="icon">
    <path d="M8,0C3.6,0,0,3.55,0,7.95S3.55,15.9,8,15.9c4.4,0,8,-3.55,8,-7.95S12.4,0,8,0zM11.5667,11.464l-3.42,2.04l-3.42,-2.04v-0.72l1.02,0.66l2.4,-1.98l2.4,1.98l1.02,-0.66V11.464zM8.1467,9.004l3.36,-2.1l2.34,1.86l-3.36,2.22L8.1467,9.004l-2.34,1.98l-3.42,-2.22l2.34,-1.86l-2.34,-1.86l3.36,-2.22l2.4,1.98l2.34,-1.98l3.42,2.22l-2.34,1.86l-3.42,-2.1l-3.42,2.1L8.1467,9.004z" fill="#3F7AB5"/>
    <path d="M4.7267,6.904l3.42,2.1l-2.34,1.98l-3.42,-2.22L4.7267,6.904zM5.7467,2.824l-3.36,2.22l2.34,1.86l3.42,-2.1L5.7467,2.824zM13.9067,5.044l-3.42,-2.22l-2.34,1.98l3.42,2.1L13.9067,5.044zM8.1467,9.004l2.34,1.98l3.36,-2.22l-2.34,-1.86L8.1467,9.004zM8.1467,9.424l-2.4,1.98l-1.02,-0.66v0.72l3.42,2.04l3.42,-2.04v-0.72l-1.02,0.66L8.1467,9.424z" fill="#FFFFFF"/>
  </g>
</svg>
