<?xml version="1.0" encoding="UTF-8"?>
<!DOCTYPE svg PUBLIC "-//W3C//DTD SVG 1.1//EN" "http://www.w3.org/Graphics/SVG/1.1/DTD/svg11.dtd">
<svg version="1.1" id="Layer_1" xmlns="http://www.w3.org/2000/svg" xmlns:xlink="http://www.w3.org/1999/xlink" x="0px" y="0px" width="16px" height="16px" viewBox="0 0 16 16" enable-background="new 0 0 16 16" xml:space="preserve">
  <g id="icon">
    <path d="M8.8067,11.564c-0.12,-0.12,-0.12,-0.24,0,-0.36c0.12,-0.12,0.3,-0.3,0.54,-0.36c0.18,-0.06,0.3,-0.06,0.48,-0.06s0.36,0,0.54,0.12c0.12,0.12,0.24,0.3,0.24,0.42c0.06,0.12,0,0.18,-0.06,0.24c-0.06,0.06,-0.12,0,-0.18,-0.12c-0.06,-0.12,-0.12,-0.3,-0.54,-0.3s-0.54,0.12,-0.72,0.3C8.9267,11.624,8.8667,11.684,8.8067,11.564zM10.7267,11.924c-0.18,0.12,-0.72,0.36,-1.44,0.36c-0.78,0,-1.08,-0.12,-1.32,-0.3c-0.06,0,-0.06,0,-0.12,0c-0.06,0,-0.12,0,-0.18,0.06c-0.06,0.06,-0.06,0.18,0,0.24c0.48,0.48,1.32,0.42,1.92,0.36c0.6,-0.06,1.14,-0.42,1.2,-0.48s0.06,-0.12,0.12,-0.18C10.8467,11.924,10.8467,11.864,10.7267,11.924zM7.0667,7.904c-1.02,0,-1.86,0.84,-1.86,1.74c-0.06,0.54,0.12,0.9,0.48,1.14c0.24,0.12,0.48,0.24,1.14,0.24c1.08,0,2.52,-1.38,3.18,-1.38c0.48,0,1.32,1.26,1.74,1.32c0.36,0,0.54,-0.12,0.78,-0.54c0.24,-0.36,0.36,-1.02,0.36,-1.38c0,-0.36,-0.18,-0.96,-0.72,-0.96c-0.48,0,-1.62,1.14,-2.16,1.14C9.3467,9.224,8.3867,7.904,7.0667,7.904zM16,8c0,4.4,-3.6,8,-8,8S0,12.4,0,8S3.6,0,8,0S16,3.6,16,8zM13.2467,8.264c0.06,-3,-2.16,-4.38,-2.58,-4.62c-0.6,-0.36,-1.2,-0.54,-1.74,-0.9c-0.36,-0.24,-0.84,-0.84,-1.26,-1.32c-0.06,0.78,-0.3,1.14,-0.6,1.32c-0.6,0.48,-0.96,0.6,-1.44,0.9c-0.42,0.24,-2.7,1.62,-2.7,4.56s2.46,5.1,5.22,5.1S13.2467,11.264,13.2467,8.264z" fill="#539FBF"/>
    <path d="M10.6667,3.644c-0.6,-0.36,-1.2,-0.54,-1.74,-0.9c-0.36,-0.24,-0.84,-0.84,-1.26,-1.32c-0.06,0.78,-0.3,1.14,-0.6,1.32c-0.6,0.48,-0.96,0.6,-1.44,0.9c-0.42,0.24,-2.7,1.62,-2.7,4.56s2.46,5.1,5.22,5.1s5.1,-2.04,5.1,-5.04C13.3067,5.264,11.0867,3.884,10.6667,3.644L10.6667,3.644zM10.7867,12.164c-0.06,0.06,-0.6,0.42,-1.2,0.48c-0.6,0.06,-1.44,0.12,-1.92,-0.36c-0.06,-0.06,-0.06,-0.18,0,-0.24c0.06,-0.06,0.12,-0.06,0.18,-0.06c0.06,0,0.06,0,0.12,0c0.24,0.18,0.54,0.3,1.32,0.3c0.72,0,1.26,-0.24,1.44,-0.36c0.12,-0.06,0.12,0,0.18,0.06C10.8467,12.044,10.8467,12.104,10.7867,12.164L10.7867,12.164zM8.8067,11.204c0.12,-0.12,0.3,-0.3,0.54,-0.36c0.18,-0.06,0.3,-0.06,0.48,-0.06s0.36,0,0.54,0.12c0.12,0.12,0.24,0.3,0.24,0.42c0.06,0.12,0,0.18,-0.06,0.24c-0.06,0.06,-0.12,0,-0.18,-0.12c-0.06,-0.12,-0.12,-0.3,-0.54,-0.3s-0.54,0.12,-0.72,0.3c-0.18,0.18,-0.24,0.24,-0.3,0.12C8.6867,11.444,8.6867,11.324,8.8067,11.204L8.8067,11.204zM12.8867,9.044c0,0.36,-0.12,1.02,-0.36,1.38c-0.24,0.42,-0.42,0.54,-0.78,0.54c-0.42,-0.06,-1.26,-1.32,-1.74,-1.32c-0.66,0,-2.1,1.38,-3.18,1.38c-0.66,0,-0.9,-0.12,-1.14,-0.24c-0.36,-0.24,-0.54,-0.6,-0.48,-1.14c0,-0.9,0.84,-1.74,1.86,-1.74c1.32,0,2.28,1.32,2.94,1.32c0.54,0,1.68,-1.14,2.16,-1.14C12.7067,8.084,12.8867,8.684,12.8867,9.044L12.8867,9.044z" fill="#FFFFFF"/>
  </g>
</svg>
