<?xml version="1.0" encoding="UTF-8"?>
<!DOCTYPE svg PUBLIC "-//W3C//DTD SVG 1.1//EN" "http://www.w3.org/Graphics/SVG/1.1/DTD/svg11.dtd">
<svg version="1.1" id="Layer_1" xmlns="http://www.w3.org/2000/svg" xmlns:xlink="http://www.w3.org/1999/xlink" x="0px" y="0px" width="16px" height="16px" viewBox="0 0 16 16" enable-background="new 0 0 16 16" xml:space="preserve">
  <g id="icon">
    <path d="M3.9689,7.6766H2.0228c0,-0.617,0.5004,-0.9872,1.0008,-0.9872C3.5797,6.6894,3.9689,6.9979,3.9689,7.6766zM6.471,6.6894c-0.7228,0,-1.0564,0.617,-1.0564,1.234c0,0.617,0.3892,1.234,1.0564,1.234c0.556,0,1.0564,-0.4936,1.0564,-1.234C7.5274,7.2447,7.1382,6.6894,6.471,6.6894zM16,8c0,4.4,-3.6,8,-8,8S0,12.4,0,8S3.6,0,8,0S16,3.6,16,8zM14.7,6.1957l-0.6672,0.1234l-1.1676,2.5298l-1.1676,-2.5298h-0.7784l0.2224,0.4319c-0.278,-0.4319,-0.7784,-0.617,-1.2788,-0.617c-1.4456,0,-1.5012,0.8638,-1.5012,0.9872h0.7228c0,0,0,-0.4936,0.7228,-0.4936c0.4448,0,0.834,0.2468,0.834,0.7404v0.1234h-0.7784c-0.9452,0,-1.5012,0.2468,-1.668,0.8021c0,-0.1234,0,-0.2468,0,-0.3702c0,-0.9872,-0.6116,-1.7277,-1.6124,-1.7277c-0.9452,0,-1.2232,0.5553,-1.2232,0.5553V4.9h-0.6672v2.8383c-0.0556,-0.617,-0.3892,-1.5426,-1.668,-1.5426C2.0784,6.1957,1.3,6.6277,1.3,7.9851c0,1.0489,0.556,1.7277,1.7793,1.7277c1.4456,0,1.5568,-1.0489,1.5568,-1.0489h-0.7228c0,0,-0.1668,0.5553,-0.8896,0.5553c-0.6116,0,-1.0008,-0.4936,-1.0008,-1.1106h2.7245v0.9255c0,0.2468,-0.0556,0.617,-0.0556,0.617h0.6672c0,0,0,-0.2468,0,-0.4936c0,0,0.3336,0.5553,1.2232,0.5553c0.7784,0,1.3344,-0.4936,1.5012,-1.234c0,0.0617,0,0.0617,0,0.1234c0,0.7404,0.556,1.1106,1.2788,1.1106c1.0008,0,1.3344,-0.617,1.3344,-0.617c0,0.2468,0,0.4936,0,0.4936h0.6116c0,0,0,-0.3702,0,-0.5553v-1.666c0,-0.2468,-0.0556,-0.4319,-0.1112,-0.5553l1.2788,2.6532L11.8643,10.7h0.7784L14.7,6.1957zM8.8618,8.6021c0,0.3085,0.2224,0.617,0.7228,0.617c0.8896,0,1.0564,-0.6787,1.0564,-0.9872v-0.2468C9.6402,7.9851,8.8618,7.9851,8.8618,8.6021z" fill="#CE4D32"/>
    <path d="M14.0328,6.3191l-1.1676,2.5298l-1.1676,-2.5298h-0.7784l0.2224,0.4319c-0.278,-0.4319,-0.7784,-0.617,-1.2788,-0.617c-1.4456,0,-1.5012,0.8638,-1.5012,0.9872h0.7228c0,0,0,-0.4936,0.7228,-0.4936c0.4448,0,0.834,0.2468,0.834,0.7404v0.1234h-0.7784c-0.9452,0,-1.5012,0.2468,-1.668,0.8021c0,-0.1234,0,-0.2468,0,-0.3702c0,-0.9872,-0.6116,-1.7277,-1.6124,-1.7277c-0.9452,0,-1.2232,0.5553,-1.2232,0.5553V4.9h-0.6672v2.8383c-0.0556,-0.617,-0.3892,-1.5426,-1.668,-1.5426C2.0784,6.1957,1.3,6.6277,1.3,7.9851c0,1.0489,0.556,1.7277,1.7793,1.7277c1.4456,0,1.5568,-1.0489,1.5568,-1.0489h-0.7228c0,0,-0.1668,0.5553,-0.8896,0.5553c-0.6116,0,-1.0008,-0.4936,-1.0008,-1.1106h2.7245v0.9255c0,0.2468,-0.0556,0.617,-0.0556,0.617h0.6672c0,0,0,-0.2468,0,-0.4936c0,0,0.3336,0.5553,1.2232,0.5553c0.7784,0,1.3344,-0.4936,1.5012,-1.234c0,0.0617,0,0.0617,0,0.1234c0,0.7404,0.556,1.1106,1.2788,1.1106c1.0008,0,1.3344,-0.617,1.3344,-0.617c0,0.2468,0,0.4936,0,0.4936h0.6116c0,0,0,-0.3702,0,-0.5553v-1.666c0,-0.2468,-0.0556,-0.4319,-0.1112,-0.5553l1.2788,2.6532L11.8643,10.7h0.7784L14.7,6.1957L14.0328,6.3191L14.0328,6.3191zM2.0228,7.6766c0,-0.617,0.5004,-0.9872,1.0008,-0.9872c0.556,0,0.9452,0.3085,0.9452,0.9872H2.0228zM6.471,9.1574c-0.6672,0,-1.0564,-0.617,-1.0564,-1.234c0,-0.617,0.3336,-1.234,1.0564,-1.234l0,0c0.6672,0,1.0564,0.5553,1.0564,1.234C7.5274,8.6638,7.027,9.1574,6.471,9.1574zM10.6411,8.2319c0,0.3085,-0.1668,0.9872,-1.0564,0.9872c-0.5004,0,-0.7228,-0.3085,-0.7228,-0.617c0,-0.617,0.7784,-0.617,1.7793,-0.617V8.2319L10.6411,8.2319z" fill="#FFFFFF"/>
  </g>
</svg>
