<?xml version="1.0" encoding="UTF-8"?>
<!DOCTYPE svg PUBLIC "-//W3C//DTD SVG 1.1//EN" "http://www.w3.org/Graphics/SVG/1.1/DTD/svg11.dtd">
<svg version="1.1" id="Layer_1" xmlns="http://www.w3.org/2000/svg" xmlns:xlink="http://www.w3.org/1999/xlink" x="0px" y="0px" width="16px" height="16px" viewBox="0 0 16 16" enable-background="new 0 0 16 16" xml:space="preserve">
  <g id="icon">
    <path d="M8,0C3.6,0,0,3.6,0,8s3.6,8,8,8s8,-3.6,8,-8S12.4,0,8,0zM10.4667,10.884c-0.42,0,-0.78,-0.12,-0.96,-0.36c-0.12,-0.12,-0.24,-0.3,-0.3,-0.54l-0.06,-0.18l-0.12,0.12c-0.6,0.72,-1.38,1.08,-2.34,1.08c-1.02,0,-2.04,-0.78,-2.04,-2.22c0,-1.02,0.42,-2.04,1.2,-2.82c0.84,-0.78,1.92,-1.2,3.12,-1.2c0.54,0,1.14,0.06,1.62,0.24c0.24,0.06,0.36,0.3,0.36,0.54l-0.54,2.7c-0.12,0.54,-0.24,1.2,-0.06,1.44c0.06,0.06,0.12,0.12,0.3,0.12h0.06c0.78,0,1.62,-1.08,1.62,-2.7c0,-2.34,-1.5,-3.78,-3.9,-3.78c-2.82,0,-4.86,2.1,-4.86,5.04c0,2.46,1.68,4.08,4.14,4.08c0.72,0,1.56,-0.18,2.22,-0.42c0,0,0,0,0.06,0c0.12,0,0.18,0.18,0.3,0.36v0.06c0,0,0,0.06,0.06,0.06c0.06,0.12,0.12,0.3,0.12,0.36s-0.06,0.12,-0.18,0.12c-0.78,0.42,-1.62,0.54,-2.7,0.54c-1.38,0,-2.7,-0.48,-3.66,-1.32c-1.02,-0.9,-1.56,-2.22,-1.56,-3.66c0,-1.62,0.6,-3.18,1.68,-4.32c1.14,-1.2,2.76,-1.86,4.56,-1.86c1.44,0,2.7,0.48,3.6,1.32s1.38,2.04,1.38,3.36C13.5867,9.564,12.0267,10.884,10.4667,10.884zM9.4467,6.144c0.06,0.06,0.06,0.12,0.06,0.18l-0.3,1.44c-0.18,0.9,-1.08,1.98,-1.92,1.98c-0.9,0,-0.96,-0.78,-0.96,-1.02c0,-1.44,1.14,-2.64,2.52,-2.64c0.12,0,0.3,0,0.48,-0.06C9.3867,6.084,9.3867,6.084,9.4467,6.144z" fill="#8C54A2"/>
    <path d="M7.5867,13.524c-1.38,0,-2.7,-0.48,-3.66,-1.32c-1.02,-0.9,-1.56,-2.22,-1.56,-3.66c0,-1.62,0.6,-3.18,1.68,-4.32c1.14,-1.2,2.76,-1.86,4.56,-1.86c1.44,0,2.7,0.48,3.6,1.32s1.38,2.04,1.38,3.36c0,2.52,-1.56,3.84,-3.12,3.84c-0.42,0,-0.78,-0.12,-0.96,-0.36c-0.12,-0.12,-0.24,-0.3,-0.3,-0.54l-0.06,-0.18l-0.12,0.12c-0.6,0.72,-1.38,1.08,-2.34,1.08c-1.02,0,-2.04,-0.78,-2.04,-2.22c0,-1.02,0.42,-2.04,1.2,-2.82c0.84,-0.78,1.92,-1.2,3.12,-1.2c0.54,0,1.14,0.06,1.62,0.24c0.24,0.06,0.36,0.3,0.36,0.54l-0.54,2.7c-0.12,0.54,-0.24,1.2,-0.06,1.44c0.06,0.06,0.12,0.12,0.3,0.12h0.06c0.78,0,1.62,-1.08,1.62,-2.7c0,-2.34,-1.5,-3.78,-3.9,-3.78c-2.82,0,-4.86,2.1,-4.86,5.04c0,2.46,1.68,4.08,4.14,4.08c0.72,0,1.56,-0.18,2.22,-0.42c0,0,0,0,0.06,0c0.12,0,0.18,0.18,0.3,0.36v0.06c0,0,0,0.06,0.06,0.06c0.06,0.12,0.12,0.3,0.12,0.36s-0.06,0.12,-0.18,0.12C9.5067,13.404,8.6667,13.524,7.5867,13.524zM8.8467,6.084c-1.38,0,-2.52,1.2,-2.52,2.64c0,0.24,0.06,1.02,0.96,1.02c0.84,0,1.74,-1.08,1.92,-1.98l0.3,-1.44c0,-0.06,0,-0.12,-0.06,-0.18c-0.06,-0.06,-0.06,-0.06,-0.12,-0.12C9.1467,6.084,8.9667,6.084,8.8467,6.084z" fill="#FFFFFF"/>
  </g>
</svg>
