<?xml version="1.0" encoding="UTF-8"?>
<!DOCTYPE svg PUBLIC "-//W3C//DTD SVG 1.1//EN" "http://www.w3.org/Graphics/SVG/1.1/DTD/svg11.dtd">
<svg version="1.1" id="Layer_1" xmlns="http://www.w3.org/2000/svg" xmlns:xlink="http://www.w3.org/1999/xlink" x="0px" y="0px" width="16px" height="16px" viewBox="0 0 16 16" enable-background="new 0 0 16 16" xml:space="preserve">
  <g id="icon">
    <path d="M8,0C3.6,0,0,3.6,0,8s3.6,8,8,8s8,-3.6,8,-8S12.4,0,8,0zM11.8836,10.8644c-1.2532,2.3355,-4.1583,3.19,-6.4938,1.8798c-2.3355,-1.2532,-3.19,-4.2153,-1.8798,-6.4938c0.2279,-0.4557,0.6266,-0.9114,0.7405,-0.9684c0.1139,-0.057,0.2848,0.1139,0.2279,0.2279c-0.4557,1.538,0.1709,3.4178,0.2848,3.5887c0.1139,0.2279,0.2279,0.1139,0.2279,0.057c0.1139,-3.133,1.7659,-5.1267,3.7026,-6.4369c0.2279,-0.1709,1.9937,-0.4557,2.3355,-0.2848C11.9405,2.9464,13.3077,8.2441,11.8836,10.8644z" fill="#4EA17E"/>
    <path d="M11.0291,2.4338c-0.3418,-0.1709,-2.1077,0.1139,-2.3355,0.2848C6.7568,4.0288,5.1049,6.0225,4.991,9.1555c0,0.057,-0.1139,0.1709,-0.2279,-0.057c-0.1139,-0.1709,-0.7405,-2.0507,-0.2848,-3.5887c0.057,-0.1139,-0.1139,-0.2848,-0.2279,-0.2279c-0.1139,0.057,-0.5127,0.5127,-0.7405,0.9684c-1.3102,2.2785,-0.4557,5.2406,1.8798,6.4938c2.3355,1.3102,5.2406,0.4557,6.4938,-1.8798C13.3077,8.2441,11.9405,2.9464,11.0291,2.4338L11.0291,2.4338z" fill="#FFFFFF"/>
  </g>
</svg>
