<?xml version="1.0" encoding="UTF-8"?>
<!DOCTYPE svg PUBLIC "-//W3C//DTD SVG 1.1//EN" "http://www.w3.org/Graphics/SVG/1.1/DTD/svg11.dtd">
<svg version="1.1" id="Layer_1" xmlns="http://www.w3.org/2000/svg" xmlns:xlink="http://www.w3.org/1999/xlink" x="0px" y="0px" width="16px" height="16px" viewBox="0 0 16 16" enable-background="new 0 0 16 16" xml:space="preserve">
  <g id="icon">
    <path d="M8,0C3.6,0,0,3.6,0,8s3.6,8,8,8s8,-3.6,8,-8S12.4,0,8,0zM11.7625,12.6688c0,0,-1.7438,-0.0563,-2.475,-0.0563H5.9688L4,12.6688v-0.5063l0.675,-0.1125c0.45,-0.1125,0.6188,-0.225,0.6188,-0.6188c0,0,0.0563,-1.2938,0.0563,-3.375s-0.0563,-3.375,-0.0563,-3.375c-0.0563,-0.45,-0.1688,-0.5063,-0.6188,-0.6188L4,3.8938v-0.5063L5.9688,3.5h3.7125c0.7313,0,2.0813,-0.1688,2.0813,-0.1688s-0.0563,0.7875,-0.1688,2.6438h-0.5063L10.9188,5.3c-0.225,-0.7875,-0.5063,-1.2375,-1.0125,-1.2375h-2.925c-0.225,0,-0.225,0.1125,-0.225,0.225v3.4313c0,0,1.2938,0,1.8,-0.0563s0.5625,-0.1125,0.675,-0.6188L9.4,6.3125h0.5625L9.9063,8l0.0563,1.6875H9.4l-0.1688,-0.675c-0.1125,-0.5063,-0.3375,-0.6188,-0.675,-0.6188C8.1063,8.3375,6.7,8.3375,6.7,8.3375v2.8688c0,0.5063,0.3375,0.7875,0.9563,0.7875h1.9125c0.6188,0,1.1813,-0.0563,1.575,-0.9563l0.5063,-1.125h0.45C12.0438,10.1375,11.8188,12.2188,11.7625,12.6688z" fill="#E78155"/>
    <path d="M6.7563,7.7188V4.2875c0,-0.1125,0,-0.225,0.225,-0.225h2.925c0.5063,0,0.7875,0.45,1.0125,1.2375l0.1688,0.675h0.5063c0.1125,-1.8563,0.1688,-2.6438,0.1688,-2.6438S10.4125,3.5,9.6813,3.5H5.9688L4,3.3875v0.5063l0.675,0.1688c0.45,0.1125,0.5625,0.1688,0.6188,0.6188c0,0,0.0563,1.2938,0.0563,3.375s-0.0563,3.375,-0.0563,3.375c0,0.3938,-0.1688,0.5063,-0.6188,0.6188L4,12.1625v0.5063l1.9688,-0.0563h3.3188c0.7313,0,2.475,0.0563,2.475,0.0563c0.0563,-0.45,0.2813,-2.5313,0.3375,-2.7563h-0.45l-0.5063,1.125c-0.3938,0.9,-0.9563,0.9563,-1.575,0.9563H7.6563c-0.6188,0,-0.9563,-0.2813,-0.9563,-0.7875V8.3375c0,0,1.4063,0,1.8563,0.0563c0.3375,0,0.5625,0.1125,0.675,0.6188L9.4,9.6875h0.5625L9.9063,8l0.0563,-1.6875H9.4l-0.1688,0.7313c-0.1125,0.5063,-0.1688,0.5625,-0.675,0.6188S6.7563,7.7188,6.7563,7.7188L6.7563,7.7188L6.7563,7.7188L6.7563,7.7188L6.7563,7.7188z" fill="#FFFFFF"/>
  </g>
</svg>
