<?xml version="1.0" encoding="UTF-8"?>
<!DOCTYPE svg PUBLIC "-//W3C//DTD SVG 1.1//EN" "http://www.w3.org/Graphics/SVG/1.1/DTD/svg11.dtd">
<svg version="1.1" id="Layer_1" xmlns="http://www.w3.org/2000/svg" xmlns:xlink="http://www.w3.org/1999/xlink" x="0px" y="0px" width="16px" height="16px" viewBox="0 0 16 16" enable-background="new 0 0 16 16" xml:space="preserve">
  <g id="icon">
    <path d="M10.541,8.141c-0.1092,-0.0546,-0.2731,-0.1092,-0.4369,-0.0546c-0.1092,-0.0546,-0.1638,-0.0546,-0.2731,-0.0546c-0.1092,0,-0.1638,0,-0.2731,0c-0.0546,0,-0.0546,0,-0.1092,0c0.0546,-0.2731,0.1638,-0.6008,0.4915,-0.6554h0.0546C10.4864,7.3764,10.541,7.8133,10.541,8.141zM16,8c0,4.4,-3.6,8,-8,8S0,12.4,0,8S3.6,0,8,0S16,3.6,16,8zM3.3865,5.1918c0.0546,0,0.1092,-0.0546,0.1092,-0.0546c0.1638,-0.0546,0.3823,-0.1092,0.6008,-0.1092h0.9831c0.0546,0,0.1092,-0.0546,0.1092,-0.1092c0,0,0,-0.8738,0,-1.0923c0,-0.1638,0.0546,-0.3277,0.0546,-0.4915L3.3865,5.1918zM11.8518,4.8641c-0.0546,-0.4369,-0.3277,-0.6008,-0.5461,-0.71c-0.2185,-0.1092,-0.7646,-0.2185,-1.3654,-0.2731c-0.5461,-0.0546,-1.0923,-0.0546,-1.4746,-0.0546c-0.0546,-0.3277,-0.2185,-0.5461,-0.4915,-0.6554c-0.6008,-0.2731,-1.5292,-0.2185,-1.7477,-0.2185c-0.2185,0.0546,-0.4369,0.1638,-0.5461,0.3277c-0.0546,0.1638,-0.1092,0.2731,-0.1092,0.4915c0,0.1638,0,0.4369,0,0.6554s0,0.4369,0,0.4369c0,0.2185,-0.1638,0.3823,-0.3823,0.3823h-0.9831c-0.2185,0,-0.3823,0.0546,-0.4915,0.1092c-0.1092,0.0546,-0.2185,0.1092,-0.2731,0.2185c-0.1638,0.1638,-0.1638,0.3823,-0.1638,0.6008c0,0,0,0.1638,0.0546,0.5461c0,0.2731,0.3277,2.1846,0.6008,2.7854c0.1092,0.2185,0.1638,0.3277,0.3823,0.4369c0.4369,0.2185,1.5838,0.4369,2.0754,0.4915c0.5461,0.0546,0.8192,0.1638,1.0377,-0.2185c0,-0.0546,0.0546,-0.1092,0.1092,-0.2731c0.1638,-0.4915,0.1638,-0.9285,0.1638,-1.2561c0,-0.0546,0.0546,-0.0546,0.0546,0c0,0.2185,-0.0546,1.0377,0.5461,1.2561c0.2185,0.1092,0.7646,0.1638,1.2561,0.2185c0.4915,0.0546,0.8192,0.2185,0.8192,1.42c0,0.71,-0.1638,0.8192,-0.9285,0.8192c-0.6554,0,-0.8738,0,-0.8738,-0.4915c0,-0.4369,0.3823,-0.3823,0.71,-0.3823c0.1638,0,0.0546,-0.0546,0.0546,-0.3277c0,-0.2185,0.1638,-0.3823,0,-0.3823c-1.0377,0,-1.6384,0,-1.6384,1.3108c0,1.2015,0.4369,1.42,1.9115,1.42c1.1469,0,1.5292,-0.0546,2.0207,-1.5292c0.0546,-0.2731,0.2731,-1.1469,0.4369,-2.6761C12.1795,8.414,11.961,5.5741,11.8518,4.8641z" fill="#4EA17E"/>
    <path d="M3.4957,5.1371c0,0,-0.0546,0.0546,-0.1092,0.0546l0,0L5.298,3.2802l0,0l-0.0546,0.0546c0,0.1638,-0.0546,0.3277,-0.0546,0.4915l0,0c0,0.2185,0,1.0923,0,1.0923c0,0.0546,-0.0546,0.1092,-0.1092,0.1092h-0.9831l0,0C3.878,5.0279,3.6596,5.0825,3.4957,5.1371zM12.0702,9.3425c-0.1638,1.5292,-0.3823,2.403,-0.4369,2.6761c-0.4915,1.4746,-0.8738,1.5292,-2.0207,1.5292c-1.4746,0,-1.9115,-0.2185,-1.9115,-1.42c0,-1.3108,0.6008,-1.3108,1.6384,-1.3108c0.1638,0,0,0.1638,0,0.3823c0,0.2731,0.1092,0.3277,-0.0546,0.3277c-0.3277,0,-0.71,-0.0546,-0.71,0.3823c0,0.4915,0.2185,0.4915,0.8738,0.4915c0.7646,0,0.9285,-0.1092,0.9285,-0.8192c0,-1.2015,-0.3277,-1.3654,-0.8192,-1.42c-0.4915,-0.0546,-1.0377,-0.1092,-1.2561,-0.2185c-0.6008,-0.2185,-0.5461,-1.0377,-0.5461,-1.2561c0,-0.0546,-0.0546,-0.0546,-0.0546,0c0,0.3277,0,0.7646,-0.1638,1.2561c-0.0546,0.1638,-0.1092,0.2185,-0.1092,0.2731c-0.2185,0.3823,-0.4915,0.2731,-1.0377,0.2185c-0.4915,-0.0546,-1.6384,-0.2731,-2.0754,-0.4915c-0.2185,-0.1092,-0.2731,-0.2185,-0.3823,-0.4369c-0.2731,-0.6008,-0.6008,-2.5123,-0.6008,-2.7854c-0.0546,-0.3823,-0.0546,-0.5461,-0.0546,-0.5461c0,-0.2185,0,-0.4369,0.1638,-0.6008c0.0546,-0.1092,0.1638,-0.1638,0.2731,-0.2185c0.1092,-0.0546,0.2731,-0.1092,0.4915,-0.1092h0.9831c0.2185,0,0.3823,-0.1638,0.3823,-0.3823c0,0,0,-0.2185,0,-0.4369s0,-0.4915,0,-0.6554c0,-0.2185,0.0546,-0.3277,0.1092,-0.4915c0.1092,-0.1638,0.3277,-0.2731,0.5461,-0.3277c0.2185,0,1.1469,-0.0546,1.7477,0.2185c0.2731,0.1092,0.4369,0.3277,0.4915,0.6554c0.3823,0,0.9285,0,1.4746,0.0546c0.6008,0.0546,1.1469,0.1638,1.3654,0.2731c0.2185,0.1092,0.4915,0.2731,0.5461,0.71l0,0C11.961,5.5741,12.1795,8.414,12.0702,9.3425zM10.541,8.141L10.541,8.141c0,-0.3277,-0.0546,-0.7646,-0.5461,-0.7646h-0.0546l0,0l0,0c-0.3277,0.0546,-0.4369,0.3823,-0.4915,0.6554l0,0l0,0l0,0c0.0546,0,0.0546,0,0.1092,0l0,0l0,0c0.1092,0,0.1638,0,0.2731,0l0,0l0,0l0,0l0,0c0.1092,0,0.1638,0,0.2731,0.0546C10.2679,8.0317,10.4318,8.0863,10.541,8.141L10.541,8.141z" fill="#FFFFFF"/>
  </g>
</svg>
