<?xml version="1.0" encoding="UTF-8"?>
<!DOCTYPE svg PUBLIC "-//W3C//DTD SVG 1.1//EN" "http://www.w3.org/Graphics/SVG/1.1/DTD/svg11.dtd">
<svg version="1.1" id="Layer_1" xmlns="http://www.w3.org/2000/svg" xmlns:xlink="http://www.w3.org/1999/xlink" x="0px" y="0px" width="16px" height="16px" viewBox="0 0 16 16" enable-background="new 0 0 16 16" xml:space="preserve">
  <g id="icon">
    <path d="M8,0C3.6,0,0,3.6,0,8s3.6,8,8,8s8,-3.6,8,-8S12.4,0,8,0zM10.1867,8.124h-1.56l0.06,5.58l0,0h-2.34v-5.58h-1.02v-1.92h1.02v-1.14c0,-1.56,0.66,-2.52,2.52,-2.52h1.5v1.92h-0.9c-0.72,0,-0.78,0.3,-0.78,0.78v0.96h1.74L10.1867,8.124z" fill="#3F7AB5"/>
    <path d="M8.6867,13.704h-2.34v-5.58h-1.02v-1.92h1.02v-1.14c0,-1.56,0.66,-2.52,2.52,-2.52h1.5v1.92h-0.9c-0.72,0,-0.78,0.3,-0.78,0.78v0.96h1.74l-0.24,1.92h-1.56L8.6867,13.704C8.6267,13.704,8.6867,13.704,8.6867,13.704z" fill="#FFFFFF"/>
  </g>
</svg>
