<?xml version="1.0" encoding="UTF-8"?>
<!DOCTYPE svg PUBLIC "-//W3C//DTD SVG 1.1//EN" "http://www.w3.org/Graphics/SVG/1.1/DTD/svg11.dtd">
<svg version="1.1" id="Layer_1" xmlns="http://www.w3.org/2000/svg" xmlns:xlink="http://www.w3.org/1999/xlink" x="0px" y="0px" width="16px" height="16px" viewBox="0 0 16 16" enable-background="new 0 0 16 16" xml:space="preserve">
  <g id="icon">
    <path d="M8,0C3.6,0,0,3.6,0,8s3.6,8,8,8s8,-3.6,8,-8S12.4,0,8,0zM5.0366,10.3366C3.7258,10.3366,2.7,9.3108,2.7,8s1.0828,-2.3366,2.3366,-2.3366c1.3108,0,2.3366,1.0258,2.3366,2.3366S6.3473,10.3366,5.0366,10.3366zM10.9634,10.3366c-1.3108,0,-2.3366,-1.0258,-2.3366,-2.3366s1.0258,-2.3366,2.3366,-2.3366S13.3,6.6892,13.3,8S12.2742,10.3366,10.9634,10.3366z" fill="#D670AC"/>
    <path d="M5.0366,5.6634c1.3108,0,2.3366,1.0258,2.3366,2.3366s-1.0258,2.3366,-2.3366,2.3366S2.7,9.3108,2.7,8S3.7828,5.6634,5.0366,5.6634L5.0366,5.6634zM10.9634,5.6634C12.2742,5.6634,13.3,6.6892,13.3,8s-1.0258,2.3366,-2.3366,2.3366S8.6269,9.3108,8.6269,8S9.6527,5.6634,10.9634,5.6634z" fill="#FFFFFF"/>
  </g>
</svg>
