<?xml version="1.0" encoding="UTF-8"?>
<!DOCTYPE svg PUBLIC "-//W3C//DTD SVG 1.1//EN" "http://www.w3.org/Graphics/SVG/1.1/DTD/svg11.dtd">
<svg version="1.1" id="Layer_1" xmlns="http://www.w3.org/2000/svg" xmlns:xlink="http://www.w3.org/1999/xlink" x="0px" y="0px" width="16px" height="16px" viewBox="0 0 16 16" enable-background="new 0 0 16 16" xml:space="preserve">
  <g id="icon">
    <path d="M8,0C3.6,0,0,3.6,0,8s3.6,8,8,8s8,-3.6,8,-8S12.4,0,8,0zM9.4432,10.0602c0.2206,0.2206,0.4412,0.6066,0.4412,1.2684c0,0.8824,0,1.6545,0,1.8751c0,0.0551,0,0.1654,0.1654,0.2757C9.5535,13.6449,8.9469,13.7,8.3954,13.7c-0.6618,0,-1.2684,-0.1103,-1.8751,-0.2757c0.0551,-0.0551,0.0551,-0.1103,0.0551,-0.1654c0,-0.1654,0,-0.7169,0,-1.2684c-1.9302,0.386,-2.3162,-0.8272,-2.3162,-0.8272c-0.3309,-0.7721,-0.7721,-0.9927,-0.7721,-0.9927c-0.6066,-0.4412,0.0551,-0.4412,0.0551,-0.4412c0.6618,0.0551,1.0478,0.7169,1.0478,0.7169c0.6066,1.0478,1.5993,0.7169,1.9854,0.5515c0.0551,-0.4412,0.2206,-0.7721,0.4412,-0.9375c-1.5442,-0.1654,-3.1435,-0.7721,-3.1435,-3.4192c0,-0.7169,0.2757,-1.3236,0.7169,-1.8199c-0.1103,-0.1654,-0.3309,-0.8824,0.0551,-1.8199c0,0,0.5515,-0.1654,1.8751,0.7169c0.5515,-0.1654,1.103,-0.2206,1.7096,-0.2206c0.5515,0,1.1581,0.0551,1.7096,0.2206c1.3236,-0.8824,1.8751,-0.7169,1.8751,-0.7169c0.386,0.9375,0.1103,1.6545,0.0551,1.8199c0.4412,0.4412,0.7169,1.0478,0.7169,1.8199C12.5867,9.2881,10.9874,9.8947,9.4432,10.0602z" fill="#7A7A7A"/>
    <path d="M9.8844,13.2037c0,-0.2206,0,-0.9927,0,-1.8751c0,-0.6618,-0.2206,-1.0478,-0.4412,-1.2684c1.5442,-0.1654,3.1435,-0.7721,3.1435,-3.4192c0,-0.7721,-0.2757,-1.3787,-0.7169,-1.8199c0.0551,-0.1654,0.3309,-0.8824,-0.0551,-1.8199c0,0,-0.5515,-0.1654,-1.8751,0.7169c-0.5515,-0.1654,-1.1581,-0.2206,-1.7096,-0.2206c-0.6066,0,-1.1581,0.0551,-1.7096,0.2206c-1.3236,-0.8824,-1.8751,-0.7169,-1.8751,-0.7169c-0.386,0.9375,-0.1654,1.6545,-0.0551,1.8199c-0.4412,0.4963,-0.7169,1.103,-0.7169,1.8199c0,2.6471,1.5993,3.2538,3.1435,3.4192c-0.2206,0.1654,-0.386,0.4963,-0.4412,0.9375c-0.386,0.1654,-1.3787,0.4963,-1.9854,-0.5515c0,0,-0.386,-0.6618,-1.0478,-0.7169c0,0,-0.6618,0,-0.0551,0.4412c0,0,0.4412,0.2206,0.7721,0.9927c0,0,0.386,1.2133,2.3162,0.8272c0,0.5515,0,1.103,0,1.2684c0,0.0551,0,0.1103,-0.0551,0.1654C7.127,13.5897,7.7336,13.7,8.3954,13.7c0.5515,0,1.1581,-0.0551,1.6545,-0.2206C9.8844,13.3691,9.8844,13.2588,9.8844,13.2037z" fill="#FFFFFF"/>
  </g>
</svg>
