<?xml version="1.0" encoding="UTF-8"?>
<!DOCTYPE svg PUBLIC "-//W3C//DTD SVG 1.1//EN" "http://www.w3.org/Graphics/SVG/1.1/DTD/svg11.dtd">
<svg version="1.1" id="Layer_1" xmlns="http://www.w3.org/2000/svg" xmlns:xlink="http://www.w3.org/1999/xlink" x="0px" y="0px" width="16px" height="16px" viewBox="0 0 16 16" enable-background="new 0 0 16 16" xml:space="preserve">
  <g id="icon">
    <path d="M8,0C3.6,0,0,3.6,0,8s3.6,8,8,8s8,-3.6,8,-8S12.4,0,8,0zM8.689,10.485c-0.9236,1.2123,-2.7132,1.5587,-4.0987,1.0968c-1.5009,-0.5196,-2.5978,-2.0205,-2.54,-3.5791C1.9926,6.04,3.6667,4.2504,5.6872,4.1927c0.9814,-0.0577,1.9628,0.2886,2.7132,0.9236c-0.2886,0.3464,-0.635,0.6927,-0.9814,0.9814c-0.6927,-0.4041,-1.5009,-0.6927,-2.3091,-0.4041c-1.27,0.3464,-2.0205,1.8473,-1.5587,3.0596c0.4041,1.27,1.9628,1.9628,3.175,1.4432c0.635,-0.2309,1.0391,-0.8082,1.2123,-1.4432c-0.7505,0,-1.4432,0,-2.1937,0c0,-0.4041,0,-0.8659,0,-1.27c1.27,-0.0577,2.4823,-0.0577,3.6946,-0.0577C9.4972,8.4645,9.3818,9.6191,8.689,10.485zM14,8.5223c-0.3464,0,-0.7505,0,-1.0968,0c0,0.3464,0,0.7505,0,1.0968c-0.3464,0,-0.7505,0,-1.0968,0c0,-0.3464,0,-0.7505,0,-1.0968c-0.3464,0,-0.6927,0,-1.0968,0c0,-0.3464,0,-0.7505,0,-1.0968c0.4041,0,0.7505,0,1.0968,0c0,-0.3464,0,-0.6927,0,-1.0968c0.3464,0,0.7505,0,1.0968,0c0,0.4041,0,0.7505,0,1.0968c0.3464,0,0.6927,0,1.0968,0C14,7.7718,14,8.1759,14,8.5223z" fill="#CE4D32"/>
    <path d="M9.4395,7.4254c0.0577,1.0391,-0.0577,2.1937,-0.7505,3.0596c-0.9236,1.2123,-2.7132,1.5587,-4.0987,1.0968c-1.5009,-0.5196,-2.5978,-2.0205,-2.54,-3.5791C1.9926,6.04,3.6667,4.2504,5.6872,4.1927c0.9814,-0.0577,1.9628,0.2886,2.7132,0.9236c-0.2886,0.3464,-0.635,0.6927,-0.9814,0.9814c-0.6927,-0.4041,-1.5009,-0.6927,-2.3091,-0.4041c-1.27,0.3464,-2.0205,1.8473,-1.5587,3.0596c0.4041,1.27,1.9628,1.9628,3.175,1.4432c0.635,-0.2309,1.0391,-0.8082,1.2123,-1.4432c-0.7505,0,-1.4432,0,-2.1937,0c0,-0.4041,0,-0.8659,0,-1.27C7.0149,7.4254,8.2272,7.4254,9.4395,7.4254zM12.9032,7.4254c0,-0.3464,0,-0.6927,0,-1.0968c-0.3464,0,-0.7505,0,-1.0968,0c0,0.4041,0,0.7505,0,1.0968c-0.3464,0,-0.6927,0,-1.0968,0c0,0.3464,0,0.7505,0,1.0968c0.4041,0,0.7505,0,1.0968,0c0,0.3464,0,0.7505,0,1.0968c0.3464,0,0.7505,0,1.0968,0c0,-0.3464,0,-0.7505,0,-1.0968c0.3464,0,0.7505,0,1.0968,0c0,-0.3464,0,-0.7505,0,-1.0968C13.5959,7.4254,13.2495,7.4254,12.9032,7.4254z" fill="#FFFFFF"/>
  </g>
</svg>
