<?xml version="1.0" encoding="UTF-8"?>
<!DOCTYPE svg PUBLIC "-//W3C//DTD SVG 1.1//EN" "http://www.w3.org/Graphics/SVG/1.1/DTD/svg11.dtd">
<svg version="1.1" id="Layer_1" xmlns="http://www.w3.org/2000/svg" xmlns:xlink="http://www.w3.org/1999/xlink" x="0px" y="0px" width="16px" height="16px" viewBox="0 0 16 16" enable-background="new 0 0 16 16" xml:space="preserve">
  <g id="icon">
    <path d="M8,0C3.6,0,0,3.6,0,8s3.6,8,8,8s8,-3.6,8,-8S12.4,0,8,0zM11.9045,11.2896c-1.2464,1.5863,-3.5126,2.0962,-5.3822,1.4164c-1.9829,-0.6232,-3.3993,-2.6628,-3.3993,-4.759c-0.1133,-2.6061,2.1529,-4.9856,4.759,-4.9856c1.3031,-0.1133,2.6061,0.3966,3.6259,1.2464c-0.3966,0.4532,-0.8498,0.9065,-1.2464,1.3031c-0.9065,-0.5099,-1.9263,-0.9631,-2.946,-0.5665c-1.643,0.4532,-2.6628,2.4361,-2.0396,4.0225c0.5099,1.6996,2.5495,2.6061,4.1924,1.9263c0.8498,-0.2833,1.3597,-1.0764,1.643,-1.9263c-0.9631,0,-1.9263,0,-2.8894,-0.0567c0,-0.5665,0,-1.1331,0,-1.6996c1.5297,0.0567,3.116,0.0567,4.7023,0.0567C13.0376,8.6835,12.811,10.1565,11.9045,11.2896z" fill="#4EA17E"/>
    <path d="M12.9243,7.2671c0.1133,1.4164,-0.1133,2.8894,-1.0198,4.0225c-1.2464,1.5863,-3.5126,2.0962,-5.3822,1.4164c-1.9829,-0.6232,-3.3993,-2.6628,-3.3993,-4.759c-0.1133,-2.6061,2.1529,-4.9856,4.759,-4.9856c1.3031,-0.1133,2.6061,0.3966,3.6259,1.2464c-0.3966,0.4532,-0.8498,0.9065,-1.2464,1.3031c-0.9065,-0.5099,-1.9263,-0.9631,-2.946,-0.5665c-1.643,0.4532,-2.6628,2.4361,-2.0396,4.0225c0.5099,1.6996,2.5495,2.6061,4.1924,1.9263c0.8498,-0.2833,1.3597,-1.0764,1.643,-1.9263c-0.9631,0,-1.9263,0,-2.8894,-0.0567c0,-0.5665,0,-1.1331,0,-1.6996C9.7516,7.2671,11.3379,7.2671,12.9243,7.2671z" fill="#FFFFFF"/>
  </g>
</svg>
