<?xml version="1.0" encoding="UTF-8"?>
<!DOCTYPE svg PUBLIC "-//W3C//DTD SVG 1.1//EN" "http://www.w3.org/Graphics/SVG/1.1/DTD/svg11.dtd">
<svg version="1.1" id="Layer_1" xmlns="http://www.w3.org/2000/svg" xmlns:xlink="http://www.w3.org/1999/xlink" x="0px" y="0px" width="16px" height="16px" viewBox="0 0 16 16" enable-background="new 0 0 16 16" xml:space="preserve">
  <g id="icon">
    <path d="M9.6833,7.9658c0,0.9476,-0.7107,1.6583,-1.6583,1.6583c-0.8884,0,-1.6583,-0.7107,-1.6583,-1.6583s0.7107,-1.6583,1.6583,-1.6583S9.6833,7.0182,9.6833,7.9658zM11.8747,5.0637c0.0592,0.1777,0.1185,0.4146,0.1777,0.8884c0,0.533,0,0.6515,0,2.0137s0,1.4807,0,2.0137c0,0.4738,-0.1185,0.7699,-0.1777,0.8884c-0.1185,0.2369,-0.1777,0.4146,-0.3554,0.5923s-0.3554,0.2961,-0.5923,0.3554c-0.1777,0.0592,-0.4146,0.1185,-0.8884,0.1777c-0.533,0,-0.6515,0,-2.0137,0s-1.4807,0,-2.0137,0c-0.4738,0,-0.7699,-0.1185,-0.8884,-0.1777c-0.2369,-0.1185,-0.4146,-0.1777,-0.5923,-0.3554c-0.1777,-0.1777,-0.2961,-0.3554,-0.3554,-0.5923c-0.0592,-0.1777,-0.1185,-0.4146,-0.1777,-0.8884c0,-0.533,0,-0.6515,0,-2.0137s0,-1.4807,0,-2.0137c0,-0.4738,0.1185,-0.7699,0.1777,-0.8884c0.1185,-0.2369,0.1777,-0.4146,0.3554,-0.5923c0.1777,-0.1777,0.3554,-0.2961,0.5923,-0.3554c0.1777,-0.0592,0.4146,-0.1185,0.8884,-0.1777c0.533,0,0.7107,0,2.0137,0s1.4807,0,2.0137,0c0.4738,0,0.7699,0.1185,0.8884,0.1777c0.2369,0.1185,0.4146,0.1777,0.5923,0.3554C11.697,4.6491,11.8155,4.8268,11.8747,5.0637zM10.5717,8.025c0,-1.4214,-1.1253,-2.5467,-2.5467,-2.5467S5.4783,6.6036,5.4783,8.025s1.1253,2.5467,2.5467,2.5467S10.5717,9.4464,10.5717,8.025zM11.2824,5.3598c0,-0.3554,-0.2369,-0.5923,-0.5923,-0.5923s-0.5923,0.2369,-0.5923,0.5923c0,0.3554,0.2369,0.5923,0.5923,0.5923C10.9863,5.9521,11.2824,5.656,11.2824,5.3598zM16,8c0,4.4,-3.6,8,-8,8S0,12.4,0,8S3.6,0,8,0S16,3.6,16,8zM13,8.025c0,-1.3622,0,-1.4807,-0.0592,-2.0137c0,-0.533,-0.1185,-0.8884,-0.2369,-1.1845c-0.1185,-0.2961,-0.2961,-0.5923,-0.5923,-0.8884c-0.2961,-0.2961,-0.533,-0.4146,-0.8884,-0.5923c-0.2961,-0.1185,-0.6515,-0.1777,-1.1845,-0.2369C9.5649,3.05,9.3872,3.05,8.025,3.05s-1.4807,0,-2.0137,0.0592c-0.533,0,-0.8884,0.1185,-1.1845,0.2369c-0.2961,0.1185,-0.5923,0.2961,-0.8884,0.5923c-0.2961,0.2961,-0.4146,0.533,-0.5923,0.8884c-0.1185,0.2961,-0.1777,0.6515,-0.2369,1.1845c0,0.533,-0.0592,0.7107,-0.0592,2.0137c0,1.3622,0,1.4807,0.0592,2.0137c0,0.533,0.1185,0.8884,0.2369,1.1845c0.1185,0.2961,0.2961,0.5923,0.5923,0.8884c0.2961,0.2961,0.533,0.4146,0.8884,0.5923c0.2961,0.1185,0.6515,0.1777,1.1845,0.2369c0.533,0,0.7107,0.0592,2.0137,0.0592c1.3622,0,1.4807,0,2.0137,-0.0592c0.533,0,0.8884,-0.1185,1.1845,-0.2369c0.2961,-0.1185,0.5923,-0.2961,0.8884,-0.5923c0.2961,-0.2961,0.4146,-0.533,0.5923,-0.8884c0.1185,-0.2961,0.1777,-0.6515,0.2369,-1.1845C12.9408,9.5057,13,9.328,13,8.025z" fill="#3F7AB5"/>
    <path d="M8.025,3.9384c1.303,0,1.4807,0,2.0137,0c0.4738,0,0.7699,0.1185,0.8884,0.1777c0.2369,0.1185,0.4146,0.1777,0.5923,0.3554c0.1777,0.1777,0.2961,0.3554,0.3554,0.5923c0.0592,0.1777,0.1185,0.4146,0.1777,0.8884c0,0.533,0,0.6515,0,2.0137s0,1.4807,0,2.0137c0,0.4738,-0.1185,0.7699,-0.1777,0.8884c-0.1185,0.2369,-0.1777,0.4146,-0.3554,0.5923s-0.3554,0.2961,-0.5923,0.3554c-0.1777,0.0592,-0.4146,0.1185,-0.8884,0.1777c-0.533,0,-0.6515,0,-2.0137,0s-1.4807,0,-2.0137,0c-0.4738,0,-0.7699,-0.1185,-0.8884,-0.1777c-0.2369,-0.1185,-0.4146,-0.1777,-0.5923,-0.3554c-0.1777,-0.1777,-0.2961,-0.3554,-0.3554,-0.5923c-0.0592,-0.1777,-0.1185,-0.4146,-0.1777,-0.8884c0,-0.533,0,-0.6515,0,-2.0137s0,-1.4807,0,-2.0137c0,-0.4738,0.1185,-0.7699,0.1777,-0.8884c0.1185,-0.2369,0.1777,-0.4146,0.3554,-0.5923c0.1777,-0.1777,0.3554,-0.2961,0.5923,-0.3554c0.1777,-0.0592,0.4146,-0.1185,0.8884,-0.1777C6.5443,3.9384,6.722,3.9384,8.025,3.9384M8.025,3.05c-1.3622,0,-1.4807,0,-2.0137,0.0592c-0.533,0,-0.8884,0.1185,-1.1845,0.2369c-0.2961,0.1185,-0.5923,0.2961,-0.8884,0.5923c-0.2961,0.2961,-0.4146,0.533,-0.5923,0.8884c-0.1185,0.2961,-0.1777,0.6515,-0.2369,1.1845c0,0.533,-0.0592,0.7107,-0.0592,2.0137c0,1.3622,0,1.4807,0.0592,2.0137c0,0.533,0.1185,0.8884,0.2369,1.1845c0.1185,0.2961,0.2961,0.5923,0.5923,0.8884c0.2961,0.2961,0.533,0.4146,0.8884,0.5923c0.2961,0.1185,0.6515,0.1777,1.1845,0.2369c0.533,0,0.7107,0.0592,2.0137,0.0592c1.3622,0,1.4807,0,2.0137,-0.0592c0.533,0,0.8884,-0.1185,1.1845,-0.2369c0.2961,-0.1185,0.5923,-0.2961,0.8884,-0.5923c0.2961,-0.2961,0.4146,-0.533,0.5923,-0.8884c0.1185,-0.2961,0.1777,-0.6515,0.2369,-1.1845c0,-0.533,0.0592,-0.7107,0.0592,-2.0137c0,-1.3622,0,-1.4807,-0.0592,-2.0137c0,-0.533,-0.1185,-0.8884,-0.2369,-1.1845c-0.1185,-0.2961,-0.2961,-0.5923,-0.5923,-0.8884c-0.2961,-0.2961,-0.533,-0.4146,-0.8884,-0.5923c-0.2961,-0.1185,-0.6515,-0.1777,-1.1845,-0.2369C9.5649,3.05,9.3872,3.05,8.025,3.05M8.025,5.4783c-1.4214,0,-2.5467,1.1253,-2.5467,2.5467s1.1253,2.5467,2.5467,2.5467s2.5467,-1.1253,2.5467,-2.5467S9.4464,5.4783,8.025,5.4783M8.025,9.6241c-0.8884,0,-1.6583,-0.7107,-1.6583,-1.6583s0.7107,-1.6583,1.6583,-1.6583s1.6583,0.7107,1.6583,1.6583S8.9726,9.6241,8.025,9.6241M11.2824,5.3598c0,-0.3554,-0.2369,-0.5923,-0.5923,-0.5923s-0.5923,0.2369,-0.5923,0.5923c0,0.3554,0.2369,0.5923,0.5923,0.5923C10.9863,5.9521,11.2824,5.656,11.2824,5.3598" fill="#FFFFFF"/>
  </g>
</svg>
