<?xml version="1.0" encoding="UTF-8"?>
<!DOCTYPE svg PUBLIC "-//W3C//DTD SVG 1.1//EN" "http://www.w3.org/Graphics/SVG/1.1/DTD/svg11.dtd">
<svg version="1.1" id="Layer_1" xmlns="http://www.w3.org/2000/svg" xmlns:xlink="http://www.w3.org/1999/xlink" x="0px" y="0px" width="16px" height="16px" viewBox="0 0 16 16" enable-background="new 0 0 16 16" xml:space="preserve">
  <g id="icon">
    <path d="M8,0C3.6,0,0,3.55,0,7.95S3.55,15.9,8,15.9c4.4,0,8,-3.55,8,-7.95S12.4,0,8,0zM11.1467,11.284c-2.34,0,-3.18,-1.08,-3.6,-2.4l-0.42,-1.38c-0.36,-1.02,-0.72,-1.8,-1.92,-1.8c-0.84,0,-1.68,0.6,-1.68,2.28c0,1.26,0.66,2.1,1.62,2.1c1.08,0,1.8,-0.78,1.8,-0.78l0.42,1.2c0,0,-0.78,0.72,-2.28,0.66c-1.92,0,-3,-1.08,-3,-3.18c0,-2.16,1.08,-3.42,2.94,-3.24c1.8,0,2.7,0.6,3.3,2.4l0.48,1.38c0.3,1.02,0.9,1.74,2.28,1.74c0.96,0,1.44,-0.24,1.44,-0.72c0,-0.36,-0.18,-0.66,-0.9,-0.84l-0.9,-0.24c-1.08,-0.3,-1.56,-0.9,-1.56,-1.8c0,-1.5,1.2,-1.98,2.4,-1.98c1.38,0,2.22,0.54,2.34,1.74l-1.38,0.18c-0.06,-0.6,-0.42,-0.84,-1.08,-0.84c-0.6,0,-0.96,0.24,-0.96,0.72c0,0.42,0.18,0.66,0.78,0.78l0.9,0.18c1.2,0.3,1.8,0.9,1.8,1.98C13.9667,10.744,12.8267,11.284,11.1467,11.284z" fill="#CE4D32"/>
    <path d="M7.3667,10.504l-0.42,-1.2c0,0,-0.72,0.78,-1.8,0.78c-0.96,0,-1.62,-0.84,-1.62,-2.1c0,-1.68,0.84,-2.28,1.68,-2.28c1.2,0,1.56,0.78,1.92,1.8l0.42,1.38c0.42,1.32,1.26,2.4,3.6,2.4c1.68,0,2.82,-0.54,2.82,-1.86c0,-1.08,-0.6,-1.68,-1.8,-1.98l-0.9,-0.18c-0.6,-0.12,-0.78,-0.36,-0.78,-0.78c0,-0.48,0.36,-0.72,0.96,-0.72c0.66,0,1.02,0.24,1.08,0.84l1.38,-0.18c-0.12,-1.2,-0.96,-1.74,-2.34,-1.74c-1.2,0,-2.4,0.48,-2.4,1.98c0,0.9,0.48,1.5,1.56,1.8l0.9,0.24c0.72,0.18,0.9,0.48,0.9,0.84c0,0.48,-0.48,0.72,-1.44,0.72c-1.38,0,-1.98,-0.72,-2.28,-1.74l-0.48,-1.38c-0.6,-1.8,-1.5,-2.4,-3.3,-2.4c-1.86,-0.18,-2.94,1.08,-2.94,3.24c0,2.1,1.08,3.18,3,3.18C6.5867,11.224,7.3667,10.504,7.3667,10.504" fill="#FFFFFF"/>
  </g>
</svg>
