<?xml version="1.0" encoding="UTF-8"?>
<!DOCTYPE svg PUBLIC "-//W3C//DTD SVG 1.1//EN" "http://www.w3.org/Graphics/SVG/1.1/DTD/svg11.dtd">
<svg version="1.1" id="Layer_1" xmlns="http://www.w3.org/2000/svg" xmlns:xlink="http://www.w3.org/1999/xlink" x="0px" y="0px" width="16px" height="16px" viewBox="0 0 16 16" enable-background="new 0 0 16 16" xml:space="preserve">
  <g id="icon">
    <path d="M8,0C3.6,0,0,3.6,0,8s3.6,8,8,8s8,-3.6,8,-8S12.4,0,8,0zM5.7467,12.004h-2.1v-6.36h2.1V12.004zM4.7267,5.044c-0.72,0,-1.2,-0.48,-1.2,-1.08s0.48,-1.08,1.2,-1.08s1.2,0.48,1.2,1.08S5.4467,5.044,4.7267,5.044zM13.3667,12.064h-2.1v-3.42c0,-0.84,-0.3,-1.44,-1.08,-1.44c-0.6,0,-0.9,0.42,-1.08,0.78c-0.06,0.18,-0.06,0.36,-0.06,0.54v3.54h-2.1c0,0,0,-5.76,0,-6.36h2.1v0.9c0.3,-0.48,0.78,-1.08,1.92,-1.08c1.44,0,2.46,0.9,2.4,2.88V12.064z" fill="#3F7AB5"/>
    <path d="M4.7267,2.884c-0.72,0,-1.2,0.48,-1.2,1.08s0.48,1.08,1.2,1.08l0,0c0.72,0,1.2,-0.48,1.2,-1.08S5.4467,2.884,4.7267,2.884L4.7267,2.884zM10.9667,5.524c-1.14,0,-1.62,0.6,-1.92,1.08l0,0l0,0l0,0v-0.9h-2.1c0,0.6,0,6.36,0,6.36h2.1v-3.54c0,-0.18,0,-0.36,0.06,-0.54c0.18,-0.36,0.48,-0.78,1.08,-0.78c0.78,0,1.08,0.6,1.08,1.44v3.42h2.1v-3.66C13.4267,6.424,12.4067,5.524,10.9667,5.524zM3.6467,5.644v6.36h2.1v-6.36H3.6467z" fill="#FFFFFF"/>
  </g>
</svg>
