<?xml version="1.0" encoding="UTF-8"?>
<!DOCTYPE svg PUBLIC "-//W3C//DTD SVG 1.1//EN" "http://www.w3.org/Graphics/SVG/1.1/DTD/svg11.dtd">
<svg version="1.1" id="Layer_1" xmlns="http://www.w3.org/2000/svg" xmlns:xlink="http://www.w3.org/1999/xlink" x="0px" y="0px" width="16px" height="16px" viewBox="0 0 16 16" enable-background="new 0 0 16 16" xml:space="preserve">
  <g id="icon">
    <path d="M8,0C3.6,0,0,3.6,0,8s3.6,8,8,8s8,-3.6,8,-8S12.4,0,8,0zM8,12.8706c-0.5567,0,-1.0577,-0.1113,-1.5588,-0.2227L4.6041,13.65v-1.8928C3.3794,10.8665,2.6,9.4191,2.6,7.8603C2.6,5.0768,4.9938,2.85,8,2.85s5.4,2.2268,5.4,5.0103S11.0062,12.8706,8,12.8706zM8.8351,7.8603l2.6722,-1.4474L8.5567,9.5861L7.1649,8.1387L4.4928,9.5861l2.9505,-3.1732L8.8351,7.8603z" fill="#3F7AB5"/>
    <path d="M8,2.85c-3.0062,0,-5.4,2.2268,-5.4,5.0103c0,1.5588,0.7794,3.0062,2.0041,3.8969V13.65l1.8371,-1.0021c0.501,0.1113,1.0021,0.2227,1.5588,0.2227c3.0062,0,5.4,-2.2268,5.4,-5.0103S11.0062,2.85,8,2.85zM8.5567,9.5861L7.1649,8.1387L4.4928,9.5861l2.9505,-3.1732l1.3918,1.4474l2.6722,-1.4474L8.5567,9.5861z" fill="#FFFFFF"/>
  </g>
</svg>
