<?xml version="1.0" encoding="UTF-8"?>
<!DOCTYPE svg PUBLIC "-//W3C//DTD SVG 1.1//EN" "http://www.w3.org/Graphics/SVG/1.1/DTD/svg11.dtd">
<svg version="1.1" id="Layer_1" xmlns="http://www.w3.org/2000/svg" xmlns:xlink="http://www.w3.org/1999/xlink" x="0px" y="0px" width="16px" height="16px" viewBox="0 0 16 16" enable-background="new 0 0 16 16" xml:space="preserve">
  <g id="icon">
    <path d="M8,0C3.6,0,0,3.6,0,8s3.6,8,8,8s8,-3.6,8,-8S12.4,0,8,0zM5.7067,13.424c-0.66,0,-1.26,-0.42,-1.26,-1.38c0,-1.5,1.26,-2.58,1.86,-2.88c0,0,0.78,0.48,1.62,0.78c-1.68,-1.02,-2.7,-2.94,-2.7,-5.1c0,-1.98,1.02,-2.88,1.98,-2.88c0.78,0,2.58,0.84,2.58,4.02C9.7867,9.464,7.9867,13.424,5.7067,13.424zM10.6867,9.884c0.06,1.62,-1.02,3.18,-1.68,3.18c-0.24,0,-0.42,-0.24,-0.42,-0.72c0,-0.42,0.18,-0.9,0.24,-1.26c0.6,-1.62,1.08,-2.82,1.62,-3.84c0.54,-1.02,1.38,-2.04,1.98,-2.04c0.36,0,0.48,0.3,0.48,0.6C12.9067,7.124,11.7067,8.804,10.6867,9.884z" fill="#3F7AB5"/>
    <path d="M5.7067,13.424c-0.66,0,-1.26,-0.42,-1.26,-1.38c0,-1.5,1.26,-2.58,1.86,-2.88c0,0,0.78,0.48,1.62,0.78c-1.68,-1.02,-2.7,-2.94,-2.7,-5.1c0,-1.98,1.02,-2.88,1.98,-2.88c0.78,0,2.58,0.84,2.58,4.02C9.7867,9.464,7.9867,13.424,5.7067,13.424L5.7067,13.424zM8.5867,12.344c0,0.48,0.18,0.72,0.42,0.72c0.66,0,1.74,-1.56,1.68,-3.18c1.02,-1.08,2.22,-2.76,2.22,-4.08c0,-0.3,-0.12,-0.6,-0.48,-0.6c-0.6,0,-1.44,1.02,-1.98,2.04c-0.54,1.02,-1.02,2.22,-1.62,3.84C8.7667,11.444,8.5867,11.924,8.5867,12.344L8.5867,12.344z" fill="#FFFFFF"/>
  </g>
</svg>
