<?xml version="1.0" encoding="UTF-8"?>
<!DOCTYPE svg PUBLIC "-//W3C//DTD SVG 1.1//EN" "http://www.w3.org/Graphics/SVG/1.1/DTD/svg11.dtd">
<svg version="1.1" id="Layer_1" xmlns="http://www.w3.org/2000/svg" xmlns:xlink="http://www.w3.org/1999/xlink" x="0px" y="0px" width="16px" height="16px" viewBox="0 0 16 16" enable-background="new 0 0 16 16" xml:space="preserve">
  <g id="icon">
    <path d="M8,0C3.6,0,0,3.6,0,8s3.6,8,8,8s8,-3.6,8,-8S12.4,0,8,0zM11.6657,4.5678c0.9449,0,1.7231,0.7782,1.7231,1.7787c0,0.9449,-0.7782,1.7787,-1.7231,1.7787S9.9426,7.347,9.9426,6.3464C9.9426,5.4015,10.7208,4.5678,11.6657,4.5678zM7.6637,5.2348c0.8893,0,1.6119,0.7226,1.6119,1.6119S8.553,8.4586,7.6637,8.4586S6.0518,7.736,6.0518,6.8467S6.7744,5.2348,7.6637,5.2348zM4.1063,5.7906c0.7782,0.0556,1.4452,0.667,1.4452,1.4452S4.9401,8.681,4.1063,8.681c-0.7782,0,-1.4452,-0.6114,-1.4452,-1.4452S3.2726,5.7906,4.1063,5.7906zM5.6627,11.0155c0,0.1112,-0.0556,0.1668,-0.1668,0.1668H2.7168c-0.1112,0,-0.1668,-0.0556,-0.1668,-0.1668v-0.5003c0,-0.7782,0.6114,-1.6119,1.5563,-1.6119c0.8338,0,1.5563,0.7226,1.5563,1.6119V11.0155zM9.3868,11.0155c0,0.1112,-0.0556,0.1668,-0.1668,0.1668H6.1629c-0.1112,0,-0.1668,-0.0556,-0.1668,-0.1668l-0.0556,-0.6114c0,-1.0561,0.8338,-1.7787,1.7231,-1.7787c1.0561,0,1.7231,0.8893,1.7231,1.7787V11.0155zM13.5,11.0155c0,0.1112,-0.0556,0.1668,-0.1668,0.1668H9.8871c-0.1112,0,-0.1668,-0.0556,-0.1668,-0.1668c0,0,0,-0.667,0,-0.7226c0,-1.2228,1.0005,-1.9454,1.8898,-1.9454c1.0561,0,1.8898,0.8893,1.8898,1.9454V11.0155z" fill="#3F7AB5"/>
    <path d="M5.5515,7.2358c0,0.7782,-0.6114,1.4452,-1.4452,1.4452c-0.7782,0,-1.4452,-0.6114,-1.4452,-1.4452s0.6114,-1.4452,1.4452,-1.4452l0,0C4.8845,5.8462,5.5515,6.4576,5.5515,7.2358L5.5515,7.2358zM9.2756,6.8467c0,0.8893,-0.7226,1.6119,-1.6119,1.6119S6.0518,7.736,6.0518,6.8467s0.7226,-1.6119,1.6119,-1.6119S9.2756,5.9574,9.2756,6.8467zM13.3888,6.3464c0,0.9449,-0.7782,1.7787,-1.7231,1.7787S9.9426,7.347,9.9426,6.3464c0,-0.9449,0.7782,-1.7787,1.7231,-1.7787S13.3888,5.3459,13.3888,6.3464zM2.55,11.0155c0,0.1112,0.0556,0.1668,0.1668,0.1668h2.7792c0.1112,0,0.1668,-0.0556,0.1668,-0.1668v-0.5003c0,-0.8893,-0.7226,-1.6119,-1.5563,-1.6119c-0.9449,0,-1.5563,0.8338,-1.5563,1.6119V11.0155L2.55,11.0155L2.55,11.0155zM5.9962,11.0155c0,0.1112,0.0556,0.1668,0.1668,0.1668h3.0571c0.1112,0,0.1668,-0.0556,0.1668,-0.1668v-0.6114c0,-0.8893,-0.667,-1.7787,-1.7231,-1.7787c-0.8893,0,-1.7231,0.7226,-1.7231,1.7787L5.9962,11.0155L5.9962,11.0155zM9.7203,11.0155c0,0.1112,0.0556,0.1668,0.1668,0.1668h3.4462c0.1112,0,0.1668,-0.0556,0.1668,-0.1668v-0.7226c0,-1.0561,-0.8338,-1.9454,-1.8898,-1.9454c-0.8893,0,-1.8898,0.7226,-1.8898,1.9454C9.7203,10.3485,9.7203,11.0155,9.7203,11.0155z" fill="#FFFFFF"/>
  </g>
</svg>
