<?xml version="1.0" encoding="UTF-8"?>
<!DOCTYPE svg PUBLIC "-//W3C//DTD SVG 1.1//EN" "http://www.w3.org/Graphics/SVG/1.1/DTD/svg11.dtd">
<svg version="1.1" id="Layer_1" xmlns="http://www.w3.org/2000/svg" xmlns:xlink="http://www.w3.org/1999/xlink" x="0px" y="0px" width="16px" height="16px" viewBox="0 0 16 16" enable-background="new 0 0 16 16" xml:space="preserve">
  <g id="icon">
    <path d="M6.786,5.2978c0,-0.6895,0.5746,-1.2066,1.2066,-1.2066c0.632,0,1.2066,0.5171,1.2066,1.2066c0,0.632,-0.5171,1.2066,-1.2066,1.2066C7.3605,6.5043,6.786,5.9872,6.786,5.2978zM16,8c0,4.4,-3.6,8,-8,8S0,12.4,0,8S3.6,0,8,0S16,3.6,16,8zM5.1198,5.2978c0,1.5513,1.3215,2.8728,2.8728,2.8728c1.6087,0,2.8728,-1.3215,2.8728,-2.8728c0,-1.6087,-1.3215,-2.8728,-2.8728,-2.8728C6.3838,2.425,5.1198,3.7465,5.1198,5.2978zM9.1991,10.5262c0.5745,-0.1149,1.1491,-0.3447,1.6662,-0.6895c0.4022,-0.2298,0.5171,-0.7469,0.2873,-1.1491c-0.2298,-0.4022,-0.7469,-0.5171,-1.1491,-0.2873c-1.2066,0.7469,-2.7004,0.7469,-3.9069,0c-0.4022,-0.2298,-0.9193,-0.1149,-1.1491,0.2873c-0.2298,0.4022,-0.1149,0.9193,0.2873,1.1491c0.5171,0.3447,1.0916,0.5745,1.6662,0.6895l-1.6087,1.6087c-0.3447,0.3447,-0.3447,0.8618,0,1.2066c0.1724,0.1724,0.4022,0.2298,0.5746,0.2298c0.2298,0,0.4596,-0.0575,0.5746,-0.2298L8.05,11.7327l1.6087,1.6087c0.3447,0.3447,0.8618,0.3447,1.2066,0c0.3447,-0.3447,0.3447,-0.8618,0,-1.2066L9.1991,10.5262z" fill="#E78155"/>
    <path d="M9.1991,10.5262c0.5745,-0.1149,1.1491,-0.3447,1.6662,-0.6895c0.4022,-0.2298,0.5171,-0.7469,0.2873,-1.1491c-0.2298,-0.4022,-0.7469,-0.5171,-1.1491,-0.2873c-1.2066,0.7469,-2.7004,0.7469,-3.9069,0c-0.4022,-0.2298,-0.9193,-0.1149,-1.1491,0.2873c-0.2298,0.4022,-0.1149,0.9193,0.2873,1.1491c0.5171,0.3447,1.0916,0.5745,1.6662,0.6895l-1.6087,1.6087c-0.3447,0.3447,-0.3447,0.8618,0,1.2066c0.1724,0.1724,0.4022,0.2298,0.5746,0.2298c0.2298,0,0.4596,-0.0575,0.5746,-0.2298L8.05,11.7327l1.6087,1.6087c0.3447,0.3447,0.8618,0.3447,1.2066,0c0.3447,-0.3447,0.3447,-0.8618,0,-1.2066L9.1991,10.5262M7.9925,4.0912c0.632,0,1.2066,0.5171,1.2066,1.2066c0,0.632,-0.5171,1.2066,-1.2066,1.2066c-0.632,0,-1.2066,-0.5171,-1.2066,-1.2066S7.3605,4.0912,7.9925,4.0912L7.9925,4.0912zM7.9925,8.1705c1.6087,0,2.8728,-1.3215,2.8728,-2.8728c0,-1.6087,-1.3215,-2.8728,-2.8728,-2.8728c-1.6087,0,-2.8728,1.3215,-2.8728,2.8728S6.4413,8.1705,7.9925,8.1705z" fill="#FFFFFF"/>
  </g>
</svg>
