<?xml version="1.0" encoding="UTF-8"?>
<!DOCTYPE svg PUBLIC "-//W3C//DTD SVG 1.1//EN" "http://www.w3.org/Graphics/SVG/1.1/DTD/svg11.dtd">
<svg version="1.1" id="Layer_1" xmlns="http://www.w3.org/2000/svg" xmlns:xlink="http://www.w3.org/1999/xlink" x="0px" y="0px" width="16px" height="16px" viewBox="0 0 16 16" enable-background="new 0 0 16 16" xml:space="preserve">
  <g id="icon">
    <path d="M7.0327,6.6687c0.1122,-0.505,0.2244,-1.0099,0.3366,-1.5149c0,-0.1122,0,-0.1683,0.0561,-0.2244c0.1122,-0.2244,0.2805,-0.3927,0.5049,-0.3927c0.3927,0,0.8416,0,1.2904,0.1122c0.5611,0.1122,0.7294,0.4488,0.8416,1.0099c-0.0561,0.7294,-0.5611,1.2904,-1.4026,1.4587c-0.3366,0.0561,-0.6172,0.0561,-0.8977,0.1122c-0.1122,0,-0.1683,0,-0.2805,0C7.0888,7.2298,6.9205,7.0615,7.0327,6.6687zM16,8c0,4.4,-3.6,8,-8,8S0,12.4,0,8S3.6,0,8,0S16,3.6,16,8zM4.003,11.7182c0.3927,0,0.7855,0,1.1782,0s0.6172,-0.1683,0.7294,-0.5611c0.1683,-0.6172,0.2805,-1.1782,0.4488,-1.7954c0.1122,-0.3366,0.3366,-0.505,0.6733,-0.505c0.0561,0,0.1683,0,0.2244,0c1.066,0,2.0759,-0.0561,3.0297,-0.505c1.2343,-0.5049,2.0759,-1.3465,2.1881,-2.6931c0.0561,-0.7294,-0.0561,-1.4587,-0.7294,-2.0759c-0.4488,-0.3927,-0.9538,-0.6172,-1.5149,-0.6733c-0.8416,-0.0561,-3.703,-0.1122,-4.2079,-0.1122c-0.3366,0,-0.6172,0.2244,-0.6733,0.5611c-0.5611,2.5809,-1.1782,5.2178,-1.7954,7.7987C3.498,11.5499,3.6102,11.7182,4.003,11.7182zM13.4848,5.771c-0.1122,-0.4488,-0.5611,-0.9538,-0.8977,-1.066v0.0561c0.3927,1.0099,0.2805,1.9637,-0.3927,2.8614c-0.5049,0.6733,-1.2343,1.0099,-2.0198,1.2904c-0.8416,0.2805,-1.7954,0.3366,-2.6931,0.3366c-0.4488,0,-0.6733,0.1683,-0.7855,0.6172c-0.1122,0.5611,-0.2805,1.1221,-0.3927,1.6832c-0.0561,0.3927,-0.2805,0.5611,-0.6733,0.5611c-0.2805,0,-0.505,0,-0.7855,0c-0.0561,0.0561,-0.0561,0.1122,-0.0561,0.2805c-0.0561,0.3927,0.1122,0.5611,0.505,0.5611c0.3366,0,0.7294,0,1.1221,0c0.3366,0,0.5611,-0.2244,0.6733,-0.5611c0.1122,-0.6172,0.2805,-1.1782,0.3927,-1.7393c0.0561,-0.4488,0.3366,-0.6172,0.7294,-0.6172s0.7855,0,1.1782,0c1.0099,-0.1122,1.9637,-0.3366,2.8053,-0.8977C13.4287,8.2958,13.8215,7.0054,13.4848,5.771z" fill="#3F7AB5"/>
    <path d="M4.8446,12.111c0.2805,0,0.505,0,0.7855,0c0.3927,0,0.6172,-0.1683,0.6733,-0.5611c0.1122,-0.5611,0.2805,-1.1221,0.3927,-1.6832c0.1122,-0.4488,0.3366,-0.6172,0.7855,-0.6172c0.8977,0,1.8515,-0.0561,2.6931,-0.3366c0.7855,-0.2805,1.5149,-0.6172,2.0198,-1.2904c0.6733,-0.8977,0.7855,-1.8515,0.3927,-2.8614V4.705c0.3366,0.1122,0.7855,0.6172,0.8977,1.066c0.3366,1.2343,-0.0561,2.5248,-1.2904,3.3663c-0.8416,0.5611,-1.7954,0.7855,-2.8053,0.8977c-0.3927,0,-0.7855,0,-1.1782,0s-0.6733,0.1683,-0.7294,0.6172c-0.1122,0.5611,-0.2805,1.1221,-0.3927,1.7393c-0.1122,0.3366,-0.3366,0.5611,-0.6733,0.5611c-0.3927,0,-0.7855,0,-1.1221,0c-0.3927,0,-0.5611,-0.1683,-0.505,-0.5611C4.7884,12.2232,4.7884,12.1671,4.8446,12.111zM12.4749,5.6588c-0.1122,1.3465,-0.9538,2.1881,-2.1881,2.6931c-0.9538,0.4488,-1.9637,0.505,-3.0297,0.505c-0.0561,0,-0.1683,0,-0.2244,0c-0.3366,0,-0.5611,0.1683,-0.6733,0.505c-0.1683,0.6172,-0.2805,1.1782,-0.4488,1.7954c-0.1122,0.3927,-0.3366,0.5611,-0.7294,0.5611s-0.7855,0,-1.1782,0s-0.505,-0.1683,-0.4488,-0.5611c0.6172,-2.5809,1.2343,-5.2178,1.7954,-7.7987c0.0561,-0.3366,0.3366,-0.5611,0.6733,-0.5611c0.505,0,3.3663,0.0561,4.2079,0.1122c0.5611,0.0561,1.066,0.2805,1.5149,0.6733C12.4188,4.2001,12.531,4.9295,12.4749,5.6588zM9.2208,4.6489c-0.4488,-0.1122,-0.8977,-0.1122,-1.2904,-0.1122c-0.2244,0,-0.3927,0.1683,-0.5049,0.3927c-0.0561,0.0561,-0.0561,0.1122,-0.0561,0.2244c-0.1122,0.505,-0.2244,1.0099,-0.3366,1.5149c-0.1122,0.3927,0.0561,0.5611,0.4488,0.5611c0.1122,0,0.1683,0,0.2805,0l0,0c0.2805,-0.0561,0.5611,-0.0561,0.8977,-0.1122c0.8416,-0.1683,1.3465,-0.7294,1.4026,-1.4587C9.9502,5.0978,9.7818,4.7611,9.2208,4.6489z" fill="#FFFFFF"/>
  </g>
</svg>
