<?xml version="1.0" encoding="UTF-8"?>
<!DOCTYPE svg PUBLIC "-//W3C//DTD SVG 1.1//EN" "http://www.w3.org/Graphics/SVG/1.1/DTD/svg11.dtd">
<svg version="1.1" id="Layer_1" xmlns="http://www.w3.org/2000/svg" xmlns:xlink="http://www.w3.org/1999/xlink" x="0px" y="0px" width="16px" height="16px" viewBox="0 0 16 16" enable-background="new 0 0 16 16" xml:space="preserve">
  <g id="icon">
    <path d="M5.2331,10.8169H3.2613V5.1831h1.9718C4.5007,5.8592,4.05,6.9296,4.05,8S4.4444,10.1408,5.2331,10.8169zM11.3739,8c0,1.1831,-0.6197,2.2535,-1.6338,2.8732c-0.2254,0.169,-0.507,0.2817,-0.7887,0.338h-0.0563c-0.1127,0,-0.2254,0.0563,-0.338,0.0563c-0.0563,0,-0.0563,0,-0.1127,0c-0.1127,0.0563,-0.2817,0.0563,-0.3944,0.0563s-0.2254,-0.0563,-0.3944,-0.0563c-0.0563,0,-0.0563,0,-0.1127,0c-0.1127,0,-0.2254,0,-0.338,-0.0563c-0.0563,0,-0.0563,0,-0.0563,0c-0.2817,-0.0563,-0.5634,-0.169,-0.7887,-0.338C5.3458,10.2535,4.7261,9.1831,4.7261,8s0.6197,-2.2535,1.6338,-2.8732c0.2254,-0.169,0.507,-0.2817,0.7887,-0.338c0.1127,0,0.2254,-0.0563,0.338,-0.0563c0.0563,0,0.0563,0,0.1127,0c0.1127,-0.0563,0.2817,-0.0563,0.3944,-0.0563c0.1127,0,0.2817,0.0563,0.4507,0.0563c0.0563,0,0.0563,0,0.1127,0c0.1127,0,0.2254,0,0.338,0.0563h0.0563c0.2817,0.0563,0.5634,0.169,0.7887,0.338C10.7542,5.7465,11.3739,6.8169,11.3739,8zM10.7542,7.8873c-0.0563,-1.4085,-1.1268,-2.5352,-2.5352,-2.5915c-0.1127,0,-0.169,0.0563,-0.169,0.169v0.2817c0,0.0563,0.0563,0.1127,0.1127,0.1127c1.0704,0.0563,1.9718,0.9014,2.0282,2.0282c0,0.0563,0.0563,0.169,0.169,0.169h0.2254C10.6979,8.0563,10.7542,8,10.7542,7.8873zM16,8c0,4.4,-3.6,8,-8,8S0,12.4,0,8S3.6,0,8,0S16,3.6,16,8zM13.5148,5.1831c0,-0.2817,-0.2254,-0.6761,-0.5634,-0.6761H9.9655C9.3458,4.169,8.7261,4,8.05,4s-1.3521,0.169,-1.9155,0.507h-0.6761c-0.0563,-0.2254,-0.2817,-0.4507,-0.5634,-0.4507h-0.4507c-0.2817,0,-0.5634,0.2254,-0.5634,0.4507h-0.8451c-0.169,0,-0.4507,0.3944,-0.4507,0.6761v5.8028c0,0.338,0.2254,0.507,0.5634,0.507h2.9296c0.6197,0.338,1.2394,0.507,1.9155,0.507c0.6761,0,1.2958,-0.169,1.9718,-0.507h2.9859c0.2817,0,0.5634,-0.2254,0.5634,-0.507V5.1831zM11.9373,7.9437c0,1.0704,-0.4507,2.1408,-1.1831,2.8169l2.0282,0.0563V5.1268h-2.0282C11.543,5.8028,11.9373,6.8732,11.9373,7.9437z" fill="#3F7AB5"/>
    <path d="M7.9937,12c-0.6761,0,-1.2958,-0.169,-1.9155,-0.507H3.1486c-0.338,0,-0.5634,-0.169,-0.5634,-0.507V5.1831c0,-0.2817,0.2817,-0.6761,0.4507,-0.6761h0.8451c0,-0.2254,0.2817,-0.4507,0.5634,-0.4507h0.4507c0.2817,0,0.507,0.2254,0.5634,0.4507h0.6761C6.6979,4.169,7.3739,4,8.05,4s1.2958,0.169,1.9155,0.507h2.9859c0.338,0,0.5634,0.3944,0.5634,0.6761v5.8028c0,0.2817,-0.2817,0.507,-0.5634,0.507H9.9655C9.2894,11.831,8.6697,12,7.9937,12zM7.9937,4.6761c-0.1127,0,-0.2817,0,-0.3944,0.0563c-0.0563,0,-0.0563,0,-0.1127,0c-0.1127,0,-0.2254,0.0563,-0.338,0.0563l0,0l0,0c-0.2817,0.0563,-0.5634,0.169,-0.7887,0.338C5.3458,5.7465,4.7261,6.8169,4.7261,8s0.6197,2.2535,1.6338,2.8732c0.2254,0.169,0.507,0.2817,0.7887,0.338l0,0c0,0,0,0,0.0563,0c0.1127,0.0563,0.2254,0.0563,0.338,0.0563c0.0563,0,0.0563,0,0.1127,0c0.169,0,0.2817,0.0563,0.3944,0.0563s0.2817,0,0.3944,-0.0563c0.0563,0,0.0563,0,0.1127,0c0.1127,0,0.2254,-0.0563,0.338,-0.0563h0.0563c0.2817,-0.0563,0.5634,-0.169,0.7887,-0.338c1.0141,-0.6197,1.6338,-1.6901,1.6338,-2.8732s-0.6197,-2.2535,-1.6338,-2.8732c-0.2254,-0.169,-0.507,-0.2817,-0.7887,-0.338h-0.0563c-0.1127,-0.0563,-0.2254,-0.0563,-0.338,-0.0563c-0.0563,0,-0.0563,0,-0.1127,0C8.2754,4.7324,8.1063,4.6761,7.9937,4.6761zM12.7824,10.8169V5.1268h-2.0282c0.7887,0.6761,1.1831,1.7465,1.1831,2.8169s-0.4507,2.1408,-1.1831,2.8169L12.7824,10.8169L12.7824,10.8169zM5.2331,10.8169C4.4444,10.1408,4.05,9.0704,4.05,8s0.4507,-2.1408,1.1831,-2.8169H3.2613v5.6338H5.2331L5.2331,10.8169zM10.1908,7.8873c-0.0563,-1.1268,-0.9577,-1.9718,-2.0282,-2.0282c-0.0563,0,-0.1127,-0.0563,-0.1127,-0.1127v-0.2817c0,-0.1127,0.0563,-0.169,0.169,-0.169c1.4085,0.0563,2.4789,1.1831,2.5352,2.5915c0,0.1127,-0.0563,0.169,-0.169,0.169h-0.2254C10.2472,8.0563,10.1908,7.9437,10.1908,7.8873z" fill="#FFFFFF"/>
  </g>
</svg>
