<?xml version="1.0" encoding="UTF-8"?>
<!DOCTYPE svg PUBLIC "-//W3C//DTD SVG 1.1//EN" "http://www.w3.org/Graphics/SVG/1.1/DTD/svg11.dtd">
<svg version="1.1" id="Layer_1" xmlns="http://www.w3.org/2000/svg" xmlns:xlink="http://www.w3.org/1999/xlink" x="0px" y="0px" width="16px" height="16px" viewBox="0 0 16 16" enable-background="new 0 0 16 16" xml:space="preserve">
  <g id="icon">
    <path d="M8,0C3.6,0,0,3.6,0,8s3.6,8,8,8s8,-3.6,8,-8S12.4,0,8,0zM8,2.7c0.7649,0,1.4753,0.1639,2.1856,0.4918c0,0.1093,0,3.333,0,3.5515c-0.1639,-0.1639,-3.8794,-3.5515,-4.0433,-3.6608C6.7433,2.8639,7.399,2.7,8,2.7zM2.9186,9.4206C2.7546,8.9835,2.7,8.4918,2.7,8.0546C2.7,6.033,3.7928,4.2299,5.5959,3.301c0.0546,0.0546,1.9124,1.7485,2.0216,1.8031C7.5082,5.2134,3.0278,9.2567,2.9186,9.4206zM5.268,12.5897c-0.9835,-0.601,-1.7485,-1.5299,-2.1856,-2.568C3.1371,9.967,5.1041,8.1639,5.268,8C5.268,8.2732,5.268,12.3711,5.268,12.5897zM8.5464,13.3h-0.9835c-0.601,-0.0546,-1.1474,-0.2186,-1.6938,-0.4371c0,-0.0546,0,-2.4041,0,-2.568c0.1093,0,6.7206,0,6.9392,0C11.9887,11.9887,10.4041,13.1361,8.5464,13.3zM12.9722,9.8031c-0.0546,0,-2.1309,0,-2.2402,0c0,-0.1093,0,-6.0649,0,-6.2835C12.3165,4.5031,13.3,6.1969,13.3,8.0546C13.3,8.601,13.2454,9.2021,12.9722,9.8031z" fill="#8C54A2"/>
    <path d="M6.1423,3.0825c0.1639,0.1093,3.8794,3.4969,4.0433,3.6608c0,-0.2186,0,-3.4423,0,-3.5515C9.4753,2.8639,8.7649,2.7,8,2.7C7.399,2.7,6.7433,2.8639,6.1423,3.0825zM5.268,12.5897c0,-0.2186,0,-4.3165,0,-4.5897c-0.1639,0.1639,-2.1309,1.967,-2.1856,2.0216C3.5196,11.0598,4.2845,11.9887,5.268,12.5897zM7.6175,5.1041c-0.1093,-0.0546,-1.967,-1.7485,-2.0216,-1.8031C3.7928,4.2299,2.7,6.033,2.7,8.0546c0,0.4371,0.0546,0.9289,0.2186,1.366C3.0278,9.2567,7.5082,5.2134,7.6175,5.1041zM5.8691,12.8629c0.5464,0.2186,1.0928,0.3825,1.6938,0.4371h0.9835c1.8577,-0.1639,3.4423,-1.3113,4.2619,-3.0052c-0.2186,0,-6.8299,0,-6.9392,0C5.8691,10.4588,5.8691,12.8082,5.8691,12.8629zM13.3,8.0546c0,-1.8577,-0.9835,-3.5515,-2.568,-4.5351c0,0.2186,0,6.1742,0,6.2835c0.1093,0,2.1856,0,2.2402,0C13.2454,9.2021,13.3,8.601,13.3,8.0546z" fill="#FFFFFF"/>
  </g>
</svg>
