<?xml version="1.0" encoding="UTF-8"?>
<!DOCTYPE svg PUBLIC "-//W3C//DTD SVG 1.1//EN" "http://www.w3.org/Graphics/SVG/1.1/DTD/svg11.dtd">
<svg version="1.1" id="Layer_1" xmlns="http://www.w3.org/2000/svg" xmlns:xlink="http://www.w3.org/1999/xlink" x="0px" y="0px" width="16px" height="16px" viewBox="0 0 16 16" enable-background="new 0 0 16 16" xml:space="preserve">
  <g id="icon">
    <path d="M8,0C3.6,0,0,3.6,0,8s3.6,8,8,8s8,-3.6,8,-8S12.4,0,8,0zM8.9773,10.8174c-0.7019,0,-1.3452,-0.4094,-1.5792,-0.8188c0,0,-0.4094,1.5207,-0.4679,1.8131c-0.2924,1.0528,-1.1113,2.1056,-1.1697,2.164c-0.0585,0.0585,-0.1755,0,-0.1755,-0.0585c-0.0585,-0.117,-0.234,-1.4622,0,-2.515c0.117,-0.5264,0.8188,-3.5677,0.8188,-3.5677s-0.234,-0.4094,-0.234,-1.0528c0,-0.9943,0.5849,-1.6961,1.2867,-1.6961c0.5849,0,0.8773,0.4679,0.8773,0.9943c0,0.5849,-0.4094,1.5207,-0.5849,2.3395C7.5736,9.1213,8.1,9.7062,8.8019,9.7062c1.2867,0,2.1055,-1.6377,2.1055,-3.5093c0,-1.4622,-0.9943,-2.515,-2.7489,-2.515c-1.9886,0,-3.2168,1.5207,-3.2168,3.1583c0,0.5849,0.117,0.9943,0.4094,1.2867c0.117,0.117,0.1755,0.1755,0.117,0.3509c0,0.117,-0.0585,0.4094,-0.117,0.5264c-0.0585,0.1755,-0.1755,0.234,-0.3509,0.1755c-0.9358,-0.3509,-1.3452,-1.4037,-1.3452,-2.515c0,-1.8716,1.5792,-4.0941,4.679,-4.0941c2.515,0,4.1526,1.8131,4.2111,3.7432C12.5451,8.8874,11.0829,10.8174,8.9773,10.8174z" fill="#CE4D32"/>
    <path d="M8.334,2.5707c-3.0998,0,-4.679,2.2225,-4.679,4.0941c0,1.1113,0.4094,2.164,1.3452,2.515c0.1755,0.0585,0.2924,0,0.3509,-0.1755c0.0585,-0.117,0.117,-0.4094,0.117,-0.5264c0.0585,-0.1755,0,-0.234,-0.117,-0.3509c-0.2924,-0.2924,-0.4094,-0.7019,-0.4094,-1.2867c0,-1.6377,1.2282,-3.1583,3.2168,-3.1583c1.7546,0,2.7489,1.0528,2.7489,2.515c0,1.8716,-0.8188,3.5093,-2.1055,3.5093c-0.7019,0,-1.2282,-0.5849,-1.0528,-1.2867c0.1755,-0.8188,0.5849,-1.7546,0.5849,-2.3395c0,-0.5264,-0.2924,-0.9943,-0.8773,-0.9943c-0.7019,0,-1.2867,0.7019,-1.2867,1.6961c0,0.6434,0.234,1.0528,0.234,1.0528s-0.7019,3.0414,-0.8188,3.5677c-0.234,1.0528,-0.0585,2.398,0,2.515c0,0.0585,0.117,0.117,0.1755,0.0585c0.0585,-0.0585,0.8773,-1.1113,1.1697,-2.164c0.0585,-0.2924,0.4679,-1.8131,0.4679,-1.8131c0.234,0.4094,0.8773,0.8188,1.5792,0.8188c2.1056,0,3.5677,-1.9301,3.5677,-4.5035C12.4866,4.3838,10.8489,2.5707,8.334,2.5707z" fill="#FFFFFF"/>
  </g>
</svg>
