<?xml version="1.0" encoding="UTF-8"?>
<!DOCTYPE svg PUBLIC "-//W3C//DTD SVG 1.1//EN" "http://www.w3.org/Graphics/SVG/1.1/DTD/svg11.dtd">
<svg version="1.1" id="Layer_1" xmlns="http://www.w3.org/2000/svg" xmlns:xlink="http://www.w3.org/1999/xlink" x="0px" y="0px" width="16px" height="16px" viewBox="0 0 16 16" enable-background="new 0 0 16 16" xml:space="preserve">
  <g id="icon">
    <g>
      <path d="M8.057,3.9891c-1.0839,0,-2.4531,0.7987,-2.4531,3.7082S6.9161,11.0631,8,11.0631c0.2282,0,0.3993,0,0.6275,-0.057c-0.2282,-0.3993,-0.5134,-0.7416,-1.141,-0.7416c-0.057,-0.4564,-0.1141,-0.7416,-0.1141,-0.7416c0.2852,-0.1141,1.4262,-0.3993,2.339,0.7416c0.3993,-0.5134,0.6846,-1.3692,0.6846,-2.6813C10.396,4.6737,9.141,3.9891,8.057,3.9891z" fill="#CE4D32"/>
      <path d="M8,0C3.6,0,0,3.6,0,8s3.6,8,8,8s8,-3.6,8,-8S12.4,0,8,0zM11.5941,12.4323c0.057,0.5134,0.1141,0.7987,0.1141,0.7987c-0.3423,0.1711,-1.7115,0.5705,-2.6242,-1.0839c-0.3423,0.057,-0.7416,0.1141,-1.0839,0.1141c-2.339,0,-4.5639,-1.2551,-4.5639,-4.678c0,-3.0236,2.396,-4.735,4.5639,-4.735c2.339,0,4.5639,1.198,4.5639,4.6209c0,1.8256,-0.8557,3.3088,-2.1679,4.1075C10.6242,12.033,10.9095,12.3753,11.5941,12.4323z" fill="#CE4D32"/>
    </g>
    <path d="M10.396,11.5766L10.396,11.5766L10.396,11.5766c1.3121,-0.7987,2.1679,-2.2819,2.1679,-4.1075c0,-3.4229,-2.2249,-4.6209,-4.5639,-4.6209c-2.1679,0,-4.5639,1.7115,-4.5639,4.735c0,3.4229,2.2249,4.678,4.5639,4.678c0.3423,0,0.7416,-0.057,1.0839,-0.1141l0,0c0.9128,1.6544,2.2819,1.2551,2.6242,1.0839c0,0,-0.057,-0.2852,-0.1141,-0.7987C10.9095,12.3753,10.6242,12.033,10.396,11.5766zM9.7115,10.2645c-0.9128,-1.141,-2.0538,-0.8557,-2.339,-0.7416c0,0,0.057,0.2852,0.1141,0.7416c0.6275,0,0.9128,0.3423,1.141,0.7416l0,0l0,0c-0.2282,0.057,-0.3993,0.057,-0.6275,0.057c-1.0839,0,-2.396,-0.4564,-2.396,-3.3659S6.9731,3.9891,8.057,3.9891s2.339,0.6846,2.339,3.5941C10.396,8.8953,10.1108,9.751,9.7115,10.2645L9.7115,10.2645z" fill="#FFFFFF"/>
  </g>
</svg>
