<?xml version="1.0" encoding="UTF-8"?>
<!DOCTYPE svg PUBLIC "-//W3C//DTD SVG 1.1//EN" "http://www.w3.org/Graphics/SVG/1.1/DTD/svg11.dtd">
<svg version="1.1" id="Layer_1" xmlns="http://www.w3.org/2000/svg" xmlns:xlink="http://www.w3.org/1999/xlink" x="0px" y="0px" width="16px" height="16px" viewBox="0 0 16 16" enable-background="new 0 0 16 16" xml:space="preserve">
  <g id="icon">
    <path d="M10.8013,8.9045c0.0561,0.4488,-0.3366,0.8415,-0.8415,0.8415c-0.4488,0,-0.8415,-0.3927,-0.8415,-0.8415s0.3927,-0.8415,0.8415,-0.8415S10.8013,8.4557,10.8013,8.9045zM9.7915,10.9242c-0.5049,0.3366,-1.1781,0.561,-1.7953,0.5049c-0.6732,0,-1.2903,-0.1683,-1.7953,-0.561c-0.0561,-0.0561,-0.1683,-0.0561,-0.2805,0c-0.1122,0.1122,-0.1122,0.2244,-0.0561,0.3366c0.6171,0.4488,1.3465,0.7293,2.1319,0.6732c0.7854,0,1.5148,-0.2244,2.1319,-0.6732c0.0561,-0.0561,0.1122,-0.1683,0,-0.2805C10.0159,10.812,9.9037,10.812,9.7915,10.9242zM6.8181,8.8484c0,-0.4488,-0.3927,-0.8415,-0.8415,-0.8415s-0.8415,0.3927,-0.8415,0.8415c0,0.5049,0.3927,0.8415,0.8415,0.8415S6.8181,9.2973,6.8181,8.8484zM16,8c0,4.4,-3.6,8,-8,8S0,12.4,0,8S3.6,0,8,0S16,3.6,16,8zM13.6625,8.0069c0,-0.6732,-0.6171,-1.2342,-1.2903,-1.1781c-0.2805,0,-0.6171,0.1122,-0.8415,0.3366c-0.9537,-0.6732,-2.1319,-1.0098,-3.31,-1.0659l0.561,-2.6368l1.8514,0.3927c0.0561,0.4488,0.4488,0.7854,0.9537,0.7293c0.4488,-0.0561,0.7854,-0.4488,0.7293,-0.9537s-0.3927,-0.7854,-0.8976,-0.7293c-0.2805,0,-0.5049,0.1683,-0.6171,0.3927l-2.0758,-0.3927c-0.1683,-0.0561,-0.3366,0.0561,-0.3366,0.1683l-0.6171,2.9734c-1.1781,0,-2.3563,0.3927,-3.31,1.0659c-0.5049,-0.4488,-1.2903,-0.4488,-1.7392,0.0561s-0.4488,1.2903,0.0561,1.7392c0.0561,0.1122,0.1683,0.1683,0.2805,0.2244c0,0.1122,0,0.2244,0,0.3927c0,1.9075,2.2441,3.4783,4.9931,3.4783s4.9931,-1.5709,4.9931,-3.4783c0,-0.1122,0,-0.2244,0,-0.3927C13.4381,8.9045,13.7186,8.4557,13.6625,8.0069z" fill="#CE4D32"/>
    <path d="M13.6625,8.0069c0,-0.6732,-0.6171,-1.2342,-1.2903,-1.1781c-0.2805,0,-0.6171,0.1122,-0.8415,0.3366c-0.9537,-0.6732,-2.1319,-1.0098,-3.31,-1.0659l0.561,-2.6368l1.8514,0.3927c0.0561,0.4488,0.4488,0.7854,0.9537,0.7293c0.4488,-0.0561,0.7854,-0.4488,0.7293,-0.9537s-0.3927,-0.7854,-0.8976,-0.7293c-0.2805,0,-0.5049,0.1683,-0.6171,0.3927l-2.0758,-0.3927c-0.1683,-0.0561,-0.3366,0.0561,-0.3366,0.1683l0,0l-0.6171,2.9734c-1.1781,0,-2.3563,0.3927,-3.31,1.0659c-0.5049,-0.4488,-1.2903,-0.4488,-1.7392,0.0561s-0.4488,1.2903,0.0561,1.7392c0.0561,0.1122,0.1683,0.1683,0.2805,0.2244c0,0.1122,0,0.2244,0,0.3927c0,1.9075,2.2441,3.4783,4.9931,3.4783s4.9931,-1.5709,4.9931,-3.4783c0,-0.1122,0,-0.2244,0,-0.3927C13.4381,8.9045,13.7186,8.4557,13.6625,8.0069zM5.135,8.8484c0,-0.4488,0.3927,-0.8415,0.8415,-0.8415s0.8415,0.3927,0.8415,0.8415S6.4253,9.69,5.9765,9.69S5.135,9.3534,5.135,8.8484zM10.1281,11.2047c-0.6171,0.4488,-1.3465,0.6732,-2.1319,0.6732c-0.7854,0.0561,-1.5148,-0.2244,-2.1319,-0.6732c-0.0561,-0.1122,-0.0561,-0.2244,0.0561,-0.3366c0.1122,-0.0561,0.2244,-0.0561,0.2805,0c0.5049,0.3927,1.122,0.561,1.7953,0.561c0.6171,0.0561,1.2903,-0.1683,1.7953,-0.5049c0.1122,-0.1122,0.2244,-0.1122,0.3366,0C10.2403,11.0364,10.1842,11.1486,10.1281,11.2047L10.1281,11.2047L10.1281,11.2047L10.1281,11.2047zM9.9598,9.7461c-0.4488,0,-0.8415,-0.3927,-0.8415,-0.8415s0.3927,-0.8415,0.8415,-0.8415s0.8415,0.3927,0.8415,0.8415C10.8574,9.3534,10.4647,9.7461,9.9598,9.7461L9.9598,9.7461L9.9598,9.7461z" fill="#FFFFFF"/>
  </g>
</svg>
