<?xml version="1.0" encoding="UTF-8"?>
<!DOCTYPE svg PUBLIC "-//W3C//DTD SVG 1.1//EN" "http://www.w3.org/Graphics/SVG/1.1/DTD/svg11.dtd">
<svg version="1.1" id="Layer_1" xmlns="http://www.w3.org/2000/svg" xmlns:xlink="http://www.w3.org/1999/xlink" x="0px" y="0px" width="16px" height="16px" viewBox="0 0 16 16" enable-background="new 0 0 16 16" xml:space="preserve">
  <g id="icon">
    <path d="M8,0C3.55,0,0,3.6,0,8s3.6,8,8,8s8,-3.6,8,-8S12.4,0,8,0zM5.7747,11.9994c-0.2289,0.2289,-0.5151,0.3434,-0.9157,0.3434c-0.3434,0,-0.6867,-0.1145,-0.9157,-0.3434C3.7145,11.7705,3.6,11.4843,3.6,11.141c0,-0.3434,0.1145,-0.6867,0.3434,-0.9157c0.2289,-0.2289,0.5151,-0.3434,0.9157,-0.3434c0.3434,0,0.6867,0.1145,0.9157,0.3434c0.2289,0.2289,0.3434,0.5151,0.3434,0.9157C6.1181,11.4843,6.0036,11.7705,5.7747,11.9994zM9.5518,12.4h-1.259c-0.1717,0,-0.2861,-0.1145,-0.2861,-0.2861c-0.0572,-1.0873,-0.4578,-2.1175,-1.259,-2.8614c-0.744,-0.8012,-1.7741,-1.259,-2.8614,-1.3163C3.7145,7.9361,3.6,7.8217,3.6,7.65V6.391c0,-0.1717,0.1717,-0.2861,0.2861,-0.2289c1.6024,0.0572,3.0331,0.744,4.1205,1.8313s1.7741,2.5181,1.8313,4.1205C9.838,12.2855,9.7235,12.4,9.5518,12.4zM12.8139,12.4h-1.259c-0.1717,0,-0.2861,-0.1145,-0.2861,-0.2861c-0.1145,-4.006,-3.3765,-7.2108,-7.3825,-7.3825c-0.1717,0,-0.2861,-0.1145,-0.2861,-0.2861v-1.259C3.6,3.0145,3.7717,2.9,3.9434,2.9c2.4608,0.0572,4.75,1.1446,6.3524,2.8042c1.6596,1.6596,2.747,3.8916,2.8042,6.4096C13.1,12.2855,12.9855,12.4,12.8139,12.4z" fill="#E78155"/>
    <path d="M5.7747,10.2253c0.2289,0.2289,0.3434,0.5151,0.3434,0.9157c0,0.3434,-0.1145,0.6295,-0.3434,0.8584l0,0c-0.2289,0.2289,-0.5151,0.3434,-0.9157,0.3434c-0.3434,0,-0.6867,-0.1145,-0.9157,-0.3434C3.7145,11.7705,3.6,11.4843,3.6,11.141c0,-0.3434,0.1145,-0.6867,0.3434,-0.9157l0,0c0.2289,-0.2289,0.5151,-0.3434,0.9157,-0.3434C5.2024,9.8819,5.5458,9.9964,5.7747,10.2253zM5.7747,10.2253L5.7747,10.2253L5.7747,10.2253L5.7747,10.2253zM4.0006,11.9994L4.0006,11.9994L4.0006,11.9994L4.0006,11.9994zM3.6,6.391V7.65c0,0.1717,0.1145,0.2861,0.2861,0.2861c1.0873,0.0572,2.1175,0.5151,2.8614,1.3163c0.8012,0.744,1.2018,1.7741,1.259,2.8614c0,0.1717,0.1145,0.2861,0.2861,0.2861h1.259c0.1717,0,0.2861,-0.1145,0.2861,-0.2861c-0.0572,-1.6024,-0.744,-3.0331,-1.8313,-4.1205S5.4886,6.2193,3.8861,6.162C3.7717,6.1048,3.6,6.2193,3.6,6.391zM3.6,3.1861v1.259c0,0.1717,0.1145,0.2861,0.2861,0.2861c4.006,0.1717,7.2681,3.3765,7.3825,7.3825c0,0.1717,0.1145,0.2861,0.2861,0.2861h1.259c0.1717,0,0.2861,-0.1145,0.2861,-0.2861c-0.0572,-2.5181,-1.1446,-4.75,-2.8042,-6.4096C8.6934,4.0446,6.4042,2.9572,3.9434,2.9C3.7717,2.9,3.6,3.0145,3.6,3.1861z" fill="#FFFFFF"/>
  </g>
</svg>
