<?xml version="1.0" encoding="UTF-8"?>
<!DOCTYPE svg PUBLIC "-//W3C//DTD SVG 1.1//EN" "http://www.w3.org/Graphics/SVG/1.1/DTD/svg11.dtd">
<svg version="1.1" id="Layer_1" xmlns="http://www.w3.org/2000/svg" xmlns:xlink="http://www.w3.org/1999/xlink" x="0px" y="0px" width="16px" height="16px" viewBox="0 0 16 16" enable-background="new 0 0 16 16" xml:space="preserve">
  <g id="icon">
    <path d="M10.6127,8.5114c0.1136,0.2273,0.1705,0.5114,0.1705,0.7955c0,0.2841,-0.1136,0.6818,-0.3409,0.9659s-0.5114,0.5682,-0.9659,0.7386c-0.3977,0.1705,-0.9091,0.2273,-1.4773,0.2273c-0.6818,0,-1.25,-0.1136,-1.6477,-0.3409c-0.2841,-0.1705,-0.5682,-0.3977,-0.7386,-0.6818c-0.1705,-0.2841,-0.2841,-0.5682,-0.2841,-0.8523c0,-0.1705,0.0568,-0.3409,0.1705,-0.4545c0.1136,-0.1136,0.2841,-0.1705,0.5114,-0.1705c0.1705,0,0.2841,0.0568,0.3977,0.1136c0.1136,0.1136,0.1705,0.2273,0.2841,0.3977c0.0568,0.1705,0.1705,0.3409,0.2841,0.4545c0.1136,0.1136,0.2273,0.2273,0.3977,0.2841c0.1705,0.0568,0.3977,0.1136,0.6818,0.1136c0.3977,0,0.6818,-0.0568,0.9091,-0.2273s0.3409,-0.3409,0.3409,-0.5682c0,-0.1705,-0.0568,-0.3409,-0.1705,-0.4545c-0.1136,-0.1136,-0.2841,-0.2273,-0.5114,-0.2841c-0.2273,-0.0568,-0.5114,-0.1136,-0.8523,-0.2273c-0.4545,-0.1136,-0.9091,-0.2273,-1.1932,-0.3409c-0.3409,-0.1136,-0.625,-0.3409,-0.7955,-0.5682c-0.2273,-0.2273,-0.2841,-0.5682,-0.2841,-0.9091c0,-0.3409,0.1136,-0.6818,0.3409,-0.9659c0.2273,-0.2841,0.5114,-0.4545,0.9091,-0.625c0.3977,-0.1705,0.8523,-0.2273,1.3636,-0.2273c0.3977,0,0.7955,0.0568,1.0795,0.1705s0.5682,0.2273,0.7386,0.3977c0.2273,0.1705,0.3409,0.3409,0.4545,0.5114c0.1136,0.1705,0.1705,0.3409,0.1705,0.5114s-0.0568,0.3409,-0.1705,0.4545c-0.1136,0.1136,-0.2841,0.2273,-0.4545,0.2273c-0.1705,0,-0.2841,-0.0568,-0.3977,-0.1136c-0.1136,-0.0568,-0.1705,-0.1705,-0.2841,-0.3977c-0.1136,-0.2273,-0.2841,-0.3977,-0.3977,-0.5114c-0.1705,-0.1136,-0.3977,-0.1705,-0.7955,-0.1705c-0.3409,0,-0.625,0.0568,-0.7955,0.1705c-0.3409,0.1705,-0.3977,0.3409,-0.3977,0.5114c0,0.1136,0.0568,0.1705,0.1136,0.2841c0.0568,0.0568,0.1705,0.1705,0.2841,0.2273c0.1136,0.0568,0.2273,0.1136,0.3977,0.1705c0.1136,0.0568,0.3409,0.1136,0.625,0.1705c0.3977,0.0568,0.7386,0.1705,1.0227,0.2841c0.2841,0.1136,0.5682,0.2273,0.7955,0.3409C10.3287,8.1136,10.4991,8.2841,10.6127,8.5114zM16,8c0,4.4,-3.6,8,-8,8S0,12.4,0,8S3.6,0,8,0C12.45,0,16,3.6,16,8zM12.6014,9.0227c0.0568,-0.3409,0.1136,-0.6818,0.1136,-1.0227c0,-2.5568,-2.1023,-4.6591,-4.6591,-4.6591c-0.2841,0,-0.5114,0,-0.7955,0.0568C6.8627,3.1136,6.3514,3,5.84,3c-1.4773,0,-2.6705,1.1932,-2.6705,2.6705c0,0.5114,0.1136,0.9659,0.3977,1.3636c-0.1136,0.3977,-0.1705,0.6818,-0.1705,1.0227c0,2.5568,2.1023,4.6591,4.6591,4.6591c0.2841,0,0.5682,0,0.8523,-0.0568c0.3977,0.2273,0.7955,0.3409,1.25,0.3409c1.4773,0,2.6705,-1.1932,2.6705,-2.6705C12.8855,9.8182,12.7718,9.4205,12.6014,9.0227z" fill="#539FBF"/>
    <path d="M12.6014,9.0227c0.0568,-0.3409,0.1136,-0.6818,0.1136,-1.0227c0,-2.5568,-2.1023,-4.6591,-4.6591,-4.6591c-0.2841,0,-0.5114,0,-0.7955,0.0568C6.8627,3.1136,6.3514,3,5.84,3c-1.4773,0,-2.6705,1.1932,-2.6705,2.6705c0,0.5114,0.1136,0.9659,0.3977,1.3636c-0.1136,0.3977,-0.1705,0.6818,-0.1705,1.0227c0,2.5568,2.1023,4.6591,4.6591,4.6591c0.2841,0,0.5682,0,0.8523,-0.0568c0.3977,0.2273,0.7955,0.3409,1.25,0.3409c1.4773,0,2.6705,-1.1932,2.6705,-2.6705C12.8855,9.8182,12.7718,9.4205,12.6014,9.0227zM10.4423,10.2727c-0.2273,0.2841,-0.5114,0.5682,-0.9659,0.7386c-0.3977,0.1705,-0.9091,0.2273,-1.4773,0.2273c-0.6818,0,-1.25,-0.1136,-1.6477,-0.3409c-0.2841,-0.1705,-0.5682,-0.3977,-0.7386,-0.6818c-0.1705,-0.2841,-0.2841,-0.5682,-0.2841,-0.8523c0,-0.1705,0.0568,-0.3409,0.1705,-0.4545c0.1136,-0.1136,0.2841,-0.1705,0.5114,-0.1705c0.1705,0,0.2841,0.0568,0.3977,0.1136c0.1136,0.1136,0.1705,0.2273,0.2841,0.3977c0.0568,0.1705,0.1705,0.3409,0.2841,0.4545c0.1136,0.1136,0.2273,0.2273,0.3977,0.2841c0.1705,0.0568,0.3977,0.1136,0.6818,0.1136c0.3977,0,0.6818,-0.0568,0.9091,-0.2273s0.3409,-0.3409,0.3409,-0.5682c0,-0.1705,-0.0568,-0.3409,-0.1705,-0.4545c-0.1136,-0.1136,-0.2841,-0.2273,-0.5114,-0.2841c-0.2273,-0.0568,-0.5114,-0.1136,-0.8523,-0.2273c-0.4545,-0.1136,-0.9091,-0.2273,-1.1932,-0.3409c-0.3409,-0.1136,-0.625,-0.3409,-0.7955,-0.5682c-0.2273,-0.2273,-0.2841,-0.5682,-0.2841,-0.9091c0,-0.3409,0.1136,-0.6818,0.3409,-0.9659c0.2273,-0.2841,0.5114,-0.4545,0.9091,-0.625c0.3977,-0.1705,0.8523,-0.2273,1.3636,-0.2273c0.3977,0,0.7955,0.0568,1.0795,0.1705s0.5682,0.2273,0.7386,0.3977c0.2273,0.1705,0.3409,0.3409,0.4545,0.5114c0.1136,0.1705,0.1705,0.3409,0.1705,0.5114s-0.0568,0.3409,-0.1705,0.4545c-0.1136,0.1136,-0.2841,0.2273,-0.4545,0.2273c-0.1705,0,-0.2841,-0.0568,-0.3977,-0.1136c-0.1136,-0.0568,-0.1705,-0.1705,-0.2841,-0.3977c-0.1136,-0.2273,-0.2841,-0.3977,-0.3977,-0.5114c-0.1705,-0.1136,-0.3977,-0.1705,-0.7955,-0.1705c-0.3409,0,-0.625,0.0568,-0.7955,0.1705c-0.3409,0.1705,-0.3977,0.3409,-0.3977,0.5114c0,0.1136,0.0568,0.1705,0.1136,0.2841c0.0568,0.0568,0.1705,0.1705,0.2841,0.2273c0.1136,0.0568,0.2273,0.1136,0.3977,0.1705c0.1136,0.0568,0.3409,0.1136,0.625,0.1705c0.3977,0.0568,0.7386,0.1705,1.0227,0.2841c0.2841,0.1136,0.5682,0.2273,0.7955,0.3409c0.2273,0.1705,0.3977,0.3409,0.5114,0.5682c0.1136,0.2273,0.1705,0.5114,0.1705,0.7955C10.7832,9.5909,10.6696,9.9886,10.4423,10.2727z" fill="#FFFFFF"/>
  </g>
</svg>
