<?xml version="1.0" encoding="UTF-8"?>
<!DOCTYPE svg PUBLIC "-//W3C//DTD SVG 1.1//EN" "http://www.w3.org/Graphics/SVG/1.1/DTD/svg11.dtd">
<svg version="1.1" id="Layer_1" xmlns="http://www.w3.org/2000/svg" xmlns:xlink="http://www.w3.org/1999/xlink" x="0px" y="0px" width="16px" height="16px" viewBox="0 0 16 16" enable-background="new 0 0 16 16" xml:space="preserve">
  <g id="icon">
    <path d="M8.7625,6.5867l0.7067,2.12l0,0v0.0589l-2.1789,0.7067l-0.7067,-2.1789L8.7625,6.5867zM16,8c0,4.4,-3.6,8,-8,8S0,12.4,0,8S3.6,0,8,0S16,3.6,16,8zM13.2969,8.4711c-0.0589,-0.2356,-0.2356,-0.4122,-0.4122,-0.53c-0.1178,-0.0589,-0.2356,-0.1178,-0.4122,-0.1178c-0.1178,0,-0.1767,0,-0.2944,0.0589l-1.06,0.3533l-0.7067,-2.1789l1.06,-0.3533c0.2356,-0.0589,0.4122,-0.2356,0.53,-0.4122c0.1178,-0.2356,0.1178,-0.4711,0.0589,-0.7067s-0.2356,-0.4122,-0.4122,-0.53c-0.1178,-0.0589,-0.2356,-0.1178,-0.4122,-0.1178c-0.1178,0,-0.1767,0,-0.2944,0.0589l-1.06,0.3533l-0.3533,-1.06c-0.0589,-0.1767,-0.1767,-0.3533,-0.3533,-0.4711C9.0569,2.7589,8.8802,2.7,8.7036,2.7c-0.1178,0,-0.1767,0,-0.2944,0.0589c-0.2356,0.0589,-0.4122,0.2356,-0.53,0.4122c-0.1178,0.2356,-0.1178,0.4711,-0.0589,0.7067l0.3533,1.06l-2.12,0.7067l-0.3533,-1.06c-0.0589,-0.1767,-0.1767,-0.3533,-0.3533,-0.4711c-0.1767,-0.1178,-0.3533,-0.1767,-0.53,-0.1767c-0.1178,0,-0.1767,0,-0.2944,0.0589c-0.1767,0.1178,-0.3533,0.2356,-0.4711,0.4711c-0.1178,0.2356,-0.1178,0.4711,-0.0589,0.7067l0.3533,1.06l-1.06,0.2944c-0.2356,0.0589,-0.4122,0.2356,-0.4711,0.4122c-0.1178,0.2356,-0.1767,0.4711,-0.1178,0.6478c0.0589,0.2356,0.2356,0.4122,0.4711,0.53c0.1178,0.0589,0.2356,0.1178,0.4122,0.1178c0.0589,0,0.1767,0,0.2356,-0.0589l1.06,-0.3533l0.7067,2.1789l-1.06,0.3533c-0.2356,0.0589,-0.4122,0.2356,-0.4711,0.4122c-0.1178,0.1767,-0.1178,0.4122,-0.0589,0.6478c0.0589,0.2356,0.2356,0.4122,0.4711,0.53c0.1178,0.0589,0.2356,0.1178,0.4122,0.1178c0.0589,0,0.1767,0,0.2356,-0.0589l1.06,-0.3533l0.3533,1.06c0.1178,0.3533,0.4711,0.5889,0.8244,0.5889c0.0589,0,0.1767,0,0.2356,-0.0589c0.2356,-0.0589,0.4122,-0.2356,0.53,-0.4711c0.1178,-0.1767,0.1178,-0.4122,0.0589,-0.6478l-0.3533,-1.06l2.1789,-0.7067l0.3533,1.1778c0.1178,0.3533,0.4711,0.5889,0.8244,0.5889c0.0589,0,0.1767,0,0.2356,-0.0589c0.2356,-0.0589,0.4122,-0.2356,0.53,-0.4711c0.1178,-0.1767,0.1178,-0.4122,0.0589,-0.6478l-0.3533,-1.06l1.06,-0.3533c0.2356,-0.0589,0.4122,-0.2356,0.53,-0.4122C13.3558,8.9422,13.4147,8.7067,13.2969,8.4711z" fill="#4EA17E"/>
    <path d="M13.238,9.1189c0.1178,-0.1767,0.1767,-0.4122,0.0589,-0.6478c-0.0589,-0.2356,-0.2356,-0.4122,-0.4122,-0.53c-0.1178,-0.0589,-0.2356,-0.1178,-0.4122,-0.1178c-0.1178,0,-0.1767,0,-0.2944,0.0589l-1.06,0.3533l-0.7067,-2.1789l1.06,-0.3533c0.2356,-0.0589,0.4122,-0.2356,0.53,-0.4122c0.1178,-0.2356,0.1178,-0.4711,0.0589,-0.7067s-0.2356,-0.4122,-0.4122,-0.53c-0.1178,-0.0589,-0.2356,-0.1178,-0.4122,-0.1178c-0.1178,0,-0.1767,0,-0.2944,0.0589l-1.06,0.3533l-0.3533,-1.06c-0.0589,-0.1767,-0.1767,-0.3533,-0.3533,-0.4711C9.0569,2.7589,8.8802,2.7,8.7036,2.7c-0.1178,0,-0.1767,0,-0.2944,0.0589c-0.2356,0.0589,-0.4122,0.2356,-0.53,0.4122c-0.1178,0.2356,-0.1178,0.4711,-0.0589,0.7067l0.3533,1.06l-2.12,0.7067l-0.3533,-1.06c-0.0589,-0.1767,-0.1767,-0.3533,-0.3533,-0.4711c-0.1767,-0.1178,-0.3533,-0.1767,-0.53,-0.1767c-0.1178,0,-0.1767,0,-0.2944,0.0589c-0.1767,0.1178,-0.3533,0.2356,-0.4711,0.4711c-0.1178,0.2356,-0.1178,0.4711,-0.0589,0.7067l0.3533,1.06l-1.06,0.2944c-0.2356,0.0589,-0.4122,0.2356,-0.4711,0.4122c-0.1178,0.2356,-0.1767,0.4711,-0.1178,0.6478c0.0589,0.2356,0.2356,0.4122,0.4711,0.53c0.1178,0.0589,0.2356,0.1178,0.4122,0.1178c0.0589,0,0.1767,0,0.2356,-0.0589l1.06,-0.3533l0.7067,2.1789l-1.06,0.3533c-0.2356,0.0589,-0.4122,0.2356,-0.4711,0.4122c-0.1178,0.1767,-0.1178,0.4122,-0.0589,0.6478c0.0589,0.2356,0.2356,0.4122,0.4711,0.53c0.1178,0.0589,0.2356,0.1178,0.4122,0.1178c0.0589,0,0.1767,0,0.2356,-0.0589l1.06,-0.3533l0.3533,1.06c0.1178,0.3533,0.4711,0.5889,0.8244,0.5889c0.0589,0,0.1767,0,0.2356,-0.0589c0.2356,-0.0589,0.4122,-0.2356,0.53,-0.4711c0.1178,-0.1767,0.1178,-0.4122,0.0589,-0.6478l-0.3533,-1.06l2.1789,-0.7067l0.3533,1.1778c0.1178,0.3533,0.4711,0.5889,0.8244,0.5889c0.0589,0,0.1767,0,0.2356,-0.0589c0.2356,-0.0589,0.4122,-0.2356,0.53,-0.4711c0.1178,-0.1767,0.1178,-0.4122,0.0589,-0.6478l-0.3533,-1.06l1.06,-0.3533C12.9436,9.4722,13.1202,9.2956,13.238,9.1189zM9.4691,8.7656l-2.1789,0.7067l-0.7067,-2.1789l2.1789,-0.7067l0.7067,2.12V8.7656z" fill="#FFFFFF"/>
  </g>
</svg>
