<?xml version="1.0" encoding="UTF-8"?>
<!DOCTYPE svg PUBLIC "-//W3C//DTD SVG 1.1//EN" "http://www.w3.org/Graphics/SVG/1.1/DTD/svg11.dtd">
<svg version="1.1" id="Layer_1" xmlns="http://www.w3.org/2000/svg" xmlns:xlink="http://www.w3.org/1999/xlink" x="0px" y="0px" width="16px" height="16px" viewBox="0 0 16 16" enable-background="new 0 0 16 16" xml:space="preserve">
  <g id="icon">
    <path d="M8,0C3.6,0,0,3.6,0,8s3.6,8,8,8s8,-3.6,8,-8S12.4,0,8,0zM12.4199,11.3249c-0.3949,0.0564,-0.4513,0.1692,-0.5641,0.5641c0,0.0564,-0.0564,0.1692,-0.1692,0.1692c-0.5641,-0.1128,-1.1847,-0.1128,-1.7489,0.1692c-0.6206,0.3385,-1.0719,0.7334,-1.8053,0.7334c-0.4513,0,-0.7898,-0.1128,-1.2411,-0.3385c-0.7334,-0.4513,-1.1847,-0.7334,-2.0874,-0.6206c-0.1128,0,-0.4513,0.1128,-0.5077,-0.0564c-0.0564,-0.2257,0,-0.5641,-0.2821,-0.6206c-0.1692,-0.0564,-1.5232,-0.2257,-1.2411,-0.677c0.1128,-0.1692,0.4513,-0.2257,0.6206,-0.2821c0.2821,-0.1128,0.5641,-0.3385,0.8462,-0.5641c0.3385,-0.3385,1.2411,-1.354,0.677,-1.7489c-0.2821,-0.2257,-1.1283,-0.2821,-1.1283,-0.7334c0.0564,-0.6206,0.9026,-0.2257,1.2411,-0.2257c0.3385,0,0.1692,-0.5641,0.1692,-0.7898c0,-0.2821,0,-0.6206,0,-0.9026c0.0564,-1.5232,1.4668,-2.4823,2.8772,-2.4823c1.1847,0,2.313,0.5641,2.7079,1.6924c0.2257,0.5641,0.1692,1.1283,0.1692,1.6924c0,0.1692,-0.0564,0.6206,0,0.7334c0,0.2257,0.2257,0.1128,0.3949,0.1128c0.3385,0,0.7334,-0.2821,0.9591,0.1692c0.1692,0.3949,-0.4513,0.5641,-0.7334,0.677c-0.5077,0,-0.6206,0.5077,-0.4513,0.8462c0.2821,0.5077,0.677,1.0155,1.1847,1.354c0.2257,0.1692,0.9026,0.2257,1.0719,0.5077C13.5482,11.0992,12.6456,11.2685,12.4199,11.3249z" fill="#EAB765"/>
    <path d="M8.076,2.9191c-1.4104,0,-2.8207,0.9591,-2.8772,2.4823c0,0.2821,0,0.6206,0,0.9026c0,0.2257,0.1692,0.7898,-0.1692,0.7898c-0.3385,0,-1.1847,-0.3949,-1.2411,0.2257c0,0.4513,0.8462,0.5077,1.1283,0.7334c0.5641,0.3949,-0.3385,1.4104,-0.677,1.7489c-0.2821,0.2257,-0.5641,0.4513,-0.8462,0.5641c-0.1692,0.0564,-0.5077,0.1128,-0.6206,0.2821c-0.2821,0.4513,1.0719,0.6206,1.2411,0.677c0.2821,0.0564,0.2257,0.3949,0.2821,0.6206c0.0564,0.1692,0.3949,0.0564,0.5077,0.0564c0.9026,-0.1128,1.354,0.1692,2.0874,0.6206c0.4513,0.2257,0.7898,0.3385,1.2411,0.3385c0.7334,0,1.1847,-0.3949,1.8053,-0.7334c0.5641,-0.2821,1.1847,-0.2821,1.7489,-0.1692c0.1128,0,0.1692,-0.1128,0.1692,-0.1692c0.1128,-0.3949,0.1692,-0.5077,0.5641,-0.5641c0.2257,-0.0564,1.1283,-0.2257,0.9591,-0.6206c-0.1692,-0.2821,-0.8462,-0.3385,-1.0719,-0.5077c-0.5077,-0.3385,-0.9026,-0.8462,-1.1847,-1.354c-0.1692,-0.3385,-0.0564,-0.8462,0.4513,-0.8462c0.2821,-0.1128,0.9026,-0.2821,0.7334,-0.677c-0.2257,-0.4513,-0.6206,-0.1692,-0.9591,-0.1692c-0.1692,0,-0.3949,0.1128,-0.3949,-0.1128c-0.0564,-0.1128,0,-0.5641,0,-0.7334c0,-0.5641,0.0564,-1.1283,-0.1692,-1.6924C10.389,3.4832,9.2607,2.9191,8.076,2.9191z" fill="#FFFFFF"/>
  </g>
</svg>
