<?xml version="1.0" encoding="UTF-8"?>
<!DOCTYPE svg PUBLIC "-//W3C//DTD SVG 1.1//EN" "http://www.w3.org/Graphics/SVG/1.1/DTD/svg11.dtd">
<svg version="1.1" id="Layer_1" xmlns="http://www.w3.org/2000/svg" xmlns:xlink="http://www.w3.org/1999/xlink" x="0px" y="0px" width="16px" height="16px" viewBox="0 0 16 16" enable-background="new 0 0 16 16" xml:space="preserve">
  <g id="icon">
    <path d="M8,0C3.6,0,0,3.6,0,8s3.6,8,8,8s8,-3.6,8,-8S12.4,0,8,0zM2.3958,9.6966c-0.0572,0.236,-0.1333,0.4364,-0.1619,0.4484c-0.0761,0.0294,-0.1047,0.0237,-0.1333,-0.0237l0.0097,-0.0057c-0.045,-0.1467,-0.0831,-0.2943,-0.1144,-0.4424c0,0,-0.0398,-0.2252,-0.0398,-0.4012c0,-0.176,0.0494,-0.4247,0.0494,-0.4247c0.0475,-0.236,0.1144,-0.4427,0.1333,-0.4601c0.0951,-0.0709,0.162,0.0414,0.257,0.4601c0,0,0.0472,0.1084,0.0472,0.4247C2.443,9.5882,2.3958,9.6966,2.3958,9.6966zM3.3139,10.0035c-0.073,0.4247,-0.156,0.7965,-0.1766,0.8316c-0.0518,0.0652,-0.156,0.0769,-0.2184,0.0297v-0.0057h0.0005c-0.0206,-0.0177,0.0243,-0.3775,-0.0381,-0.8024c0,0,-0.0746,-0.3345,-0.0746,-0.773c0,-0.4385,0.064,-0.7316,0.064,-0.7316c0.0624,-0.4009,0.1248,-0.7847,0.1349,-0.8436c0.0312,-0.118,0.0069,-0.1652,0.1005,-0.1123c0.0312,0.0177,0.1142,0.3658,0.1978,0.8319c0,0,0.0826,0.3333,0.0826,0.8024C3.3865,9.6996,3.3139,10.0035,3.3139,10.0035zM4.2874,10.0449c-0.0537,0.4481,-0.1165,0.8379,-0.1342,0.873c-0.0178,0.0414,-0.0628,0.0592,-0.1342,0.0592s-0.1074,-0.0177,-0.1342,-0.0592l0.0087,-0.006c-0.0178,-0.0295,-0.0715,-0.4189,-0.1251,-0.8616c-0.0618,-0.7787,-0.0609,-0.8141,-0.0268,-1.3094c0.0359,-0.2775,0.0719,-0.6196,0.0896,-0.7553c0.0268,-0.2478,0.0896,-0.3661,0.1879,-0.3661c0.1251,0,0.1611,0.0946,0.2685,0.8439c0,0,0.0426,0.3071,0.0426,0.767C4.33,9.6904,4.2874,10.0449,4.2874,10.0449zM5.2173,10.0627c-0.0355,0.2733,-0.0689,0.5467,-0.1003,0.8202c0,0.0469,-0.1188,0.112,-0.2005,0.112c-0.0459,0,-0.1003,-0.0237,-0.1369,-0.0589v0.0057h-0.0009c-0.0455,-0.0414,-0.0822,-0.2892,-0.1458,-0.885c-0.0729,-0.7081,-0.0822,-0.9088,-0.0455,-1.4394c0.0181,-0.3366,0.0548,-1.0031,0.0822,-1.4812c0.0274,-0.4778,0.0548,-0.8968,0.064,-0.9439c0.0367,-0.1535,0.3101,-0.1769,0.3648,-0.0294c0.0093,0.0294,0.064,0.7433,0.1188,1.5809c0,0,0.0562,1.1238,0.0562,1.5283S5.2173,10.0627,5.2173,10.0627zM6.286,10.0447c-0.0848,0.7964,-0.0939,0.867,-0.1787,0.9142c-0.0848,0.0532,-0.2125,0.0474,-0.3069,-0.0117l-0.0091,0.0063c-0.047,-0.0354,-0.0752,-0.1063,-0.0944,-0.2183c-0.1414,-1.3451,-0.1414,-1.4397,-0.0752,-2.8437c0.0848,-1.935,0.1035,-2.1181,0.1787,-2.1653s0.26,-0.0472,0.3256,0c0.0378,0.0237,0.0661,0.3658,0.1131,1.1328C6.3521,9.0004,6.3617,9.3425,6.286,10.0447zM7.1151,10.1098c-0.0545,0.767,-0.0614,0.7964,-0.1294,0.8436c-0.0888,0.0589,-0.173,0.0589,-0.2479,0h0.0135v0c-0.0614,-0.0532,-0.0683,-0.118,-0.1294,-1.0619c-0.034,-0.5487,-0.0274,-1.1268,0.034,-2.9972c0.0343,-1.0028,0.0343,-1.0205,0.2181,-1.0205c0.0614,0,0.0981,0.0177,0.132,0.0532c0.0614,0.0532,0.0614,0.0943,0.0884,0.9556c0.0069,0.2712,0.0343,0.9322,0.0479,1.4632C7.1699,9.2128,7.1699,9.3959,7.1151,10.1098zM7.9338,10.1741c-0.0196,0.2162,-0.0363,0.4325,-0.0502,0.649c0,0.0649,-0.1171,0.1769,-0.2099,0.1769c-0.0433,0.0006,-0.0372,-0.0229,-0.0798,-0.0526c-0.0527,-0.0334,-0.0884,-0.0818,-0.1001,-0.1357c-0.0073,-0.0474,-0.036,-0.4309,-0.0644,-0.8556c-0.0357,-0.6076,-0.0429,-0.9733,-0.0215,-1.7169c0.0145,-0.519,0.036,-1.3803,0.0502,-1.9112c0.0215,-1.2154,0.036,-1.3334,0.1216,-1.4043c0.0932,-0.0709,0.1252,-0.0649,0.2253,0.0117c0.0717,0.0592,0.0786,0.0826,0.0859,0.3835c0,0.1769,0.0073,0.3538,0.0142,0.3892c0.0069,0.0354,0.0145,0.537,0.0287,1.1148c0.0145,0.5781,0.0287,1.0562,0.036,1.0622C8.0055,7.9322,7.9771,9.6431,7.9338,10.1741zM14.0336,9.9738c-0.1904,0.4601,-0.4636,0.749,-0.8782,0.9322c0,0,-0.0194,0.0709,-0.6041,0.0709c-0.5847,0,-1.8737,0.006,-1.8737,0.006l-2.3219,0.006l-0.0633,-0.0532l-0.0539,-0.0652V4.7704l0.0586,-0.0532c0.0683,-0.0649,0.3268,-0.1652,0.5855,-0.23c0.2781,-0.0649,0.7317,-0.0592,1.0195,0.0117c1.1509,0.2892,1.9705,1.3571,2.156,2.8083l0.0146,0.0943l0.1904,-0.0649c0.1609,-0.0532,0.2195,-0.0649,0.4291,-0.0532c0.2977,0.0177,0.3121,0.0177,0.507,0.106C14.0582,7.7848,14.448,8.9824,14.0336,9.9738z" fill="#E78155"/>
    <path d="M4.7787,10.9417c-0.0455,-0.0414,-0.0822,-0.2892,-0.1458,-0.885c-0.0729,-0.7081,-0.0822,-0.9088,-0.0455,-1.4394c0.0181,-0.3366,0.0548,-1.0031,0.0822,-1.4812c0.0274,-0.4778,0.0548,-0.8968,0.064,-0.9439c0.0367,-0.1535,0.3101,-0.1769,0.3648,-0.0294c0.0093,0.0294,0.064,0.7433,0.1188,1.5809c0,0,0.0562,1.1238,0.0562,1.5283s-0.0562,0.7907,-0.0562,0.7907c-0.0355,0.2733,-0.0689,0.5467,-0.1003,0.8202c0,0.0469,-0.1188,0.112,-0.2005,0.112c-0.0459,0,-0.1003,-0.0237,-0.1369,-0.0589v0.0057L4.7787,10.9417zM5.7912,10.9534c-0.047,-0.0354,-0.0752,-0.1063,-0.0944,-0.2183c-0.1414,-1.3451,-0.1414,-1.4397,-0.0752,-2.8437c0.0848,-1.935,0.1035,-2.1181,0.1787,-2.1653c0.0752,-0.0472,0.26,-0.0472,0.3256,0c0.0378,0.0237,0.0661,0.3658,0.1131,1.1328c0.1131,2.1416,0.1227,2.4836,0.047,3.1858c-0.0848,0.7964,-0.0939,0.867,-0.1787,0.9142c-0.0848,0.0532,-0.2125,0.0474,-0.3069,-0.0117L5.7912,10.9534L5.7912,10.9534zM6.7514,10.9534c-0.0614,-0.0532,-0.0683,-0.118,-0.1294,-1.0619c-0.034,-0.5487,-0.0274,-1.1268,0.034,-2.9972c0.0343,-1.0028,0.0343,-1.0205,0.2181,-1.0205c0.0614,0,0.0981,0.0177,0.132,0.0532c0.0614,0.0532,0.0614,0.0943,0.0884,0.9556c0.0069,0.2712,0.0343,0.9322,0.0479,1.4632c0.0274,0.867,0.0274,1.0502,-0.0274,1.7641c-0.0545,0.767,-0.0614,0.7964,-0.1294,0.8436c-0.0888,0.0589,-0.173,0.0589,-0.2479,0L6.7514,10.9534L6.7514,10.9534zM7.5939,10.9474c-0.0527,-0.0334,-0.0884,-0.0818,-0.1001,-0.1357c-0.0073,-0.0474,-0.036,-0.4309,-0.0644,-0.8556c-0.0357,-0.6076,-0.0429,-0.9733,-0.0215,-1.7169c0.0145,-0.519,0.036,-1.3803,0.0502,-1.9112c0.0215,-1.2154,0.036,-1.3334,0.1216,-1.4043c0.0932,-0.0709,0.1252,-0.0649,0.2253,0.0117c0.0717,0.0592,0.0786,0.0826,0.0859,0.3835c0,0.1769,0.0073,0.3538,0.0142,0.3892s0.0145,0.537,0.0287,1.1148c0.0145,0.5781,0.0287,1.0562,0.036,1.0622c0.0357,0.0472,0.0073,1.7581,-0.036,2.289c-0.0196,0.2162,-0.0363,0.4325,-0.0502,0.649c0,0.0649,-0.1171,0.1769,-0.2099,0.1769C7.6304,11.0006,7.6365,10.9771,7.5939,10.9474L7.5939,10.9474zM8.2923,10.9357l-0.0539,-0.0652V4.7704l0.0586,-0.0532c0.0683,-0.0649,0.3268,-0.1652,0.5855,-0.23c0.2781,-0.0649,0.7317,-0.0592,1.0195,0.0117c1.1509,0.2892,1.9705,1.3571,2.156,2.8083l0.0146,0.0943l0.1904,-0.0649c0.1609,-0.0532,0.2195,-0.0649,0.4291,-0.0532c0.2977,0.0177,0.3121,0.0177,0.507,0.106c0.8589,0.3952,1.2487,1.5929,0.8343,2.5842c-0.1904,0.4601,-0.4636,0.749,-0.8782,0.9322c0,0,-0.0194,0.0709,-0.6041,0.0709c-0.5847,0,-1.8737,0.006,-1.8737,0.006l-2.3219,0.006L8.2923,10.9357L8.2923,10.9357zM3.8934,10.912c-0.0178,-0.0294,-0.0715,-0.4189,-0.1251,-0.8616c-0.0618,-0.7787,-0.0609,-0.8141,-0.0268,-1.3094c0.0359,-0.2775,0.0719,-0.6196,0.0896,-0.7553c0.0268,-0.2478,0.0896,-0.3661,0.1879,-0.3661c0.1251,0,0.1611,0.0946,0.2685,0.8439c0,0,0.0425,0.3071,0.0425,0.767c0,0.4599,-0.0425,0.8145,-0.0425,0.8145c-0.0537,0.4481,-0.1165,0.8379,-0.1342,0.873c-0.0178,0.0414,-0.0628,0.0592,-0.1342,0.0592c-0.0715,0,-0.1074,-0.0177,-0.1342,-0.0592L3.8934,10.912L3.8934,10.912zM2.9194,10.8591c-0.0206,-0.0177,0.0243,-0.3775,-0.0381,-0.8024c0,0,-0.0746,-0.3345,-0.0746,-0.773s0.064,-0.7316,0.064,-0.7316c0.0624,-0.4009,0.1248,-0.7847,0.1349,-0.8436c0.0312,-0.118,0.0069,-0.1652,0.1005,-0.1123c0.0312,0.0177,0.1142,0.3658,0.1978,0.8319c0,0,0.0826,0.3333,0.0826,0.8024c0,0.4692,-0.0726,0.773,-0.0726,0.773c-0.073,0.4247,-0.156,0.7964,-0.1766,0.8316c-0.0518,0.0652,-0.156,0.0769,-0.2184,0.0297v-0.0057H2.9194zM2.1102,10.1155c-0.045,-0.1468,-0.0831,-0.2943,-0.1144,-0.4424c0,0,-0.0398,-0.2252,-0.0398,-0.4012c0,-0.176,0.0494,-0.4247,0.0494,-0.4247c0.0475,-0.236,0.1144,-0.4427,0.1333,-0.4601c0.095,-0.0709,0.162,0.0414,0.257,0.4601c0,0,0.0472,0.1084,0.0472,0.4247s-0.0472,0.4247,-0.0472,0.4247c-0.0572,0.236,-0.1333,0.4364,-0.162,0.4484c-0.0761,0.0294,-0.1047,0.0237,-0.1333,-0.0237L2.1102,10.1155L2.1102,10.1155z" fill="#FFFFFF"/>
  </g>
</svg>
