<?xml version="1.0" encoding="UTF-8"?>
<!DOCTYPE svg PUBLIC "-//W3C//DTD SVG 1.1//EN" "http://www.w3.org/Graphics/SVG/1.1/DTD/svg11.dtd">
<svg version="1.1" id="Layer_1" xmlns="http://www.w3.org/2000/svg" xmlns:xlink="http://www.w3.org/1999/xlink" x="0px" y="0px" width="16px" height="16px" viewBox="0 0 16 16" enable-background="new 0 0 16 16" xml:space="preserve">
  <g id="icon">
    <path d="M8,0C3.6,0,0,3.6,0,8s3.6,8,8,8s8,-3.6,8,-8S12.4,0,8,0zM7.9469,5.592c-0.2811,0,-0.5622,0.2249,-0.5622,0.5622v3.5417c0,1.3492,-1.0681,2.4174,-2.4174,2.4174S2.55,11.0451,2.55,9.6959V8.1218h1.9114v1.5179c0,0.2811,0.2249,0.5622,0.5622,0.5622c0.2811,0,0.5622,-0.2249,0.5622,-0.5622V6.1541c0,-1.3492,1.0681,-2.4174,2.4174,-2.4174s2.4174,1.0681,2.3611,2.4174v0.7308l-1.0681,0.3373l-0.787,-0.3373v-0.7308C8.5091,5.8731,8.2842,5.592,7.9469,5.592zM13.4,9.6959c0,1.3492,-1.0681,2.4174,-2.4174,2.4174s-2.4174,-1.0681,-2.4174,-2.4174V8.1218l0.787,0.3373l1.0681,-0.3373v1.5741c0,0.2811,0.2249,0.5622,0.5622,0.5622c0.2811,0,0.5622,-0.2249,0.5622,-0.5622V8.178H13.4V9.6959z" fill="#CE4D32"/>
    <path d="M8.0031,3.7368c-1.3492,0,-2.4174,1.0681,-2.4174,2.4174v3.4855c0,0.3373,-0.2811,0.5622,-0.5622,0.5622c-0.3373,0,-0.5622,-0.2811,-0.5622,-0.5622V8.1218H2.55v1.5741c0,1.3492,1.0681,2.4174,2.4174,2.4174s2.4174,-1.0681,2.4174,-2.4174V6.1541c0,-0.3373,0.2811,-0.5622,0.5622,-0.5622c0.3373,0,0.5622,0.2811,0.5622,0.5622v0.7308l0.787,0.3373l1.0681,-0.3373v-0.7308C10.4205,4.8049,9.3523,3.7368,8.0031,3.7368L8.0031,3.7368zM8.5653,8.1218v1.5741c0,1.3492,1.0681,2.4174,2.4174,2.4174S13.4,11.0451,13.4,9.6959V8.178h-1.8552v1.5179c0,0.3373,-0.2811,0.5622,-0.5622,0.5622c-0.3373,0,-0.5622,-0.2811,-0.5622,-0.5622V8.1218l-1.0681,0.3373L8.5653,8.1218z" fill="#FFFFFF"/>
  </g>
</svg>
