<?xml version="1.0" encoding="UTF-8"?>
<!DOCTYPE svg PUBLIC "-//W3C//DTD SVG 1.1//EN" "http://www.w3.org/Graphics/SVG/1.1/DTD/svg11.dtd">
<svg version="1.1" id="Layer_1" xmlns="http://www.w3.org/2000/svg" xmlns:xlink="http://www.w3.org/1999/xlink" x="0px" y="0px" width="16px" height="16px" viewBox="0 0 16 16" enable-background="new 0 0 16 16" xml:space="preserve">
  <g id="icon">
    <path d="M8,0C3.6,0,0,3.6,0,8s3.6,8,8,8s8,-3.6,8,-8S12.4,0,8,0zM5.4423,12.0763c-0.1087,0.1087,-0.2719,0.0544,-0.3806,0c-0.4893,-0.2719,-1.0331,-0.5981,-1.5224,-0.8699c-0.2719,-0.1631,-0.435,-0.435,-0.4893,-0.7612V5.606c0.0544,-0.3262,0.2175,-0.5981,0.4893,-0.7612c1.3049,-0.7612,2.5555,-1.468,3.8604,-2.2292c0.1087,-0.0544,0.3537,-0.1438,0.435,-0.1631c0.0813,-0.0193,0.2065,-0.0189,0.3262,0c0.1706,0.0288,0.3869,0.1574,0.6525,0.3262c1.1962,0.7068,2.3924,1.3593,3.5885,2.0661c0.1087,0.1087,0.2719,0.1631,0.3262,0.3262c0.0544,0.1631,-0.1087,0.2719,-0.2175,0.2719c-2.338,0,-4.676,0,-7.0139,0c-0.435,0,-0.8156,0.3806,-0.8699,0.7612c-0.0544,0.4893,0.3262,1.0331,0.8699,1.0331c0.4893,0,0.9243,0,1.4137,0c0.3262,0,0.5981,0.2719,0.5981,0.5981c0,0.2175,-0.1087,0.3806,-0.1631,0.5437c-0.5981,1.1418,-1.1418,2.2292,-1.7399,3.371C5.5511,11.8588,5.4967,11.9675,5.4423,12.0763zM13,10.3364c0,0.2175,-0.0544,0.3806,-0.1631,0.5437c-0.1631,0.2175,-0.3806,0.3262,-0.5981,0.435c-1.1962,0.6525,-2.338,1.3593,-3.5342,2.0117c-0.1631,0.1087,-0.3806,0.1631,-0.5981,0.2719h-0.2719c-0.3806,-0.0544,-0.6525,-0.3262,-0.9787,-0.4893c0.8699,-1.5768,1.6855,-3.1536,2.5555,-4.7847c0.3262,-0.6525,1.0331,-1.0874,1.7943,-1.0874c0.5981,0,1.1962,0,1.7943,0C13,8.2702,13,9.3033,13,10.3364z" fill="#7A7A7A"/>
    <path d="M7.8347,2.4525c0.0813,-0.0193,0.2065,-0.0189,0.3262,0c0.1706,0.0288,0.3869,0.1574,0.6525,0.3262c1.1962,0.7068,2.3924,1.3593,3.5885,2.0661c0.1087,0.1087,0.2719,0.1631,0.3262,0.3262c0.0544,0.1631,-0.1087,0.2719,-0.2175,0.2719c-2.338,0,-4.676,0,-7.0139,0c-0.435,0,-0.8156,0.3806,-0.8699,0.7612c-0.0544,0.4893,0.3262,1.0331,0.8699,1.0331c0.4893,0,0.9243,0,1.4137,0c0.3262,0,0.5981,0.2719,0.5981,0.5981c0,0.2175,-0.1087,0.3806,-0.1631,0.5437c-0.5981,1.1418,-1.1418,2.2292,-1.7399,3.371c-0.0544,0.1087,-0.1087,0.2175,-0.1631,0.3262c-0.1087,0.1087,-0.2719,0.0544,-0.3806,0c-0.4893,-0.2719,-1.0331,-0.5981,-1.5224,-0.8699c-0.2719,-0.1631,-0.435,-0.435,-0.4893,-0.7612V5.606c0.0544,-0.3262,0.2175,-0.5981,0.4893,-0.7612c1.3049,-0.7612,2.5555,-1.468,3.8604,-2.2292C7.5085,2.5612,7.7534,2.4718,7.8347,2.4525zM9.4115,8.3246c0.3262,-0.6525,1.0331,-1.0874,1.7943,-1.0874c0.5981,0,1.1962,0,1.7943,0c0,1.0331,0,2.0661,0,3.0992c0,0.2175,-0.0544,0.3806,-0.1631,0.5437c-0.1631,0.2175,-0.3806,0.3262,-0.5981,0.435c-1.1962,0.6525,-2.338,1.3593,-3.5342,2.0117c-0.1631,0.1087,-0.3806,0.1631,-0.5981,0.2719h-0.2719c-0.3806,-0.0544,-0.6525,-0.3262,-0.9787,-0.4893C7.726,11.5325,8.5415,9.9558,9.4115,8.3246z" fill="#FFFFFF"/>
  </g>
</svg>
