<?xml version="1.0" encoding="UTF-8"?>
<!DOCTYPE svg PUBLIC "-//W3C//DTD SVG 1.1//EN" "http://www.w3.org/Graphics/SVG/1.1/DTD/svg11.dtd">
<svg version="1.1" id="Layer_1" xmlns="http://www.w3.org/2000/svg" xmlns:xlink="http://www.w3.org/1999/xlink" x="0px" y="0px" width="16px" height="16px" viewBox="0 0 16 16" enable-background="new 0 0 16 16" xml:space="preserve">
  <g id="icon">
    <path d="M8,0C3.6,0,0,3.6,0,8s3.6,8,8,8s8,-3.6,8,-8S12.4,0,8,0zM11.2484,11.7043v1.0258c-0.228,0.114,-0.4559,0.171,-0.6269,0.2849c-0.228,0.057,-0.3989,0.114,-0.5699,0.171c-0.114,0,-0.171,0.057,-0.2849,0.057c-0.171,0.057,-0.3989,0.057,-0.5699,0.057c-0.114,0,-0.228,0,-0.2849,0c-0.4559,0,-0.9118,-0.057,-1.2538,-0.171c-0.057,0,-0.171,-0.057,-0.228,-0.114c-0.057,0,-0.057,-0.057,-0.114,-0.057s-0.057,-0.057,-0.114,-0.057s-0.114,-0.057,-0.171,-0.114c-0.057,-0.057,-0.114,-0.057,-0.171,-0.114s-0.114,-0.057,-0.171,-0.114c-0.2849,-0.228,-0.4559,-0.4559,-0.5699,-0.7409c-0.114,-0.228,-0.171,-0.6269,-0.171,-1.0828V7.0312H4.7516V5.5495c0.3989,-0.114,0.7978,-0.3419,1.0828,-0.5699c0.2849,-0.228,0.5129,-0.5699,0.6839,-0.9118c0.171,-0.3419,0.2849,-0.7978,0.3989,-1.3677h1.4817v2.6785h2.5075v1.6527H8.3989v2.7355c0,0.6269,0.057,1.0258,0.114,1.1968c0.057,0.171,0.171,0.3419,0.3419,0.3989c0.228,0.114,0.5129,0.228,0.7978,0.228c0.5129,0,1.0828,-0.171,1.5957,-0.5129V11.7043z" fill="#3F7AB5"/>
    <path d="M6.9172,2.7c-0.057,0.5699,-0.171,0.9688,-0.3989,1.3677c-0.171,0.3419,-0.3989,0.6839,-0.6839,0.9118c-0.2849,0.228,-0.6269,0.4559,-1.0828,0.5699v1.4817h1.1968v3.7043c0,0.4559,0.057,0.8548,0.171,1.0828c0.114,0.228,0.2849,0.5129,0.5699,0.7409c0.057,0.057,0.114,0.057,0.171,0.114s0.114,0.057,0.171,0.114c0.057,0.057,0.114,0.057,0.171,0.114c0.057,0,0.057,0.057,0.114,0.057s0.057,0.057,0.114,0.057c0.057,0.057,0.171,0.057,0.228,0.114c0.3989,0.114,0.7979,0.171,1.2538,0.171c0.114,0,0.228,0,0.2849,0c0.228,0,0.3989,-0.057,0.5699,-0.057c0.114,0,0.171,-0.057,0.2849,-0.057c0.171,-0.057,0.3989,-0.114,0.5699,-0.171c0.228,-0.057,0.3989,-0.171,0.6269,-0.2849v-1.0258v-0.6269c-0.5129,0.3419,-1.0828,0.5129,-1.5957,0.5129c-0.2849,0,-0.5699,-0.057,-0.7978,-0.228c-0.171,-0.114,-0.2849,-0.228,-0.3419,-0.3989c-0.057,-0.171,-0.114,-0.5699,-0.114,-1.1968V7.0312h2.5075V5.3785H8.3989V2.7H6.9172L6.9172,2.7z" fill="#FFFFFF"/>
  </g>
</svg>
