<?xml version="1.0" encoding="UTF-8"?>
<!DOCTYPE svg PUBLIC "-//W3C//DTD SVG 1.1//EN" "http://www.w3.org/Graphics/SVG/1.1/DTD/svg11.dtd">
<svg version="1.1" id="Layer_1" xmlns="http://www.w3.org/2000/svg" xmlns:xlink="http://www.w3.org/1999/xlink" x="0px" y="0px" width="16px" height="16px" viewBox="0 0 16 16" enable-background="new 0 0 16 16" xml:space="preserve">
  <g id="icon">
    <path d="M8,0C3.6,0,0,3.6,0,8s3.6,8,8,8s8,-3.6,8,-8S12.4,0,8,0zM12.9963,7.9319c-0.2313,0.8675,-0.6362,1.735,-1.5037,2.4869c-1.1567,1.041,-2.3712,1.5037,-3.6435,1.6194c-1.2145,0.1157,-2.3712,0.0578,-3.6435,-0.5205c-0.8675,-0.4048,-1.6194,-1.041,-2.2555,-1.8507c0.8097,0.7518,2.9495,1.5037,4.6267,-0.2313c-0.2892,0.0578,-0.5783,0,-0.7518,-0.2313c-0.1735,-0.1735,-0.1735,-0.347,-0.1157,-0.5205c0.0578,-0.1157,0.2313,-0.2313,0.4048,-0.347c-0.2892,0.0578,-0.5783,0,-0.8097,-0.1157c-0.2892,-0.1735,-0.6362,-0.347,-0.694,-0.694c0.1735,-0.1735,0.4048,-0.4048,0.8675,-0.2892c-0.4048,-0.1157,-0.8097,-0.347,-1.0988,-0.6362c-0.2313,-0.1735,-0.2313,-0.347,-0.2892,-0.5783c0.2313,-0.1157,0.4627,-0.1157,0.7518,-0.1157c-0.5783,-0.2892,-0.8675,-0.7518,-0.9832,-1.2145c-0.0578,-0.1157,-0.0578,-0.2313,-0.0578,-0.4048c2.429,0.9253,3.5857,1.5615,4.2219,2.1977c0.2892,-0.7518,0.9253,-2.4869,1.9085,-3.0652c0,0.1157,-0.0578,0.1735,-0.1157,0.2892c0.2892,-0.1735,0.5205,-0.4048,0.9253,-0.4048c-0.0578,0.1735,-0.1735,0.347,-0.4627,0.4627c0.2892,-0.1157,0.5205,-0.1735,0.8097,-0.2313c0.2313,-0.0578,0.2313,0.1735,0.1157,0.2313c-0.2892,0.2313,-0.5783,0.2313,-0.9253,0.347c0.9253,0,1.735,0.4627,2.3134,1.4459c0.1735,0.347,0.347,0.6362,0.347,0.9832c0.4048,0.1157,0.8097,0.1157,1.2145,0.0578c0.1157,0,0.2313,-0.0578,0.2892,-0.0578c-0.1735,0.2313,-0.347,0.4048,-0.5783,0.5205c-0.2313,0.0578,-0.4627,0.1735,-0.7518,0.1735c0.4627,0.1735,0.9253,0.1735,1.388,0.1157C13.9217,7.9319,13.459,7.9319,12.9963,7.9319z" fill="#539FBF"/>
    <path d="M1.95,9.667c0.8097,0.7518,2.9495,1.5037,4.6267,-0.2313c-0.2892,0.0578,-0.5783,0,-0.7518,-0.2313c-0.1735,-0.1735,-0.1735,-0.347,-0.1157,-0.5205c0.0578,-0.1157,0.2313,-0.2313,0.4048,-0.347c-0.2892,0.0578,-0.5783,0,-0.8097,-0.1157c-0.2892,-0.1735,-0.6362,-0.347,-0.694,-0.694c0.1735,-0.1735,0.4048,-0.4048,0.8675,-0.2892c-0.4048,-0.1157,-0.8097,-0.347,-1.0988,-0.6362c-0.2313,-0.1735,-0.2313,-0.347,-0.2892,-0.5783c0.2313,-0.1157,0.4627,-0.1157,0.7518,-0.1157c-0.5783,-0.2892,-0.8675,-0.7518,-0.9832,-1.2145c-0.0578,-0.1157,-0.0578,-0.2313,-0.0578,-0.4048c2.429,0.9253,3.5857,1.5615,4.2219,2.1977c0.2892,-0.7518,0.9253,-2.4869,1.9085,-3.0652c0,0.1157,-0.0578,0.1735,-0.1157,0.2892c0.2892,-0.1735,0.5205,-0.4048,0.9253,-0.4048c-0.0578,0.1735,-0.1735,0.347,-0.4627,0.4627c0.2892,-0.1157,0.5205,-0.1735,0.8097,-0.2313c0.2313,-0.0578,0.2313,0.1735,0.1157,0.2313c-0.2892,0.2313,-0.5783,0.2313,-0.9253,0.347c0.9253,0,1.735,0.4627,2.3134,1.4459c0.1735,0.347,0.347,0.6362,0.347,0.9832c0.4048,0.1157,0.8097,0.1157,1.2145,0.0578c0.1157,0,0.2313,-0.0578,0.2892,-0.0578c-0.1735,0.2313,-0.347,0.4048,-0.5783,0.5205c-0.2313,0.0578,-0.4627,0.1735,-0.7518,0.1735c0.4627,0.1735,0.9253,0.1735,1.388,0.1157c-0.5783,0.5783,-1.041,0.5783,-1.5037,0.5783c-0.2313,0.8675,-0.6362,1.735,-1.5037,2.4869c-1.1567,1.041,-2.3712,1.5037,-3.6435,1.6194c-1.2145,0.1157,-2.3712,0.0578,-3.6435,-0.5205C3.338,11.1128,2.5862,10.4766,1.95,9.667L1.95,9.667z" fill="#FFFFFF"/>
  </g>
</svg>
