<?xml version="1.0" encoding="UTF-8"?>
<!DOCTYPE svg PUBLIC "-//W3C//DTD SVG 1.1//EN" "http://www.w3.org/Graphics/SVG/1.1/DTD/svg11.dtd">
<svg version="1.1" id="Layer_1" xmlns="http://www.w3.org/2000/svg" xmlns:xlink="http://www.w3.org/1999/xlink" x="0px" y="0px" width="16px" height="16px" viewBox="0 0 16 16" enable-background="new 0 0 16 16" xml:space="preserve">
  <g id="icon">
    <path d="M8,0C3.6,0,0,3.6,0,8s3.6,8,8,8s8,-3.6,8,-8S12.4,0,8,0zM9.1189,5.5529C9.0072,5.2176,8.5042,3.8206,7.5542,2.2C7.5542,2.2,8.8954,3.0941,9.1189,5.5529zM10.0131,12.3706C9.2866,13.2088,8.2807,13.6,7.1072,13.6s-2.1794,-0.3912,-2.9059,-1.2294c-0.7265,-0.8382,-1.1176,-1.7882,-1.1176,-2.85s0.3353,-2.0118,1.0618,-2.85c0.7824,-0.8941,1.7882,-1.3412,2.9618,-1.3412c0.5029,0,0.95,0.0559,1.3971,0.2235c-0.1676,0.2794,-0.2794,0.6147,-0.2794,0.95c-0.3353,-0.1676,-0.7265,-0.2235,-1.1176,-0.2235c-0.8382,0,-1.5647,0.3353,-2.1235,0.95c-0.6147,0.6147,-0.8941,1.3971,-0.8941,2.2353c0,0.5588,0.1118,1.1176,0.3912,1.5647c0.2794,0.5029,0.6147,0.8941,1.1176,1.1176c0.2794,0.1676,0.6147,0.2794,1.0059,0.3353c2.8091,-1.113,2.6523,-6.1966,2.581,-6.9562c-0.0036,-0.0097,-0.0067,-0.0193,-0.0104,-0.0291c0,0,0,0,0,-0.0559c0.0029,0.0144,0.0065,0.0437,0.0104,0.0849c1.6945,4.5893,-2.0288,6.9808,-2.0769,7.0114c0.536,-0.0075,1.0201,-0.1206,1.4518,-0.3905c0.4471,-0.2794,0.8382,-0.6706,1.1176,-1.1176c0.2794,-0.5029,0.3912,-1.0059,0.3912,-1.5647c0,-0.4471,-0.0559,-0.8941,-0.2235,-1.2853c0.2794,-0.0559,0.6147,-0.1676,0.95,-0.3912c0.2235,0.6147,0.3353,1.1735,0.3353,1.7324C11.1307,10.6382,10.7395,11.5882,10.0131,12.3706zM12.6954,5.7206c0,0,-0.3353,0.8382,-0.95,1.2294c-0.4471,0.2794,-1.1735,0.3353,-1.9559,-0.3912c0,0,2.2912,-1.2853,2.4029,-2.3471c0,0,-0.7265,1.5647,-2.6824,2.0676c0,0,-0.7265,-1.1176,0.1676,-2.0118c0,0,0.3353,-0.3353,1.2294,-0.5588c0,0,0.8941,-0.2235,1.3971,-1.2294C12.3042,2.4794,13.3101,3.8765,12.6954,5.7206z" fill="#E78155"/>
    <path d="M11.1307,9.5206c0,1.1176,-0.3912,2.0676,-1.1176,2.85C9.2866,13.2088,8.2807,13.6,7.1072,13.6s-2.1794,-0.3912,-2.9059,-1.2294c-0.7265,-0.8382,-1.1176,-1.7882,-1.1176,-2.85s0.3353,-2.0118,1.0618,-2.85c0.7824,-0.8941,1.7882,-1.3412,2.9618,-1.3412c0.5029,0,0.95,0.0559,1.3971,0.2235c-0.1676,0.2794,-0.2794,0.6147,-0.2794,0.95c-0.3353,-0.1676,-0.7265,-0.2235,-1.1176,-0.2235c-0.8382,0,-1.5647,0.3353,-2.1235,0.95c-0.6147,0.6147,-0.8941,1.3971,-0.8941,2.2353c0,0.5588,0.1118,1.1176,0.3912,1.5647c0.2794,0.5029,0.6147,0.8941,1.1176,1.1176c0.2794,0.1676,0.6147,0.2794,1.0059,0.3353c2.9618,-1.1735,2.6265,-6.7618,2.5706,-7.0412c0,0.0559,0,0.0559,0,0.0559c1.7324,4.6382,-2.0676,7.0412,-2.0676,7.0412s0,0,-0.0559,0l0,0c0.5588,0,1.0618,-0.1118,1.5088,-0.3912s0.8382,-0.6706,1.1176,-1.1176c0.2794,-0.5029,0.3912,-1.0059,0.3912,-1.5647c0,-0.4471,-0.0559,-0.8941,-0.2235,-1.2853c0.2794,-0.0559,0.6147,-0.1676,0.95,-0.3912C11.0189,8.4029,11.1307,8.9618,11.1307,9.5206zM7.5542,2.2c0.95,1.6206,1.4529,3.0176,1.5647,3.3529l0,0C8.8954,3.0941,7.5542,2.2,7.5542,2.2zM12.1925,4.2118c-0.1118,1.0618,-2.4029,2.3471,-2.4029,2.3471c0.7824,0.7265,1.5088,0.6706,1.9559,0.3912c0.6147,-0.3912,0.95,-1.2294,0.95,-1.2294c0.6147,-1.8441,-0.3912,-3.2412,-0.3912,-3.2412c-0.5029,1.0059,-1.3971,1.2294,-1.3971,1.2294c-0.8941,0.2235,-1.2294,0.5588,-1.2294,0.5588c-0.8941,0.8941,-0.1676,2.0118,-0.1676,2.0118C11.466,5.7765,12.1925,4.2118,12.1925,4.2118z" fill="#FFFFFF"/>
  </g>
</svg>
