<?xml version="1.0" encoding="UTF-8"?>
<!DOCTYPE svg PUBLIC "-//W3C//DTD SVG 1.1//EN" "http://www.w3.org/Graphics/SVG/1.1/DTD/svg11.dtd">
<svg version="1.1" id="Layer_1" xmlns="http://www.w3.org/2000/svg" xmlns:xlink="http://www.w3.org/1999/xlink" x="0px" y="0px" width="16px" height="16px" viewBox="0 0 16 16" enable-background="new 0 0 16 16" xml:space="preserve">
  <g id="icon">
    <path d="M8,0C3.6,0,0,3.6,0,8s3.6,8,8,8s8,-3.6,8,-8S12.4,0,8,0zM13.1705,5.8808c-0.0589,1.0598,-0.6477,2.2963,-2.0019,4.0626C9.1667,12.593,7.577,13.535,6.576,12.7107c0,0,-1.0009,-0.9421,-1.5308,-3.1206c-0.5888,-2.1785,-0.8832,-3.0028,-1.2365,-3.1206c-0.4122,0,-0.7065,0.1766,-1.0598,0.3533c-0.1766,-0.2355,-0.3533,-0.4122,-0.471,-0.5888l0.9421,-0.8832c1.5897,-1.472,2.414,-1.8252,3.0617,-1.4131c0.471,0.2944,0.6477,0.8243,0.9421,2.414c0.3533,1.943,0.5888,2.8851,0.8832,3.1206c0.2355,0.2355,0.2355,0.1766,0.5888,-0.1178c0.5888,-0.5299,1.2953,-1.943,1.2953,-2.5318c0,-0.6477,-0.2944,-0.8243,-1.0009,-0.7065l-0.471,0.0589l0.2355,-0.5299c0.2944,-0.7065,1.0009,-1.472,1.5897,-1.7664c0.7065,-0.2944,1.6486,-0.2944,2.1785,0S13.2293,4.821,13.1705,5.8808z" fill="#539FBF"/>
    <path d="M5.0452,9.5902c-0.5888,-2.1785,-0.8832,-3.0028,-1.2365,-3.1206c-0.4122,0,-0.7065,0.1766,-1.0598,0.3533c-0.1766,-0.2355,-0.3533,-0.4122,-0.471,-0.5888l0.9421,-0.8832c1.5897,-1.472,2.414,-1.8252,3.0617,-1.4131c0.471,0.2944,0.6477,0.8243,0.9421,2.414c0.3533,1.943,0.5888,2.8851,0.8832,3.1206c0.2355,0.2355,0.2355,0.1766,0.5888,-0.1178c0.5888,-0.5299,1.2953,-1.943,1.2953,-2.5318c0,-0.6477,-0.2944,-0.8243,-1.0009,-0.7065l-0.471,0.0589l0.2355,-0.5299c0.2944,-0.7065,1.0009,-1.472,1.5897,-1.7664c0.7065,-0.2944,1.6486,-0.2944,2.1785,0s0.7065,0.9421,0.6477,2.0019c-0.0589,1.0598,-0.6477,2.2963,-2.0019,4.0626C9.1667,12.593,7.577,13.535,6.576,12.7107C6.576,12.7107,5.5751,11.7687,5.0452,9.5902z" fill="#FFFFFF"/>
  </g>
</svg>
