<?xml version="1.0" encoding="UTF-8"?>
<!DOCTYPE svg PUBLIC "-//W3C//DTD SVG 1.1//EN" "http://www.w3.org/Graphics/SVG/1.1/DTD/svg11.dtd">
<svg version="1.1" id="Layer_1" xmlns="http://www.w3.org/2000/svg" xmlns:xlink="http://www.w3.org/1999/xlink" x="0px" y="0px" width="16px" height="16px" viewBox="0 0 16 16" enable-background="new 0 0 16 16" xml:space="preserve">
  <g id="icon">
    <path d="M8,0C3.6,0,0,3.6,0,8s3.6,8,8,8s8,-3.6,8,-8S12.4,0,8,0zM12.1176,9.6613c0.9149,0.8578,1.0865,1.258,1.1437,1.3152c0.4003,0.629,-0.4003,0.6862,-0.4003,0.6862h-1.544c0,0,-0.3431,0.0572,-0.8006,-0.2287c-0.5718,-0.4003,-1.1437,-1.4296,-1.544,-1.3152c-0.4003,0.1716,-0.4003,1.0865,-0.4003,1.0865s0,0.1716,-0.1144,0.2859c-0.1144,0.1144,-0.3431,0.1144,-0.3431,0.1144h-0.6862c0,0,-1.4868,0.1144,-2.802,-1.3152c-1.4868,-1.544,-2.802,-4.5747,-2.802,-4.5747s-0.0572,-0.1716,0,-0.2859c0.1144,-0.1144,0.3431,-0.1144,0.3431,-0.1144s1.5373,0,1.5932,0c0.0558,0,0.1684,0.0012,0.244,0.175c0.0755,0.1738,0.4502,0.9687,0.7933,1.5977c0.6862,1.2009,1.0293,1.4296,1.258,1.3152c0.3431,-0.2287,0.2287,-1.7155,0.2287,-1.7155s0,-0.5718,-0.1716,-0.8006c-0.1144,-0.2287,-0.4003,-0.2859,-0.5147,-0.2859c-0.0572,0,0.1144,-0.2287,0.2859,-0.3431c0.2859,-0.1716,0.8006,-0.1716,1.4296,-0.1716c0.4575,0,0.629,0,0.8006,0.0572c0.5718,0.1144,0.4003,0.6862,0.4003,1.9443c0,0.4575,-0.0572,1.0293,0.2287,1.2009c0.1144,0.0572,0.4003,0,1.2009,-1.3152c0.3431,-0.629,0.629,-1.3724,0.629,-1.3724s0.0572,-0.1144,0.1716,-0.1716c0.1144,-0.0572,0.2287,-0.0572,0.2287,-0.0572h1.7727c0,0,0.5718,-0.0572,0.629,0.1716c0.1144,0.2287,-0.1716,0.8006,-0.9149,1.7727C11.2598,8.918,11.1455,8.7464,12.1176,9.6613z" fill="#4C76A4"/>
    <path d="M7.4285,11.6056h0.6862c0,0,0.2287,0,0.3431,-0.1144c0.1144,-0.1144,0.1144,-0.2859,0.1144,-0.2859s0,-0.9149,0.4003,-1.0865c0.4003,-0.1144,0.9721,0.9149,1.544,1.3152c0.4575,0.2859,0.8006,0.2287,0.8006,0.2287h1.544c0,0,0.8006,-0.0572,0.4003,-0.6862c-0.0572,-0.0572,-0.2287,-0.4575,-1.1437,-1.3152c-0.9721,-0.9149,-0.8578,-0.7434,0.3431,-2.3445c0.7434,-0.9721,1.0293,-1.544,0.9149,-1.7727c-0.0572,-0.2287,-0.629,-0.1716,-0.629,-0.1716h-1.7727c0,0,-0.1144,0,-0.2287,0.0572c-0.1144,0.0572,-0.1716,0.1716,-0.1716,0.1716s-0.2859,0.7434,-0.629,1.3724C9.144,8.2889,8.8581,8.3461,8.7437,8.2889c-0.2859,-0.1716,-0.2287,-0.7434,-0.2287,-1.2009c0,-1.258,0.1716,-1.8299,-0.4003,-1.9443c-0.1716,-0.0572,-0.3431,-0.0572,-0.8006,-0.0572c-0.629,0,-1.1437,0,-1.4296,0.1716c-0.1716,0.1144,-0.3431,0.3431,-0.2859,0.3431c0.1144,0,0.4003,0.0572,0.5147,0.2859c0.1716,0.2287,0.1716,0.8006,0.1716,0.8006s0.1144,1.4868,-0.2287,1.7155c-0.2287,0.1144,-0.5718,-0.1144,-1.258,-1.3152c-0.3431,-0.629,-0.7178,-1.4239,-0.7933,-1.5977c-0.0756,-0.1738,-0.1882,-0.175,-0.244,-0.175c-0.0558,0,-1.5932,0,-1.5932,0s-0.2287,0,-0.3431,0.1144c-0.0572,0.1144,0,0.2859,0,0.2859s1.3152,3.0308,2.802,4.5747C5.9417,11.72,7.4285,11.6056,7.4285,11.6056" fill="#FFFFFF"/>
  </g>
</svg>
