<?xml version="1.0" encoding="UTF-8"?>
<!DOCTYPE svg PUBLIC "-//W3C//DTD SVG 1.1//EN" "http://www.w3.org/Graphics/SVG/1.1/DTD/svg11.dtd">
<svg version="1.1" id="Layer_1" xmlns="http://www.w3.org/2000/svg" xmlns:xlink="http://www.w3.org/1999/xlink" x="0px" y="0px" width="16px" height="16px" viewBox="0 0 16 16" enable-background="new 0 0 16 16" xml:space="preserve">
  <g id="icon">
    <path d="M8,0C3.6,0,0,3.6,0,8s3.6,8,8,8s8,-3.6,8,-8S12.4,0,8,0zM13.0014,8.2791c-0.4496,1.124,-1.2364,2.0233,-2.1357,2.8101c-0.7868,0.6744,-1.6861,1.2926,-2.6415,1.8547c-0.1124,0.0562,-0.2248,0.1124,-0.2248,0.1124s-0.1686,-0.0562,-0.2248,-0.1124c-1.1802,-0.6182,-2.2481,-1.3488,-3.2035,-2.3043c-0.8992,-0.8992,-1.5737,-1.9109,-1.7985,-3.2035c-0.0562,-0.1686,-0.0562,-0.3934,-0.0562,-0.562C2.6041,5.5252,3.7281,4.1201,5.077,3.8953c0.5058,-0.0562,0.9554,0.0562,1.405,0.281c0.5058,0.2248,0.8992,0.5058,1.2926,0.843c0.0562,0.0562,0.2248,0.1686,0.2248,0.1686s0.1124,-0.0562,0.2248,-0.1686c0.3934,-0.3934,0.8992,-0.6182,1.405,-0.843c1.0116,-0.3934,1.8547,-0.1124,2.6415,0.562C13.3386,5.6938,13.5635,6.9864,13.0014,8.2791z" fill="#D670AC"/>
    <path d="M12.2708,4.7384c-0.7868,-0.6744,-1.6299,-0.9554,-2.6415,-0.562c-0.5058,0.2248,-1.0116,0.4496,-1.405,0.843c-0.1124,0.1124,-0.2248,0.1686,-0.2248,0.1686s-0.1686,-0.1124,-0.2248,-0.1686c-0.3934,-0.3372,-0.7868,-0.6182,-1.2926,-0.843c-0.4496,-0.2248,-0.8992,-0.3372,-1.405,-0.281C3.7281,4.1201,2.6041,5.5252,2.7165,6.874c0,0.1686,0,0.3934,0.0562,0.562c0.2248,1.2926,0.8992,2.3043,1.7985,3.2035c0.9554,0.9554,2.0233,1.6861,3.2035,2.3043c0.0562,0.0562,0.2248,0.1124,0.2248,0.1124s0.1124,-0.0562,0.2248,-0.1124c0.9554,-0.562,1.8547,-1.1802,2.6415,-1.8547c0.8992,-0.7868,1.6861,-1.6861,2.1357,-2.8101C13.5635,6.9864,13.3386,5.6938,12.2708,4.7384z" fill="#FFFFFF"/>
  </g>
</svg>
