<?xml version="1.0" encoding="UTF-8"?>
<!DOCTYPE svg PUBLIC "-//W3C//DTD SVG 1.1//EN" "http://www.w3.org/Graphics/SVG/1.1/DTD/svg11.dtd">
<svg version="1.1" id="Layer_1" xmlns="http://www.w3.org/2000/svg" xmlns:xlink="http://www.w3.org/1999/xlink" x="0px" y="0px" width="16px" height="16px" viewBox="0 0 16 16" enable-background="new 0 0 16 16" xml:space="preserve">
  <g id="icon">
    <path d="M7.0987,9.6401c0.0564,0.1691,-0.2818,0.3945,-0.4508,0.1127C6.6478,9.3583,7.0987,9.3583,7.0987,9.6401zM5.8589,9.7528c-0.8453,0.2254,-0.6763,1.3525,0.2254,1.1271C6.7042,10.7108,6.8169,9.5274,5.8589,9.7528zM16,8c0,4.4,-3.6,8,-8,8S0,12.4,0,8S3.6,0,8,0S16,3.6,16,8zM10.8181,7.6113c0.1691,-0.5072,0.2818,-1.1271,0.0564,-1.4652c-0.7326,-0.789,-2.2542,0,-2.9868,0.0564c0.3381,-1.0144,-0.0564,-2.0851,-1.2961,-1.747c-1.1271,0.2818,-2.0288,0.958,-2.8177,1.747c-0.8453,0.8453,-1.747,1.8597,-1.8597,3.1558c-0.1691,1.5216,0.789,2.2542,1.6906,2.7614c2.705,1.5216,6.9879,0.6763,8.4531,-1.3525c0.2254,-0.2818,0.3945,-0.7326,0.4508,-1.0707C12.6778,8.2876,11.6634,8.0621,10.8181,7.6113zM11.6634,6.1461c0,0.4508,-0.1691,0.8453,0.3381,0.789c0.3381,-0.0564,0.4508,-0.5072,0.3945,-1.0144c-0.1127,-0.6763,-0.7326,-1.2961,-1.6343,-1.2398c-0.2254,0.0564,-0.5635,0,-0.5635,0.3945c0,0.5072,0.6199,0.2254,1.0144,0.3945C11.438,5.5826,11.6634,5.8643,11.6634,6.1461zM14.0866,5.9207c-0.1691,-1.747,-1.6343,-3.1558,-3.663,-2.8741c-0.2254,0.0564,-0.5072,0.0564,-0.5635,0.3381c-0.1127,0.6763,0.6763,0.4508,1.0144,0.4508c1.1834,0,2.3669,0.958,2.3669,2.3669c0,0.5072,-0.3945,1.2961,0.3381,1.2398C14.0303,7.3859,14.143,6.5969,14.0866,5.9207zM10.4799,9.5274c0,0.5635,-0.2818,1.0707,-0.5635,1.3525c-0.7326,0.8453,-2.3105,1.3525,-3.8884,1.2961c-1.3525,-0.1127,-3.2122,-0.9017,-2.8741,-2.5923c0.1691,-0.789,0.789,-1.2961,1.2961,-1.5779c0.6763,-0.3945,1.2961,-0.5635,2.1978,-0.6763C8.3385,7.2168,10.4799,7.8367,10.4799,9.5274zM8.3948,9.3583c-0.2254,-0.6763,-0.958,-1.1834,-1.916,-1.0144c-1.1271,0.1127,-2.2542,1.1271,-1.8033,2.3669C5.3517,12.5705,9.1274,11.5561,8.3948,9.3583z" fill="#CE4D32"/>
    <path d="M14.0866,5.9207c0.0564,0.6763,-0.0564,1.4652,-0.5072,1.5216c-0.7326,0.0564,-0.3381,-0.7326,-0.3381,-1.2398c0,-1.4089,-1.1834,-2.3669,-2.3669,-2.3669c-0.3381,0,-1.1271,0.2254,-1.0144,-0.4508c0.0564,-0.2818,0.3381,-0.2818,0.5635,-0.3381C12.4523,2.7648,13.9175,4.1737,14.0866,5.9207L14.0866,5.9207zM10.8181,7.6113c0.8453,0.4508,1.8597,0.6763,1.6906,2.0851c-0.0564,0.3381,-0.2254,0.789,-0.4508,1.0707c-1.4652,2.0288,-5.7481,2.8741,-8.4531,1.3525c-0.9017,-0.5072,-1.8597,-1.2398,-1.6906,-2.7614c0.1127,-1.2961,1.0144,-2.3105,1.8597,-3.1558c0.789,-0.789,1.6906,-1.4652,2.8177,-1.747c1.2398,-0.3381,1.6343,0.7326,1.2961,1.747c0.7326,-0.0564,2.2542,-0.8453,2.9868,-0.0564C11.0998,6.4842,10.9871,7.1041,10.8181,7.6113L10.8181,7.6113zM9.9164,10.8799c0.2818,-0.2818,0.5635,-0.789,0.5635,-1.3525c0,-1.6906,-2.1415,-2.3105,-3.8321,-2.1978c-0.9017,0.1127,-1.5216,0.2818,-2.1978,0.6763c-0.5072,0.2818,-1.1271,0.789,-1.2961,1.5779c-0.3381,1.6906,1.5216,2.4796,2.8741,2.5923C7.6059,12.2324,9.1838,11.7252,9.9164,10.8799zM12.396,5.9207c0.0564,0.5072,-0.0564,0.958,-0.3945,1.0144c-0.5072,0.0564,-0.3381,-0.3381,-0.3381,-0.789c0,-0.2818,-0.2254,-0.5635,-0.4508,-0.6763c-0.3945,-0.1691,-1.0144,0.1127,-1.0144,-0.3945c0,-0.3945,0.3381,-0.3381,0.5635,-0.3945C11.6634,4.6245,12.2833,5.2444,12.396,5.9207zM8.3948,9.3583c0.7326,2.1978,-3.0431,3.2122,-3.7194,1.3525c-0.4508,-1.2398,0.6763,-2.2542,1.8033,-2.3669C7.4368,8.1749,8.1694,8.682,8.3948,9.3583zM6.6478,9.7528c0.1691,0.2818,0.5072,0.0564,0.4508,-0.1127C7.0987,9.3583,6.6478,9.3583,6.6478,9.7528zM6.0843,10.8799c0.6199,-0.1691,0.7326,-1.3525,-0.2254,-1.1271C5.0136,9.9782,5.1826,11.1053,6.0843,10.8799z" fill="#FFFFFF"/>
  </g>
</svg>
