<?xml version="1.0" encoding="UTF-8"?>
<!DOCTYPE svg PUBLIC "-//W3C//DTD SVG 1.1//EN" "http://www.w3.org/Graphics/SVG/1.1/DTD/svg11.dtd">
<svg version="1.1" id="Layer_1" xmlns="http://www.w3.org/2000/svg" xmlns:xlink="http://www.w3.org/1999/xlink" x="0px" y="0px" width="16px" height="16px" viewBox="0 0 16 16" enable-background="new 0 0 16 16" xml:space="preserve">
  <g id="icon">
    <path d="M8.4061,3.0978c-2.4762,0,-4.4459,1.9697,-4.4459,4.4459c0,0.8442,0.2251,1.632,0.6753,2.3637l0.1126,0.1688l-0.4502,1.632l1.6883,-0.4502l0.1688,0.1126c0.6753,0.3939,1.4632,0.6191,2.2511,0.6191c2.4762,0,4.4459,-1.9697,4.4459,-4.4459c0,-1.1818,-0.4502,-2.3074,-1.2944,-3.1515S9.5879,3.0978,8.4061,3.0978zM11.1637,9.5134c-0.0839,0.2817,-0.6191,0.5628,-0.9004,0.6191c-0.2251,0.0563,-0.5065,0.0563,-0.8442,-0.0563c-0.2251,-0.0563,-0.4502,-0.1688,-0.7879,-0.2814c-1.3507,-0.5628,-2.2511,-1.9134,-2.3074,-2.026s-0.5628,-0.7316,-0.5628,-1.4069c0,-0.6753,0.3208,-1.0017,0.4333,-1.1143c0.1126,-0.1126,0.2427,-0.1621,0.3545,-0.1745c0.1203,-0.0133,0.2242,-0.0215,0.2805,-0.0215s0.1697,-0.0404,0.2823,0.241c0.1126,0.2814,0.3475,0.9255,0.3939,1.013c0.0272,0.0727,0.0343,0.1506,0.0171,0.2304c-0.017,0.0968,-0.0734,0.1635,-0.1297,0.2198c-0.0655,0.0631,-0.1688,0.1688,-0.2251,0.2251s-0.1126,0.1688,-0.0563,0.2814s0.3377,0.5628,0.7316,0.9004c0.5065,0.4502,0.9567,0.6191,1.0693,0.6753s0.2792,0.0171,0.3208,-0.045c0.086,-0.1006,0.3043,-0.3948,0.4108,-0.5178c0.0568,-0.0677,0.1688,-0.1126,0.2814,-0.0563s0.7879,0.3939,0.9004,0.4502c0.1486,0.0721,0.313,0.1721,0.3939,0.2251C11.275,8.9266,11.2762,9.1758,11.1637,9.5134zM8,0C3.6,0,0,3.6,0,8s3.6,8,8,8s8,-3.6,8,-8S12.4,0,8,0zM13.6961,7.6c0,2.9264,-2.4199,5.3464,-5.3464,5.3464c-0.9004,0,-1.7446,-0.2251,-2.5325,-0.6753l-2.8139,0.7316l0.7879,-2.8139c-0.5065,-0.7879,-0.7316,-1.6883,-0.7316,-2.645c0,-2.9264,2.4199,-5.3464,5.3464,-5.3464c1.4632,0,2.7576,0.5628,3.7706,1.5758S13.7524,6.1368,13.6961,7.6z" fill="#4EA17E"/>
    <path d="M12.1767,3.7731c-1.013,-1.013,-2.3074,-1.5758,-3.7706,-1.5758c-2.9264,0,-5.3464,2.4199,-5.3464,5.3464c0,0.9567,0.2251,1.8572,0.7316,2.645l-0.7879,2.8139l2.8139,-0.7316c0.7879,0.4502,1.632,0.6753,2.5325,0.6753l0,0c2.9264,0,5.3464,-2.4199,5.3464,-5.3464C13.7524,6.1368,13.1896,4.7861,12.1767,3.7731L12.1767,3.7731zM8.4061,11.9896L8.4061,11.9896c-0.7879,0,-1.5758,-0.2251,-2.2511,-0.6191l-0.1688,-0.1126l-1.6883,0.4502l0.4502,-1.632l-0.1126,-0.1688c-0.4502,-0.7316,-0.6753,-1.5195,-0.6753,-2.3637c0,-2.4762,1.9697,-4.4459,4.4459,-4.4459c1.1818,0,2.3074,0.4502,3.1515,1.2944s1.2944,1.9697,1.2944,3.1515C12.852,10.0199,10.8823,11.9896,8.4061,11.9896L8.4061,11.9896zM10.826,8.6693c-0.1126,-0.0563,-0.7879,-0.3939,-0.9004,-0.4502s-0.2246,-0.0114,-0.2814,0.0563c-0.1066,0.1229,-0.3248,0.4172,-0.4108,0.5178c-0.0416,0.0621,-0.2082,0.1013,-0.3208,0.045s-0.5628,-0.2251,-1.0693,-0.6753c-0.3939,-0.3377,-0.6753,-0.7879,-0.7316,-0.9004s0,-0.2251,0.0563,-0.2814s0.1596,-0.162,0.2251,-0.2251c0.0563,-0.0563,0.1127,-0.123,0.1297,-0.2198c0.0171,-0.0798,0.01,-0.1577,-0.0171,-0.2304c-0.0464,-0.0875,-0.2814,-0.7316,-0.3939,-1.013c-0.1126,-0.2814,-0.226,-0.241,-0.2823,-0.241s-0.1602,0.0081,-0.2805,0.0215c-0.1119,0.0124,-0.242,0.0619,-0.3545,0.1745c-0.1126,0.1126,-0.4333,0.439,-0.4333,1.1143c0,0.6753,0.5065,1.2944,0.5628,1.4069s0.9567,1.4632,2.3074,2.026c0.3377,0.1126,0.5628,0.2251,0.7879,0.2814c0.3377,0.1126,0.6191,0.1126,0.8442,0.0563c0.2814,-0.0563,0.8165,-0.3373,0.9004,-0.6191c0.1126,-0.3377,0.1113,-0.5869,0.0563,-0.6191C11.139,8.8414,10.9746,8.7413,10.826,8.6693L10.826,8.6693z" fill="#FFFFFF"/>
  </g>
</svg>
