<?xml version="1.0" encoding="UTF-8"?>
<!DOCTYPE svg PUBLIC "-//W3C//DTD SVG 1.1//EN" "http://www.w3.org/Graphics/SVG/1.1/DTD/svg11.dtd">
<svg version="1.1" id="Layer_1" xmlns="http://www.w3.org/2000/svg" xmlns:xlink="http://www.w3.org/1999/xlink" x="0px" y="0px" width="16px" height="16px" viewBox="0 0 16 16" enable-background="new 0 0 16 16" xml:space="preserve">
  <g id="icon">
    <path d="M8.1113,8.4454l1.5031,4.1196c-1.2247,0.3897,-1.9485,0.334,-2.9505,0.0557L8.1113,8.4454zM10.3938,5.7732c-0.334,-0.668,0,-1.3918,0.7237,-1.3918c-0.5567,-0.5567,-1.7258,-1.2247,-3.2289,-1.2247s-3.1175,0.7237,-4.0639,2.1711l1.6701,-0.0557c0.2227,0.1113,0.1113,0.3897,0,0.3897l-0.5567,0.0557l1.7258,5.233L7.833,7.7773l-0.7794,-2.0598l-0.5567,-0.0557c-0.2227,-0.167,-0.1113,-0.3897,0.0557,-0.3897c1.0021,0.0557,1.5588,0.0557,2.5608,0c0.2227,0,0.334,0.334,0,0.3897l-0.5567,0.0557l1.7258,5.1773l0.8351,-2.8392C11.1732,6.8309,10.8392,6.6639,10.3938,5.7732zM3.1567,8c0,1.8371,1.0577,3.5072,2.7278,4.3423L3.6021,6.0515C3.268,6.7196,3.2124,7.2763,3.1567,8zM10.5052,12.1196c1.8928,-1.1691,2.2825,-2.9505,2.3381,-4.1196c0,-1.1691,-0.501,-2.1155,-0.5567,-2.2825c0.0557,0.9464,-0.1113,1.3918,-0.2227,1.8928L10.5052,12.1196zM16,8c0,4.4,-3.6,8,-8,8S0,12.4,0,8S3.6,0,8,0S16,3.6,16,8zM13.4,8c0,-2.9505,-2.2825,-5.4,-5.4,-5.4S2.6,4.9938,2.6,8s2.3938,5.4,5.4,5.4S13.4,10.9505,13.4,8z" fill="#3F7AB5"/>
    <path d="M8,13.4c-3.0062,0,-5.4,-2.3938,-5.4,-5.4s2.2825,-5.4,5.4,-5.4s5.4,2.4495,5.4,5.4S11.0062,13.4,8,13.4zM9.6144,12.5649L8.1113,8.4454l-1.4474,4.1753C7.666,12.899,8.3897,12.9546,9.6144,12.5649L9.6144,12.5649zM5.8845,12.3423L3.6021,6.0515c-0.334,0.668,-0.3897,1.2247,-0.4454,1.9485C3.1567,9.8371,4.2144,11.5072,5.8845,12.3423zM12.8433,8c0,-1.1691,-0.501,-2.1155,-0.5567,-2.2825c0.0557,0.9464,-0.1113,1.3918,-0.2227,1.8928l-1.5588,4.5093C12.3979,10.9505,12.7876,9.1691,12.8433,8L12.8433,8L12.8433,8zM7.833,7.7773l-0.7794,-2.0598l-0.5567,-0.0557c-0.2227,-0.167,-0.1113,-0.3897,0.0557,-0.3897c1.0021,0.0557,1.5588,0.0557,2.5608,0c0.2227,0,0.334,0.334,0,0.3897l-0.5567,0.0557l1.7258,5.1773l0.8351,-2.8392c0.0557,-1.2247,-0.2784,-1.3918,-0.7237,-2.2825c-0.334,-0.668,0,-1.3918,0.7237,-1.3918c-0.5567,-0.5567,-1.7258,-1.2247,-3.2289,-1.2247s-3.1175,0.7237,-4.0639,2.1711l1.6701,-0.0557c0.2227,0.1113,0.1113,0.3897,0,0.3897l-0.5567,0.0557l1.7258,5.233L7.833,7.7773L7.833,7.7773z" fill="#FFFFFF"/>
  </g>
</svg>
