<?xml version="1.0" encoding="UTF-8"?>
<!DOCTYPE svg PUBLIC "-//W3C//DTD SVG 1.1//EN" "http://www.w3.org/Graphics/SVG/1.1/DTD/svg11.dtd">
<svg version="1.1" id="Layer_1" xmlns="http://www.w3.org/2000/svg" xmlns:xlink="http://www.w3.org/1999/xlink" x="0px" y="0px" width="16px" height="16px" viewBox="0 0 16 16" enable-background="new 0 0 16 16" xml:space="preserve">
  <g id="icon">
    <path d="M8,0C3.6,0,0,3.6,0,8s3.6,8,8,8s8,-3.6,8,-8S12.4,0,8,0zM4.9134,10.3093H3.2969c-0.1155,0,-0.1732,-0.0577,-0.2309,-0.1155c-0.0577,-0.0577,-0.0577,-0.1732,0,-0.2309l1.732,-3.0598l0,0L3.701,4.9979c-0.0577,-0.1155,-0.0577,-0.1732,0,-0.2309c0.0577,-0.0577,0.1155,-0.1155,0.2309,-0.1155h1.6165c0.2309,0,0.3464,0.1732,0.4619,0.2887c0,0,1.0969,1.9052,1.0969,1.9629c-0.0577,0.1155,-1.732,3.1175,-1.732,3.1175C5.2598,10.1361,5.1443,10.3093,4.9134,10.3093zM12.534,2.7464L8.9546,9.0969l0,0l2.3093,4.1567c0.0577,0.1155,0.0577,0.1732,0,0.2309c-0.0577,0.0577,-0.1155,0.1155,-0.2309,0.1155H9.4165c-0.2309,0,-0.3464,-0.1732,-0.4619,-0.2887L6.6454,9.0969c0.1155,-0.2309,3.5794,-6.4082,3.5794,-6.4082c0.1155,-0.1732,0.1732,-0.2887,0.4619,-0.2887l0,0l0,0h1.6165c0.1155,0,0.1732,0.0577,0.2309,0.1155C12.5918,2.5732,12.5918,2.6887,12.534,2.7464z" fill="#EAB765"/>
    <path d="M3.932,4.6515c-0.1155,0,-0.1732,0.0577,-0.2309,0.1155c-0.0577,0.0577,-0.0577,0.1732,0,0.2309l1.0969,1.9052l0,0L3.066,9.9629c-0.0577,0.1155,-0.0577,0.1732,0,0.2309c0.0577,0.0577,0.1155,0.1155,0.2309,0.1155h1.6165c0.2309,0,0.3464,-0.1732,0.4619,-0.2887c0,0,1.6742,-3.0021,1.732,-3.1175L6.0103,4.9402c-0.0577,-0.1155,-0.2309,-0.2887,-0.4619,-0.2887H3.932L3.932,4.6515zM10.6866,2.4c-0.2309,0,-0.3464,0.1732,-0.4619,0.2887c0,0,-3.4639,6.1773,-3.5794,6.4082l2.3093,4.2144c0.0577,0.1155,0.2309,0.2887,0.4619,0.2887h1.6165c0.1155,0,0.1732,-0.0577,0.2309,-0.1155c0.0577,-0.0577,0.0577,-0.1732,0,-0.2309L8.9546,9.0969l0,0l3.5794,-6.3505c0.0577,-0.1155,0.0577,-0.1732,0,-0.2309c-0.0577,-0.0577,-0.1155,-0.1155,-0.2309,-0.1155H10.6866L10.6866,2.4L10.6866,2.4L10.6866,2.4z" fill="#FFFFFF"/>
  </g>
</svg>
