<?xml version="1.0" encoding="UTF-8"?>
<!DOCTYPE svg PUBLIC "-//W3C//DTD SVG 1.1//EN" "http://www.w3.org/Graphics/SVG/1.1/DTD/svg11.dtd">
<svg version="1.1" id="Layer_1" xmlns="http://www.w3.org/2000/svg" xmlns:xlink="http://www.w3.org/1999/xlink" x="0px" y="0px" width="16px" height="16px" viewBox="0 0 16 16" enable-background="new 0 0 16 16" xml:space="preserve">
  <g id="icon">
    <path d="M8,0C3.6,0,0,3.6,0,8s3.6,8,8,8s8,-3.6,8,-8S12.4,0,8,0zM11.6543,6.3264c-0.2861,0.0572,-2.975,2.1168,-3.1466,2.6317c0,0.1716,0,1.888,0.0572,2.1168c0.1716,0.0572,1.4303,0,1.6591,0.0572l-0.0572,0.5149c-0.2288,0,-1.7736,0,-2.6889,0c-0.4577,0,-2.0024,0,-2.4601,0l0.1144,-0.5149c0.2861,0,1.3159,0.0572,1.5447,-0.1716c0.1144,-0.1144,0.1144,-1.7163,0.0572,-2.0024c-0.1144,-0.3433,-2.4601,-3.2611,-3.0322,-3.7188H2.1v-0.7438h5.3207v0.0572v0.1144v0.5721H5.8188c0.6865,1.0298,1.7163,2.2885,2.174,2.9178l2.1168,-1.8308H8.851l-0.1716,-0.7438h4.6341l-0.0572,0.0572l-0.3433,0.4577l-0.1144,0.1716h-0.8582C11.826,6.2692,11.7115,6.3264,11.6543,6.3264zM13.0846,11.6471l-0.4005,0.0572l-0.3433,-0.0572v-0.801l0.4577,0.0572h0.4005L13.0846,11.6471zM13.1418,10.3313l-0.6865,-0.0572V6.9558c0.1716,0.0572,1.4303,0.1716,1.5447,0.1716L13.1418,10.3313z" fill="#8155A3"/>
    <path d="M13.0846,11.6471l0.1144,-0.7438h-0.4005l-0.4577,-0.0572v0.801l0.3433,0.0572L13.0846,11.6471zM6.7341,8.9582c0.0572,0.2861,0.0572,1.888,-0.0572,2.0024c-0.2288,0.2288,-1.2587,0.1716,-1.5447,0.1716l-0.1144,0.5149c0.4577,0,2.0024,0,2.4601,0c0.9154,0,2.4601,0,2.6889,0l0.0572,-0.5149c-0.2288,-0.0572,-1.4875,0,-1.6591,-0.0572c-0.0572,-0.2288,-0.0572,-1.9452,-0.0572,-2.1168c0.1716,-0.5149,2.8606,-2.5745,3.1466,-2.6317c0.0572,0,0.1716,-0.0572,0.2861,-0.0572h0.8582l0.1144,-0.1716l0,0l0.3433,-0.4577l0,0l0.0572,-0.0572H8.6793l0.1716,0.7438h1.2587L7.9928,8.1572c-0.4577,-0.6293,-1.4875,-1.888,-2.174,-2.9178h1.6019v-0.5721v-0.1144l0,0v-0.0572H2.1v0.7438h1.6019C4.274,5.6971,6.6197,8.6149,6.7341,8.9582zM12.4553,6.9558v3.3183l0.6865,0.0572L14,7.1274C13.8856,7.1274,12.6269,7.013,12.4553,6.9558z" fill="#FFFFFF"/>
  </g>
</svg>
