<?xml version="1.0" encoding="UTF-8"?>
<!DOCTYPE svg PUBLIC "-//W3C//DTD SVG 1.1//EN" "http://www.w3.org/Graphics/SVG/1.1/DTD/svg11.dtd">
<svg version="1.1" id="Layer_1" xmlns="http://www.w3.org/2000/svg" xmlns:xlink="http://www.w3.org/1999/xlink" x="0px" y="0px" width="16px" height="16px" viewBox="0 0 16 16" enable-background="new 0 0 16 16" xml:space="preserve">
  <g id="icon">
    <path d="M8,0C3.6,0,0,3.6,0,8s3.6,8,8,8s8,-3.6,8,-8S12.4,0,8,0zM7.1762,2.0658c0.2865,0,0.5731,0,0.8596,0.0573c0.1146,0.0573,0.1719,0.1146,0.1719,0.2292v4.9856v0.0573c-0.0573,0.2292,-0.2292,0.4011,-0.4584,0.4011c-0.1146,0,-0.2292,-0.0573,-0.3438,-0.1719l-2.9799,-4.126c-0.0573,-0.0573,-0.0573,-0.2292,-0.0573,-0.2865C4.9986,2.6962,5.8582,2.0658,7.1762,2.0658zM4.0244,10.3178c-0.1146,0,-0.1719,-0.0573,-0.1719,-0.1146c-0.3438,-0.9742,-0.3438,-2.0057,0,-2.9799c0,-0.0573,0.0573,-0.1146,0.1146,-0.1146c0.0573,0,0.1146,0,0.1719,0l3.0372,1.1461c0.0573,0,0.0573,0.0573,0.1146,0.0573c0.2865,0.3438,0.2865,0.6304,0.0573,0.9169c-0.1146,0,-0.1146,0,-0.1719,0l-3.0945,1.0888H4.0244zM8.0931,13.5842c-0.1146,0,-0.2292,0,-0.3438,0c-1.0888,0,-1.8911,-0.4011,-2.4641,-1.2034c-0.0573,-0.1146,-0.0573,-0.2292,0,-0.2865l2.063,-2.3495c0,0,0.0573,-0.0573,0.1146,-0.0573s0.1719,0,0.2292,0c0.3438,0,0.4584,0.1719,0.5157,0.3438l0.0573,3.3237C8.265,13.4696,8.2077,13.5842,8.0931,13.5842zM8.6661,7.739l1.9484,-2.636c0.0573,-0.1146,0.1719,-0.1146,0.2865,-0.0573c0.9169,0.5731,1.6046,1.6046,1.7765,2.7507c0,0.0573,0,0.1146,-0.0573,0.1719c0,0,-0.0573,0.0573,-0.1146,0.0573l-3.3237,0.5157c-0.0573,0,-0.0573,0,-0.0573,0h-0.0573c-0.3438,-0.1146,-0.4584,-0.3438,-0.4584,-0.6877C8.6088,7.7963,8.6661,7.7963,8.6661,7.739zM12.6775,10.547c-0.2865,1.1461,-1.0315,2.063,-1.9484,2.4641c-0.0573,0,-0.0573,0,-0.1146,0s-0.1146,-0.0573,-0.1719,-0.1146l-1.7192,-2.8653V9.974c-0.0573,-0.3438,0.1146,-0.6304,0.4584,-0.6877c0.0573,0,0.0573,0,0.1146,0l3.2664,0.9742C12.6775,10.2605,12.7348,10.3751,12.6775,10.547z" fill="#CE4D32"/>
    <path d="M7.1762,9.229l-3.0945,1.0888h-0.0573c-0.1146,0,-0.1719,-0.0573,-0.1719,-0.1146c-0.3438,-0.9742,-0.3438,-2.0057,0,-2.9799c0,-0.0573,0.0573,-0.1146,0.1146,-0.1146c0.0573,0,0.1146,0,0.1719,0l3.0372,1.1461c0.0573,0,0.0573,0.0573,0.1146,0.0573c0.2865,0.3438,0.2865,0.6304,0.0573,0.9169C7.2335,9.229,7.2335,9.229,7.1762,9.229zM7.4054,7.6244C7.4054,7.6244,7.4627,7.6817,7.4054,7.6244c0.1146,0.1146,0.2292,0.1719,0.3438,0.1719c0.2292,0,0.4011,-0.1719,0.4584,-0.4011v-0.0573V2.3523c0,-0.1146,-0.0573,-0.1719,-0.1719,-0.2292c-0.2865,-0.0573,-0.5731,-0.0573,-0.8596,-0.0573c-1.318,0,-2.1776,0.6304,-2.808,1.1461c0,0.0573,0,0.2292,0.0573,0.2865L7.4054,7.6244zM8.2077,10.0313c-0.0573,-0.1719,-0.1719,-0.3438,-0.5157,-0.3438c-0.0573,0,-0.1719,0,-0.2292,0s-0.1146,0.0573,-0.1146,0.0573l-2.063,2.3495c-0.0573,0.0573,-0.0573,0.1719,0,0.2865c0.5731,0.8023,1.3753,1.2034,2.4641,1.2034c0.1146,0,0.2292,0,0.3438,0c0.1146,0,0.1719,-0.1146,0.1719,-0.2292L8.2077,10.0313C8.2077,10.0886,8.2077,10.0313,8.2077,10.0313zM9.0673,8.5413h0.0573c0,0,0,0,0.0573,0l3.3237,-0.5157c0.0573,0,0.1146,-0.0573,0.1146,-0.0573c0.0573,-0.0573,0.0573,-0.1146,0.0573,-0.1719c-0.1719,-1.1461,-0.8596,-2.1776,-1.7765,-2.7507c-0.1146,-0.0573,-0.2292,-0.0573,-0.2865,0.0573L8.6661,7.739c0,0.0573,-0.0573,0.0573,-0.0573,0.1146C8.6088,8.1975,8.7234,8.4267,9.0673,8.5413zM12.5629,10.2605l-3.2664,-0.9742c-0.0573,0,-0.0573,0,-0.1146,0c-0.3438,0.0573,-0.5157,0.3438,-0.4584,0.6877v0.0573l1.7192,2.8653c0.0573,0.0573,0.1146,0.1146,0.1719,0.1146s0.0573,0,0.1146,0c0.9169,-0.4011,1.6619,-1.318,1.9484,-2.4641C12.7348,10.3751,12.6775,10.2605,12.5629,10.2605z" fill="#FFFFFF"/>
  </g>
</svg>
