<?xml version="1.0" encoding="UTF-8"?>
<!DOCTYPE svg PUBLIC "-//W3C//DTD SVG 1.1//EN" "http://www.w3.org/Graphics/SVG/1.1/DTD/svg11.dtd">
<svg version="1.1" id="Layer_1" xmlns="http://www.w3.org/2000/svg" xmlns:xlink="http://www.w3.org/1999/xlink" x="0px" y="0px" width="16px" height="16px" viewBox="0 0 16 16" enable-background="new 0 0 16 16" xml:space="preserve">
  <g id="icon">
    <path d="M7.3697,9.1833h0.5685v2.9237h-0.5685v-0.3436c-0.0812,0.1166,-0.2145,0.2061,-0.3278,0.2663c-0.1125,0.0628,-0.2228,0.0925,-0.3293,0.0925c-0.1304,0,-0.2303,-0.0427,-0.2964,-0.1289c-0.0654,-0.0862,-0.1022,-0.2135,-0.1022,-0.3862V9.1833h0.5685v2.225c0,0.0683,0.0119,0.1174,0.0345,0.1474c0.0245,0.0316,0.0629,0.0461,0.1157,0.0461c0.0405,0,0.0963,-0.0201,0.1602,-0.0605c0.0631,-0.0409,0.0957,-0.0925,0.1769,-0.1549V9.1833zM4.1212,8.7772h0.6497v3.3297h0.6497V8.7772h0.6497v-0.5685H4.1212V8.7772zM8.0326,5.9667c0.0858,0,0.1646,-0.0241,0.2154,-0.0728c0.0501,-0.049,0.0962,-0.1159,0.0962,-0.2009V3.9624c0,-0.0691,-0.0443,-0.1244,-0.0967,-0.1682c-0.0516,-0.0427,-0.1375,-0.0635,-0.2215,-0.0635c-0.0776,0,-0.1364,0.0208,-0.1858,0.0635c-0.0472,0.0438,-0.0645,0.0992,-0.0645,0.1682V5.693c0,0.0869,0.0205,0.1538,0.0655,0.2017C7.8862,5.9437,7.9483,5.9667,8.0326,5.9667zM9.9685,11.4572h0.0045c0,0.2436,-0.0442,0.3738,-0.1326,0.483c-0.0876,0.1092,-0.2161,0.1695,-0.3829,0.1695c-0.111,0,-0.2132,-0.017,-0.2997,-0.0594c-0.0854,-0.0416,-0.1639,-0.1028,-0.2451,-0.1916v0.2482h-0.5685V8.2087h0.5685v1.2219c0.0812,-0.0876,0.1619,-0.1545,0.2458,-0.1998c0.0862,-0.0468,0.1749,-0.0691,0.2626,-0.0691c0.1783,0,0.3136,0.0609,0.4072,0.1838c0.0943,0.1229,0.1402,0.3027,0.1402,0.5389V11.4572zM9.4,9.9168c0,-0.098,-0.0236,-0.1712,-0.0626,-0.2217c-0.0416,-0.0501,-0.1028,-0.0754,-0.179,-0.0754c-0.0401,0,-0.0864,0.0089,-0.1254,0.0279c-0.039,0.0186,-0.0391,0.0486,-0.1203,0.0884v1.796c0.0812,0.0464,0.0947,0.0821,0.1382,0.1029c0.0435,0.0197,0.0905,0.0308,0.1384,0.0308c0.0687,0,0.1241,-0.0204,0.1568,-0.0617c0.0319,-0.0409,0.054,-0.1066,0.054,-0.1987V9.9168zM11.6776,9.3441c0.1385,0.146,0.1589,0.3554,0.1589,0.6284v0.7538h-0.9746v0.5245c0,0.1515,0.012,0.257,0.0488,0.316c0.0371,0.0591,0.0976,0.0876,0.1885,0.0876c0.0936,0,0.1575,-0.0249,0.195,-0.0746c0.0364,-0.0505,0.055,-0.1593,0.055,-0.329v-0.1184h0.4873v0.1351c0,0.2956,-0.0246,0.5181,-0.1672,0.6681c-0.14,0.1486,-0.3283,0.2228,-0.6091,0.2228c-0.2533,0,-0.4289,-0.0791,-0.573,-0.2377c-0.1445,-0.1571,-0.1938,-0.3755,-0.1938,-0.6533v-1.295c0,-0.2492,0.0673,-0.4542,0.2274,-0.6113c0.159,-0.1571,0.3573,-0.2358,0.6102,-0.2358C11.3891,9.1253,11.5387,9.1985,11.6776,9.3441zM11.3491,9.9673c0,-0.1207,-0.0204,-0.2076,-0.0594,-0.2585c-0.0375,-0.0531,-0.1029,-0.0795,-0.1894,-0.0795c-0.0891,0,-0.1483,0.0264,-0.1869,0.0798c-0.0397,0.0509,-0.0515,0.1374,-0.0515,0.2585v0.2714h0.4873V9.9673zM16,8c0,4.4,-3.6,8,-8,8S0,12.4,0,8S3.6,0,8,0S16,3.6,16,8zM9.4812,5.9155c0,0.1894,0.0297,0.3309,0.1037,0.4245c0.0746,0.0951,0.1801,0.143,0.3272,0.143c0.1196,0,0.2279,-0.0345,0.3542,-0.1018c0.1278,-0.068,0.2707,-0.1668,0.3519,-0.2964v0.3372h0.6497v0.0141l0.0079,-0.0141h-0.0079V3.2547h-0.6497v2.4168c0,0.0691,-0.1126,0.1255,-0.1835,0.1708c-0.0724,0.0446,-0.1254,0.0668,-0.1718,0.0668c-0.0594,0,-0.084,-0.0167,-0.1104,-0.0513c-0.026,-0.0334,-0.0216,-0.0876,-0.0216,-0.1623V3.2547h-0.6497V5.9155zM7.1261,5.6329c0,0.27,0.075,0.4839,0.2403,0.644c0.1675,0.1593,0.3853,0.2399,0.6631,0.2399c0.2878,0,0.4933,-0.0776,0.6586,-0.2321c0.163,-0.1552,0.2248,-0.3673,0.2248,-0.6391V4.0051c0,-0.2418,-0.065,-0.4408,-0.2321,-0.5942c-0.1682,-0.153,-0.3691,-0.2303,-0.6325,-0.2303c-0.2882,0,-0.5043,0.0728,-0.6755,0.2184c-0.1697,0.1456,-0.2466,0.3409,-0.2466,0.5879V5.6329zM4.6608,2.1989l0.841,2.5322V6.422h0.7309V4.6502l0.8246,-2.4512h-0.7268l-0.4419,1.6243h-0.0449l-0.4642,-1.6243H4.6608zM12.7887,9.5255c-0.0364,-0.5231,-0.0427,-1.1918,-0.4017,-1.7296c-0.1669,-0.2094,-0.4513,-0.3718,-0.7545,-0.426c-0.3795,-0.0685,-1.9983,-0.1227,-3.6666,-0.1227c-1.6721,0,-3.2873,0.0542,-3.6664,0.1227c-0.2427,0.0433,-0.4588,0.1479,-0.6446,0.3104c-0.3935,0.3474,-0.4222,0.9428,-0.4814,1.4443c-0.0718,0.9082,-0.058,1.1539,0,2.1481c0.0379,0.4405,0.0644,0.6209,0.1327,0.8376c0.0795,0.2602,0.182,0.4477,0.3109,0.5706c0.1668,0.1624,0.3942,0.2744,0.6559,0.3248c0.3868,0.0759,1.0162,0.105,2.8588,0.1373v0c1.5367,0.0234,2.8908,-0.0014,4.4853,-0.1156c0.2548,-0.0416,0.4903,-0.1563,0.6749,-0.3286c0.1178,-0.112,0.1858,-0.213,0.2655,-0.4045c0.1289,-0.3033,0.1745,-0.5957,0.2312,-1.4224C12.8038,10.6228,12.8038,9.7748,12.7887,9.5255z" fill="#CE4D32"/>
    <path d="M12.5575,12.2945c0.1289,-0.3033,0.1745,-0.5957,0.2312,-1.4224c0.0151,-0.2492,0.0151,-1.0973,0,-1.3465c-0.0364,-0.5231,-0.0427,-1.1918,-0.4017,-1.7296c-0.1669,-0.2094,-0.4513,-0.3718,-0.7545,-0.426c-0.3795,-0.0685,-1.9983,-0.1227,-3.6666,-0.1227c-1.6721,0,-3.2873,0.0542,-3.6664,0.1227c-0.2427,0.0432,-0.4588,0.1479,-0.6446,0.3104c-0.3935,0.3474,-0.4222,0.9428,-0.4814,1.4443c-0.0718,0.9082,-0.058,1.1539,0,2.1481c0.0379,0.4405,0.0644,0.6209,0.1327,0.8376c0.0795,0.2602,0.182,0.4477,0.3109,0.5706c0.1668,0.1624,0.3942,0.2744,0.6559,0.3248c0.3868,0.0759,1.0162,0.105,2.8588,0.1373v0c1.5367,0.0234,2.8908,-0.0014,4.4853,-0.1156c0.2548,-0.0416,0.4903,-0.1563,0.6749,-0.3286C12.4098,12.587,12.4778,12.4859,12.5575,12.2945zM6.0703,8.7772h-0.6497v3.3297h-0.6497V8.7772h-0.6497v-0.5685h1.9491V8.7772zM7.9382,12.1069h-0.5685v-0.3436c-0.0812,0.1166,-0.2145,0.2061,-0.3278,0.2663c-0.1125,0.0628,-0.2228,0.0925,-0.3293,0.0925c-0.1304,0,-0.2303,-0.0427,-0.2964,-0.1289c-0.0654,-0.0862,-0.1022,-0.2135,-0.1022,-0.3862V9.1833h0.5685v2.225c0,0.0683,0.0119,0.1174,0.0345,0.1474c0.0245,0.0316,0.0629,0.0461,0.1157,0.0461c0.0405,0,0.0963,-0.0201,0.1602,-0.0605c0.0631,-0.0409,0.0957,-0.0925,0.1769,-0.1549V9.1833h0.5685V12.1069zM9.9685,11.4572h0.0045c0,0.2436,-0.0442,0.3738,-0.1326,0.483c-0.0876,0.1092,-0.2161,0.1695,-0.3829,0.1695c-0.111,0,-0.2132,-0.017,-0.2997,-0.0594c-0.0854,-0.0416,-0.1639,-0.1028,-0.2451,-0.1916v0.2482h-0.5685V8.2087h0.5685v1.2219c0.0812,-0.0876,0.1619,-0.1545,0.2458,-0.1998c0.0862,-0.0468,0.1749,-0.0691,0.2626,-0.0691c0.1783,0,0.3136,0.0609,0.4072,0.1838c0.0943,0.1229,0.1402,0.3027,0.1402,0.5389V11.4572zM10.9106,11.5668c0.0371,0.0591,0.0976,0.0876,0.1885,0.0876c0.0936,0,0.1575,-0.0249,0.195,-0.0746c0.0364,-0.0505,0.055,-0.1593,0.055,-0.329v-0.1184h0.4873v0.1351c0,0.2956,-0.0246,0.5181,-0.1672,0.6681c-0.14,0.1486,-0.3283,0.2228,-0.6091,0.2228c-0.2533,0,-0.4289,-0.0791,-0.573,-0.2377c-0.1445,-0.1571,-0.1938,-0.3755,-0.1938,-0.6533v-1.295c0,-0.2492,0.0673,-0.4542,0.2274,-0.6113c0.159,-0.1571,0.3573,-0.2358,0.6102,-0.2358c0.2581,0,0.4077,0.0732,0.5466,0.2187c0.1385,0.146,0.1589,0.3554,0.1589,0.6284v0.7538h-0.9746v0.5245C10.8619,11.4023,10.8739,11.5078,10.9106,11.5668zM11.3491,10.239h-0.4873v-0.2714c0,-0.1211,0.0118,-0.2076,0.0515,-0.2585c0.0386,-0.0535,0.0978,-0.0798,0.1869,-0.0798c0.0865,0,0.1519,0.0264,0.1894,0.0795c0.039,0.0509,0.0594,0.1378,0.0594,0.2585V10.239zM9.3374,9.6951C9.3764,9.7456,9.4,9.8187,9.4,9.9168v1.4885c0,0.0921,-0.022,0.1578,-0.054,0.1987c-0.0327,0.0412,-0.088,0.0617,-0.1568,0.0617c-0.0479,0,-0.0949,-0.0111,-0.1384,-0.0308c-0.0435,-0.0208,-0.057,-0.0564,-0.1382,-0.1029v-1.796c0.0812,-0.0397,0.0813,-0.0698,0.1203,-0.0884c0.039,-0.0189,0.0853,-0.0279,0.1254,-0.0279C9.2346,9.6197,9.2958,9.6449,9.3374,9.6951zM4.6608,2.1989l0.8411,2.5322V6.422h0.7309V4.6502l0.8246,-2.4512h-0.7268l-0.4419,1.6243h-0.0449l-0.4642,-1.6243H4.6608zM7.3726,3.399c-0.1697,0.1456,-0.2466,0.3409,-0.2466,0.5879v1.646c0,0.27,0.075,0.4839,0.2403,0.644c0.1675,0.1593,0.3853,0.2399,0.6631,0.2399c0.2878,0,0.4933,-0.0776,0.6586,-0.2321c0.163,-0.1552,0.2248,-0.3673,0.2248,-0.6392V4.0051c0,-0.2418,-0.065,-0.4408,-0.2321,-0.5942c-0.1682,-0.153,-0.3691,-0.2303,-0.6325,-0.2303C7.76,3.1806,7.5438,3.2534,7.3726,3.399zM8.3443,3.9624V5.693c0,0.085,-0.0461,0.1519,-0.0962,0.2009c-0.0509,0.0487,-0.1296,0.0728,-0.2154,0.0728c-0.0843,0,-0.1464,-0.023,-0.1914,-0.072c-0.0449,-0.0479,-0.0655,-0.1148,-0.0655,-0.2017V3.9624c0,-0.0691,0.0173,-0.1244,0.0645,-0.1682c0.0494,-0.0427,0.1082,-0.0635,0.1858,-0.0635c0.0839,0,0.1698,0.0208,0.2215,0.0635C8.2999,3.838,8.3443,3.8933,8.3443,3.9624zM11.2679,6.4362V3.2547h-0.6497v2.4168c0,0.0691,-0.1126,0.1255,-0.1835,0.1708c-0.0724,0.0446,-0.1254,0.0668,-0.1718,0.0668c-0.0594,0,-0.084,-0.0167,-0.1104,-0.0513c-0.026,-0.0334,-0.0216,-0.0876,-0.0216,-0.1623V3.2547h-0.6497v2.6608c0,0.1894,0.0297,0.3309,0.1037,0.4245c0.0746,0.0951,0.1801,0.143,0.3272,0.143c0.1196,0,0.2279,-0.0345,0.3542,-0.1018c0.1278,-0.068,0.2707,-0.1668,0.3519,-0.2964v0.3372h0.6576L11.2679,6.4362z" fill="#FFFFFF"/>
  </g>
</svg>
